<svg width="320" height="200" viewBox="0 0 320 200" fill="none" xmlns="http://www.w3.org/2000/svg">
<rect width="320" height="200" fill="white"/>
<path opacity="0.2" fill-rule="evenodd" clip-rule="evenodd" d="M207.84 26.5001C228.823 35.5294 257.037 37.1599 267.908 55.7638C278.82 74.4394 279.265 114.512 258.581 113.336C237.896 112.16 224.12 119.279 234.97 149.992C245.819 180.706 223.083 171.717 203.451 180.706C183.246 189.958 159.992 203.185 137.342 194.697C113.861 185.897 61.0282 174.928 77.0427 153.705C93.0572 132.483 52.2361 88.3926 93.0571 92.7847C133.878 97.1768 108.614 68.6066 115.976 55.6667C126.151 37.78 123.148 9.3349 144.362 2.59978C165.022 -3.95972 186.546 17.337 207.84 26.5001Z" fill="#27AE60"/>
<path opacity="0.7" fill-rule="evenodd" clip-rule="evenodd" d="M179.429 80.3408C187.723 95.9984 204.094 110.638 201.476 127.248C198.847 143.923 200.144 113.563 186.885 121.809C176.941 127.993 145.563 164.598 134.624 168.824C119.669 174.6 116.733 160.722 100.314 156.714C83.4155 152.589 62.5498 165.026 52.9719 148.892C43.0429 132.166 51.0615 113.048 56.0076 95.5555C60.9139 78.2044 61.8783 73.6284 76.6137 65.2828C86.8124 59.5067 98.0943 58.0512 109.003 53.7144C124.082 47.7196 143.767 20.2973 160.03 26.4458C175.868 32.4341 171.012 64.4511 179.429 80.3408Z" fill="#BB6BD9"/>
<path fill-rule="evenodd" clip-rule="evenodd" d="M165.944 26.5656C165.966 26.5656 166.104 26.3699 166.248 26.4116C167.542 26.7773 167.82 29.0646 167.312 30.5307C166.778 32.0705 164.535 32.9463 163.208 33.7355C155.807 38.1368 148.003 42.4901 141.33 48.072C139.576 49.5413 137.671 51.3506 136.316 54.0197C135.833 54.966 135.683 56.1209 134.948 56.1562C133.485 56.2236 132.945 50.4556 133.123 48.8355C133.299 47.2572 135.031 45.4703 136.313 44.1069C141.8 38.2812 148.156 33.7675 155.913 30.2291C159.06 28.7919 162.304 27.1558 165.637 26.5688C165.73 26.5463 165.848 26.5592 165.944 26.5656Z" fill="#10D078"/>
<path fill-rule="evenodd" clip-rule="evenodd" d="M167.462 30.9863C168.223 34.9642 166.49 38.4705 165.03 41.5117C164.196 43.2505 163.218 44.6363 161.991 46.0863C159.795 48.6848 156.874 51.7934 154.241 53.561C153.218 54.2475 151.886 54.6966 150.595 55.3927C149.412 56.0311 148.31 56.7946 146.948 57.2245C144.216 58.0843 135.594 59.5952 134.488 56.615C133.491 53.9267 136.818 49.474 137.984 48.0753C139.48 46.2756 141.554 44.6812 143.606 42.8912C148.144 38.9325 153.455 34.73 159.559 32.2149C161.719 31.3167 164.909 29.9822 167.462 30.9863Z" fill="black"/>
<path fill-rule="evenodd" clip-rule="evenodd" d="M125.224 124.179C134.316 123.502 140.646 127.528 144.52 132.872C146.226 135.227 147.859 138.105 148.773 140.347C153.123 150.998 149.294 166.085 145.28 173.595C140.79 181.993 132.74 189.15 120.209 189.15C114.176 189.15 108.654 186.802 105.167 184.117C104.074 183.277 103.179 181.945 102.128 180.762C101.073 179.571 100.114 178.561 99.3922 177.255C97.8902 174.538 96.7109 171.426 95.896 168.257C93.2595 157.962 95.8481 144.328 100.607 137.293C105.371 130.248 113.214 124.195 124.917 124.176C125.019 124.179 125.125 124.185 125.224 124.179Z" fill="#FFDF69"/>
<mask id="path-7-outside-1" maskUnits="userSpaceOnUse" x="115.56" y="138.114" width="22" height="40" fill="black">
<rect fill="white" x="115.56" y="138.114" width="22" height="40"/>
<path fill-rule="evenodd" clip-rule="evenodd" d="M126.471 140.114L126.471 140.114V140.114L135.382 158.39L126.471 164.9V164.9L117.56 158.39H117.56L126.471 140.114L126.471 140.114V140.114ZM126.471 176L126.471 176L117.56 160.478L126.471 166.986V166.986L135.388 160.478L126.471 176Z"/>
</mask>
<path d="M126.471 140.114H127.971C127.971 139.478 127.571 138.911 126.971 138.699C126.372 138.487 125.704 138.676 125.305 139.17L126.471 140.114ZM126.471 140.114H124.971C124.971 140.749 125.372 141.316 125.971 141.528C126.57 141.74 127.238 141.551 127.637 141.057L126.471 140.114ZM126.471 140.114H124.971C124.971 140.342 125.023 140.566 125.123 140.771L126.471 140.114ZM135.382 158.39L136.267 159.601C136.854 159.172 137.049 158.385 136.731 157.732L135.382 158.39ZM126.471 164.9L125.586 163.689C125.2 163.972 124.971 164.422 124.971 164.9H126.471ZM126.471 164.9L125.586 166.112C126.042 166.445 126.647 166.494 127.15 166.238C127.654 165.982 127.971 165.465 127.971 164.9H126.471ZM117.56 158.39L118.445 157.179C118.188 156.991 117.878 156.89 117.56 156.89V158.39ZM117.56 158.39L116.211 157.732C115.985 158.197 116.014 158.746 116.288 159.185C116.562 159.623 117.042 159.89 117.56 159.89V158.39ZM126.471 140.114L127.819 140.771C127.861 140.686 127.894 140.596 127.919 140.504L126.471 140.114ZM126.471 140.114H127.971C127.971 139.361 127.414 138.725 126.668 138.627C125.922 138.528 125.219 138.997 125.023 139.723L126.471 140.114ZM126.471 176L127.898 175.538C127.866 175.439 127.824 175.343 127.772 175.253L126.471 176ZM126.471 176L125.044 176.461C125.226 177.026 125.724 177.43 126.315 177.492C126.905 177.554 127.476 177.262 127.772 176.747L126.471 176ZM117.56 160.478L118.444 159.267C117.872 158.849 117.086 158.889 116.559 159.361C116.031 159.834 115.906 160.611 116.259 161.225L117.56 160.478ZM126.471 166.986H127.971C127.971 166.507 127.742 166.057 127.356 165.774L126.471 166.986ZM126.471 166.986H124.971C124.971 167.551 125.288 168.067 125.792 168.323C126.295 168.579 126.899 168.53 127.355 168.198L126.471 166.986ZM135.388 160.478L136.688 161.226C137.041 160.611 136.916 159.834 136.389 159.362C135.862 158.889 135.075 158.849 134.503 159.267L135.388 160.478ZM125.305 139.17L125.305 139.17L127.637 141.057L127.637 141.057L125.305 139.17ZM127.971 140.114V140.114H124.971V140.114H127.971ZM136.731 157.732L127.819 139.456L125.123 140.771L134.034 159.047L136.731 157.732ZM127.356 166.112L136.267 159.601L134.497 157.179L125.586 163.689L127.356 166.112ZM127.971 164.9V164.9H124.971V164.9H127.971ZM116.675 159.601L125.586 166.112L127.356 163.689L118.445 157.179L116.675 159.601ZM117.56 159.89H117.56V156.89H117.56V159.89ZM125.123 139.456L116.211 157.732L118.908 159.047L127.819 140.771L125.123 139.456ZM125.023 139.723L125.023 139.723L127.919 140.504L127.919 140.504L125.023 139.723ZM127.971 140.114V140.114H124.971V140.114H127.971ZM125.043 176.461L125.044 176.461L127.898 175.539L127.898 175.538L125.043 176.461ZM116.259 161.225L125.17 176.746L127.772 175.253L118.861 159.731L116.259 161.225ZM127.356 165.774L118.444 159.267L116.675 161.69L125.586 168.197L127.356 165.774ZM127.971 166.986V166.986H124.971V166.986H127.971ZM134.503 159.267L125.587 165.774L127.355 168.198L136.272 161.69L134.503 159.267ZM127.772 176.747L136.688 161.226L134.087 159.731L125.17 175.253L127.772 176.747Z" fill="#FF9900" mask="url(#path-7-outside-1)"/>
<path fill-rule="evenodd" clip-rule="evenodd" d="M127.502 127.99C132.206 127.592 138.342 130.235 140.873 132.869C143.973 136.096 146.149 141.181 146.952 147.206C147.306 149.875 147.69 152.711 147.559 155.136C147.434 157.475 146.728 159.877 146.191 162.306C144.638 169.335 141.937 174.952 137.53 179.238C135.869 180.854 133.712 182.272 131.756 183.203C127.828 185.076 121.545 185.715 116.563 183.357C113.709 182.006 110.303 178.731 108.813 176.341C104.617 169.591 103.275 158.126 105.927 148.736C108.503 139.616 114.626 132.083 122.792 129.061C124.102 128.574 125.502 128.16 127.502 127.99ZM126.285 129.363C113.249 132.086 104.793 145.688 105.774 161.542C106.369 171.141 110.408 179.488 117.777 182.439C127.895 186.488 135.412 180.242 139.809 174.66C142.337 171.449 143.801 167.378 144.823 162.915C145.363 160.561 146.034 158.078 146.191 155.899C146.37 153.378 145.913 150.664 145.584 147.969C145.271 145.419 145.098 143.212 144.216 140.799C143.392 138.547 140.944 134.675 139.352 133.328C136.783 131.143 131.133 128.689 126.591 129.363C126.492 129.376 126.384 129.344 126.285 129.363Z" fill="#FF9900"/>
<path fill-rule="evenodd" clip-rule="evenodd" d="M132.213 124.939C131.625 126.181 130.663 125.523 129.477 125.549C121.427 125.725 114.278 130.402 109.724 136.225C104.394 143.042 101.453 151.716 102.431 162.915C102.76 166.691 103.4 170.095 104.86 173.438C108.19 181.063 113.613 186.844 124.156 186.86C125.16 186.86 126.38 186.764 127.499 186.709C128.643 186.648 129.928 186.103 130.842 186.709C130.723 187.973 129.03 187.858 127.956 187.928C123.725 188.214 118.378 187.992 115.496 186.555C114.677 186.905 113.319 186.879 112.153 187.014C111.149 187.129 109.772 187.752 109.417 186.709C109.932 185.497 112.242 186.087 113.521 185.641C113.057 185.092 112.223 184.913 111.699 184.422C109.932 184.316 106.88 185.795 106.078 184.268C106.758 183.325 108.832 183.78 110.028 183.354C110.012 182.757 108.749 182.096 108.356 181.371C106.512 181.426 103.4 182.218 101.974 181.22C102.53 179.841 105.394 180.563 107.292 180.306C107.187 179.751 106.384 178.574 105.774 178.019C103.873 178.015 100.942 178.991 99.5455 178.019C100.156 176.341 103.47 177.383 105.167 176.8C104.87 175.982 104.326 175.404 104.103 174.512C102.479 174.259 99.3698 175.43 98.1777 174.358C98.8488 172.899 101.83 173.755 103.495 173.293C103.233 172.385 102.789 171.664 102.585 170.701C101.035 171.006 97.791 171.603 96.5063 170.701C97.1902 169.1 100.52 170.153 102.281 169.633C102.038 168.757 101.715 167.965 101.674 166.89C99.7021 166.579 96.3881 167.618 95.5956 166.127C96.6054 164.744 99.3889 166.078 101.367 165.671C101.463 164.356 101.105 163.496 101.217 162.162C99.4624 161.533 95.88 162.739 94.835 161.398C95.6051 159.98 98.8169 161.173 100.913 160.788C101.265 160.124 100.964 158.806 101.067 157.892C100.367 157.863 99.5935 157.927 98.7881 157.892C97.3372 157.827 95.439 157.985 95.1418 156.823C96.2219 155.697 99.2323 156.875 101.067 156.669C101.329 155.916 101.195 154.764 101.37 153.927C99.8747 153.141 96.8068 153.933 95.749 152.704C96.5671 151.197 99.7756 152.598 101.524 152.554C101.751 151.716 101.901 150.799 101.981 149.807C101.239 149.39 100.012 149.374 98.9415 149.198C98.0211 149.047 96.6246 149.118 96.5095 148.13C96.8643 147.18 98.2896 147.661 99.2451 147.825C100.322 148.008 101.441 148.341 102.284 148.434C102.655 147.437 102.917 146.324 103.195 145.233C101.671 144.527 98.8297 145.14 97.8773 143.86C98.2512 142.792 99.6829 143.279 100.613 143.401C101.699 143.542 102.773 143.866 103.652 143.86C104.167 143.363 104.304 142.48 104.716 141.877C103.035 141.48 100.849 141.589 99.7021 140.658C99.9226 139.503 101.342 140.029 102.284 140.203C103.329 140.392 104.403 140.665 105.17 140.812C105.883 139.952 106.362 138.859 106.995 137.915C105.413 137.267 102.732 137.72 101.827 136.388C102.185 135.304 103.588 136.064 104.563 136.238C105.653 136.43 106.889 136.459 107.602 136.847C108.34 136.366 108.708 135.516 109.273 134.865C107.807 134.204 105.202 134.679 104.413 133.341C104.707 132.301 106.241 132.863 107.148 133.036C108.225 133.241 109.337 133.52 110.034 133.8C110.807 133.152 111.514 132.439 112.159 131.666C110.616 131.13 108.11 131.564 107.145 130.447C108.033 128.866 111.539 130.595 113.223 130.598C113.901 130.312 114.403 129.851 114.895 129.379C113.789 128.811 111.558 129.373 111.098 128.157C111.536 127.034 112.961 127.74 113.68 127.852C114.598 127.996 115.786 128.397 116.566 128.311C117.426 128.214 118.704 127.307 119.756 126.787C121.807 125.773 123.827 124.875 126.595 124.5C127.886 124.323 129.615 124.099 131.001 124.346C131.228 124.371 131.938 124.439 132.213 124.939Z" fill="#FF9900"/>
<path fill-rule="evenodd" clip-rule="evenodd" d="M131.605 130.736C131.407 131.727 132.235 135.246 130.541 135.464C128.569 135.715 128.486 131.384 127.502 129.822C127.355 131.621 127.854 134.938 126.288 135.769C124.06 135.006 124.329 131.737 123.402 129.668C123.034 131.522 123.52 134.961 121.731 135.006C119.842 135.054 120.388 130.527 119.756 128.904C119.171 127.406 116.892 126.7 115.806 125.703C113.374 123.473 111.479 119.514 111.399 115.18C111.312 110.404 112.15 105.309 112.766 100.385C113.348 95.7269 114.035 91.0657 114.895 86.5039C116.138 79.8858 117.503 72.9726 119.756 67.134C120.497 65.2156 121.312 63.1818 122.188 61.6419C122.769 60.6186 123.702 59.9577 124.316 59.0498C124.715 58.4564 124.869 57.6704 125.227 57.0673C126.834 54.379 129.237 51.5335 131.455 49.1371C132.347 48.1747 133.191 47.2893 134.437 46.5643C134.315 47.732 134.338 49.1339 134.191 50.5101C133.836 53.84 135.098 56.3615 137.991 56.7625C142.104 57.3336 146.626 55.6365 149.387 54.3212C155.475 51.4244 160.185 46.7472 163.212 40.7482C164.813 37.5723 166.085 34.0691 166.097 29.918C166.101 28.6797 165.586 27.6595 166.248 26.5624C168.574 26.062 170.207 27.4286 171.415 28.5449C173.94 27.4446 177.168 25.9336 181.443 26.4084C183.927 26.6843 186.902 28.2915 189.343 29.764C196.544 34.1076 202.274 39.0319 208.336 44.5593C212.436 48.2966 215.645 52.0949 218.971 56.4546C220.394 58.3184 222.18 60.7533 223.378 63.3165C224.58 65.8925 225.874 69.1101 226.114 71.8562C226.341 74.49 225.82 76.9986 225.203 78.7181C222.873 85.2111 217.354 87.8513 211.985 91.8356C213.702 98.6526 214.427 108.861 212.139 115.629C211.838 116.512 211.222 117.342 211.075 118.221C210.79 119.918 211.087 121.76 210.921 123.409C209.994 132.722 207.467 141.441 204.086 148.576C203.475 149.865 202.542 151.277 202.414 152.236C202.267 153.339 202.737 154.844 202.871 156.201C203.868 166.319 204.303 180.652 197.553 184.569C196.01 185.464 194.3 185.734 191.779 186.552C190.855 186.853 186.493 188.445 185.55 186.857C184.789 185.573 186.132 184.014 186.764 183.35C187.746 182.314 188.509 181.82 189.65 181.368C187.151 174.259 182.313 166.973 181.75 157.882C181.683 156.82 181.674 155.652 181.75 154.526C182.044 150.115 183.249 145.807 184.332 141.868C185.422 137.903 186.848 134.162 187.979 130.428C187.26 130.47 186.806 130.778 186.004 130.733C181.907 139.381 177.295 147.511 173.393 156.355C173.844 159.55 174.518 163.175 175.218 166.88C175.905 170.515 176.829 174.31 176.736 177.557C176.679 179.635 175.915 181.496 174.458 182.436C172.793 183.514 169.223 183.941 167.011 184.419C165.679 184.707 164.276 184.861 162.908 185.028C161.585 185.192 160.182 185.743 158.958 185.028C158.217 182.224 160.47 181.172 162.301 180.454C160.77 177.287 158.942 173.954 157.59 170.236C155.711 165.055 154.34 159.573 154.704 152.239C154.957 147.154 156.197 142.124 157.44 137.598C158.731 132.888 160.224 128.516 161.847 124.634C161.269 123.614 160.109 123.242 159.265 122.501C156.274 119.867 153.477 116.181 152.733 111.215C149.428 108.399 146.284 105.582 144.679 100.994C144.366 100.103 144.229 98.951 143.769 97.9437C143.26 96.8337 141.889 95.9066 140.883 94.7421C138.102 91.5245 135.619 87.4888 133.74 83.6071C132.845 96.2851 130.874 107.876 128.119 118.687C128.931 120.281 130.896 121.067 132.222 122.501C133.523 123.906 134.344 125.85 134.804 128.144C135.162 129.927 135.974 134.39 134.197 134.704C132.325 135.031 132.424 131.881 131.605 130.736Z" fill="#10D078"/>
<path fill-rule="evenodd" clip-rule="evenodd" d="M168.868 79.411C168.846 79.2571 168.775 79.1319 168.68 79.0389C170.003 77.1847 170.878 74.9647 171.438 72.8186C172.265 69.6362 172.252 66.2839 172.061 62.9861C171.949 61.0484 171.537 57.7185 169.124 57.0737C166.66 56.4161 164.48 58.3184 162.812 59.746C160.128 62.0461 157.926 64.8884 156.133 67.9071C155.19 69.4951 154.209 71.5258 153.691 73.627C150.31 74.9166 148.492 79.3405 149.355 82.7762C149.441 83.1195 149.879 83.328 150.189 83.1548C150.857 82.7762 151.33 82.2373 151.831 81.6695C152.474 80.9445 153.279 80.3831 154.072 79.8185C154.455 80.5755 154.998 81.2781 155.743 81.9037C155.836 81.9806 155.938 82.0256 156.037 82.0448C155.532 83.6231 155.366 85.333 156.082 86.9081C156.178 87.1231 156.507 87.2739 156.727 87.2001C158.731 86.5328 160.009 84.9577 160.965 83.1933C161.649 83.4595 162.397 83.4242 163.138 83.2189C163.074 84.8069 163.045 86.4109 163.263 87.9989C163.323 88.4448 163.704 88.695 164.129 88.5282C167.663 87.1519 169.354 83.0393 168.868 79.411ZM151.662 80.2259C151.154 80.6397 150.774 81.1754 150.31 81.6278C150.077 79.1223 151.314 76.3634 153.423 75.0417C153.25 76.3153 153.289 77.5857 153.647 78.7662C152.979 79.241 152.301 79.7062 151.662 80.2259ZM156.897 85.9169C156.357 84.1364 157.136 82.1218 157.878 80.5691C158.658 78.9395 159.674 77.0147 161.406 76.2255C162.183 77.7621 161.013 80.4408 160.406 81.7272C159.629 83.3665 158.613 85.1245 156.897 85.9169ZM161.435 82.2662C162.253 80.5435 163.579 77.3258 162.266 75.4716C162.199 75.3786 162.119 75.3144 162.032 75.2695C161.93 75.0931 161.732 74.9808 161.464 75.0546C159.035 75.7058 157.74 78.2177 156.743 80.2868C156.632 80.521 156.523 80.7584 156.421 81.0022C152.979 77.9065 154.89 72.7641 156.625 69.4919C157.891 67.1051 159.492 64.9044 161.304 62.9026C162.924 61.1126 164.928 59.0659 167.289 58.2254C172.352 56.4289 170.926 69.3572 170.549 71.4295C170.067 74.0825 169.015 76.5527 167.436 78.7117C166.484 80.0109 163.506 82.8725 161.435 82.2662ZM164.33 87.1423C164.231 85.734 164.308 84.3289 164.199 82.9174C164.199 82.8885 164.19 82.8596 164.186 82.8308C165.027 82.4394 165.803 81.9069 166.395 81.4513C166.893 81.0696 167.35 80.6397 167.769 80.1777C167.884 82.927 166.73 85.7757 164.33 87.1423Z" fill="white"/>
<path fill-rule="evenodd" clip-rule="evenodd" d="M167.277 68.5937C166.772 66.8261 164.279 66.0401 162.729 66.6208C161.035 67.256 160.217 68.9947 160.882 70.727C161.585 72.562 163.55 73.0657 165.34 72.5267C166.538 72.1674 167.753 70.2619 167.277 68.5937ZM162.032 70.4961C161.489 69.4663 161.969 68.3242 162.911 67.811C163.908 67.2688 165.436 67.657 166.078 68.6418C166.452 69.2161 166.209 70.063 165.934 70.5955C165.72 71.0158 165.356 71.2852 164.941 71.4681C164.928 71.4713 164.915 71.4713 164.905 71.4745C163.733 71.8049 162.659 71.6894 162.032 70.4961Z" fill="white"/>
<path fill-rule="evenodd" clip-rule="evenodd" d="M162.269 86.1927C162.179 85.4806 161.035 85.4292 161.125 86.1478C161.432 88.5923 159.853 90.8026 157.862 92.0153C156.59 92.7916 155.046 93.0386 153.682 93.5968C153.791 92.5702 153.516 91.5982 152.976 90.4979C151.589 87.6684 151.311 84.778 153.906 82.6768C154.318 82.3431 153.765 81.5989 153.324 81.9004C151.375 83.2317 150.544 85.3362 150.822 87.6973C151.093 90.0038 153.321 92.0698 152.33 94.3763C152.081 94.957 152.701 95.4574 153.222 95.0885C154.19 94.4084 155.558 94.2865 156.66 93.8374C157.894 93.337 159.044 92.7306 160.013 91.8356C161.505 90.4498 162.528 88.2747 162.269 86.1927Z" fill="white"/>
<path fill-rule="evenodd" clip-rule="evenodd" d="M168.373 98.0944C166.097 94.3347 164.726 90.6551 164.423 85.7404C164.158 81.4353 165.436 76.9505 166.855 73.5372C169.392 67.4259 173.31 63.4576 179.465 60.7244C182.984 59.1653 186.32 57.9142 191.469 58.2831C197.47 58.7162 202.801 61.5521 205.904 64.6895C210.761 69.6042 212.417 79.4463 210.311 88.1785C208.684 94.9249 204.98 100.51 199.372 103.279C198.851 103.535 197.972 103.596 197.547 103.888C196.927 104.315 196.668 105.191 196.029 105.871C194.642 107.34 192.539 108.431 189.343 108.463C183.195 108.524 176.822 106.451 172.176 104.193C169.638 102.964 167.235 101.675 168.373 98.0944Z" fill="white"/>
<path fill-rule="evenodd" clip-rule="evenodd" d="M203.092 88.2716C203.533 84.3642 201.564 78.9202 200.925 77.6435C198.065 71.9332 191.149 67.8077 184.783 65.915C180.827 64.7377 176.704 64.6575 172.652 65.0552C170.175 67.3073 168.293 70.079 166.855 73.5404C165.439 76.9537 164.158 81.4385 164.423 85.7437C164.535 87.5722 164.797 89.2308 165.199 90.7866C168.322 95.3997 179.75 101.559 196.112 98.6591C199.717 98.0207 202.248 95.759 203.092 88.2716Z" fill="black"/>
<path fill-rule="evenodd" clip-rule="evenodd" d="M180.53 72.3214C180.488 73.21 179.478 73.4217 178.858 73.8484C177.621 74.6921 176.484 75.5165 175.062 76.4405C174.483 76.8158 173.719 77.6659 172.933 77.204C172.655 76.2159 173.783 76.033 174.301 75.6802C176.007 74.506 178.05 73.1587 179.772 71.869C180.245 71.7888 180.389 72.0519 180.53 72.3214ZM186.758 71.8626C182.735 74.4387 177.305 77.8841 173.083 80.4023C172.585 80.7007 171.291 81.0439 171.716 81.9293C172.431 82.5196 173.262 81.801 173.844 81.4706C177.998 79.1256 182.322 76.1806 186.151 73.6912C186.723 73.3191 187.867 73.1105 187.669 72.1674C187.592 71.7215 186.848 71.8049 186.758 71.8626Z" fill="white"/>
<path fill-rule="evenodd" clip-rule="evenodd" d="M202.798 94.9378C202.226 92.2366 201.181 89.7151 199.915 87.2706C198.701 84.9192 197.969 82.0127 196.051 80.1168C195.809 79.8762 195.524 79.8986 195.32 80.0494C195.198 80.0205 195.089 80.0398 194.962 80.0975C192.201 81.3583 189.692 82.2597 184.63 83.1483C182.821 83.4659 181.207 83.7932 179.312 84.2166C177.404 84.6433 174.742 84.9865 175.209 86.6579C175.605 88.0726 177.794 87.2161 178.702 87.7262C175.714 87.6973 175.081 91.0817 178.702 90.4722C178.021 91.1427 177.129 91.1748 177.184 92.15C177.263 93.6193 179.251 93.2151 180.83 93.523C180.178 94.001 178.797 94.0556 179.008 95.3516C179.261 96.9203 189.976 97.8153 201.928 95.9643C202.411 95.9643 202.929 95.5601 202.798 94.9378Z" fill="#10D078"/>
<path fill-rule="evenodd" clip-rule="evenodd" d="M226.111 71.8626C225.871 69.1133 224.577 65.8989 223.375 63.3229C222.177 60.7565 220.39 58.3248 218.968 56.461C215.641 52.1013 212.433 48.2998 208.333 44.5657C202.274 39.0415 196.54 34.114 189.34 29.7704C187.068 28.4006 184.336 26.9185 181.968 26.495C180.641 30.489 180.028 34.7107 179.756 38.9196C179.481 43.2151 179.369 48.6591 181.766 52.5023C181.888 52.5183 182.006 52.5761 182.115 52.6883C183.607 54.2378 185.473 55.1585 187.266 56.2909C188.87 57.3047 190.293 58.5333 191.798 59.6818C194.664 61.8664 197.902 63.8779 200.509 66.3737C202.353 68.1349 203.724 70.6339 202.638 73.226C202.309 74.0152 201.89 74.6311 201.414 75.1604C200.283 77.3868 197.768 79.0517 195.182 80.0045C197.004 81.9678 198.244 85.2175 199.193 87.6299C200.145 90.052 200.746 93.4043 202.494 95.3869C202.59 95.4959 202.641 95.6146 202.657 95.7333C203.204 95.4831 203.859 95.3484 204.328 95.1174C205.287 94.649 206.243 94.1678 207.221 93.738C208.751 93.0643 210.397 92.2751 212.072 91.7715C217.409 87.8288 222.873 85.1822 225.187 78.7309C225.817 77.005 226.338 74.4964 226.111 71.8626Z" fill="#10D078"/>
<path fill-rule="evenodd" clip-rule="evenodd" d="M154.238 19.2834C154.976 17.8976 155.663 16.4925 157.545 16.5117C160.911 16.5406 160.882 23.9254 157.156 25.2183C160.521 35.2786 160.936 40.1932 156.219 45.9644C152.627 50.3594 144.427 52.7686 138.614 49.15C136.294 47.7064 134.398 45.5987 133.005 42.6826C132.51 41.6464 131.404 38.8715 130.749 37.9252C130.378 37.3926 129.132 35.779 128.7 35.1149C127.208 32.8244 125.383 31.6984 126.467 28.2402C126.834 27.0725 127.85 25.1894 128.656 24.012C129.474 22.8187 130.934 21.4136 132.283 19.9315C134.242 17.7757 136.281 15.6841 139.598 14.9366C143.535 14.0512 147.38 14.619 150.243 15.4178C151.291 15.7097 153.33 18.7766 154.238 19.2834Z" fill="#FF7F5C"/>
<path fill-rule="evenodd" clip-rule="evenodd" d="M149.291 33.511C148.741 33.2158 148.46 33.373 148.342 33.6168C146.677 37.0879 144.059 39.0833 140.362 40.2606C139.899 40.4082 139.643 40.7675 139.806 41.2679C141.346 45.974 147.022 47.1033 150.32 43.8119C154.471 39.6767 151.694 34.807 149.291 33.511Z" fill="black"/>
<path fill-rule="evenodd" clip-rule="evenodd" d="M149.601 11.2281C148.387 10.67 146.405 10.6924 144.593 11.5489C142.276 12.6429 139.927 12.4376 137.137 12.4055C134.705 12.3766 126.329 11.7607 122.437 17.2432C121.354 18.7702 120.206 20.6918 120.599 25.4236C120.839 28.3108 123.555 33.6842 129.4 36.0581C128.442 34.7941 127.688 33.1805 127.278 31.769C132.925 29.995 140.458 22.9855 142.347 17.086C145.974 19.0878 151.01 23.7586 154.877 22.3278C154.292 17.7661 153.327 12.938 149.601 11.2281Z" fill="black"/>
<path fill-rule="evenodd" clip-rule="evenodd" d="M157.782 20.079C157.485 19.8929 157.076 19.7807 156.731 19.8544C156.894 19.3059 157.168 18.7894 157.578 18.3563C157.923 17.9906 157.415 17.4388 157.041 17.7853C155.727 19.0011 155.401 20.9965 155.938 22.6647C156.111 23.2036 156.974 23.0047 156.795 22.4658C156.593 21.8659 156.529 21.2275 156.59 20.6083C156.916 20.5313 157.146 20.541 157.456 20.7623C157.76 20.9805 158.038 21.3622 158.162 21.7151C158.335 22.2027 159.118 22.0359 158.955 21.5322C158.757 20.9259 158.322 20.4158 157.782 20.079Z" fill="black"/>
<path fill-rule="evenodd" clip-rule="evenodd" d="M134.063 34.5087C133.037 35.2529 132.9 37.043 133.347 38.1209C133.51 38.5122 134.162 38.3679 134.082 37.9316C133.926 37.0622 133.852 36.1223 134.44 35.3844C135.121 34.5311 135.635 36.103 135.933 36.4752C136.208 36.8216 136.748 36.5939 136.712 36.1608C136.617 34.9385 135.21 33.6778 134.063 34.5087Z" fill="black"/>
<path fill-rule="evenodd" clip-rule="evenodd" d="M145.616 26.5111C144.095 27.2104 144.504 29.1898 144.74 30.3799C144.846 30.9157 145.696 30.8162 145.67 30.2677C145.629 29.4689 145.319 28.3781 145.82 27.6403C146.14 27.1719 146.709 27.2874 147.08 27.5826C147.505 27.9194 147.655 28.468 147.907 28.9043C148.166 29.3502 148.997 29.2218 148.917 28.6572C148.725 27.2842 147.243 25.7636 145.616 26.5111Z" fill="black"/>
<path fill-rule="evenodd" clip-rule="evenodd" d="M143.107 35.0316C142.41 35.054 142.014 35.8785 141.423 36.2827C140.819 34.576 140.499 32.7892 139.94 31.0697C139.79 30.6077 139.093 30.797 139.215 31.2686C139.71 33.1838 140.052 35.1471 140.761 37.0013C140.851 37.2355 141.046 37.3574 141.298 37.306C142.017 37.1617 143.35 36.3148 143.497 35.5416C143.542 35.2914 143.385 35.0219 143.107 35.0316Z" fill="black"/>
<path fill-rule="evenodd" clip-rule="evenodd" d="M132.893 31.9294C132.347 32.1251 131.999 32.6673 131.654 33.1164C131.312 33.5623 130.96 34.1141 130.867 34.6755C130.797 35.0989 131.334 35.5609 131.673 35.147C131.973 34.7813 132.197 34.3611 132.472 33.9793C132.775 33.5591 133.303 33.1966 133.501 32.725C133.664 32.34 133.395 31.753 132.893 31.9294Z" fill="black"/>
<path fill-rule="evenodd" clip-rule="evenodd" d="M147.409 22.9726C146.805 22.562 145.964 22.8732 145.328 23.0785C144.606 23.3127 143.781 23.595 143.145 24.0152C142.724 24.2943 142.845 25.0707 143.42 25.0322C144.127 24.9873 144.778 24.6633 145.437 24.4227C146.057 24.1949 146.869 24.2238 147.409 23.8645C147.741 23.6399 147.738 23.194 147.409 22.9726Z" fill="black"/>
<path fill-rule="evenodd" clip-rule="evenodd" d="M148.307 33.6874C146.638 37.1136 144.034 39.0929 140.362 40.2638C140.32 40.2767 140.279 40.2959 140.24 40.3119C141.436 42.58 143.74 41.1877 145.622 39.9045C147.357 38.7208 149.988 36.0581 148.307 33.6874Z" fill="white"/>
<path fill-rule="evenodd" clip-rule="evenodd" d="M152.452 39.0062C150.809 39.7569 148.569 42.6505 148.917 44.8769C149.416 44.5946 149.892 44.2449 150.323 43.815C151.902 42.2367 152.477 40.5557 152.452 39.0062Z" fill="#EF2F03"/>
<path fill-rule="evenodd" clip-rule="evenodd" d="M131.609 76.6842C130.596 72.4528 129.883 68.2471 129.733 63.8907C129.589 59.685 130.407 55.5306 130.378 51.3281C130.375 50.9945 130.068 50.7924 129.758 50.8566C127.815 51.2544 126.492 53.3556 125.492 54.9115C124.067 57.125 124.357 60.2624 124.485 62.755C124.629 65.5107 125.3 68.1894 126.415 70.7045C127.029 72.0807 127.847 73.3511 128.745 74.5541C129.282 75.2727 130.046 75.9463 130.49 76.7291C130.615 76.9472 130.813 77.0146 131.001 76.9825C131.219 77.2456 131.704 77.0756 131.609 76.6842ZM128.253 71.9139C126.908 69.6907 126.141 67.1885 125.738 64.6349C125.354 62.2129 125.243 59.4765 125.77 57.0769C126.141 55.3895 127.697 52.9257 129.41 52.0467C129.413 56.2011 128.649 60.3105 128.831 64.4777C128.978 67.8141 129.378 71.2434 130.234 74.5027C129.551 73.659 128.812 72.8378 128.253 71.9139Z" fill="white"/>
<path fill-rule="evenodd" clip-rule="evenodd" d="M171.623 28.6572C171.591 28.1408 170.869 28.1472 170.83 28.6572C170.418 33.8991 169.376 38.7111 166.775 43.3274C164.186 47.9245 160.339 51.8062 156.034 54.8025C155.452 55.2067 155.986 56.1562 156.593 55.7617C165.346 50.0803 172.297 39.4041 171.623 28.6572Z" fill="white"/>
<path fill-rule="evenodd" clip-rule="evenodd" d="M154.216 56.4738C152.419 57.7538 149.802 58.0008 147.709 58.5847C145.05 59.3257 142.174 59.361 139.518 58.5783C137.412 57.9591 135.913 56.4642 134.98 54.5137C134.121 52.7141 133.165 49.243 134.277 47.4176C134.625 46.8434 133.759 46.3526 133.389 46.8979C132.066 48.8452 132.989 52.1687 133.699 54.1929C134.472 56.4033 135.984 58.1709 138.093 59.175C140.611 60.3716 143.695 60.3972 146.383 59.9706C148.019 59.7107 149.572 59.098 151.183 58.7259C152.455 58.4339 153.8 58.1035 154.641 57.0352C154.874 56.7433 154.57 56.2204 154.216 56.4738Z" fill="white"/>
<path fill-rule="evenodd" clip-rule="evenodd" d="M166.292 26.6041C166.069 27.9387 165.877 29.2443 165.481 30.5436C165.27 31.2301 166.283 31.4771 166.532 30.8323C167.021 29.5555 167.219 28.0927 167.229 26.7293C167.232 26.2031 166.382 26.062 166.292 26.6041Z" fill="white"/>
<path fill-rule="evenodd" clip-rule="evenodd" d="M185.023 55.1072C183.239 52.2778 182.549 48.858 181.731 45.65C180.724 41.7106 181.188 37.5819 181.824 33.6264C182.092 31.9455 182.338 30.2452 182.719 28.5867C182.898 27.8071 182.984 26.7324 182.319 26.1293C180.379 24.3778 177.586 25.8759 176.174 27.6146C174.678 29.4593 174.176 32.0962 173.895 34.3932C173.547 37.2258 173.965 40.1323 174.768 42.8527C176.183 47.6711 179.593 53.3525 184.173 55.8002C184.24 55.8611 184.316 55.8996 184.396 55.9189C184.416 55.9285 184.432 55.9381 184.451 55.9477C184.722 56.0825 185.023 55.8739 185.051 55.6269C185.131 55.4794 185.141 55.2965 185.023 55.1072ZM180.031 50.616C178.404 48.6239 177.155 46.3109 176.241 43.9113C174.486 39.3014 174.112 33.4693 176.532 29.0165C177.238 27.7205 178.299 27.0148 179.66 26.556C182.501 25.5968 181.635 28.2145 181.443 29.1513C181.277 29.9437 181.175 30.7585 181.038 31.5573C180.565 34.3194 180.124 37.0847 180.037 39.8917C179.948 42.7211 180.504 45.3742 181.226 48.0881C181.721 49.9616 182.21 51.8383 182.981 53.6027C181.939 52.6756 180.935 51.726 180.031 50.616Z" fill="white"/>
<path fill-rule="evenodd" clip-rule="evenodd" d="M225.411 64.0993C221.343 62.075 216.443 62.7359 212.081 63.0021C207.853 63.262 202.698 63.663 199.464 66.7363C199.34 66.8549 199.308 66.9865 199.333 67.1052C199.253 67.3907 199.356 67.7243 199.723 67.8238C203.935 68.9722 208.416 68.876 212.708 68.2376C216.875 67.6185 221.272 67.0603 225.078 65.1355C225.612 65.1643 225.976 64.3816 225.411 64.0993ZM200.727 66.871C203.948 64.6478 208.307 64.3046 212.081 64.0736C215.801 63.8458 220.077 63.2812 223.698 64.5901C220.377 65.7129 217.035 66.4443 213.542 66.9672C209.301 67.6024 204.926 67.8751 200.727 66.871Z" fill="white"/>
<path fill-rule="evenodd" clip-rule="evenodd" d="M171.92 107.324C171.198 106.881 170.162 107 169.351 106.817C168.648 106.66 168.363 107.686 169.053 107.901C169.44 108.02 169.83 108.097 170.229 108.152C170.69 108.216 171.188 108.367 171.652 108.325C172.166 108.277 172.399 107.619 171.92 107.324Z" fill="white"/>
<path fill-rule="evenodd" clip-rule="evenodd" d="M167.015 106.147C162.946 104.931 158.945 103.497 154.867 102.307C150.911 101.152 147.185 99.5798 143.919 97.023C143.522 96.715 142.986 97.2059 143.353 97.5908C145.983 100.337 149.537 101.8 153.081 102.967C157.597 104.456 162.138 105.967 166.701 107.289C167.433 107.5 167.74 106.365 167.015 106.147Z" fill="white"/>
<path fill-rule="evenodd" clip-rule="evenodd" d="M212.532 95.3966C209.509 99.5606 205.14 103.025 200.893 105.855C196.422 108.832 191.542 111.321 186.432 112.964C181.159 114.661 175.736 114.937 170.239 114.956C164.17 114.975 158.881 112.954 153.442 110.433C152.688 110.083 152.026 111.206 152.787 111.559C158.242 114.09 163.579 116.143 169.658 116.245C175.455 116.342 181.207 115.915 186.764 114.179C192.159 112.492 197.266 109.73 201.951 106.586C204.271 105.03 206.444 103.256 208.489 101.357C210.285 99.6857 212.366 98.0721 213.257 95.7045C213.43 95.249 212.778 95.0597 212.532 95.3966Z" fill="white"/>
<path fill-rule="evenodd" clip-rule="evenodd" d="M201.669 85.2079C200.545 82.3784 197.982 78.2433 194.345 79.1897C194.105 79.2538 194.038 79.4495 194.089 79.6292C194.076 79.7511 194.111 79.8858 194.211 80.0077C196.384 82.6607 197.892 85.4806 198.95 88.7495C199.803 91.3801 200.132 94.2608 201.82 96.5385C201.922 96.6765 202.053 96.747 202.19 96.7759C202.341 97.2379 203.203 97.2796 203.315 96.7182C204.05 93.0065 203.037 88.6436 201.669 85.2079ZM199.8 87.6363C198.87 85.0379 197.694 82.3367 195.828 80.2547C198.614 81.2235 200.062 83.9985 201.027 86.8343C201.919 89.4553 202.424 92.3168 202.296 95.111C200.989 92.8397 200.679 90.084 199.8 87.6363Z" fill="white"/>
<path fill-rule="evenodd" clip-rule="evenodd" d="M208.783 136.064C207.467 135.712 206.409 135.712 205.019 135.926C202.711 136.283 200.398 136.642 198.093 137.03C195.374 137.486 192.683 138.082 190.05 138.907C188.011 139.545 185.786 140.421 184.233 141.951C184.189 141.98 184.153 142.015 184.121 142.057C184.099 142.079 184.07 142.102 184.048 142.124C183.863 142.32 183.927 142.612 184.09 142.769C184.153 142.853 184.243 142.92 184.368 142.958C186.368 143.581 188.922 143.289 190.976 143.1C193.38 142.878 195.748 142.355 198.084 141.759C200.5 141.139 202.814 140.354 205.159 139.5C206.648 138.958 208.275 138.281 209.103 136.847C209.272 136.552 209.116 136.154 208.783 136.064ZM204.185 138.701C202.069 139.449 199.982 140.187 197.79 140.697C195.524 141.226 193.293 141.746 190.976 142.002C189.35 142.182 187.304 142.4 185.576 142.112C189.212 139.763 193.555 138.865 197.79 138.137C199.944 137.768 202.114 137.514 204.264 137.129C205.511 136.905 206.562 136.764 207.703 136.931C206.792 137.861 205.357 138.291 204.185 138.701Z" fill="white"/>
<path fill-rule="evenodd" clip-rule="evenodd" d="M178.641 144.662C178.043 143.86 176.774 143.401 175.96 142.997C174.071 142.06 172.221 141.037 170.249 140.28C168.104 139.458 165.947 138.695 163.726 138.111C161.4 137.498 159.099 137.396 156.711 137.232C156.347 137.206 156.175 137.485 156.184 137.771C156.072 137.976 156.072 138.236 156.286 138.448C157.43 139.59 159.227 140.28 160.687 140.902C162.55 141.694 164.484 142.304 166.385 142.99C168.612 143.796 170.878 144.495 173.179 145.063C174.95 145.499 176.755 146.067 178.58 145.656C179.066 145.547 179.04 144.8 178.641 144.662ZM172.901 143.828C170.987 143.35 169.111 142.727 167.251 142.076C165.545 141.479 163.835 140.876 162.144 140.232C160.939 139.773 159.405 139.218 158.194 138.435C159.958 138.563 161.684 138.737 163.435 139.163C165.484 139.661 167.475 140.386 169.447 141.12C171.425 141.858 173.234 142.885 175.141 143.773C175.688 144.027 176.222 144.351 176.755 144.668C175.455 144.54 174.167 144.145 172.901 143.828Z" fill="white"/>
<path fill-rule="evenodd" clip-rule="evenodd" d="M203.763 158.395C202.452 158.09 201.136 158.504 199.883 158.883C197.79 159.515 195.7 160.131 193.645 160.888C191.833 161.555 190.027 162.267 188.266 163.056C186.295 163.942 184.658 165.302 182.987 166.643C182.61 166.948 183.009 167.519 183.418 167.432C183.441 167.442 183.46 167.448 183.482 167.455C187.305 168.472 191.382 166.608 194.888 165.241C198.148 163.968 202.226 162.437 204.111 159.249C204.293 158.934 204.127 158.482 203.763 158.395ZM194.575 164.115C191.628 165.276 188.1 166.916 184.821 166.524C185.799 165.822 186.748 165.078 187.816 164.494C189.561 163.538 191.52 162.899 193.38 162.197C195.268 161.485 197.189 160.862 199.129 160.314C200.196 160.012 201.407 159.48 202.567 159.438C200.669 161.812 197.24 163.063 194.575 164.115Z" fill="white"/>
<path fill-rule="evenodd" clip-rule="evenodd" d="M174.943 164.189C174.851 164.141 174.752 164.122 174.649 164.144C171.051 163.695 167.436 164.205 163.857 164.616C161.077 164.936 158.143 165.395 155.922 167.23C155.618 167.48 155.781 167.901 156.034 168.096C156.98 168.831 158.373 168.735 159.501 168.706C161.329 168.658 163.186 168.731 165.001 168.481C167.165 168.183 169.303 167.721 171.402 167.124C172.879 166.704 174.183 166.402 175.164 165.132C175.228 165.049 175.263 164.962 175.279 164.875C175.368 164.625 175.247 164.285 174.943 164.189ZM170.527 166.191C168.801 166.682 167.037 167.022 165.27 167.313C163.608 167.589 161.927 167.49 160.252 167.557C159.396 167.589 158.284 167.753 157.376 167.512C159.495 166.133 162.262 165.876 164.701 165.6C167.676 165.267 170.591 165.02 173.566 165.084C172.69 165.693 171.607 165.886 170.527 166.191Z" fill="white"/>
<path fill-rule="evenodd" clip-rule="evenodd" d="M130.784 111.186C130.068 109.682 128.109 109.297 126.626 109.034C124.274 108.617 121.769 109.181 119.465 109.656C115.969 110.378 112.102 111.751 110.82 115.424C110.699 115.767 111.009 116.082 111.331 116.098C112.536 116.162 113.776 115.238 114.866 114.831C116.831 114.09 118.806 113.628 120.893 113.374C122.839 113.137 124.789 112.909 126.735 112.665C128.02 112.505 129.372 112.473 130.548 111.876C130.746 111.777 130.826 111.616 130.829 111.453C130.838 111.372 130.829 111.279 130.784 111.186ZM125.565 111.7C123.811 111.918 122.06 112.123 120.305 112.335C118.723 112.527 117.109 112.832 115.611 113.381C114.888 113.644 114.153 113.9 113.453 114.215C113.054 114.394 112.655 114.657 112.233 114.837C113.546 112.444 116.416 111.465 118.966 110.84C120.631 110.429 122.354 110.125 124.06 109.98C125.517 109.855 128.231 109.955 129.589 111.087C128.359 111.559 126.834 111.542 125.565 111.7Z" fill="white"/>
<path fill-rule="evenodd" clip-rule="evenodd" d="M132.733 98.7842C132.801 98.704 132.842 98.6013 132.842 98.4859C132.842 98.4024 132.82 98.3287 132.785 98.2613C132.778 98.2196 132.769 98.1747 132.746 98.133C131.107 94.7838 126.182 93.321 122.974 92.0795C120.868 91.2646 118.694 90.6712 116.499 90.1611C115.687 89.9718 114.006 89.4361 113.297 90.1482C111.552 91.8998 117.084 94.771 118.055 95.2586C122.312 97.4048 127.326 98.5532 132.021 99.1627C132.264 99.1948 132.43 99.0922 132.516 98.9382C132.606 98.9093 132.679 98.8548 132.733 98.7842ZM120.618 95.0629C119.298 94.5913 118.071 93.9882 116.86 93.2921C116.231 92.9328 115.63 92.5254 115.067 92.0698C114.729 91.7939 113.626 90.8925 114.482 90.8893C115.47 90.8861 116.47 91.239 117.426 91.4475C119.548 91.9062 121.628 92.6409 123.645 93.4365C126.569 94.5913 129.074 95.8392 131.372 97.8667C127.684 97.3213 124.134 96.3205 120.618 95.0629Z" fill="white"/>
<path fill-rule="evenodd" clip-rule="evenodd" d="M197.537 104.677C194.246 106.163 190.014 105.518 186.573 104.96C182.584 104.318 178.475 103.449 174.767 101.822C174.084 101.521 174.675 100.513 175.355 100.815C178.756 102.323 182.623 103.17 186.291 103.769C190.011 104.376 193.495 104.504 197.215 103.907C197.646 103.834 198.007 104.466 197.537 104.677ZM172.457 99.9808C171.143 99.352 169.977 98.6944 168.795 97.8378C168.197 97.4048 167.66 98.3832 168.226 98.8163C169.363 99.6889 170.766 100.687 172.24 100.796C172.661 100.825 172.844 100.164 172.457 99.9808Z" fill="#C6B4B3"/>
<path fill-rule="evenodd" clip-rule="evenodd" d="M211.845 91.6656C211.385 91.4828 210.774 92.0346 210.394 92.2463C209.784 92.5863 209.151 92.8847 208.477 93.0643C207.917 93.2151 208.026 94.0973 208.614 94.0845C209.352 94.0684 210.039 93.738 210.691 93.4204C211.231 93.1574 212.155 92.8494 212.232 92.1757C212.26 91.9287 212.046 91.7458 211.845 91.6656Z" fill="#408E40"/>
<path fill-rule="evenodd" clip-rule="evenodd" d="M210.832 117.5C207.789 120.772 204.453 123.252 200.446 125.218C196.432 127.188 192.159 128.478 187.998 130.072C187.266 130.354 187.563 131.535 188.327 131.272C196.365 128.494 206.572 125.568 211.586 118.084C211.893 117.625 211.202 117.102 210.832 117.5Z" fill="#408E40"/>
<path fill-rule="evenodd" clip-rule="evenodd" d="M185.713 130.486C181.53 130.309 177.676 129.504 173.662 128.327C171.805 127.781 169.955 127.22 168.12 126.61C166.097 125.937 164.193 124.965 162.176 124.294C161.78 124.163 161.435 124.731 161.761 125.01C164.816 127.637 169.536 128.519 173.301 129.629C177.337 130.819 181.469 131.933 185.71 131.759C186.534 131.73 186.534 130.521 185.713 130.486Z" fill="#408E40"/>
<path fill-rule="evenodd" clip-rule="evenodd" d="M134.309 83.5654C133.798 82.1603 133.165 80.8033 132.638 79.4046C132.088 77.945 131.602 76.402 130.781 75.0674C130.522 74.6504 129.95 74.9359 130.027 75.385C130.516 78.2177 131.692 81.5765 133.203 84.0306C133.555 84.5984 134.555 84.2327 134.309 83.5654Z" fill="#408E40"/>
<path fill-rule="evenodd" clip-rule="evenodd" d="M190.015 57.9046C189.692 57.0352 188.701 56.6054 187.915 56.23C186.848 55.7232 185.723 55.3222 184.713 54.6934C184.173 54.3598 183.591 55.1297 184.042 55.566C184.748 56.2525 185.63 56.6375 186.518 57.0353C187.49 57.4683 188.257 58.0201 189.142 58.5751C189.561 58.8446 190.197 58.4019 190.015 57.9046Z" fill="#408E40"/>
<path fill-rule="evenodd" clip-rule="evenodd" d="M240.492 151.732L229.552 134.391C228.363 132.692 228.223 129.555 229.239 127.382L248.166 82.5882C249.322 80.1172 252.571 80.9307 253.759 82.6291L266.344 100.652C267.533 102.35 267.672 105.487 266.656 107.66L246.583 150.594C245.049 153.889 241.798 153.411 240.492 151.732Z" fill="#CFCFCF"/>
<path fill-rule="evenodd" clip-rule="evenodd" d="M240.391 151.591L227.787 133.566C226.598 131.867 226.459 128.73 227.475 126.557L247.772 83.1436C248.786 80.976 250.571 80.594 251.749 82.3145L264.363 100.317C265.552 102.016 265.692 105.153 264.676 107.326L244.375 150.745C243.362 152.913 241.579 153.289 240.391 151.591Z" fill="url(#paint0_linear)"/>
<path fill-rule="evenodd" clip-rule="evenodd" d="M230.554 124.341L248.49 85.9793C248.851 85.2071 249.475 85.0953 249.907 85.6805L262.839 104.195C263.27 104.959 263.312 105.882 262.954 106.682L245.018 145.043C244.657 145.815 244.034 145.927 243.601 145.342L230.661 126.83C230.232 126.064 230.193 125.14 230.554 124.341Z" fill="white" stroke="#80A3B6" stroke-opacity="0.1"/>
<path fill-rule="evenodd" clip-rule="evenodd" d="M249.892 122.331C251.519 118.777 251.022 113.298 248.784 110.094C246.545 106.89 243.412 107.174 241.785 110.728C240.158 114.284 240.655 119.761 242.894 122.965C245.133 126.169 248.265 125.887 249.892 122.331ZM242.403 124.038C239.791 120.3 239.213 113.907 241.11 109.761C243.007 105.614 246.663 105.283 249.275 109.021C251.886 112.76 252.466 119.152 250.568 123.298C248.671 127.444 245.015 127.776 242.403 124.038ZM249.021 116.889C249.064 117.286 248.915 117.635 248.688 117.667L244.171 118.306C244.059 118.322 243.943 118.254 243.85 118.121C243.757 117.988 243.695 117.802 243.68 117.603L243.464 114.357C243.435 113.958 243.596 113.627 243.825 113.618C244.053 113.609 244.263 113.924 244.292 114.323L244.454 116.801L248.534 116.227C248.76 116.195 248.979 116.492 249.021 116.889Z" fill="#10D078"/>
<path opacity="0.3" fill-rule="evenodd" clip-rule="evenodd" d="M258.526 95.968L255.364 91.445C255.262 91.2638 255.252 91.0444 255.338 90.8547C255.423 90.6726 255.572 90.6415 255.674 90.7832L258.835 95.3061C258.938 95.4874 258.948 95.7068 258.862 95.8965C258.76 96.0708 258.617 96.1317 258.526 95.968Z" fill="#394247"/>
<path opacity="0.3" fill-rule="evenodd" clip-rule="evenodd" d="M236.916 140.879C236.424 141.932 235.481 142.009 234.818 141.054C234.139 139.957 234.024 138.602 234.507 137.406C235 136.353 235.943 136.276 236.605 137.231C237.284 138.328 237.4 139.683 236.916 140.879Z" fill="#394247"/>
<path d="M91.1526 106.316L96.5649 80.566C96.7227 79.1394 96.1937 77.7225 95.1395 76.7484L60.9497 46.1028C59.9116 45.1723 58.8769 45.3783 58.6267 46.5606L53.2144 72.311C53.0662 73.7319 53.5982 75.1393 54.6493 76.1068L88.8391 106.752C89.8772 107.683 90.9024 107.499 91.1526 106.316Z" fill="#394247"/>
<path fill-rule="evenodd" clip-rule="evenodd" d="M68.8694 64.758L70.0804 58.9925L74.4561 62.8944L73.235 68.6711L68.8694 64.758ZM70.9938 61.7442L70.4729 64.222L72.3471 65.9019L72.3527 65.907L72.8736 63.4291L70.9938 61.7442Z" fill="white"/>
<path d="M76.9985 72.0139L78.2492 73.1249L78.7757 70.6521L77.5194 69.5361L76.9985 72.0139Z" fill="white"/>
<path d="M70.6819 70.2889L75.0575 74.1908L76.6159 66.7734L79.1179 69.006L79.4652 67.3541L75.7124 64.0105L74.1541 71.4279L71.0241 68.6426L70.6819 70.2889Z" fill="white"/>
<path fill-rule="evenodd" clip-rule="evenodd" d="M79.5052 74.241L80.7163 68.4755L85.0919 72.3774L83.8708 78.154L79.5052 74.241ZM82.9766 75.3791L82.9831 75.3849L82.973 75.3961L82.9766 75.3791ZM82.9766 75.3791L81.1089 73.705L81.6197 71.2383L83.4939 72.9182L82.9766 75.3791Z" fill="white"/>
<path d="M71.5533 83.7904L76.5625 88.2499L77.7735 82.4845L76.5171 81.3685L75.654 85.4926L71.9012 82.1491L71.5533 83.7904Z" fill="white"/>
<path d="M77.8139 89.3714L80.9439 92.1566L81.2861 90.5103L79.4069 88.836L79.9279 86.3582L81.8071 88.0324L82.1549 86.3912L79.0244 83.5953L77.8139 89.3714Z" fill="white"/>
<path d="M72.422 79.671L74.9241 81.9036L75.2714 80.2517L74.0206 79.1407L74.3679 77.4888L76.8644 79.7163L77.5595 76.4231L78.8159 77.5391L78.1207 80.8323L82.502 84.7392L82.8493 83.0873L79.7194 80.302L80.4089 77.0038L76.6561 73.6602L75.9609 76.9534L73.4645 74.7259L72.422 79.671Z" fill="white"/>
<path fill-rule="evenodd" clip-rule="evenodd" d="M65.9263 78.7668L67.1373 73.0013L71.5029 76.9144L70.2919 82.6799L65.9263 78.7668ZM69.3976 79.9051L69.4041 79.9109L69.394 79.9221L69.3976 79.9051ZM69.3976 79.9051L67.5299 78.231L68.0464 75.7693L69.915 77.4442L69.3976 79.9051Z" fill="white"/>
<path d="M67.4847 71.3494L71.8604 75.2513L72.2026 73.6049L69.0833 70.8191L69.7784 67.5259L68.5221 66.4099L67.4847 71.3494Z" fill="white"/>
<path d="M81.3124 79.7669L83.1916 81.4412L83.5389 79.7892L81.6653 78.12L81.3124 79.7669Z" fill="white"/>
<defs>
<linearGradient id="paint0_linear" x1="252.322" y1="99.7766" x2="224.884" y2="87.2876" gradientUnits="userSpaceOnUse">
<stop stop-color="#FAFAFA"/>
<stop offset="1" stop-color="#B7B7B7"/>
</linearGradient>
</defs>
</svg>
