<svg width="320" height="200" viewBox="0 0 320 200" fill="none" xmlns="http://www.w3.org/2000/svg">
<rect width="320" height="200" fill="white"/>
<path opacity="0.3" fill-rule="evenodd" clip-rule="evenodd" d="M91.3826 189.771C71.4998 189.771 34.8561 185.5 27.4573 175.522C14.1895 157.628 30.9788 132.75 32.6305 110.535C34.1531 90.0567 24.3746 66.9685 36.7469 50.5796C49.1197 34.19 73.1705 34.3434 93.2821 30.1926C111.411 26.4512 129.375 23.5281 147.399 27.7426C167.091 32.3469 188.496 38.3964 199.872 55.1158C211.208 71.7758 208.93 93.8485 205.938 113.776C203.259 131.614 196.266 148.63 183.863 161.727C172.347 173.888 157.027 173.64 141 178.5C124.99 183.355 113.5 189.771 91.3826 189.771Z" fill="#2D9CDB"/>
<path fill-rule="evenodd" clip-rule="evenodd" d="M181.259 120.867C167.111 109.603 145.766 100.235 145.311 82.0856C144.858 64.0198 167.728 55.0114 179.252 40.8689C189.876 27.8319 194.187 7.87788 210.128 2.54349C226.069 -2.79112 242.037 8.30738 257.397 14.7185C271.243 20.4975 284.595 26.7502 294.639 37.8171C305.611 49.9074 317.048 63.7503 316.791 80.1637C316.534 96.5188 304.659 110.28 293.314 122.276C283.158 133.013 270.51 141.228 256.093 144.341C242.708 147.231 240.969 130.068 228 126C215.045 121.936 191.835 129.288 181.259 120.867Z" fill="#FF6565"/>
<path fill-rule="evenodd" clip-rule="evenodd" d="M143 25C143 20.5817 146.582 17 151 17H269C273.418 17 277 20.5817 277 25V107.267C277 111.685 273.418 115.267 269 115.267H151C146.582 115.267 143 111.685 143 107.267V25Z" fill="white" stroke="#F5F5F5"/>
<path fill-rule="evenodd" clip-rule="evenodd" d="M218.933 40.8223H266.067C267.171 40.8223 268.067 41.7177 268.067 42.8223V62.6445C268.067 63.7491 267.171 64.6445 266.067 64.6445H218.933V40.8223Z" fill="#80A3B6" fill-opacity="0.103748"/>
<path d="M257.645 52.1751L259.133 53.664L260.622 52.1751" stroke="#80A3B6" stroke-linecap="round" stroke-linejoin="round"/>
<path fill-rule="evenodd" clip-rule="evenodd" d="M256.156 73.5778C256.156 70.2886 258.822 67.6223 262.111 67.6223C265.4 67.6223 268.067 70.2886 268.067 73.5778C268.067 76.867 265.4 79.5334 262.111 79.5334C258.822 79.5334 256.156 76.867 256.156 73.5778Z" fill="#80A3B6" fill-opacity="0.103748"/>
<path d="M259.836 72.5439L260.664 71.7167M260.664 71.7167L261.491 72.5439M260.664 71.7167L260.664 75.3562M264.386 74.6118L263.559 75.4389M263.559 75.4389L262.731 74.6118M263.559 75.4389L263.559 71.7994" stroke="#80A3B6" stroke-linecap="round" stroke-linejoin="round"/>
<path fill-rule="evenodd" clip-rule="evenodd" d="M151.933 42.3112C151.933 41.4889 152.6 40.8223 153.422 40.8223H218.933V64.6445H153.422C152.6 64.6445 151.933 63.9779 151.933 63.1556V42.3112Z" fill="white"/>
<path fill-rule="evenodd" clip-rule="evenodd" d="M151.933 84C151.933 83.1778 152.6 82.5112 153.422 82.5112H218.933V106.333H153.422C152.6 106.333 151.933 105.667 151.933 104.844V84Z" fill="white"/>
<path d="M152.433 42.3112C152.433 41.765 152.876 41.3223 153.422 41.3223H218.433V64.1445H153.422C152.876 64.1445 152.433 63.7017 152.433 63.1556V42.3112ZM152.433 84C152.433 83.4539 152.876 83.0112 153.422 83.0112H218.433V105.833H153.422C152.876 105.833 152.433 105.391 152.433 104.844V84Z" stroke="#80A3B6" stroke-opacity="0.1"/>
<path fill-rule="evenodd" clip-rule="evenodd" d="M218.933 82.5112H266.067C267.171 82.5112 268.067 83.4067 268.067 84.5112V104.333C268.067 105.438 267.171 106.333 266.067 106.333H218.933V82.5112Z" fill="#80A3B6" fill-opacity="0.103748"/>
<path d="M154.734 32.7138C154.256 32.7138 153.823 32.6111 153.434 32.4056C153.05 32.1957 152.746 31.9076 152.523 31.5413C152.304 31.1706 152.195 30.7529 152.195 30.2884C152.195 29.8239 152.304 29.4085 152.523 29.0422C152.746 28.6715 153.05 28.3834 153.434 28.1779C153.823 27.968 154.258 27.863 154.741 27.863C155.147 27.863 155.513 27.9345 155.839 28.0774C156.17 28.2203 156.447 28.4258 156.67 28.6938L155.973 29.337C155.656 28.9707 155.263 28.7876 154.794 28.7876C154.504 28.7876 154.245 28.8524 154.017 28.9819C153.789 29.107 153.611 29.2834 153.481 29.5112C153.356 29.739 153.293 29.9981 153.293 30.2884C153.293 30.5787 153.356 30.8378 153.481 31.0656C153.611 31.2934 153.789 31.4721 154.017 31.6016C154.245 31.7267 154.504 31.7892 154.794 31.7892C155.263 31.7892 155.656 31.6038 155.973 31.2331L156.67 31.8763C156.447 32.1488 156.17 32.3565 155.839 32.4994C155.509 32.6423 155.14 32.7138 154.734 32.7138Z" fill="#394247"/>
<path d="M158.757 28.9752C159.316 28.9752 159.744 29.1092 160.044 29.3772C160.343 29.6407 160.492 30.0405 160.492 30.5765V32.6334H159.514V32.1845C159.318 32.5195 158.951 32.687 158.415 32.687C158.139 32.687 157.897 32.6401 157.692 32.5463C157.491 32.4525 157.337 32.323 157.23 32.1577C157.122 31.9924 157.069 31.8048 157.069 31.5949C157.069 31.2599 157.194 30.9964 157.444 30.8043C157.699 30.6122 158.089 30.5162 158.616 30.5162H159.447C159.447 30.2884 159.378 30.1142 159.24 29.9936C159.101 29.8685 158.893 29.806 158.616 29.806C158.424 29.806 158.235 29.8373 158.047 29.8998C157.864 29.9579 157.708 30.0383 157.578 30.141L157.203 29.4107C157.399 29.2722 157.634 29.165 157.906 29.0891C158.183 29.0132 158.467 28.9752 158.757 28.9752ZM158.677 31.9835C158.855 31.9835 159.014 31.9433 159.152 31.8629C159.291 31.778 159.389 31.6552 159.447 31.4944V31.1259H158.73C158.302 31.1259 158.087 31.2666 158.087 31.548C158.087 31.682 158.139 31.7892 158.241 31.8696C158.348 31.9455 158.494 31.9835 158.677 31.9835Z" fill="#394247"/>
<path d="M161.438 27.662H162.484V32.6334H161.438V27.662Z" fill="#394247"/>
<path d="M165.196 32.687C164.812 32.687 164.465 32.6088 164.157 32.4525C163.853 32.2917 163.614 32.0706 163.44 31.7892C163.271 31.5078 163.186 31.1884 163.186 30.8311C163.186 30.4738 163.271 30.1544 163.44 29.873C163.614 29.5916 163.853 29.3727 164.157 29.2164C164.465 29.0556 164.812 28.9752 165.196 28.9752C165.575 28.9752 165.906 29.0556 166.187 29.2164C166.473 29.3727 166.681 29.5983 166.81 29.8931L166 30.3286C165.812 29.9981 165.542 29.8328 165.189 29.8328C164.917 29.8328 164.691 29.9221 164.512 30.1008C164.334 30.2795 164.244 30.5229 164.244 30.8311C164.244 31.1393 164.334 31.3827 164.512 31.5614C164.691 31.7401 164.917 31.8294 165.189 31.8294C165.546 31.8294 165.817 31.6641 166 31.3336L166.81 31.7758C166.681 32.0617 166.473 32.285 166.187 32.4458C165.906 32.6066 165.575 32.687 165.196 32.687Z" fill="#394247"/>
<path d="M171.044 29.0288V32.6334H170.052V32.2046C169.913 32.3609 169.748 32.4815 169.556 32.5664C169.364 32.6468 169.156 32.687 168.933 32.687C168.46 32.687 168.084 32.5508 167.807 32.2783C167.531 32.0058 167.392 31.6016 167.392 31.0656V29.0288H168.437V30.9115C168.437 31.4922 168.681 31.7825 169.168 31.7825C169.418 31.7825 169.619 31.7021 169.771 31.5413C169.922 31.376 169.998 31.1326 169.998 30.811V29.0288H171.044Z" fill="#394247"/>
<path d="M172.012 27.662H173.057V32.6334H172.012V27.662Z" fill="#394247"/>
<path d="M175.481 28.9752C176.039 28.9752 176.468 29.1092 176.767 29.3772C177.067 29.6407 177.216 30.0405 177.216 30.5765V32.6334H176.238V32.1845C176.042 32.5195 175.675 32.687 175.139 32.687C174.862 32.687 174.621 32.6401 174.416 32.5463C174.215 32.4525 174.061 32.323 173.953 32.1577C173.846 31.9924 173.793 31.8048 173.793 31.5949C173.793 31.2599 173.918 30.9964 174.168 30.8043C174.422 30.6122 174.813 30.5162 175.34 30.5162H176.171C176.171 30.2884 176.102 30.1142 175.963 29.9936C175.825 29.8685 175.617 29.806 175.34 29.806C175.148 29.806 174.958 29.8373 174.771 29.8998C174.588 29.9579 174.431 30.0383 174.302 30.141L173.927 29.4107C174.123 29.2722 174.358 29.165 174.63 29.0891C174.907 29.0132 175.191 28.9752 175.481 28.9752ZM175.401 31.9835C175.579 31.9835 175.738 31.9433 175.876 31.8629C176.015 31.778 176.113 31.6552 176.171 31.4944V31.1259H175.454C175.025 31.1259 174.811 31.2666 174.811 31.548C174.811 31.682 174.862 31.7892 174.965 31.8696C175.072 31.9455 175.217 31.9835 175.401 31.9835Z" fill="#394247"/>
<path d="M180.487 32.4592C180.384 32.5351 180.257 32.5932 180.105 32.6334C179.958 32.6691 179.802 32.687 179.636 32.687C179.207 32.687 178.875 32.5776 178.638 32.3587C178.406 32.1398 178.29 31.8182 178.29 31.3939V29.9132H177.733V29.1092H178.29V28.2315H179.335V29.1092H180.233V29.9132H179.335V31.3805C179.335 31.5324 179.373 31.6507 179.449 31.7356C179.529 31.816 179.641 31.8562 179.784 31.8562C179.949 31.8562 180.09 31.8115 180.206 31.7222L180.487 32.4592Z" fill="#394247"/>
<path d="M184.494 30.8445C184.494 30.8579 184.487 30.9517 184.473 31.1259H181.747C181.796 31.3492 181.912 31.5257 182.095 31.6552C182.278 31.7847 182.506 31.8495 182.778 31.8495C182.966 31.8495 183.131 31.8227 183.274 31.7691C183.422 31.711 183.558 31.6217 183.683 31.5011L184.239 32.1041C183.899 32.4927 183.404 32.687 182.752 32.687C182.345 32.687 181.986 32.6088 181.673 32.4525C181.36 32.2917 181.119 32.0706 180.949 31.7892C180.78 31.5078 180.695 31.1884 180.695 30.8311C180.695 30.4782 180.777 30.1611 180.943 29.8797C181.112 29.5938 181.342 29.3727 181.633 29.2164C181.927 29.0556 182.256 28.9752 182.618 28.9752C182.97 28.9752 183.29 29.0511 183.576 29.203C183.862 29.3549 184.085 29.5737 184.246 29.8596C184.411 30.141 184.494 30.4693 184.494 30.8445ZM182.624 29.7658C182.388 29.7658 182.189 29.8328 182.028 29.9668C181.867 30.1008 181.769 30.2839 181.733 30.5162H183.509C183.473 30.2884 183.375 30.1075 183.214 29.9735C183.053 29.835 182.857 29.7658 182.624 29.7658Z" fill="#394247"/>
<path d="M188.541 28.9752C189.099 28.9752 189.528 29.1092 189.827 29.3772C190.126 29.6407 190.276 30.0405 190.276 30.5765V32.6334H189.298V32.1845C189.101 32.5195 188.735 32.687 188.199 32.687C187.922 32.687 187.681 32.6401 187.475 32.5463C187.274 32.4525 187.12 32.323 187.013 32.1577C186.906 31.9924 186.852 31.8048 186.852 31.5949C186.852 31.2599 186.977 30.9964 187.228 30.8043C187.482 30.6122 187.873 30.5162 188.4 30.5162H189.231C189.231 30.2884 189.162 30.1142 189.023 29.9936C188.885 29.8685 188.677 29.806 188.4 29.806C188.208 29.806 188.018 29.8373 187.831 29.8998C187.647 29.9579 187.491 30.0383 187.362 30.141L186.986 29.4107C187.183 29.2722 187.417 29.165 187.69 29.0891C187.967 29.0132 188.25 28.9752 188.541 28.9752ZM188.46 31.9835C188.639 31.9835 188.798 31.9433 188.936 31.8629C189.075 31.778 189.173 31.6552 189.231 31.4944V31.1259H188.514C188.085 31.1259 187.871 31.2666 187.871 31.548C187.871 31.682 187.922 31.7892 188.025 31.8696C188.132 31.9455 188.277 31.9835 188.46 31.9835Z" fill="#394247"/>
<path d="M195.838 28.9752C196.289 28.9752 196.647 29.1092 196.91 29.3772C197.178 29.6407 197.312 30.0383 197.312 30.5698V32.6334H196.267V30.7306C196.267 30.4447 196.207 30.2326 196.086 30.0941C195.97 29.9512 195.803 29.8797 195.584 29.8797C195.338 29.8797 195.144 29.9601 195.001 30.1209C194.858 30.2772 194.786 30.5117 194.786 30.8244V32.6334H193.741V30.7306C193.741 30.1633 193.513 29.8797 193.058 29.8797C192.817 29.8797 192.625 29.9601 192.482 30.1209C192.339 30.2772 192.267 30.5117 192.267 30.8244V32.6334H191.222V29.0288H192.22V29.4442C192.354 29.2923 192.517 29.1762 192.709 29.0958C192.906 29.0154 193.12 28.9752 193.353 28.9752C193.607 28.9752 193.837 29.0266 194.043 29.1293C194.248 29.2276 194.413 29.3727 194.539 29.5648C194.686 29.3772 194.871 29.232 195.095 29.1293C195.322 29.0266 195.57 28.9752 195.838 28.9752Z" fill="#394247"/>
<path d="M200.004 32.687C199.624 32.687 199.282 32.6088 198.979 32.4525C198.679 32.2917 198.445 32.0706 198.275 31.7892C198.105 31.5078 198.02 31.1884 198.02 30.8311C198.02 30.4738 198.105 30.1544 198.275 29.873C198.445 29.5916 198.679 29.3727 198.979 29.2164C199.282 29.0556 199.624 28.9752 200.004 28.9752C200.383 28.9752 200.723 29.0556 201.022 29.2164C201.321 29.3727 201.556 29.5916 201.726 29.873C201.895 30.1544 201.98 30.4738 201.98 30.8311C201.98 31.1884 201.895 31.5078 201.726 31.7892C201.556 32.0706 201.321 32.2917 201.022 32.4525C200.723 32.6088 200.383 32.687 200.004 32.687ZM200.004 31.8294C200.272 31.8294 200.491 31.7401 200.66 31.5614C200.834 31.3783 200.922 31.1348 200.922 30.8311C200.922 30.5274 200.834 30.2862 200.66 30.1075C200.491 29.9244 200.272 29.8328 200.004 29.8328C199.736 29.8328 199.515 29.9244 199.34 30.1075C199.166 30.2862 199.079 30.5274 199.079 30.8311C199.079 31.1348 199.166 31.3783 199.34 31.5614C199.515 31.7401 199.736 31.8294 200.004 31.8294Z" fill="#394247"/>
<path d="M206.31 29.0288V32.6334H205.319V32.2046C205.18 32.3609 205.015 32.4815 204.823 32.5664C204.631 32.6468 204.423 32.687 204.2 32.687C203.726 32.687 203.351 32.5508 203.074 32.2783C202.797 32.0058 202.659 31.6016 202.659 31.0656V29.0288H203.704V30.9115C203.704 31.4922 203.947 31.7825 204.434 31.7825C204.684 31.7825 204.885 31.7021 205.037 31.5413C205.189 31.376 205.265 31.1326 205.265 30.811V29.0288H206.31Z" fill="#394247"/>
<path d="M209.469 28.9752C209.916 28.9752 210.276 29.1092 210.548 29.3772C210.825 29.6452 210.963 30.0427 210.963 30.5698V32.6334H209.918V30.7306C209.918 30.4447 209.856 30.2326 209.731 30.0941C209.606 29.9512 209.425 29.8797 209.188 29.8797C208.924 29.8797 208.715 29.9623 208.558 30.1276C208.402 30.2884 208.324 30.5296 208.324 30.8512V32.6334H207.278V29.0288H208.277V29.4509C208.415 29.299 208.587 29.1829 208.793 29.1025C208.998 29.0176 209.224 28.9752 209.469 28.9752Z" fill="#394247"/>
<path d="M214.236 32.4592C214.133 32.5351 214.006 32.5932 213.854 32.6334C213.706 32.6691 213.55 32.687 213.385 32.687C212.956 32.687 212.623 32.5776 212.387 32.3587C212.154 32.1398 212.038 31.8182 212.038 31.3939V29.9132H211.482V29.1092H212.038V28.2315H213.083V29.1092H213.981V29.9132H213.083V31.3805C213.083 31.5324 213.121 31.6507 213.197 31.7356C213.278 31.816 213.389 31.8562 213.532 31.8562C213.698 31.8562 213.838 31.8115 213.954 31.7222L214.236 32.4592Z" fill="#394247"/>
<path d="M159.402 56.1727C158.901 56.1727 158.455 56.0477 158.062 55.7975C157.668 55.5414 157.359 55.1722 157.132 54.6898C156.906 54.2014 156.793 53.6237 156.793 52.9567C156.793 52.2897 156.906 51.715 157.132 51.2326C157.359 50.7442 157.668 50.375 158.062 50.1249C158.455 49.8688 158.901 49.7407 159.402 49.7407C159.902 49.7407 160.348 49.8688 160.742 50.1249C161.141 50.375 161.453 50.7442 161.68 51.2326C161.906 51.715 162.019 52.2897 162.019 52.9567C162.019 53.6237 161.906 54.2014 161.68 54.6898C161.453 55.1722 161.141 55.5414 160.742 55.7975C160.348 56.0477 159.902 56.1727 159.402 56.1727ZM159.402 55.1633C159.848 55.1633 160.2 54.9786 160.456 54.6094C160.718 54.2401 160.849 53.6893 160.849 52.9567C160.849 52.2242 160.718 51.6733 160.456 51.3041C160.2 50.9348 159.848 50.7502 159.402 50.7502C158.961 50.7502 158.609 50.9348 158.347 51.3041C158.091 51.6733 157.963 52.2242 157.963 52.9567C157.963 53.6893 158.091 54.2401 158.347 54.6094C158.609 54.9786 158.961 55.1633 159.402 55.1633Z" fill="#394247"/>
<path d="M163.396 56.1459C163.193 56.1459 163.021 56.0774 162.878 55.9405C162.735 55.7975 162.663 55.6189 162.663 55.4045C162.663 55.1841 162.732 55.0054 162.869 54.8685C163.012 54.7315 163.187 54.663 163.396 54.663C163.604 54.663 163.777 54.7315 163.914 54.8685C164.057 55.0054 164.128 55.1841 164.128 55.4045C164.128 55.6189 164.057 55.7975 163.914 55.9405C163.771 56.0774 163.598 56.1459 163.396 56.1459Z" fill="#394247"/>
<path d="M166.837 52.251C167.718 52.251 168.37 52.4237 168.793 52.7691C169.216 53.1086 169.427 53.5731 169.427 54.1627C169.427 54.5379 169.335 54.8774 169.15 55.1811C168.966 55.4849 168.689 55.7261 168.319 55.9047C167.95 56.0834 167.495 56.1727 166.953 56.1727C166.506 56.1727 166.074 56.1102 165.657 55.9851C165.24 55.8541 164.889 55.6754 164.603 55.4491L165.095 54.5469C165.327 54.7374 165.604 54.8893 165.925 55.0025C166.253 55.1097 166.589 55.1633 166.935 55.1633C167.346 55.1633 167.667 55.0799 167.9 54.9131C168.138 54.7404 168.257 54.5052 168.257 54.2074C168.257 53.8858 168.129 53.6446 167.873 53.4838C167.623 53.317 167.191 53.2337 166.577 53.2337H165.068L165.389 49.8301H169.061V50.8038H166.372L166.238 52.251H166.837Z" fill="#394247"/>
<path d="M228.671 52.8317C229.016 52.9448 229.29 53.1354 229.492 53.4034C229.695 53.6654 229.796 53.993 229.796 54.3861C229.796 54.928 229.588 55.3479 229.171 55.6457C228.754 55.9375 228.147 56.0834 227.348 56.0834H224.24V49.8301H227.17C227.908 49.8301 228.477 49.976 228.876 50.2678C229.275 50.5537 229.475 50.9497 229.475 51.4559C229.475 51.7656 229.403 52.0396 229.26 52.2778C229.117 52.516 228.921 52.7006 228.671 52.8317ZM225.401 50.7413V52.4654H227.045C227.45 52.4654 227.759 52.3939 227.974 52.251C228.194 52.1021 228.304 51.8877 228.304 51.6078C228.304 51.3219 228.194 51.1075 227.974 50.9646C227.759 50.8157 227.45 50.7413 227.045 50.7413H225.401ZM227.277 55.1722C228.176 55.1722 228.626 54.8714 228.626 54.2699C228.626 53.6684 228.176 53.3677 227.277 53.3677H225.401V55.1722H227.277Z" fill="#394247"/>
<path d="M232.217 50.8127H230.144V49.8301H235.451V50.8127H233.378V56.0834H232.217V50.8127Z" fill="#394247"/>
<path d="M239.13 56.1727C238.498 56.1727 237.927 56.0357 237.414 55.7618C236.908 55.4819 236.509 55.0977 236.217 54.6094C235.931 54.121 235.788 53.5701 235.788 52.9567C235.788 52.3433 235.934 51.7924 236.226 51.3041C236.518 50.8157 236.917 50.4345 237.423 50.1606C237.935 49.8807 238.507 49.7407 239.138 49.7407C239.651 49.7407 240.118 49.8301 240.541 50.0087C240.964 50.1874 241.321 50.4465 241.613 50.7859L240.863 51.4917C240.41 51.0033 239.853 50.7591 239.192 50.7591C238.763 50.7591 238.379 50.8544 238.04 51.045C237.7 51.2296 237.435 51.4887 237.245 51.8222C237.054 52.1557 236.959 52.5339 236.959 52.9567C236.959 53.3796 237.054 53.7577 237.245 54.0913C237.435 54.4248 237.7 54.6868 238.04 54.8774C238.379 55.062 238.763 55.1543 239.192 55.1543C239.853 55.1543 240.41 54.9072 240.863 54.4129L241.613 55.1275C241.321 55.467 240.961 55.7261 240.532 55.9047C240.109 56.0834 239.642 56.1727 239.13 56.1727Z" fill="#394247"/>
<path d="M158.955 91.5189V97.7723H157.794V92.4927H156.471V91.5189H158.955Z" fill="#394247"/>
<path d="M162.152 93.9399C163.033 93.9399 163.685 94.1126 164.108 94.458C164.531 94.7975 164.742 95.262 164.742 95.8516C164.742 96.2268 164.65 96.5663 164.465 96.87C164.281 97.1737 164.004 97.4149 163.635 97.5936C163.265 97.7723 162.81 97.8616 162.268 97.8616C161.821 97.8616 161.389 97.7991 160.973 97.674C160.556 97.543 160.204 97.3643 159.918 97.138L160.41 96.2357C160.642 96.4263 160.919 96.5782 161.241 96.6913C161.568 96.7985 161.905 96.8521 162.25 96.8521C162.661 96.8521 162.983 96.7688 163.215 96.602C163.453 96.4293 163.572 96.1941 163.572 95.8963C163.572 95.5747 163.444 95.3335 163.188 95.1727C162.938 95.0059 162.506 94.9225 161.893 94.9225H160.383L160.705 91.5189H164.376V92.4927H161.687L161.553 93.9399H162.152Z" fill="#394247"/>
<path d="M166.109 97.8348C165.907 97.8348 165.734 97.7663 165.591 97.6293C165.448 97.4864 165.377 97.3077 165.377 97.0933C165.377 96.873 165.445 96.6943 165.582 96.5573C165.725 96.4204 165.901 96.3519 166.109 96.3519C166.318 96.3519 166.49 96.4204 166.627 96.5573C166.77 96.6943 166.842 96.873 166.842 97.0933C166.842 97.3077 166.77 97.4864 166.627 97.6293C166.484 97.7663 166.312 97.8348 166.109 97.8348Z" fill="#394247"/>
<path d="M170.329 93.9131C170.74 93.9131 171.11 93.9935 171.437 94.1543C171.765 94.3091 172.021 94.5325 172.205 94.8243C172.39 95.1161 172.482 95.4526 172.482 95.8337C172.482 96.2387 172.381 96.5961 172.179 96.9057C171.976 97.2095 171.702 97.4447 171.357 97.6115C171.011 97.7782 170.624 97.8616 170.195 97.8616C169.338 97.8616 168.671 97.5936 168.194 97.0576C167.724 96.5216 167.489 95.7533 167.489 94.7528C167.489 94.0501 167.617 93.4515 167.873 92.9572C168.129 92.4569 168.486 92.0788 168.945 91.8227C169.409 91.5606 169.945 91.4296 170.553 91.4296C170.874 91.4296 171.175 91.4653 171.455 91.5368C171.741 91.6023 171.988 91.7006 172.196 91.8316L171.768 92.7071C171.458 92.5046 171.062 92.4033 170.58 92.4033C169.978 92.4033 169.508 92.588 169.168 92.9572C168.829 93.3265 168.659 93.8595 168.659 94.5563V94.5652C168.843 94.3508 169.079 94.19 169.365 94.0828C169.65 93.9697 169.972 93.9131 170.329 93.9131ZM170.133 96.9504C170.496 96.9504 170.791 96.8551 171.017 96.6645C171.244 96.468 171.357 96.2089 171.357 95.8873C171.357 95.5598 171.244 95.3007 171.017 95.1101C170.791 94.9196 170.487 94.8243 170.106 94.8243C169.731 94.8243 169.424 94.9255 169.186 95.128C168.954 95.3305 168.838 95.5866 168.838 95.8963C168.838 96.2 168.951 96.4531 169.177 96.6556C169.409 96.8521 169.728 96.9504 170.133 96.9504Z" fill="#394247"/>
<path d="M177.145 94.4848C177.473 94.6337 177.723 94.8362 177.896 95.0923C178.074 95.3424 178.164 95.6372 178.164 95.9767C178.164 96.3578 178.056 96.6913 177.842 96.9772C177.633 97.2631 177.336 97.4834 176.949 97.6383C176.561 97.7872 176.112 97.8616 175.6 97.8616C175.087 97.8616 174.638 97.7872 174.251 97.6383C173.87 97.4834 173.575 97.2631 173.366 96.9772C173.158 96.6913 173.054 96.3578 173.054 95.9767C173.054 95.6372 173.14 95.3424 173.313 95.0923C173.485 94.8362 173.733 94.6337 174.054 94.4848C173.804 94.3478 173.61 94.1692 173.474 93.9488C173.342 93.7225 173.277 93.4634 173.277 93.1716C173.277 92.8202 173.372 92.5135 173.563 92.2515C173.759 91.9894 174.033 91.7869 174.385 91.644C174.736 91.5011 175.141 91.4296 175.6 91.4296C176.064 91.4296 176.472 91.5011 176.824 91.644C177.175 91.7869 177.449 91.9894 177.645 92.2515C177.842 92.5135 177.94 92.8202 177.94 93.1716C177.94 93.4634 177.872 93.7195 177.735 93.9399C177.598 94.1602 177.401 94.3419 177.145 94.4848ZM175.6 92.3408C175.236 92.3408 174.948 92.4182 174.733 92.5731C174.525 92.7279 174.42 92.9453 174.42 93.2252C174.42 93.4932 174.525 93.7076 174.733 93.8684C174.948 94.0233 175.236 94.1007 175.6 94.1007C175.969 94.1007 176.261 94.0233 176.475 93.8684C176.69 93.7076 176.797 93.4932 176.797 93.2252C176.797 92.9453 176.687 92.7279 176.466 92.5731C176.252 92.4182 175.963 92.3408 175.6 92.3408ZM175.6 96.9504C176.028 96.9504 176.368 96.8611 176.618 96.6824C176.868 96.5037 176.993 96.2566 176.993 95.9409C176.993 95.6313 176.868 95.3871 176.618 95.2084C176.368 95.0297 176.028 94.9404 175.6 94.9404C175.171 94.9404 174.834 95.0297 174.59 95.2084C174.346 95.3871 174.224 95.6313 174.224 95.9409C174.224 96.2566 174.346 96.5037 174.59 96.6824C174.834 96.8611 175.171 96.9504 175.6 96.9504Z" fill="#394247"/>
<path d="M183.634 91.5189V92.2961L181.204 97.7723H179.962L182.312 92.5016H179.855V93.5647H178.774V91.5189H183.634Z" fill="#394247"/>
<path d="M189.069 91.5189V92.2961L186.639 97.7723H185.397L187.747 92.5016H185.29V93.5647H184.209V91.5189H189.069Z" fill="#394247"/>
<path d="M192.379 94.1007C192.957 94.1721 193.398 94.3687 193.701 94.6903C194.005 95.0119 194.157 95.4139 194.157 95.8963C194.157 96.2596 194.065 96.5901 193.88 96.8879C193.696 97.1857 193.416 97.4239 193.04 97.6025C192.671 97.7753 192.219 97.8616 191.683 97.8616C191.236 97.8616 190.804 97.7991 190.387 97.674C189.976 97.543 189.625 97.3643 189.333 97.138L189.833 96.2357C190.06 96.4263 190.334 96.5782 190.655 96.6913C190.983 96.7985 191.319 96.8521 191.665 96.8521C192.076 96.8521 192.397 96.7688 192.63 96.602C192.868 96.4293 192.987 96.197 192.987 95.9052C192.987 95.6134 192.874 95.3871 192.647 95.2263C192.427 95.0595 192.088 94.9761 191.629 94.9761H191.057V94.1811L192.478 92.4927H189.637V91.5189H193.898V92.2961L192.379 94.1007Z" fill="#394247"/>
<path d="M197.758 93.9131C198.168 93.9131 198.538 93.9935 198.865 94.1543C199.193 94.3091 199.449 94.5325 199.634 94.8243C199.818 95.1161 199.91 95.4526 199.91 95.8337C199.91 96.2387 199.809 96.5961 199.607 96.9057C199.404 97.2095 199.13 97.4447 198.785 97.6115C198.439 97.7782 198.052 97.8616 197.624 97.8616C196.766 97.8616 196.099 97.5936 195.622 97.0576C195.152 96.5216 194.917 95.7533 194.917 94.7528C194.917 94.0501 195.045 93.4515 195.301 92.9572C195.557 92.4569 195.914 92.0788 196.373 91.8227C196.837 91.5606 197.373 91.4296 197.981 91.4296C198.302 91.4296 198.603 91.4653 198.883 91.5368C199.169 91.6023 199.416 91.7006 199.625 91.8316L199.196 92.7071C198.886 92.5046 198.49 92.4033 198.008 92.4033C197.406 92.4033 196.936 92.588 196.596 92.9572C196.257 93.3265 196.087 93.8595 196.087 94.5563V94.5652C196.272 94.3508 196.507 94.19 196.793 94.0828C197.079 93.9697 197.4 93.9131 197.758 93.9131ZM197.561 96.9504C197.924 96.9504 198.219 96.8551 198.445 96.6645C198.672 96.468 198.785 96.2089 198.785 95.8873C198.785 95.5598 198.672 95.3007 198.445 95.1101C198.219 94.9196 197.915 94.8243 197.534 94.8243C197.159 94.8243 196.852 94.9255 196.614 95.128C196.382 95.3305 196.266 95.5866 196.266 95.8963C196.266 96.2 196.379 96.4531 196.605 96.6556C196.837 96.8521 197.156 96.9504 197.561 96.9504Z" fill="#394247"/>
<path d="M228.93 96.7985V97.7723H224.24V91.5189H228.805V92.4927H225.401V94.1185H228.42V95.0744H225.401V96.7985H228.93Z" fill="#394247"/>
<path d="M231.493 92.5016H229.42V91.5189H234.727V92.5016H232.654V97.7723H231.493V92.5016Z" fill="#394247"/>
<path d="M241.155 91.5189V97.7723H239.993V95.0923H236.76V97.7723H235.598V91.5189H236.76V94.1007H239.993V91.5189H241.155Z" fill="#394247"/>
<path d="M257.645 93.864L259.133 95.3528L260.622 93.864" stroke="#80A3B6" stroke-linecap="round" stroke-linejoin="round"/>
<g clip-path="url(#clip0)">
<path fill-rule="evenodd" clip-rule="evenodd" d="M68.8708 120.876C68.8708 120.876 85.1737 115.237 108.007 119.071L109.424 125.241L67.2671 128.092L68.8708 120.876Z" fill="#10D078"/>
<path fill-rule="evenodd" clip-rule="evenodd" d="M102.652 124.742C102.652 124.742 100.142 130.169 77.3088 126.335L73.1888 123.255C72.6867 122.879 72.9318 122.084 73.5609 122.052L105.018 120.515C105.502 120.491 105.783 121.054 105.47 121.424L102.652 124.742Z" fill="black"/>
<path fill-rule="evenodd" clip-rule="evenodd" d="M78.7884 115.883C78.7825 118.713 79.1782 122.342 79.5415 124.214C80.2208 127.728 80.6136 128.409 83.5582 129.424C86.9664 130.6 92.8142 129.597 94.8846 127.379C94.6837 123.466 94.4061 119.646 92.8969 117.417C89.2967 116.945 85.2741 116.138 81.7684 115.627C80.7288 115.475 79.6597 114.894 78.7884 115.883Z" fill="#FF7F5C"/>
<path fill-rule="evenodd" clip-rule="evenodd" d="M78.6555 116.833C78.6791 116.516 78.7175 116.199 78.7884 115.883C79.6597 114.894 80.7288 115.475 81.7714 115.627C85.2771 116.138 89.2997 116.945 92.8999 117.417C94.1728 119.297 94.5686 122.307 94.7812 125.549C93.0151 125.995 82.4389 125.411 78.6555 116.833Z" fill="#B7392C"/>
<path fill-rule="evenodd" clip-rule="evenodd" d="M138.194 117.074C139.591 116.537 140.376 114.172 142.447 113.835C143.516 114.947 142.222 116.601 141.596 117.355C142.763 116.918 143.377 114.712 145.282 114.539C146.227 115.164 145.604 116.458 145.14 117.214C145.681 117.349 146.496 115.871 147.55 116.51C148.173 117.61 147.447 118.831 146.983 119.749C145.598 122.489 143.619 124.886 141.596 127.071C138.879 130.005 135.565 132.845 131.247 133.83C131.174 134.49 131.826 135.054 132.24 135.661C133.344 137.28 134.532 139.369 136.351 140.449C137.919 141.378 140.793 142.317 142.73 141.575C145.873 140.372 146.053 135.4 146.841 131.296C148.351 123.437 150.073 113.647 153.504 108.202C155.333 106.741 157.444 105.433 159.742 104.26C160.805 103.717 161.987 103.148 163.144 102.57C164.146 102.071 165.398 100.874 166.688 101.584C167.256 103.007 165.87 103.541 165.413 104.4C166.372 103.852 167.456 102.981 168.673 102.147C169.704 101.443 171.128 100.109 172.076 100.035C172.953 99.9678 173.325 100.907 174.202 100.317C174.621 100.557 174.887 100.951 175.053 101.443C175.897 101.567 176.86 100.205 177.888 101.021C178.331 102.109 177.359 103.051 176.896 103.837C175.454 106.278 174.093 108.874 172.076 110.878C169.757 113.181 166.789 114.653 164.42 116.792C164.019 125.247 163.835 134.124 162.861 142.561C162.424 146.336 162.007 150.569 161.018 154.389C160.043 158.153 158.466 163.046 155.773 164.528C151.526 166.866 145.377 165.575 139.895 164.387C136.23 163.592 132.715 162.7 130.113 161.57C128.843 171.339 125.5 180.241 120 184.241C114.5 188.241 100.476 189.733 87.3003 189.733C77.8675 189.733 63.0922 189.211 54.5 184.5C48.9922 181.474 46.6248 162.252 45.7633 156.642C45.1933 152.94 44.5642 149.079 44.771 144.955C45.1047 138.319 48.0434 133.851 51.8592 130.732C55.8286 127.494 60.7638 125.003 67.028 124.537C67.6777 123.07 67.5508 121.231 68.8709 120.876C69.4409 120.723 70.9649 121.77 71.7062 122.143C72.8167 122.7 73.7382 123.158 74.6833 123.551C76.7654 124.422 79.4117 124.986 81.6297 125.241C91.063 126.32 101.518 124.026 106.297 120.453C106.557 120.259 106.849 119.893 107.147 119.608C108.813 118.012 109.416 120.095 109.274 122.706C112.957 123.038 115.96 124.044 118.489 125.522C122.325 123.522 126.599 122.821 130.113 120.735C132.765 119.159 134.712 117.323 136.776 115.102C137.349 114.486 138.011 113.389 139.186 113.835C139.945 115.044 138.814 116.349 138.194 117.074Z" fill="#10D078"/>
<path fill-rule="evenodd" clip-rule="evenodd" d="M108.583 122.832C107.218 124.851 105.089 125.678 103.116 126.945C102.679 127.227 102.959 128.042 103.491 127.825C105.647 126.933 108.258 125.411 109.362 123.284C109.631 122.768 108.908 122.351 108.583 122.832Z" fill="white"/>
<path fill-rule="evenodd" clip-rule="evenodd" d="M100.765 128.139C100.413 128.289 100.05 128.412 99.6869 128.526C99.2882 128.652 98.8629 128.708 98.4997 128.922C98.0921 129.163 98.2811 129.756 98.733 129.776C99.5511 129.814 100.564 129.377 101.232 128.931C101.734 128.594 101.302 127.907 100.765 128.139Z" fill="white"/>
<path fill-rule="evenodd" clip-rule="evenodd" d="M94.2052 129.902C91.8307 130.084 89.5477 130.328 87.1583 130.187C84.6745 130.04 82.2084 129.603 79.7777 129.095C75.4303 128.186 71.1951 126.951 67.6096 124.243C67.0366 123.812 66.4755 124.777 67.0455 125.2C70.7018 127.931 75.0581 129.233 79.4912 130.125C84.1429 131.058 89.6628 132.141 94.3086 130.674C94.7191 130.545 94.666 129.867 94.2052 129.902Z" fill="white"/>
<path fill-rule="evenodd" clip-rule="evenodd" d="M136.815 123.877C134.889 124.956 133.126 126.617 131.741 128.327C128.911 127.253 124.564 125.836 122.015 128.016C121.545 128.418 122.145 129.104 122.653 128.837C125.55 127.309 128.882 128.441 131.767 129.497C132.015 129.588 132.243 129.43 132.384 129.248C133.486 127.816 134.833 126.611 136.268 125.519C136.779 125.129 137.317 124.783 137.887 124.49C138.867 123.988 138.288 124.968 138.055 125.417C137.033 127.365 135.509 129.098 134.024 130.709C133.758 130.999 134.097 131.478 134.455 131.263C135.633 130.556 136.587 129.169 137.411 128.11C138.229 127.06 139.467 125.628 139.487 124.217C139.508 122.686 137.485 123.501 136.815 123.877Z" fill="#408E40"/>
<path fill-rule="evenodd" clip-rule="evenodd" d="M138.099 116.639C137.426 117.273 136.838 118.004 136.174 118.652C135.491 119.318 134.709 119.987 134.204 120.799C133.894 121.301 134.591 121.803 135.004 121.412C135.674 120.779 136.283 120.063 136.936 119.406C137.597 118.737 138.38 118.024 138.79 117.167C138.997 116.727 138.474 116.284 138.099 116.639Z" fill="#408E40"/>
<path fill-rule="evenodd" clip-rule="evenodd" d="M141.395 116.98C140.852 117.596 140.347 118.244 139.83 118.881C139.283 119.558 138.643 120.177 138.138 120.884C137.863 121.269 138.415 121.829 138.802 121.544C140.155 120.547 141.135 118.878 142.142 117.555C142.467 117.123 141.747 116.581 141.395 116.98Z" fill="#408E40"/>
<path fill-rule="evenodd" clip-rule="evenodd" d="M144.895 117.156C143.569 118.831 142.202 120.424 140.778 122.014C140.341 122.504 141.032 123.205 141.505 122.735C143.023 121.236 144.505 119.523 145.577 117.678C145.817 117.264 145.205 116.763 144.895 117.156Z" fill="#408E40"/>
<path fill-rule="evenodd" clip-rule="evenodd" d="M165.209 134.848C165.026 133.575 163.962 132.648 162.991 131.903C161.576 130.82 160.129 129.767 158.688 128.723C157.004 127.508 155.262 126.376 153.578 125.164C152.098 124.1 150.501 123.093 148.649 122.909C148.424 122.885 148.265 123.014 148.179 123.187C147.934 123.24 147.736 123.489 147.916 123.745C149.795 126.379 152.544 128.474 155.161 130.342C158.073 132.425 161.245 134.13 164.553 135.502C164.975 135.676 165.259 135.189 165.209 134.848ZM149.573 124.217C152.373 125.065 154.884 127.467 157.223 129.04C158.584 129.955 159.857 130.979 161.201 131.918C161.998 132.475 163.059 133.126 163.682 133.983C161.033 132.801 158.51 131.369 156.109 129.735C153.711 128.101 151.685 126.147 149.573 124.217Z" fill="white"/>
<path fill-rule="evenodd" clip-rule="evenodd" d="M155.132 165.499C154.984 163.158 153.667 160.799 152.843 158.625C151.954 156.278 150.982 153.967 150.037 151.646C148.46 147.774 146.726 143.631 143.282 141.026C143.082 140.874 142.857 140.944 142.709 141.1C142.503 141.12 142.305 141.267 142.275 141.543C141.753 146.207 144.446 150.913 146.265 155.04C148.043 159.071 150.477 163.378 154.074 166.079C154.29 166.241 154.523 166.188 154.689 166.044C154.937 166.006 155.152 165.824 155.132 165.499ZM147.47 154.855C145.592 150.757 143.743 146.823 143.274 142.338C146.076 145.125 147.633 148.718 149.101 152.347C149.916 154.363 150.749 156.369 151.528 158.402C151.98 159.584 152.394 160.781 152.86 161.955C153.159 162.7 153.498 163.425 153.726 164.184C151.079 161.447 149.074 158.355 147.47 154.855Z" fill="white"/>
<path fill-rule="evenodd" clip-rule="evenodd" d="M133.545 137.946C133.247 136.823 132.455 134.508 131.25 133.555C130.565 133.789 129.874 134.012 129.186 134.241C129.094 136.274 129.481 138.313 129.638 140.337C129.821 142.722 129.815 145.128 129.948 147.516C130.072 149.754 130.107 151.972 130.036 154.213C129.962 156.533 130.16 158.977 129.596 161.242C129.422 161.94 130.47 162.225 130.677 161.538C130.689 161.497 130.701 161.453 130.713 161.412C132.482 159.4 133.14 156.434 133.601 153.887C134.082 151.218 134.251 148.481 134.316 145.773C134.384 143.15 134.224 140.49 133.545 137.946ZM133.146 146.456C133.072 148.841 132.886 151.229 132.494 153.585C132.207 155.298 131.723 156.882 131.114 158.44C131.147 157.399 131.114 156.349 131.156 155.313C131.253 152.896 131.289 150.481 131.132 148.067C130.975 145.664 130.896 143.259 130.807 140.856C130.724 138.647 130.343 136.441 130.122 134.241C130.137 134.27 130.219 134.338 130.373 134.449C130.535 134.608 130.692 134.772 130.837 134.945C131.191 135.344 131.451 135.828 131.696 136.297C132.263 137.371 132.55 138.591 132.78 139.774C133.205 141.962 133.217 144.236 133.146 146.456Z" fill="white"/>
<path fill-rule="evenodd" clip-rule="evenodd" d="M118.565 125.399C113.899 129.26 110.08 134.22 106.385 138.973C104.342 141.601 102.386 144.3 100.278 146.879C98.3934 149.185 96.258 151.274 94.3915 153.588C92.8764 155.469 91.4321 157.581 89.2939 158.81C87.2146 160.007 84.8076 157.704 83.3811 156.407C81.7183 154.899 80.1471 153.201 78.7265 151.47C76.8629 149.199 75.2444 146.735 73.1179 144.685C72.5597 144.145 71.7032 144.993 72.2644 145.532C74.5031 147.695 76.2161 150.305 78.1831 152.699C79.6568 154.495 81.3432 156.222 83.0887 157.763C84.4945 159.004 86.2164 160.315 88.1716 160.376C90.3896 160.444 92.4127 157.912 93.659 156.422C97.6343 151.664 101.71 147.034 105.473 142.097C109.773 136.453 114.312 131.184 119.262 126.097C119.717 125.631 119.05 124.997 118.565 125.399Z" fill="#408E40"/>
<path fill-rule="evenodd" clip-rule="evenodd" d="M130.884 133.308C127.848 134.091 126.011 135.42 124.691 138.292C122.73 142.552 120.739 146.791 118.574 150.954C114.525 158.739 110.142 166.669 104.454 173.408C101.781 176.573 98.7213 179.436 95.2155 181.671C91.2314 184.209 87.0139 184.429 82.6635 182.745C78.5907 181.17 74.8723 178.494 71.3312 175.998C67.5124 173.305 64.2902 170.031 61.0887 166.654C59.6976 165.188 58.3065 163.721 56.8771 162.289C56.3307 161.743 55.4831 162.585 56.0294 163.131C59.2989 166.393 62.3439 169.875 65.7256 173.026C68.7912 175.883 72.3826 178.324 75.9533 180.51C79.1814 182.487 82.7166 184.567 86.562 184.986C90.6348 185.429 94.1198 183.907 97.3834 181.61C103.893 177.03 108.674 170.339 112.718 163.621C117.538 155.612 121.802 147.36 125.674 138.861C126.862 136.253 128.427 135.08 131.168 134.32C131.82 134.138 131.546 133.138 130.884 133.308Z" fill="#408E40"/>
<path fill-rule="evenodd" clip-rule="evenodd" d="M122.239 148.844C119.853 142.443 115.317 137.151 109.25 133.927C109.203 133.901 109.156 133.886 109.108 133.874C109.091 133.868 109.073 133.868 109.055 133.866C108.547 133.792 108.172 134.49 108.603 134.822C109.233 137.832 111.51 140.187 113.506 142.414C115.845 145.022 118.344 147.741 121.383 149.56C121.767 149.792 122.104 149.546 122.189 149.22C122.263 149.114 122.293 148.985 122.239 148.844ZM114.998 142.314C113.069 140.22 111.205 138.166 110.006 135.629C114.755 138.504 118.069 142.602 120.532 147.501C118.539 145.926 116.734 144.201 114.998 142.314Z" fill="white"/>
<path fill-rule="evenodd" clip-rule="evenodd" d="M62.9315 131.903C57.6774 129.286 51.5667 130.084 47.8779 134.775C44.4637 139.12 43.4891 145.019 44.2363 150.364C44.6882 153.579 46.3421 156.249 48.5188 158.599C50.5567 160.799 52.6152 162.492 55.5686 163.275C55.8876 163.36 56.115 163.172 56.2007 162.935C56.5196 162.873 56.7825 162.547 56.5462 162.207C54.0476 158.625 51.3954 155.281 50.2082 151.007C49.0445 146.832 49.1833 141.675 52.1751 138.269C54.8303 135.247 59.3579 134.746 62.902 136.365C66.7828 138.14 69.6949 141.857 72.2023 145.16C72.3411 145.345 72.5597 145.365 72.728 145.295C72.9643 145.318 73.2095 145.178 73.2035 144.861C73.1031 139.222 67.657 134.253 62.9315 131.903ZM63.0201 135.347C59.4849 133.707 55.291 134.332 52.2992 136.743C48.8023 139.56 48.1053 144.711 48.7373 148.871C49.5171 154.016 52.2933 157.906 55.1876 162.04C52.9164 161.28 51.3216 159.922 49.6204 158.179C47.615 156.123 46.1413 153.846 45.4827 151.039C44.3367 146.157 45.4325 140.666 48.0669 136.438C51.2389 131.349 57.1192 130.413 62.3792 132.836C66.5318 134.749 70.9471 138.873 72.0576 143.52C69.7392 140.208 66.6735 137.04 63.0201 135.347Z" fill="white"/>
<path fill-rule="evenodd" clip-rule="evenodd" d="M92.1528 171.668C91.7541 169.262 91.3435 166.874 90.7056 164.516C90.2153 162.703 89.8137 160.397 88.4049 159.036C88.1863 158.825 87.8733 158.918 87.7374 159.124C87.6193 159.165 87.5189 159.256 87.4746 159.414C86.3109 163.512 86.7894 167.851 87.507 171.985C88.269 176.379 89.2643 180.97 91.9608 184.643C92.1498 184.901 92.454 184.928 92.6874 184.822C92.9059 184.819 93.1126 184.699 93.1776 184.42C94.1345 180.181 92.8468 175.848 92.1528 171.668ZM88.7504 172.642C87.9737 168.637 87.4627 164.457 88.1863 160.409C88.8538 161.802 89.22 163.328 89.6394 164.809C90.2655 167.003 90.6554 169.262 91.0098 171.515C91.6005 175.288 92.8025 179.237 92.2709 183.08C90.3719 179.844 89.4681 176.341 88.7504 172.642Z" fill="white"/>
<path fill-rule="evenodd" clip-rule="evenodd" d="M167.483 108.331C164.373 107.73 159.961 109.038 158.103 111.661C157.796 112.095 158.448 112.529 158.809 112.204C160.055 111.083 161.298 110.344 162.917 109.88C164.423 109.449 165.977 109.599 167.48 109.285C167.955 109.182 167.964 108.425 167.483 108.331Z" fill="#408E40"/>
<path fill-rule="evenodd" clip-rule="evenodd" d="M99.0815 87.0716C100.292 86.4673 101.429 84.6162 103.5 84.7805C106.908 85.0533 106.362 90.5244 104.164 92.4577C107.1 95.7052 108.402 100.364 107.9 105.242C106.876 115.187 98.5144 120.902 87.191 119.652C85.1531 119.426 81.8837 118.49 80.2888 117.566C76.6029 115.425 73.5993 113.069 71.6176 109.012C70.0552 109.69 69.4438 110.687 67.5832 110.728C61.5493 110.869 61.7354 101.074 68.3511 101.569C66.5731 97.5856 66.5908 94.1357 67.9671 88.9784C69.1308 84.622 71.2779 83.0086 74.6891 80.5825C77.8463 78.3383 82.622 74.9617 86.9842 74.4777C88.6382 74.2928 90.5933 74.3926 91.7865 74.859C93.024 75.3431 95.1091 76.9624 96.0129 78.485C97.5782 81.1281 97.398 84.0177 99.0815 87.0716Z" fill="#FF7F5C"/>
<path fill-rule="evenodd" clip-rule="evenodd" d="M88.1333 79.2477C83.7829 83.7655 79.6835 88.5355 71.2308 88.9785C71.1038 92.9036 71.5911 101.813 68.3482 102.144C65.3948 102.444 62.527 96.1893 62.97 91.8417C63.4898 86.7284 66.7504 85.7838 69.5001 80.7761C71.1953 77.69 72.0991 74.378 73.7264 72.3802C75.7732 69.8719 80.3687 67.3491 83.9069 67.0381C88.083 66.6743 92.5752 69.0153 94.8553 71.2361C95.9953 72.345 97.8914 75.1348 98.2251 78.8781C98.4053 80.8994 98.1572 83.3841 97.6906 83.5161C96.5328 83.8447 93.2515 82.5598 92.1647 81.9202C90.6171 81.0079 89.4918 80.339 88.1333 79.2477Z" fill="black"/>
<path fill-rule="evenodd" clip-rule="evenodd" d="M69.6537 106.161C69.4529 106.005 69.2462 105.867 69.0365 105.747C68.9272 105.8 68.8091 105.832 68.688 105.897C68.5078 105.993 68.3483 106.102 68.2066 106.249C67.9171 106.545 67.6956 106.897 67.5598 107.293C67.3648 107.865 66.5969 107.621 66.6737 107.049C66.7505 106.474 66.9957 105.882 67.4239 105.471C67.5066 105.392 67.61 105.304 67.7222 105.216C66.7535 104.987 65.7405 105.102 64.7333 105.621C64.2815 105.853 63.9034 105.319 64.2106 104.946C65.6341 103.236 68.8947 103.972 70.2887 105.345C70.7022 105.75 70.1352 106.53 69.6537 106.161ZM102.573 87.7111C102.8 87.145 103.187 86.6726 103.727 86.3588C104.194 86.0889 103.884 85.3819 103.37 85.5931C102.525 85.9392 101.926 86.5054 101.557 87.3356C101.244 88.0426 100.978 89.1779 101.14 89.9407C101.244 90.4247 101.908 90.501 102.103 90.0346C102.233 89.7177 102.277 89.3686 102.313 89.0166C102.499 88.9081 102.688 88.8083 102.886 88.7291C103.208 88.603 103.53 88.6616 103.866 88.644C104.297 88.6235 104.422 87.9693 104.073 87.7551C103.597 87.4647 103.063 87.5029 102.573 87.7111Z" fill="black"/>
<path fill-rule="evenodd" clip-rule="evenodd" d="M99.5158 91.3195C102.336 95.8842 96.5388 99.2578 93.287 96.864C91.7129 95.7023 90.7737 92.7922 91.6036 91.1024C92.0436 90.2047 93.0655 89.53 94.4802 89.2718C96.6126 88.8846 98.6239 89.8762 99.5158 91.3195ZM78.4785 95.3092C82.191 94.2795 84.9525 97.0547 84.8343 100.123C84.7516 102.256 82.5188 104.04 80.2211 104.166C78.0296 104.286 74.8163 101.968 75.0024 98.5772C75.0732 97.2835 75.9445 96.0103 78.4785 95.3092Z" fill="white"/>
<path fill-rule="evenodd" clip-rule="evenodd" d="M91.9255 100.188C91.2432 100.493 90.5462 100.748 89.7901 100.821C89.0311 100.895 89.099 102.068 89.8581 101.995C91.0306 101.88 92.0495 101.411 93.0891 100.892C93.3756 100.748 93.3933 100.337 93.2427 100.1C92.2621 98.5684 88.9514 95.2828 86.7865 92.2142C86.5207 91.8358 85.7882 92.4049 86.0304 92.8362C87.7464 95.9047 91.1044 99.0114 91.9255 100.188ZM75.0023 94.6726C75.3331 93.904 75.3302 92.7276 76.166 92.267C77.0933 91.7566 78.381 92.4401 79.2818 92.7218C79.6776 92.845 79.9464 92.2582 79.6333 92.0148C78.6675 91.2667 76.674 90.5304 75.5546 91.3723C74.6331 92.0646 74.0484 93.329 74.0454 94.476C74.0454 94.9777 74.8074 95.1273 75.0023 94.6726ZM89.923 88.2216C91.3082 87.8725 92.8647 87.8402 94.1435 87.1772C94.554 86.966 94.2971 86.2737 93.854 86.3324C92.4335 86.5172 90.9331 86.7577 89.5509 87.1391C88.8332 87.3357 89.2083 88.4006 89.923 88.2216ZM79.0899 98.0785C78.762 96.9021 78.8181 95.7815 80.0615 95.2505C83.1272 93.9363 86.8899 101.091 83.585 102.447C81.367 103.359 79.527 99.648 79.0899 98.0785ZM94.9055 92.0177C94.5895 90.8971 94.619 89.838 95.7206 89.3569C98.4437 88.1717 101.958 95.0217 99.0225 96.245C97.0497 97.0664 95.3278 93.5138 94.9055 92.0177ZM86.8633 106.266C88.0447 106.841 88.8509 106.812 89.9732 106.818C91.1103 106.824 92.1854 106.36 93.3018 106.196C93.8747 106.111 94.2026 106.683 93.7625 107.099C91.9845 108.777 87.7641 109.191 86.1426 107.563C85.7026 107.114 86.2135 105.949 86.8633 106.266Z" fill="black"/>
</g>
<defs>
<clipPath id="clip0">
<rect width="134" height="123" fill="white" transform="translate(44 67)"/>
</clipPath>
</defs>
</svg>
