<svg width="320" height="200" viewBox="0 0 320 200" fill="none" xmlns="http://www.w3.org/2000/svg">
<rect width="320" height="200" fill="white"/>
<path opacity="0.3" fill-rule="evenodd" clip-rule="evenodd" d="M121.827 10.204C141.202 14.6817 147.809 38.6979 163.554 50.8725C178.569 62.4821 204.388 61.6036 211.233 79.3339C218.051 96.9925 203.53 115.414 194.991 132.303C187.739 146.649 178.176 158.928 165.814 169.176C152.654 180.085 138.876 193.899 121.827 192.954C104.928 192.018 93.1918 176.503 81.2357 164.49C71.0906 154.297 65.6935 141.517 58.3276 129.154C48.1896 112.139 29.0623 98.3539 30.0358 78.5566C31.0565 57.7987 46.6768 40.0968 63.3162 27.7063C80.0665 15.2332 101.497 5.50532 121.827 10.204Z" fill="#EEE61B"/>
<path opacity="0.4" fill-rule="evenodd" clip-rule="evenodd" d="M264.025 122.304C254.007 137.638 231.199 135.74 215.698 145.497C200.916 154.801 193.469 177.405 176.006 177.705C158.613 178.004 147.343 159.611 135.493 146.876C125.428 136.059 117.879 123.899 112.971 109.963C107.746 95.1262 100.213 78.8359 106.445 64.3935C112.622 50.0781 129.73 44.8462 143.887 38.3147C155.9 32.7725 168.635 32.1555 181.636 29.704C199.529 26.3299 217.493 14.1593 234.255 21.2745C251.829 28.7349 262.13 47.8508 267.526 66.1648C272.959 84.6009 274.537 106.214 264.025 122.304Z" fill="#10C7D0"/>
<g clip-path="url(#clip0)">
<path fill-rule="evenodd" clip-rule="evenodd" d="M228.886 97.3602C227.194 95.8164 224.908 95.7801 222.747 95.5591C219.314 95.2049 215.773 95.099 212.325 95.1474C208.871 95.1958 205.432 95.5954 201.984 95.8225C199.19 96.0041 196.29 96.1948 193.708 97.3693C193.599 97.4178 193.526 97.4934 193.484 97.5782C193.215 97.7659 193.078 98.1594 193.378 98.4621C194.441 99.5277 195.497 100.569 196.744 101.42C198.028 102.291 199.611 102.573 201.112 102.824C204.548 103.402 208.138 103.342 211.61 103.233C215.164 103.124 218.715 102.603 222.078 101.426C224.318 100.642 227.221 100.003 228.847 98.1443C229.077 97.9566 229.171 97.6175 228.886 97.3602Z" fill="black"/>
<path fill-rule="evenodd" clip-rule="evenodd" d="M232.946 93.6611C232.682 95.5773 230.203 97.2119 228.005 97.5843C225.535 98.002 222.457 97.0697 219.142 97.0031C212.818 96.879 206.452 97.1635 200.543 97.8749C197.846 98.1988 193.899 99.1705 192.116 98.4561C190.636 97.8628 189.945 96.0102 190.082 94.5329C193.021 92.2051 198.122 92.3262 202.723 91.7722C205.126 91.4816 207.966 91.8146 210.714 91.9175C215.997 92.1143 221.433 91.5119 226.552 92.0628C228.968 92.3231 231.332 92.4715 232.946 93.6611Z" fill="#10D078"/>
<path fill-rule="evenodd" clip-rule="evenodd" d="M206.912 94.2423C210.978 93.9336 214.077 93.0739 217.268 92.0628C218.676 91.6148 218.709 95.8588 218.86 97.2937C219.021 98.7951 219.811 101.883 218.86 102.96C218.091 103.829 213.354 104.61 211.532 104.704C209.824 104.792 206.746 104.765 205.956 103.687C205.238 102.709 205.665 100.194 205.795 98.6014C205.947 96.7579 206.049 95.1262 206.912 94.2423Z" fill="#FF7F5C"/>
<path fill-rule="evenodd" clip-rule="evenodd" d="M217.265 92.0628C214.077 93.0738 210.978 93.9335 206.909 94.2423C206.046 95.1232 205.944 96.7578 205.792 98.6014C205.704 99.6851 205.477 101.196 205.568 102.361C206.08 102.461 206.722 102.349 207.451 102.058C210.372 100.881 213.593 100.012 216.151 98.2048C217.126 97.5177 218.073 96.6579 218.73 95.6893C218.591 93.9275 218.297 91.7358 217.265 92.0628Z" fill="#B7392C"/>
<path fill-rule="evenodd" clip-rule="evenodd" d="M228.877 81.7464C230.33 82.0279 231.353 82.1369 232.074 82.9088C235.446 86.5141 228.865 91.0609 225.68 87.7038C221.924 92.6471 215.391 97.2816 206.21 96.7125C203.437 96.5399 199.765 95.0748 197.928 93.3705C196.042 91.6239 193.856 87.4344 193.423 84.2165C192.721 78.9857 194.198 73.5277 196.911 70.5581C194.265 68.2515 195.951 63.5594 199.671 64.1649C200.58 64.3132 201.339 64.9216 201.706 65.9085C203.395 63.9439 204.218 61.9611 205.629 59.8058C206.068 59.1338 206.434 58.2105 206.936 57.7716C208.535 56.37 212.573 55.5678 215.655 55.8826C220.661 56.3973 223.913 60.8925 226.843 64.3102C227.702 65.3121 229.534 66.8923 229.894 67.7974C230.363 68.9719 230.263 70.6762 230.185 71.8659C229.979 74.9293 229.043 78.4559 228.877 81.7464Z" fill="#FF7F5C"/>
<path fill-rule="evenodd" clip-rule="evenodd" d="M202.166 72.5893C198.76 72.5136 199.726 69.3503 201.56 68.088C204.149 66.308 207.609 67.8791 208.099 70.2675C208.468 72.0626 207.902 74.678 205.599 74.5569C204.037 74.4752 204.488 72.6408 202.166 72.5893ZM215.985 73.6095C217.217 73.3582 218.527 73.3643 219.514 73.7548C220.822 74.2724 222.523 75.9676 222.905 77.9685C223.247 79.7757 221.969 81.822 220.428 82.1248C218.07 82.5879 217.677 79.8635 216.266 79.4215C214.792 78.9584 213.569 79.7545 212.861 78.2924C211.88 76.2582 214.238 73.9667 215.985 73.6095Z" fill="white"/>
<path fill-rule="evenodd" clip-rule="evenodd" d="M216.381 82.1823C216.599 83.3416 215.636 84.8976 214.783 85.8148C213.608 87.0711 211.193 88.7027 208.825 88.1396C207.545 87.8369 206.161 87.0923 205.047 85.9601C202.75 83.6262 202.371 81.3952 203.449 81.6011C206.098 82.3033 208.492 82.939 211.731 82.7635C214.522 82.6121 216.215 81.3498 216.381 82.1823Z" fill="white"/>
<path fill-rule="evenodd" clip-rule="evenodd" d="M227.424 70.4128C220.628 68.7358 215.409 65.4756 213.039 59.3699C212.343 59.494 211.762 60.0813 211.15 60.5323C209.437 61.7976 207.282 63.2628 204.176 63.293C203.159 61.9248 203.637 60.2054 203.885 58.7887C204.908 52.9342 208.886 48.5479 215.073 48.0363C219.644 47.6579 224.073 50.2037 226.698 53.4125C228.623 55.7676 230.067 59.4758 230.911 63.1477C231.344 65.0245 231.638 67.0194 232.364 68.6692C233.161 70.4764 234.084 72.1867 234.108 73.9001C234.144 76.4943 232.573 79.8302 230.911 81.3105C230.254 81.8947 228.877 82.7151 228.296 82.6182C227.109 82.4214 226.422 80.5719 226.262 79.1309C225.892 75.8344 227.088 72.9405 227.424 70.4128Z" fill="black"/>
<path fill-rule="evenodd" clip-rule="evenodd" d="M233.381 97.7296C240.562 97.4269 246.18 97.6782 248.347 102.67C248.674 103.424 249.337 104.78 249.365 105.576C249.395 106.505 248.641 108.337 248.202 109.79C246.982 113.834 245.499 118.011 244.134 121.704C242.208 126.908 240.365 132.042 238.467 137.252C235.615 145.08 232.849 152.545 228.877 159.628C228.347 160.573 227.494 161.726 226.843 162.97C226.131 164.329 225.659 165.704 224.954 166.312C223.531 167.538 220.05 168.11 217.253 168.637C209.186 170.15 197.931 170.184 189.355 170.526C183.034 170.777 176.287 170.595 169.739 170.526C163.134 170.456 156.547 170.907 150.269 170.526C146.815 170.317 142.961 169.239 140.969 167.474C139.786 166.424 138.92 164.674 137.918 163.115C135.154 158.82 133.371 152.257 133.268 145.534C133.162 138.526 134.152 131.73 134.721 124.756C134.809 123.678 134.894 122.498 135.012 121.414C135.139 120.267 135.557 119.025 135.448 118.217C135.384 117.757 134.852 116.961 134.431 116.183C132.227 112.108 130.807 108.119 128.764 103.542C128.398 102.724 127.832 101.735 127.892 101.362C128.031 100.512 130.284 99.5096 131.815 98.892C135.354 97.4663 139.422 97.0606 142.422 98.892C143.679 99.6579 144.956 100.981 145.91 102.234C149.633 107.126 152.191 114.8 152.594 123.448C153.005 132.299 152.188 141.829 152.158 150.619C153.614 148.876 154.216 146.557 155.064 144.371C157.625 137.769 160.546 131.092 163.491 124.465C165.395 120.179 167.508 115.947 169.884 111.969C173.986 105.104 178.27 98.5409 188.628 98.0202C189.346 96.7519 189.409 94.8296 190.663 94.0971C192.043 94.9477 192.618 96.0677 194.005 97.0031C199.363 100.621 206.84 102.019 214.347 100.926C219.744 100.142 224 98.2896 228.151 95.986C229.637 95.1626 231.25 93.976 232.51 93.5159C234.144 93.6127 233.409 96.3977 233.381 97.7296Z" fill="#10D078"/>
<path fill-rule="evenodd" clip-rule="evenodd" d="M212.531 167.983C212.437 167.838 212.352 167.692 212.24 167.547L212.531 167.983Z" fill="black"/>
<path fill-rule="evenodd" clip-rule="evenodd" d="M233.636 98.1685C233.027 99.9122 231.402 101.141 230.006 102.261C228.656 103.342 227.143 104.613 225.384 104.889C224.842 104.974 224.4 104.211 224.978 103.929C227.727 102.6 231.223 100.602 232.649 97.7538C232.921 97.2089 233.836 97.5904 233.636 98.1685ZM222.635 105.031C222.454 105.073 222.281 105.149 222.106 105.216C221.882 105.3 221.657 105.37 221.44 105.47C220.973 105.685 221.228 106.387 221.688 106.39C222.218 106.396 222.835 106.124 223.114 105.658C223.316 105.325 222.986 104.952 222.635 105.031ZM217.916 106.078C215.331 106.72 212.6 106.499 209.958 106.648C207.176 106.805 204.494 106.705 201.772 106.06C196.753 104.871 191.743 102.667 189.434 97.8023C189.098 97.0969 188.114 97.7145 188.405 98.4047C190.505 103.378 195.494 105.506 200.365 106.959C203.319 107.84 206.325 108.043 209.389 107.886C212.231 107.737 215.488 108.094 218.191 107.077C218.809 106.844 218.576 105.915 217.916 106.078Z" fill="white"/>
<path fill-rule="evenodd" clip-rule="evenodd" d="M231.777 84.7675C231.054 84.2589 230.197 84.3497 229.383 84.6827C229.486 84.7977 229.57 84.9279 229.634 85.0702C229.813 85.4788 230 86.0086 229.8 86.4354C229.664 86.723 229.201 86.7078 229.062 86.4354C228.859 86.0449 228.962 85.3699 228.526 85.1277C228.036 85.4304 227.594 85.7785 227.249 86.0812C226.816 86.4596 226.244 85.8845 226.619 85.4516C227.796 84.0985 230.551 82.6999 232.231 83.9895C232.679 84.3346 232.261 85.1065 231.777 84.7675ZM222.711 70.1767C221.724 69.3654 220.238 70.098 219.429 70.8185C218.991 71.209 219.548 71.7871 220.014 71.5752C220.804 71.215 221.715 70.5793 222.272 71.551C222.787 72.4471 222.584 73.5429 222.892 74.4904C223.092 75.1018 224.031 75.008 224.031 74.336C224.034 73.0283 223.792 71.0667 222.711 70.1767ZM209.606 65.6845C208.989 65.0215 206.818 63.4535 206.041 64.5917C205.874 64.8369 206.05 65.1577 206.304 65.2395C206.719 65.3727 207.1 65.4302 207.503 65.636C207.957 65.8721 208.39 66.1749 208.747 66.5411C209.295 67.1072 210.139 66.2566 209.606 65.6845ZM212.791 69.6772C211.741 70.6974 211.002 71.993 209.964 73.0373C208.726 74.2845 207.254 75.1896 205.816 76.1734C205.202 76.5942 204.733 77.2511 205.16 77.9837C205.807 79.0916 207.454 78.9493 208.502 79.2308C209.289 79.4427 209.609 78.2561 208.838 78.017C208.471 77.9019 208.135 77.8232 207.754 77.7839C207.091 77.7143 205.665 77.7385 206.74 76.9877C207.584 76.3975 208.444 75.8465 209.258 75.2139C210.975 73.8819 212.497 72.1353 213.393 70.1434C213.563 69.759 213.121 69.3564 212.791 69.6772ZM198.152 64.6431C197.822 64.6098 197.631 65.0911 197.879 65.3C198.285 65.6421 198.576 66.1083 198.733 66.6168C198.439 66.6047 198.155 66.6531 197.861 66.7137C197.389 66.8075 197.501 67.5583 197.973 67.5461C198.197 67.5401 198.424 67.525 198.648 67.534C198.727 67.5371 198.794 67.5613 198.857 67.5915C198.848 67.8034 198.824 68.0123 198.769 68.2151C198.588 68.8811 199.623 69.1626 199.802 68.4997C200.138 67.2465 199.768 64.8066 198.152 64.6431Z" fill="black"/>
<path fill-rule="evenodd" clip-rule="evenodd" d="M153.405 127.792C149.409 125.83 144.251 127.695 140.291 128.873C138.372 129.442 136.423 130.002 134.631 130.901C133.813 131.312 131.216 132.868 132.136 134.07C132.932 135.115 135.772 134.097 136.737 133.867C139.647 133.168 142.598 132.669 145.504 131.945C147.16 131.533 148.84 131.143 150.478 130.665C151.54 130.356 153.126 129.929 153.526 128.752C153.574 128.609 153.565 128.482 153.52 128.379C153.653 128.195 153.659 127.916 153.405 127.792ZM149.173 129.838C148.032 130.138 146.884 130.392 145.746 130.701C143.751 131.246 141.717 131.642 139.689 132.054C137.588 132.481 135.496 133.129 133.359 133.347C133.299 133.329 133.247 133.319 133.205 133.31C133.492 132.899 134.092 132.502 134.449 132.257C135.23 131.718 136.141 131.364 137.025 131.037C138.602 130.456 140.237 130.002 141.847 129.523C145.362 128.479 148.831 127.65 152.442 128.391C152.433 128.409 152.424 128.428 152.418 128.446C152.13 129.305 149.921 129.641 149.173 129.838Z" fill="white"/>
<path fill-rule="evenodd" clip-rule="evenodd" d="M167.048 132.321C165.235 136.97 164.599 142.119 163.803 147.02C162.983 152.07 161.92 157.297 162.008 162.428C162.02 163.206 163.186 163.203 163.213 162.428C163.385 157.361 164.194 152.351 165.002 147.35C165.807 142.365 166.873 137.506 168.059 132.599C168.22 131.93 167.287 131.703 167.048 132.321Z" fill="#457F46"/>
<path fill-rule="evenodd" clip-rule="evenodd" d="M152.787 150.15C152.642 149.975 152.442 149.953 152.267 150.02C152.003 150.008 151.722 150.177 151.692 150.52C151.265 155.672 152.336 160.8 151.159 165.906C150.995 166.624 152.079 166.927 152.261 166.209C153.426 161.626 152.821 156.825 152.742 152.133C155.397 157.258 155.357 163.533 153.874 169.03C153.677 169.757 154.797 170.063 154.997 169.339C156.611 163.439 156.944 155.157 152.787 150.15Z" fill="white"/>
<path fill-rule="evenodd" clip-rule="evenodd" d="M232.44 93.4916C229.658 94.1666 227.209 95.989 224.603 97.1211C224.058 97.3572 224.448 98.2714 225.005 98.0747C227.681 97.1332 230.079 95.5531 232.73 94.539C233.375 94.2938 233.133 93.3221 232.44 93.4916Z" fill="white"/>
<path fill-rule="evenodd" clip-rule="evenodd" d="M197.05 97.9142C196.208 97.1574 195.185 96.7094 194.204 96.1615C193.039 95.5107 191.958 94.7024 190.769 94.094C190.16 93.7822 189.721 94.5935 190.245 94.99C191.207 95.7135 192.237 96.3613 193.275 96.9698C194.259 97.5479 195.37 97.9687 196.223 98.7406C196.783 99.2461 197.613 98.4197 197.05 97.9142Z" fill="white"/>
<path d="M206.019 72.5802C206.555 71.3966 206.991 70.0042 206.643 68.6964C206.352 67.6067 204.884 67.7611 204.139 68.4179C203.443 69.0324 202.574 70.9547 202.435 72.6105C204.091 72.7649 204.154 73.9303 204.957 74.3814C205.411 73.8425 205.768 73.1312 206.019 72.5802Z" fill="black"/>
<path d="M220.792 75.1714C220.419 74.0696 218.894 73.7759 218.076 74.4631C217.277 75.1321 216.236 77.5417 216.178 79.3973C216.208 79.4064 216.239 79.4124 216.269 79.4215C217.144 79.697 217.628 80.8473 218.433 81.5738C219.26 81.0652 219.865 79.9392 220.238 79.137C220.798 77.9201 221.237 76.4943 220.792 75.1714Z" fill="black"/>
<path fill-rule="evenodd" clip-rule="evenodd" d="M135.157 101.798C135.345 103.2 134.497 103.56 133.995 104.268C134.755 104.168 135.811 103.714 136.61 104.123C137.782 105.936 135.275 107.159 134.431 108.337C135.372 107.91 137.328 107.298 138.063 108.337C138.172 110.48 136.713 111.055 135.884 112.26C136.647 112.199 138.76 110.91 139.807 111.969C140.037 114.049 134.945 125.273 134.839 123.285C134.189 110.916 124.066 109.217 122.08 108.888C120.539 108.63 113.326 108.294 111.812 107.435C109.714 106.245 110.329 105.261 110.626 104.256C110.804 103.654 110.232 103.006 110.677 102.409C110.84 102.189 112.097 101.683 112.684 100.79C113.168 100.054 112.999 98.895 113.099 98.8102C114.979 97.1726 124.238 99.4217 122.837 98.4076C120.055 96.3916 120.785 94.99 121.072 94.6752C122.504 93.1041 129.046 94.0213 131.643 94.5753C136.665 95.6439 140.116 97.1151 140.646 99.5368C141.015 101.244 136.244 100.799 135.157 101.798Z" fill="#10D078"/>
<path fill-rule="evenodd" clip-rule="evenodd" d="M119.795 95.7075C120.016 96.7125 120.815 97.4299 121.82 97.9506C121.045 97.9475 114.319 97.8113 113.559 97.9324C111.679 98.2321 111.806 99.7305 112.681 100.79C112.421 100.802 112.16 100.82 111.897 100.851C111.074 100.941 109.481 101.526 109.439 102.558C109.415 103.118 109.605 103.587 109.938 103.95C109.669 104.056 109.409 104.211 109.166 104.423C109.033 104.538 109 104.967 109 105.098C109.191 106.03 109.757 106.529 110.044 106.835C110.626 107.441 111.649 107.992 113.323 108.297C114.836 108.576 125.077 109.711 126.945 110.819C127.853 111.358 128.089 111.218 128.395 110.87C128.661 110.565 128.361 110.477 127.904 110.192C125.761 108.851 115.178 107.474 113.904 107.286C112.066 107.017 109.615 105.57 110.85 104.834C111.997 104.68 113.356 105.194 114.406 105.382C116.565 105.764 118.726 106.106 120.83 106.729C121.52 106.935 121.905 105.876 121.208 105.67C118.669 104.919 116.056 104.637 113.477 104.077C112.817 103.935 112.124 103.772 111.446 103.735C109.306 102.503 112.451 101.955 113.18 101.94C114.176 101.919 115.178 102.046 116.162 102.182C118.142 102.458 120.082 102.96 122.065 103.218C122.81 103.315 122.898 102.176 122.165 102.064C119.589 101.668 116.973 100.95 114.346 100.799C113.968 100.636 113.641 100.4 113.371 100.085C112.357 99.0373 114.473 98.9889 114.646 98.9858C115.614 98.9616 116.586 99.0222 117.549 99.0918C119.441 99.225 125.988 99.5489 127.886 99.6155C128.637 99.6427 128.74 98.4773 127.986 98.4531C127.048 98.4198 127.387 98.4319 126.427 98.3259C124.747 97.8053 122.997 97.4299 121.566 96.3492C120.591 95.6136 121.087 95.1959 121.992 94.9355C122.522 94.7842 123.097 94.7025 123.645 94.6813C124.387 94.651 124.496 93.4916 123.745 93.5188C122.634 93.5612 119.395 93.8821 119.795 95.7075Z" fill="#457F46"/>
<path fill-rule="evenodd" clip-rule="evenodd" d="M160.004 172.705C159.332 171.821 160.528 170.992 160.876 170.235C160.058 170.502 159.341 171.416 158.26 170.962C157.64 170.284 158.357 169.485 158.696 168.928C158.033 169.197 157.001 170.108 156.226 169.363C156.108 167.042 158.23 165.119 159.859 163.987C165.177 160.285 172.47 158.408 180.637 157.158C188.389 155.971 197.401 155.899 206.501 155.414C209.174 155.272 212.749 155.106 214.492 154.252C215.397 153.807 216.121 152.623 216.817 151.346C217.459 150.168 218.237 148.803 218.561 147.859C219.202 145.991 219.411 143.851 219.868 141.901C221.212 136.168 222.899 130.426 224.809 125.046C227.442 117.63 230.56 111.397 235.416 106.593C236.248 105.77 237.42 104.762 238.467 104.123C239.545 103.466 240.928 102.73 242.681 102.525C246.404 102.089 248.908 102.845 249.801 105.431C250.645 107.873 250.521 112.417 250.382 115.892C250.243 119.367 249.722 122.821 249.219 125.628C248.078 132.012 246.483 137.918 244.86 143.064C242.281 151.252 239.357 159.189 234.689 165.731C233.16 167.874 231.038 170.169 229.168 171.107C227.333 172.027 224.675 172.4 222.339 172.851C215.37 174.195 206.882 174.74 198.945 174.74C196.187 174.74 193.46 174.779 190.663 174.594C188.029 174.422 185.323 174.198 182.671 174.158C177.219 174.074 171.253 173.429 166.397 174.449C165.174 174.706 164.363 175.43 162.91 175.03C162.129 173.299 163.861 172.039 164.799 171.107C163.176 171.528 161.969 173.111 160.004 172.705Z" fill="#10D078"/>
<path fill-rule="evenodd" clip-rule="evenodd" d="M224.948 127.011C224.47 130.998 222.75 134.642 221.857 138.529C221.016 142.192 220.592 145.982 219.302 149.53C218.373 152.088 216.993 154.588 214.256 155.49C210.427 156.755 206.192 156.68 202.199 156.783C197.661 156.898 193.115 156.801 188.583 157.076C184.17 157.346 179.771 158.09 175.473 159.117C171.431 160.082 167.339 161.242 163.552 162.976C160.628 164.317 157.688 166.158 157.056 169.554C156.907 170.347 155.699 170.011 155.848 169.221C156.393 166.297 158.563 164.193 161.097 162.807C164.306 161.051 167.881 159.87 171.389 158.88C175.479 157.73 179.65 156.864 183.861 156.283C187.969 155.717 192.113 155.654 196.254 155.614C200.628 155.572 205.066 155.617 209.425 155.181C211.42 154.982 214.162 154.752 215.688 153.271C216.844 152.151 217.583 150.704 218.101 149.194C219.327 145.607 219.759 141.859 220.658 138.193C221.597 134.37 223.098 130.728 223.894 126.863C224.016 126.281 225.021 126.409 224.948 127.011ZM164.708 164.735C163.488 164.553 162.323 165.328 161.415 166.064C160.352 166.927 159.293 167.922 158.536 169.073C158.218 169.557 158.896 169.987 159.29 169.654C160.879 168.307 162.317 166.124 164.551 165.894C165.159 165.831 165.417 164.838 164.708 164.735ZM166.131 166.236C165.017 166.503 163.979 167.096 163.028 167.723C162.184 168.28 161.027 169.046 160.594 169.99C160.419 170.374 160.803 170.904 161.227 170.623C161.978 170.12 162.613 169.445 163.367 168.928C164.324 168.271 165.344 167.75 166.452 167.399C167.193 167.166 166.888 166.055 166.131 166.236ZM169.167 168.21C167.496 168.192 165.75 169.379 164.614 170.511C164.106 171.019 164.875 171.779 165.398 171.295C166.515 170.259 167.838 169.627 169.322 169.336C169.969 169.209 169.797 168.219 169.167 168.21Z" fill="#457F46"/>
<path fill-rule="evenodd" clip-rule="evenodd" d="M244.591 98.6407C241.652 98.2563 238.525 99.3097 236.236 101.147C232.549 104.111 229.752 108.191 227.63 112.375C225.345 116.882 223.837 121.786 223.834 126.86C223.834 126.89 223.84 126.914 223.843 126.941C223.761 127.468 224.551 127.831 224.906 127.295C225.674 126.133 225.971 124.662 226.495 123.381C227.264 121.508 227.893 119.594 228.741 117.748C230.367 114.206 232.501 110.922 235.255 108.155C237.108 106.296 239.16 104.949 241.582 103.95C243.289 103.245 247.303 101.701 248.196 104.274C248.287 104.535 248.502 104.622 248.696 104.589C248.935 104.604 249.21 104.435 249.229 104.156C249.419 101.247 247.439 99.01 244.591 98.6407ZM236.769 105.194C233.4 107.904 230.796 111.212 228.747 115.014C227.742 116.879 226.916 118.835 226.162 120.814C225.805 121.756 225.511 122.785 225.178 123.796C226.065 116.377 229.997 109.063 235.128 103.82C237.277 101.622 239.751 100.054 242.872 99.7941C244.149 99.6881 245.432 99.8758 246.531 100.56C247.119 100.926 247.503 101.441 247.766 102.028C244.945 100.448 238.567 103.747 236.769 105.194Z" fill="white"/>
<path fill-rule="evenodd" clip-rule="evenodd" d="M229.773 165.849C229.053 163.509 227.948 161.187 226.583 159.156C225.139 157.004 223.241 155.166 220.94 153.961C219.205 153.053 216.729 152.148 215.013 153.48C214.886 153.577 214.871 153.719 214.919 153.846C214.819 153.983 214.789 154.176 214.937 154.297C215.382 154.652 215.912 154.676 216.439 154.9C217.329 155.284 218.076 155.984 218.77 156.64C219.977 157.782 220.997 159.117 222.048 160.397C223.577 162.262 224.875 164.414 225.974 166.557C226.916 168.392 227.687 170.308 228.989 171.924C229.207 172.197 229.501 172.167 229.707 171.997C229.873 171.994 230.043 171.921 230.161 171.77C231.235 170.371 230.224 167.32 229.773 165.849ZM226.495 165.029C225.363 162.925 223.976 160.927 222.469 159.074C221.297 157.636 220.117 156.198 218.688 155.006C218.322 154.7 217.737 154.249 217.111 153.925C218.697 154.031 220.277 154.824 221.579 155.651C223.452 156.84 224.906 158.65 226.086 160.497C227.112 162.101 227.878 163.933 228.508 165.722C229.013 167.157 229.513 168.885 229.368 170.468C228.199 168.794 227.457 166.815 226.495 165.029Z" fill="white"/>
<path fill-rule="evenodd" clip-rule="evenodd" d="M193.784 161.311C193.075 159.141 190.629 153.289 187.536 155.605C187.142 155.514 186.764 156.023 187.094 156.407C191.598 161.635 189.994 169.627 193.015 175.518C193.091 175.663 193.212 175.742 193.348 175.769C193.602 175.899 193.926 175.869 194.099 175.545C196.317 171.416 195.17 165.552 193.784 161.311ZM193.563 173.804C192.552 170.653 192.076 167.411 191.401 164.16C190.838 161.45 190.13 158.457 188.289 156.298C191.102 156.098 192.294 160.388 192.954 162.601C193.926 165.879 194.765 170.374 193.563 173.804Z" fill="white"/>
<path fill-rule="evenodd" clip-rule="evenodd" d="M182.683 99.8364C180.54 98.8314 178.279 100.357 176.717 101.753C174.471 103.757 172.763 106.439 171.319 109.051C169.573 112.208 168.655 115.65 167.929 119.171C167.445 121.508 167.205 123.875 166.872 126.233C166.564 128.415 166.309 130.589 166.779 132.768V132.772C166.67 133.398 167.569 133.87 167.871 133.22C172.921 122.361 174.489 109.744 183.016 100.754C183.367 100.384 183.065 99.8879 182.683 99.8364ZM168.095 126.039C168.38 124.035 168.607 122.031 168.97 120.039C169.57 116.77 170.366 113.455 171.867 110.474C173.069 108.091 174.531 105.806 176.287 103.793C177.703 102.167 179.471 100.608 181.666 100.593C173.862 108.721 171.87 120.397 167.705 130.568C167.656 129.057 167.88 127.544 168.095 126.039Z" fill="white"/>
<path fill-rule="evenodd" clip-rule="evenodd" d="M198.627 137.769C198.676 137.624 198.664 137.488 198.615 137.367C200.586 136.213 202.311 134.567 203.725 132.862C205.817 130.338 207.236 127.347 208.471 124.338C209.195 122.57 210.248 119.446 208.371 117.963C206.455 116.446 203.704 117.318 201.606 117.963C198.231 119.001 195.058 120.702 192.173 122.718C190.657 123.778 188.916 125.219 187.56 126.893C183.994 126.769 180.489 130.023 179.795 133.41C179.726 133.749 180.029 134.1 180.38 134.061C181.139 133.976 181.787 133.674 182.477 133.356C183.358 132.95 184.315 132.756 185.262 132.551C185.284 133.368 185.465 134.2 185.862 135.039C185.91 135.145 185.983 135.22 186.065 135.278C184.942 136.495 184.064 137.957 184.033 139.628C184.03 139.855 184.254 140.112 184.484 140.13C186.555 140.291 188.368 139.368 189.97 138.16C190.463 138.656 191.147 138.904 191.895 139.004C191.162 140.394 190.451 141.814 189.97 143.312C189.833 143.73 190.066 144.096 190.518 144.108C194.253 144.211 197.513 141.184 198.627 137.769ZM182.938 132.003C182.308 132.178 181.739 132.514 181.133 132.741C181.993 130.422 184.273 128.428 186.715 128.046C186.019 129.118 185.511 130.262 185.329 131.449C184.53 131.624 183.728 131.782 182.938 132.003ZM185.178 139.053C185.456 137.261 187.009 135.759 188.332 134.657C189.721 133.501 191.447 132.166 193.33 132.115C193.369 133.777 191.183 135.723 190.091 136.64C188.704 137.809 187.045 138.989 185.178 139.053ZM190.781 137.509C192.246 136.28 194.801 133.916 194.419 131.767C194.401 131.658 194.356 131.57 194.298 131.5C194.283 131.303 194.156 131.131 193.884 131.091C191.441 130.758 189.216 132.505 187.445 133.973C187.245 134.137 187.048 134.312 186.852 134.491C185.102 130.432 189.001 126.572 191.94 124.311C194.086 122.661 196.451 121.302 198.921 120.203C201.128 119.219 203.785 118.151 206.253 118.296C211.529 118.605 204.751 129.587 203.531 131.291C201.969 133.474 199.98 135.278 197.652 136.604C196.245 137.406 192.37 138.829 190.781 137.509ZM191.286 142.946C191.798 141.653 192.464 140.43 192.973 139.132C192.985 139.104 192.991 139.077 192.997 139.05C193.914 139.016 194.834 138.835 195.552 138.653C196.157 138.499 196.747 138.29 197.319 138.036C196.248 140.53 194.008 142.634 191.286 142.946Z" fill="white"/>
<path fill-rule="evenodd" clip-rule="evenodd" d="M201.818 127.529C202.12 125.764 200.234 124.12 198.603 124.053C196.823 123.981 195.352 125.222 195.206 127.017C195.049 128.918 196.59 130.111 198.415 130.304C199.635 130.435 201.533 129.196 201.818 127.529ZM196.329 127.247C196.284 126.124 197.198 125.288 198.258 125.186C199.378 125.08 200.573 126 200.728 127.123C200.816 127.774 200.237 128.44 199.768 128.809C199.399 129.103 198.96 129.206 198.512 129.215C198.5 129.212 198.491 129.209 198.476 129.206C197.286 129.051 196.381 128.546 196.329 127.247Z" fill="white"/>
<path fill-rule="evenodd" clip-rule="evenodd" d="M189.851 141.323C190.076 140.657 189.077 140.176 188.85 140.854C188.081 143.145 185.732 144.523 183.44 144.85C181.975 145.062 180.495 144.701 179.039 144.68C179.574 143.808 179.744 142.837 179.732 141.653C179.702 138.611 180.682 135.929 183.894 135.033C184.403 134.891 184.23 134.019 183.706 134.119C181.4 134.57 179.765 136.132 179.005 138.341C178.264 140.5 179.369 143.182 177.504 144.865C177.035 145.289 177.374 145.967 177.994 145.837C179.148 145.597 180.419 146.003 181.59 146.018C182.901 146.036 184.188 145.93 185.432 145.498C187.354 144.829 189.198 143.276 189.851 141.323Z" fill="white"/>
<path fill-rule="evenodd" clip-rule="evenodd" d="M203.295 184.678C202.017 185.743 200.392 186.14 198.827 186.697C194.156 188.349 189.449 189.911 184.409 191.743C179.974 193.356 174.922 194.894 169.703 196.501C167.874 197.065 166.188 197.97 164.657 197.942C162.674 197.906 159.946 196.399 158.312 195.636C148.455 191.038 140.306 186.161 130.774 180.642C129.518 179.916 127.45 178.693 125.44 177.47C122.988 175.981 120.07 174.818 120.827 171.558C121.402 169.085 125.564 167.919 128.18 166.945C134.089 164.741 140.588 163.715 146.924 162.044C149.963 161.242 153.154 160.182 156.583 159.882C159.716 159.607 162.622 160.933 165.09 161.902C170.88 164.175 176.378 166.294 182.247 168.822C187.696 171.168 193.127 173.713 198.397 176.753C199.971 177.661 202.538 178.981 203.01 180.07C203.546 181.302 203.144 183.091 203.295 184.678Z" fill="#C6B4B3"/>
<path fill-rule="evenodd" clip-rule="evenodd" d="M202.629 180.733C196.305 183.358 189.997 185.652 183.41 187.547C180.131 188.489 176.841 189.391 173.569 190.35C172.031 190.801 170.499 191.274 168.97 191.764C167.372 192.279 165.81 193.087 164.148 193.335C164.072 193.347 164.009 193.371 163.957 193.405C162.099 192.833 160.388 191.903 158.663 191.019C156.901 190.117 155.043 189.43 153.229 188.634C149.506 187.002 146.034 185.008 142.528 182.958C138.956 180.869 135.133 179.253 131.634 177.031C129.89 175.923 128.18 174.77 126.391 173.732C124.82 172.817 123.173 171.912 121.89 170.608C121.42 170.129 120.688 170.865 121.157 171.34C122.295 172.496 123.694 173.332 125.083 174.158C126.96 175.272 128.8 176.429 130.635 177.615C134.28 179.97 138.263 181.675 142.014 183.839C145.698 185.967 149.327 188.023 153.232 189.73C155.034 190.517 156.862 191.222 158.618 192.106C160.273 192.939 161.914 193.753 163.7 194.252C163.6 194.697 163.661 195.182 163.697 195.636C163.746 196.256 163.785 196.889 163.867 197.507C163.951 198.151 164.823 198.173 164.884 197.507C164.935 196.968 164.817 196.405 164.757 195.866C164.699 195.345 164.732 194.755 164.62 194.228C166.04 193.971 167.354 193.311 168.719 192.86C170.408 192.3 172.116 191.785 173.82 191.277C177.089 190.305 180.38 189.406 183.658 188.468C190.145 186.609 196.986 184.729 202.904 181.402C203.268 181.205 203.019 180.57 202.629 180.733Z" fill="white"/>
<path fill-rule="evenodd" clip-rule="evenodd" d="M175.551 192.2C175.545 191.903 175.264 191.679 174.973 191.758C173.369 192.194 171.528 192.587 170.133 193.535C170.009 193.62 169.975 193.753 170.003 193.874C169.885 194.355 169.939 194.84 170.027 195.333C170.087 195.666 170.475 195.736 170.732 195.621C172.109 195.003 173.765 194.909 175.037 194.062C175.288 194.089 175.563 193.938 175.576 193.605C175.588 193.138 175.56 192.666 175.551 192.2ZM174.61 193.169C173.45 193.847 172.116 194.047 170.874 194.519C170.856 194.337 170.835 194.155 170.799 193.977C172.079 193.611 173.329 193.144 174.619 192.793C174.613 192.92 174.61 193.045 174.61 193.169Z" fill="white"/>
<path fill-rule="evenodd" clip-rule="evenodd" d="M179.644 190.801C179.532 190.629 179.368 190.577 179.223 190.608C179.217 190.608 179.214 190.605 179.211 190.608C178.512 190.702 177.846 190.898 177.204 191.186C177.077 191.243 177.001 191.407 177.001 191.537C177.004 192.003 177.047 192.463 177.125 192.923C177.165 193.163 177.428 193.241 177.631 193.211C178.236 193.123 178.799 192.878 179.399 192.769C179.562 192.739 179.729 192.536 179.704 192.366C179.635 191.855 179.95 191.274 179.644 190.801ZM178.863 192.043C178.53 192.133 178.203 192.242 177.867 192.324C177.846 192.151 177.834 191.979 177.828 191.803C178.197 191.658 178.575 191.546 178.945 191.407C178.936 191.525 178.905 191.658 178.893 191.743C178.878 191.846 178.869 191.946 178.863 192.043Z" fill="white"/>
<path fill-rule="evenodd" clip-rule="evenodd" d="M183.05 189.324C182.753 189.303 182.477 189.351 182.199 189.46C181.857 189.594 181.509 189.7 181.164 189.827C181.021 189.881 180.937 189.987 180.903 190.102C180.867 190.145 180.84 190.202 180.831 190.272C180.752 190.765 180.707 191.262 180.74 191.761C180.758 192.018 180.97 192.191 181.227 192.133C181.848 191.994 182.55 191.803 183.11 191.495C183.549 191.252 183.607 190.786 183.603 190.332C183.597 189.869 183.646 189.367 183.05 189.324ZM182.368 190.953C182.081 191.059 181.793 191.165 181.5 191.259C181.506 191.025 181.524 190.792 181.557 190.559C181.92 190.426 182.287 190.29 182.65 190.172C182.692 190.157 182.738 190.151 182.78 190.148C182.78 190.244 182.78 190.338 182.78 190.435C182.789 190.798 182.723 190.823 182.368 190.953Z" fill="white"/>
<path d="M169.188 189.182C168.159 188.395 166.972 187.136 165.71 186.748C165.105 186.56 164.221 186.869 163.861 187.417C163.513 187.947 163.755 188.383 164.218 188.692C164.433 188.834 164.723 188.873 164.944 189.012C165.238 189.2 165.459 189.494 165.719 189.721C166.173 190.117 166.764 190.223 167.227 190.593C167.33 190.674 167.448 190.674 167.545 190.635C167.596 190.638 167.648 190.635 167.702 190.611C168.262 190.35 168.761 190.036 169.246 189.654C169.418 189.521 169.325 189.285 169.188 189.182ZM165.943 189.1C165.601 188.788 165.135 188.577 164.814 188.283C163.933 187.478 165.183 187.242 165.759 187.432C166.086 187.541 166.406 187.82 166.676 188.017C167.308 188.471 167.923 188.958 168.541 189.439C168.208 189.675 167.862 189.872 167.487 190.051C166.985 189.7 166.415 189.53 165.943 189.1Z" fill="white"/>
<path d="M173.124 188.044C172.382 187.447 171.522 186.918 170.696 186.448C169.966 186.034 169.14 186.452 168.407 186.736C168.32 186.769 168.265 186.83 168.235 186.9C168.011 186.993 167.962 187.384 168.262 187.466C168.78 187.611 169.088 188.195 169.5 188.51C169.818 188.752 170.221 189.07 170.602 189.206C171.356 189.475 172.412 188.852 173.066 188.516C173.224 188.434 173.272 188.162 173.124 188.044ZM169.9 188.053C169.546 187.783 169.288 187.426 168.955 187.166C169.24 187.06 169.533 186.96 169.827 186.912C170.272 186.836 170.463 187.012 170.835 187.248C171.335 187.562 171.858 187.862 172.343 188.207C172.001 188.374 171.64 188.531 171.28 188.595C170.732 188.692 170.327 188.377 169.9 188.053Z" fill="white"/>
<path d="M177.18 186.666C176.26 186.106 175.336 185.549 174.416 184.986C173.75 184.578 173.139 183.812 172.424 183.521C171.601 183.188 169.909 183.715 169.182 184.108C169.098 184.154 169.022 184.269 169.034 184.369C169.04 184.42 169.043 184.469 169.049 184.517C169.064 184.656 169.134 184.762 169.27 184.808C169.285 184.814 169.303 184.82 169.319 184.823C169.328 184.832 169.328 184.841 169.337 184.847C169.882 185.298 170.478 185.601 171.077 185.967C171.743 186.373 172.24 186.972 172.891 187.384C174.204 188.216 175.724 187.559 177.104 187.211C177.365 187.154 177.398 186.8 177.18 186.666ZM174.319 187.226C173.535 187.105 172.909 186.6 172.324 186.122C171.525 185.468 170.56 185.086 169.767 184.426C169.748 184.411 169.73 184.408 169.712 184.396C169.679 184.342 169.63 184.296 169.555 184.272C170.39 184.55 170.908 184.021 171.701 184.084C172.379 184.139 172.709 184.569 173.196 184.923C174.171 185.628 175.243 186.224 176.284 186.839C175.621 187.051 174.834 187.305 174.319 187.226Z" fill="white"/>
<path d="M182.023 185.365C180.534 184.856 179.117 183.657 177.779 182.879C176.562 182.171 176.057 183.288 174.798 183.276C174.577 183.273 174.413 183.536 174.537 183.73C175.061 184.538 175.836 184.569 176.559 185.135C177.262 185.683 177.631 186.291 178.448 186.621C178.442 186.812 178.584 187.002 178.808 186.912C179.859 186.485 180.912 186.167 182.023 185.946C182.335 185.885 182.281 185.456 182.023 185.365ZM176.941 184.62C176.469 184.26 175.866 184.166 175.406 183.803C175.569 183.757 175.733 183.694 175.915 183.615C176.753 183.252 176.674 183.028 177.695 183.636C177.888 183.751 178.046 183.921 178.245 184.039C178.866 184.408 179.529 184.599 180.137 185.014C180.431 185.213 180.713 185.398 181.006 185.558C180.301 185.734 179.614 185.958 178.93 186.224C178.896 186.173 178.848 186.131 178.778 186.106C177.876 185.813 177.622 185.141 176.941 184.62Z" fill="white"/>
<path d="M186.258 183.863C185.244 182.843 183.724 182.126 182.495 181.408C181.294 180.709 179.937 181.26 178.757 181.79C178.593 181.862 178.551 182.15 178.696 182.262C180.04 183.306 181.412 184.311 182.813 185.28C182.88 185.325 182.946 185.337 183.007 185.328C183.061 185.353 183.128 185.362 183.207 185.328C184.16 184.935 185.123 184.617 186.125 184.366C186.349 184.308 186.416 184.021 186.258 183.863ZM179.499 182.117C180.531 181.684 181.336 181.523 182.477 182.156C182.729 182.295 182.956 182.498 183.207 182.643C183.961 183.085 184.745 183.4 185.426 183.93C184.63 184.154 183.855 184.417 183.086 184.732C181.866 183.893 180.673 183.019 179.499 182.117Z" fill="white"/>
<path d="M182.62 171.755C178.324 169.787 174.029 167.82 169.733 165.855C169.503 165.749 169.294 165.94 169.279 166.127C167.69 166.136 166.255 166.92 164.705 167.229C163.37 167.496 161.95 167.39 160.812 168.234C160.676 168.334 160.582 168.576 160.752 168.706C164.115 171.34 168.365 173.09 172.294 174.709C173.06 175.024 173.768 175.369 174.61 175.269C175.582 175.154 176.711 174.621 177.613 174.267C178.43 173.946 179.196 173.532 179.992 173.165C180.815 172.787 181.899 172.811 182.623 172.278C182.78 172.157 182.847 171.861 182.62 171.755ZM177.894 173.498C177.035 173.862 176.126 174.228 175.221 174.467C173.762 174.851 172.836 174.307 171.519 173.731C168.123 172.242 164.475 170.768 161.49 168.522C162.507 167.98 163.739 168.041 164.866 167.813C166.418 167.502 167.89 166.669 169.494 166.736C169.648 166.742 169.739 166.648 169.769 166.536C173.768 168.367 177.77 170.199 181.769 172.03C181.263 172.197 180.688 172.23 180.198 172.418C179.408 172.714 178.672 173.168 177.894 173.498Z" fill="white"/>
<path d="M169.213 185.456C168.286 184.811 167.275 183.854 166.237 183.418C165.526 183.119 164.76 183.609 164.139 183.945C163.964 184.042 163.951 184.281 164.079 184.417C164.866 185.259 165.955 185.725 166.712 186.594C166.8 186.697 166.912 186.706 167.006 186.669C167.057 186.672 167.115 186.666 167.172 186.63C167.808 186.249 168.574 186.37 169.213 185.973C169.415 185.849 169.397 185.583 169.213 185.456ZM164.79 184.266C164.987 184.154 165.193 184.048 165.392 184.006C166.061 183.863 166.449 184.269 166.933 184.602C167.439 184.95 167.944 185.301 168.45 185.655C167.977 185.801 167.472 185.819 167.015 186.037C166.355 185.347 165.495 184.905 164.79 184.266Z" fill="white"/>
<path d="M165.171 185.683C164.754 185.292 164.302 184.947 163.815 184.647C163.485 184.441 163.182 184.962 163.512 185.168C163.818 185.359 164.103 185.574 164.378 185.801C164.036 185.97 163.715 186.197 163.397 186.391C163.067 186.591 163.37 187.111 163.7 186.912C164.121 186.657 164.557 186.312 165.038 186.188C165.253 186.131 165.338 185.837 165.171 185.683Z" fill="white"/>
<path d="M171.459 182.226C170.787 181.672 170.124 181.012 169.4 180.524C168.919 180.201 168.768 180.367 168.144 180.537C167.496 180.715 166.558 180.791 165.995 181.139C165.771 181.278 165.659 181.378 165.683 181.663C165.695 181.811 165.771 181.896 165.904 181.953C165.91 181.956 165.913 181.956 165.919 181.959C165.937 182.023 165.977 182.083 166.049 182.126C166.767 182.537 167.466 183.5 168.323 183.63C168.607 183.673 168.877 183.609 169.14 183.506C169.885 183.216 170.399 182.792 171.244 182.737C171.483 182.725 171.677 182.404 171.459 182.226ZM166.397 181.632C166.845 181.502 168.525 181.009 168.707 181.006C169.334 181 170.039 181.705 170.596 182.244C170.148 182.365 169.764 182.562 169.282 182.758C168.108 183.243 167.296 182.171 166.397 181.632Z" fill="white"/>
<path d="M176.892 181.596C175.851 180.621 174.673 179.689 173.369 179.093C172.303 178.608 171.062 179.474 170.045 179.855C169.8 179.946 169.748 180.255 169.972 180.406C171.113 181.163 172.221 181.962 173.305 182.801C173.335 182.94 173.453 183.058 173.623 183.046C173.641 183.058 173.656 183.073 173.674 183.085C173.877 183.246 174.132 183.106 174.189 182.925C175.067 182.713 175.918 182.444 176.762 182.098C176.956 182.017 177.074 181.765 176.892 181.596ZM173.656 179.928C174.549 180.403 175.361 181.027 176.114 181.702C175.345 181.989 174.567 182.223 173.765 182.404C172.781 181.641 171.776 180.909 170.747 180.21C171.21 180.007 171.692 179.792 172.155 179.701C172.784 179.577 173.033 179.595 173.656 179.928Z" fill="white"/>
<path d="M180.673 179.752C179.998 179.25 179.256 178.974 178.627 178.393C178.194 177.997 177.806 177.564 177.259 177.325C176.962 177.195 176.644 177.119 176.32 177.149C175.548 177.219 175.082 178.036 174.307 178.039C174.098 178.039 174.004 178.218 174.023 178.378C173.944 178.508 173.95 178.687 174.125 178.775C174.928 179.18 175.69 179.646 176.387 180.222C176.82 180.579 177.255 181.245 177.74 181.505C178.621 181.977 179.962 180.688 180.676 180.273C180.885 180.149 180.849 179.883 180.673 179.752ZM176.959 179.925C176.332 179.386 175.651 178.929 174.931 178.526C175.015 178.493 175.103 178.454 175.194 178.399C175.388 178.287 175.551 178.1 175.751 178.009C176.402 177.715 177.289 177.979 177.8 178.433C178.5 179.053 179.235 179.477 179.977 179.992C179.553 180.267 179.111 180.57 178.663 180.739C177.819 181.066 177.555 180.44 176.959 179.925Z" fill="white"/>
<path d="M174.589 176.731C174.029 176.423 173.466 176.117 172.93 175.769C172.467 175.466 172.052 175.027 171.558 174.773C170.702 174.334 169.576 174.806 168.719 175.027C168.489 175.088 168.44 175.366 168.586 175.53C169.545 176.616 170.605 177.573 171.779 178.42C171.885 178.496 171.988 178.487 172.067 178.436C172.152 178.511 172.276 178.539 172.403 178.469C173.133 178.063 173.862 177.658 174.589 177.252C174.782 177.143 174.785 176.84 174.589 176.731ZM172.121 177.936C172.109 177.924 172.097 177.912 172.082 177.903C171.086 177.182 170.187 176.371 169.355 175.475C169.7 175.375 170.054 175.278 170.399 175.248C171.259 175.172 171.368 175.399 171.964 175.829C172.557 176.259 173.181 176.631 173.817 176.992C173.254 177.307 172.688 177.621 172.121 177.936Z" fill="white"/>
<path d="M165.289 182.326C165.026 181.881 164.714 181.472 164.33 181.121C163.894 180.724 163.349 180.449 163.028 179.94C162.822 179.613 162.302 179.916 162.507 180.243C162.768 180.658 163.125 180.93 163.509 181.224C163.93 181.548 164.278 181.908 164.575 182.332C164.033 182.543 163.491 182.755 162.949 182.967C162.592 183.107 162.747 183.688 163.11 183.548C163.776 183.288 164.445 183.028 165.111 182.767C165.286 182.698 165.395 182.507 165.289 182.326Z" fill="white"/>
<path fill-rule="evenodd" clip-rule="evenodd" d="M212.243 167.638C212.149 167.493 212.064 167.347 211.952 167.202L212.243 167.638Z" fill="black"/>
<path fill-rule="evenodd" clip-rule="evenodd" d="M159.716 172.36C159.044 171.476 160.24 170.647 160.588 169.89C159.771 170.156 159.053 171.071 157.973 170.617C157.352 169.939 158.07 169.139 158.409 168.582C157.746 168.852 156.713 169.763 155.939 169.018C155.82 166.696 157.943 164.774 159.571 163.642C164.89 159.94 172.182 158.063 180.349 156.813C188.102 155.626 197.113 155.554 206.213 155.069C208.886 154.927 212.461 154.761 214.205 153.907C215.11 153.462 215.833 152.278 216.529 151.001C217.171 149.823 217.949 148.458 218.273 147.514C218.915 145.646 219.124 143.506 219.581 141.556C220.925 135.823 222.611 130.08 224.521 124.701C227.155 117.285 230.273 111.052 235.128 106.248C235.961 105.424 237.132 104.416 238.179 103.778C239.257 103.121 240.64 102.385 242.393 102.179C246.117 101.743 248.62 102.5 249.513 105.085C250.358 107.528 250.233 112.072 250.094 115.547C249.955 119.022 249.434 122.476 248.932 125.282C247.791 131.667 246.195 137.573 244.573 142.719C241.994 150.907 239.069 158.844 234.402 165.386C232.873 167.529 230.751 169.824 228.88 170.762C227.046 171.682 224.388 172.054 222.051 172.506C215.082 173.85 206.594 174.394 198.657 174.394C195.9 174.394 193.172 174.434 190.375 174.249C187.742 174.077 185.035 173.853 182.383 173.813C176.932 173.728 170.965 173.084 166.11 174.104C164.887 174.361 164.075 175.085 162.622 174.685C161.841 172.954 163.573 171.694 164.511 170.762C162.889 171.183 161.681 172.766 159.716 172.36Z" fill="#10D078"/>
<path fill-rule="evenodd" clip-rule="evenodd" d="M224.66 126.666C224.182 130.653 222.463 134.297 221.57 138.184C220.728 141.847 220.304 145.637 219.015 149.185C218.085 151.743 216.705 154.243 213.969 155.145C210.139 156.41 205.904 156.335 201.912 156.438C197.374 156.553 192.827 156.456 188.296 156.731C183.882 157.001 179.484 157.745 175.185 158.771C171.144 159.737 167.051 160.897 163.264 162.631C160.34 163.972 157.401 165.813 156.768 169.209C156.62 170.002 155.412 169.666 155.56 168.876C156.105 165.952 158.276 163.848 160.809 162.462C164.018 160.706 167.593 159.525 171.101 158.535C175.191 157.385 179.362 156.519 183.573 155.938C187.681 155.372 191.825 155.308 195.966 155.269C200.34 155.227 204.778 155.272 209.137 154.836C211.132 154.636 213.875 154.406 215.4 152.926C216.557 151.806 217.295 150.359 217.813 148.849C219.039 145.261 219.472 141.514 220.371 137.848C221.309 134.025 222.811 130.383 223.607 126.517C223.731 125.936 224.733 126.063 224.66 126.666ZM164.421 164.39C163.201 164.208 162.035 164.983 161.127 165.719C160.065 166.581 159.005 167.577 158.248 168.728C157.93 169.212 158.609 169.642 159.002 169.309C160.591 167.962 162.029 165.779 164.263 165.549C164.872 165.486 165.129 164.493 164.421 164.39ZM165.843 165.891C164.729 166.158 163.691 166.751 162.741 167.378C161.896 167.935 160.74 168.7 160.307 169.645C160.131 170.029 160.516 170.559 160.939 170.278C161.69 169.775 162.326 169.1 163.08 168.582C164.036 167.926 165.056 167.405 166.164 167.054C166.906 166.821 166.603 165.71 165.843 165.891ZM168.88 167.865C167.209 167.847 165.462 169.033 164.327 170.166C163.818 170.674 164.587 171.434 165.111 170.95C166.228 169.914 167.551 169.282 169.034 168.991C169.685 168.864 169.512 167.874 168.88 167.865Z" fill="#457F46"/>
<path fill-rule="evenodd" clip-rule="evenodd" d="M229.485 165.504C228.765 163.164 227.66 160.842 226.295 158.811C224.851 156.659 222.953 154.821 220.652 153.616C218.918 152.708 216.442 151.803 214.725 153.135C214.598 153.232 214.583 153.374 214.631 153.501C214.532 153.637 214.501 153.831 214.65 153.952C215.095 154.306 215.624 154.331 216.151 154.555C217.041 154.939 217.789 155.638 218.482 156.295C219.69 157.437 220.71 158.771 221.76 160.052C223.289 161.917 224.588 164.069 225.686 166.212C226.628 168.047 227.4 169.963 228.701 171.579C228.919 171.852 229.213 171.821 229.419 171.652C229.585 171.649 229.755 171.576 229.873 171.425C230.948 170.026 229.937 166.975 229.485 165.504ZM226.21 164.683C225.078 162.58 223.692 160.582 222.184 158.729C221.013 157.291 219.832 155.853 218.403 154.661C218.037 154.355 217.453 153.904 216.826 153.58C218.412 153.686 219.992 154.479 221.294 155.305C223.168 156.495 224.621 158.305 225.801 160.152C226.828 161.756 227.594 163.588 228.223 165.377C228.729 166.812 229.228 168.54 229.083 170.123C227.911 168.449 227.173 166.469 226.21 164.683Z" fill="white"/>
<path fill-rule="evenodd" clip-rule="evenodd" d="M193.499 160.966C192.791 158.796 190.345 152.944 187.251 155.26C186.858 155.169 186.479 155.678 186.809 156.062C191.313 161.29 189.709 169.282 192.73 175.172C192.806 175.318 192.927 175.397 193.063 175.424C193.317 175.554 193.641 175.524 193.814 175.2C196.03 171.071 194.882 165.207 193.499 160.966ZM193.275 173.459C192.264 170.308 191.789 167.066 191.114 163.815C190.551 161.105 189.842 158.112 188.002 155.953C190.814 155.754 192.007 160.043 192.667 162.256C193.638 165.534 194.477 170.029 193.275 173.459Z" fill="white"/>
<path fill-rule="evenodd" clip-rule="evenodd" d="M121.896 170.608C121.896 170.608 114.461 131.679 114.158 129.796C113.855 127.916 113.704 126.554 115.823 127.613C117.942 128.673 158.657 149.863 159.111 150.468C159.565 151.074 159.868 152.133 159.868 152.89C159.868 153.647 163.96 193.405 163.96 193.405L137.515 180.279L121.896 170.608Z" fill="#C6B4B3"/>
<path d="M143.3 157.043C142.332 156.616 141.26 156.719 140.307 157.134C140.658 156.513 140.976 155.859 141.251 155.169C141.342 154.936 141.284 154.567 141.076 154.412C140.552 154.022 140.037 153.613 139.495 153.277C139.323 153.171 139.132 153.289 139.05 153.468C138.811 154.001 138.681 154.585 138.596 155.19C138.254 154.222 137.679 153.459 136.704 153.262C134.852 152.89 133.263 154.476 132.624 156.543C131.752 159.377 132.536 168.579 135.83 166.188C136.214 168.479 138.548 168.855 139.952 168.165C141.987 167.169 144.109 165.053 144.887 162.304C145.456 160.309 145.186 157.875 143.3 157.043ZM139.604 154.467C139.843 154.639 140.08 154.821 140.316 155.006C139.983 155.762 139.607 156.471 139.199 157.152C139.271 156.223 139.32 155.278 139.604 154.467ZM136.614 165.404C136.629 165.029 136.396 164.826 136.169 164.829C136.035 164.75 135.881 164.747 135.754 164.877C135.366 165.274 134.749 165.949 134.165 165.28C133.632 164.674 133.435 163.333 133.266 162.51C132.875 160.597 132.945 158.541 133.465 156.852C133.874 155.526 134.873 154.591 135.935 154.316C137.973 153.792 138.197 156.771 138.306 158.587C138.324 158.859 138.463 159.035 138.617 159.098C138.76 159.253 138.96 159.319 139.123 159.153C140.17 158.069 142.444 157.421 143.603 158.448C142.498 158.451 141.496 159.431 140.894 160.491C140.08 161.917 140.119 164.511 140.976 166.212C139.68 167.163 136.471 168.746 136.614 165.404ZM144.236 161.296C143.933 163.137 142.707 164.617 141.596 165.682C141.009 164.363 140.994 162.801 141.399 161.55C141.802 160.315 143.095 159.15 144.227 159.549C144.339 160.013 144.351 160.591 144.236 161.296Z" fill="white"/>
<path d="M160.582 160.282L161.173 166.088L162.214 175.079L162.825 182.295L163.222 184.917L163.961 193.405" stroke="white" stroke-miterlimit="10" stroke-linecap="round"/>
<path fill-rule="evenodd" clip-rule="evenodd" d="M139.168 103.351C136.626 103.191 134.059 103.079 131.9 104.641C131.268 105.098 130.662 104.047 131.289 103.596C131.61 103.366 131.94 103.169 132.276 103C131.728 102.758 131.183 102.515 130.635 102.27C130.032 102.004 129.436 101.771 128.934 101.335C128.346 100.826 129.2 99.9788 129.784 100.484C130.259 100.896 130.944 101.099 131.51 101.35C132.182 101.65 132.854 101.946 133.526 102.246C133.635 102.294 133.707 102.361 133.759 102.434C135.481 101.965 137.34 102.022 139.168 102.14C139.943 102.189 139.949 103.399 139.168 103.351Z" fill="#457F46"/>
<path fill-rule="evenodd" clip-rule="evenodd" d="M169.606 178.763C168.171 177.667 166.739 176.286 165.174 175.393C164.2 174.836 163.252 175.551 162.329 175.959C161.975 176.117 162.28 176.634 162.632 176.48C163.343 176.165 164.218 175.799 165.02 176.017C165.495 176.144 166.122 176.855 166.518 177.161C167.311 177.767 168.108 178.372 168.901 178.977C167.923 179.459 166.797 179.734 165.728 179.55C164.469 179.332 163.261 178.045 162.786 176.877C162.641 176.522 162.059 176.677 162.205 177.037C162.698 178.254 163.861 179.646 165.099 180.176C166.394 180.733 168.456 179.946 169.603 179.283C169.821 179.159 169.779 178.896 169.606 178.763Z" fill="white"/>
</g>
<g clip-path="url(#clip1)">
<path fill-rule="evenodd" clip-rule="evenodd" d="M142.959 87.7083L96.8699 74.9052C94.1666 74.1542 92.5724 71.386 93.3133 68.7187L100.803 41.7572C101.543 39.0933 104.337 37.5407 107.041 38.2916L153.13 51.0948C155.833 51.8457 157.427 54.6172 156.687 57.2812L149.197 84.2427C148.456 86.91 145.663 88.4593 142.959 87.7083Z" fill="url(#paint0_linear)"/>
<path d="M105.5 42.5L121.615 60.3118C123.385 62.2675 126.103 63.0627 128.648 62.3687L152 56" stroke="#80A3B6" stroke-linecap="round"/>
</g>
<path fill-rule="evenodd" clip-rule="evenodd" d="M79.5662 68.4541C77.5972 75.3306 81.576 82.5049 88.4542 84.4744C95.3324 86.4439 102.505 82.4629 104.474 75.5864C106.444 68.7082 102.465 61.5357 95.5865 59.5661C88.7082 57.5966 81.5357 61.5759 79.5662 68.4541Z" fill="#394247"/>
<path fill-rule="evenodd" clip-rule="evenodd" d="M98.2258 70.6084C98.6653 70.3473 98.8106 69.7796 98.5504 69.3403C98.2893 68.9008 97.7216 68.7555 97.2823 69.0157L89.3665 73.7052L87.9505 70.8617C87.7155 70.4084 87.157 70.2312 86.7029 70.4659C86.2496 70.701 86.0723 71.2595 86.3071 71.7136L88.1721 75.4326C88.2893 75.6587 88.4952 75.8235 88.7399 75.8936C88.9854 75.9639 89.2474 75.933 89.4656 75.803L98.2258 70.6084Z" fill="#10D078"/>
<defs>
<linearGradient id="paint0_linear" x1="103" y1="38.9999" x2="173" y2="122.5" gradientUnits="userSpaceOnUse">
<stop offset="0.354167" stop-color="white"/>
<stop offset="1" stop-color="#80A3B6"/>
</linearGradient>
<clipPath id="clip0">
<rect width="141.482" height="150" fill="white" transform="translate(109 48)"/>
</clipPath>
<clipPath id="clip1">
<rect width="58" height="38" fill="white" transform="translate(102.144 36.9312) rotate(15.5248)"/>
</clipPath>
</defs>
</svg>
