<?xml version="1.0" encoding="utf-8"?>
<!-- Generator: Adobe Illustrator 24.0.0, SVG Export Plug-In . SVG Version: 6.00 Build 0)  -->
<svg version="1.1" id="Layer_1" xmlns="http://www.w3.org/2000/svg" xmlns:xlink="http://www.w3.org/1999/xlink" x="0px" y="0px"
	 viewBox="0 0 911 701" style="enable-background:new 0 0 911 701;" xml:space="preserve">
<style type="text/css">
	.st0{fill:#D7E8F7;}
	.st1{fill:none;stroke:#000000;stroke-width:3;stroke-miterlimit:10;}
	.st2{fill:#0D4077;}
	.st3{fill:#CDCFD1;}
	.st4{fill:none;stroke:#000000;stroke-width:3;stroke-linecap:round;stroke-linejoin:round;stroke-miterlimit:10;}
	.st5{fill:#FFFFFF;stroke:#000000;stroke-width:3;stroke-miterlimit:10;}
	.st6{clip-path:url(#SVGID_2_);fill:#0D4077;}
	.st7{clip-path:url(#SVGID_4_);fill:#0D4077;}
	.st8{enable-background:new    ;}
	.st9{fill:#FFFFFF;}
</style>
<g id="Layer_9">
	<path class="st0" d="M28.9,24h357.4c2.5,0,4.6,2.1,4.6,4.6v645.8c0,2.5-2.1,4.6-4.6,4.6H28.9c-2.5,0-4.6-2.1-4.6-4.6V28.6
		C24.3,26.1,26.4,24,28.9,24z"/>
	<path d="M167.7,130.7l-4.2-9.6H159v9.6h-3.8v-25.1h9.1c1.9-0.1,3.7,0.6,5,1.9c1.3,1.6,1.9,3.5,1.8,5.6c0,1.6-0.3,3.2-1.1,4.6
		c-0.6,1.2-1.7,2.1-2.9,2.5l5,10.6h-4.4V130.7z M167.3,113.3c0-2.4-1.1-3.6-3.4-3.6H159v7.4h5c0.9,0.1,1.8-0.3,2.4-1
		C167,115.3,167.3,114.3,167.3,113.3z"/>
	<path d="M174.3,130.7v-25.1h14.2v4.1H178v6.3h9.7v4H178v6.6h11v4.1H174.3z"/>
	<path d="M200.3,126.9c2.3,0,3.9-1.6,4.8-4.8l3.3,1.7c-0.5,2.1-1.6,4-3.1,5.4c-1.4,1.2-3.1,1.8-4.9,1.8c-2.7,0.1-5.3-1.2-6.8-3.4
		c-1.6-2.3-2.4-5.5-2.4-9.6s0.8-7.3,2.3-9.5c2.8-3.7,8.1-4.4,11.8-1.6c0,0,0,0,0.1,0.1c1.5,1.4,2.4,3.2,2.8,5.2l-3.3,1.3
		c-0.2-1.2-0.8-2.2-1.7-3c-1.9-1.6-4.7-1.4-6.3,0.4c-0.2,0.2-0.3,0.4-0.5,0.7c-1,2-1.4,4.2-1.3,6.4c-0.1,2.3,0.3,4.6,1.4,6.6
		C197.1,126.1,198.7,127,200.3,126.9z"/>
	<path d="M210.8,130.7v-25.1H225v4.1h-10.4v6.3h9.7v4h-9.7v6.6h11v4.1H210.8z"/>
	<path d="M228.4,130.7v-25.1h3.8v25.1H228.4z"/>
	<path d="M250.6,113.6c0,1.5-0.2,3-0.8,4.3c-0.4,1.2-1.2,2.2-2.3,3c-1,0.7-2.3,1-3.5,1h-4.5v8.9h-3.8v-25.1h8.1
		c1.9-0.1,3.7,0.7,5,2.1C250.1,109.4,250.7,111.4,250.6,113.6z M246.8,113.6c0-2.7-1.1-4-3.4-4h-3.9v8.2h4c0.9,0.1,1.8-0.4,2.4-1.1
		C246.6,115.8,246.9,114.7,246.8,113.6L246.8,113.6z"/>
	<path d="M261.5,109.7v21.1h-3.8v-21.1h-5.9v-4.1h15.5v4.1C267.3,109.7,261.5,109.7,261.5,109.7z"/>
	<path d="M59.9,62.6v10.3h-3.8V62.6l-6.5-14.8h4L58,58.4l4.4-10.6h4L59.9,62.6z"/>
	<path d="M86.1,60.2c0,2.4-0.3,4.7-1.1,6.9c-0.6,1.8-1.7,3.4-3.2,4.6c-1.4,1.1-3.1,1.6-4.9,1.6c-2.7,0.1-5.2-1.2-6.7-3.5
		c-1.6-2.3-2.4-5.5-2.4-9.6s0.8-7.2,2.4-9.4c2.7-3.7,7.9-4.5,11.7-1.8c0.7,0.5,1.3,1.1,1.8,1.8C85.3,53.1,86.1,56.3,86.1,60.2z
		 M82.3,60.2c0.1-2.2-0.4-4.4-1.4-6.4c-1.2-2.2-3.9-2.9-6.1-1.7c-0.7,0.4-1.3,1-1.7,1.7c-1,2-1.5,4.2-1.4,6.4
		c-0.1,2.3,0.4,4.5,1.4,6.5c1.1,2.2,3.8,3,5.9,1.9c0.8-0.4,1.4-1,1.9-1.8C81.9,64.8,82.4,62.5,82.3,60.2z"/>
	<path d="M96.5,73.3c-2.2,0.1-4.3-0.8-5.7-2.5c-1.3-1.7-2-4.1-2-7.2V47.8h3.8v15.3c-0.1,1.6,0.2,3.1,1,4.5c0.7,1,1.8,1.6,3,1.5
		c1.3,0.1,2.4-0.6,3.1-1.6c0.8-1.4,1.2-3,1.1-4.6V47.8h3.8v15.5c0,3.2-0.7,5.7-2.1,7.4C101,72.4,98.8,73.4,96.5,73.3z"/>
	<path d="M120.4,72.9l-4.2-9.5h-4.4v9.5H108V47.8h9c1.9-0.1,3.7,0.6,5,1.9c1.3,1.6,1.9,3.6,1.8,5.6c0,1.6-0.3,3.2-1.1,4.5
		c-0.6,1.2-1.7,2.1-2.9,2.5l4.9,10.6H120.4z M120,55.5c0-2.4-1.1-3.6-3.3-3.6h-4.9v7.4h5c0.9,0.1,1.8-0.3,2.4-1
		C119.8,57.5,120.1,56.5,120,55.5z"/>
	<path d="M138.1,51.9v7.8h9.3v4.1h-9.3V73h-3.8V47.8h13.4v4.1C147.7,51.9,138.1,51.9,138.1,51.9z"/>
	<path d="M161.8,72.9l-1.6-6.4h-6.9l-1.6,6.4h-3.8l6.6-25.1h4.5l6.6,25.1H161.8z M156.7,51.7l-0.1,0.4c-0.1,0.4-0.2,0.9-0.3,1.5
		s-0.9,3.6-2.2,9h5.2l-1.8-7.2L157,53L156.7,51.7z"/>
	<path d="M175,72.9h-3.9l-6.7-25.1h4l3.7,16.2c0.2,1,0.6,2.6,0.9,4.7l0.3-1.5L174,64l3.7-16.2h3.9L175,72.9z"/>
	<path d="M201.2,60.2c0,2.4-0.3,4.7-1.1,6.9c-0.6,1.8-1.7,3.4-3.2,4.6c-1.4,1.1-3.1,1.6-4.9,1.6c-2.7,0.1-5.2-1.2-6.7-3.5
		c-1.6-2.3-2.4-5.5-2.4-9.6s0.8-7.2,2.4-9.4c2.7-3.7,8-4.5,11.7-1.8c0.7,0.5,1.3,1.1,1.8,1.8C200.4,53.1,201.2,56.3,201.2,60.2z
		 M197.3,60.2c0.1-2.2-0.4-4.4-1.4-6.4c-1.2-2.2-3.9-2.9-6.1-1.7c-0.7,0.4-1.3,1-1.7,1.7c-1,2-1.5,4.2-1.4,6.4
		c-0.1,2.3,0.4,4.5,1.4,6.5c1.1,2.2,3.8,3,6,1.9c0.8-0.4,1.4-1,1.9-1.8C197,64.8,197.5,62.5,197.3,60.2z"/>
	<path d="M216.5,72.9l-4.2-9.5h-4.4v9.5h-3.8V47.8h9.1c1.9-0.1,3.7,0.6,5,1.9c1.3,1.6,1.9,3.6,1.8,5.6c0,1.6-0.3,3.2-1.1,4.5
		c-0.6,1.2-1.7,2.1-2.9,2.5l4.9,10.6H216.5z M216.1,55.5c0-2.4-1.1-3.6-3.3-3.6h-4.9v7.4h5c0.9,0.1,1.8-0.3,2.4-1
		C215.8,57.5,216.1,56.5,216.1,55.5z"/>
	<path d="M223.1,72.9V47.8h3.8v25.1H223.1z"/>
	<path d="M238.6,51.9V73h-3.8V51.9h-5.9v-4.1h15.5v4.1H238.6z"/>
	<path d="M246.5,72.9V47.8h14.2v4.1h-10.4v6.3h9.7v4.1h-9.7v6.6h11V73L246.5,72.9L246.5,72.9z"/>
	<path d="M286.1,65.7c0.1,2.1-0.6,4.1-2,5.7c-1.6,1.4-3.7,2.1-5.8,2c-2,0.1-3.9-0.5-5.5-1.7c-1.4-1.4-2.3-3.2-2.5-5.2l3.7-0.8
		c0.1,1.1,0.7,2.1,1.5,2.9c0.9,0.6,1.9,1,3,0.9c2.7,0,4-1.1,4-3.3c0-0.6-0.1-1.2-0.5-1.8c-0.3-0.5-0.8-0.9-1.3-1.2
		c-1-0.5-2.1-0.9-3.2-1.1c-1-0.3-1.9-0.6-2.8-1.1c-0.5-0.3-1-0.6-1.4-1s-0.8-0.8-1.1-1.3c-0.3-0.6-0.6-1.2-0.7-1.8
		c-0.2-0.8-0.3-1.6-0.3-2.4c-0.1-1.9,0.5-3.8,1.8-5.2c1.5-1.3,3.4-1.9,5.4-1.8c1.8-0.1,3.6,0.4,5.1,1.5c1.3,1.3,2.1,3,2.2,4.8
		l-3.7,0.7c-0.1-0.9-0.5-1.7-1.1-2.4c-0.7-0.6-1.6-0.9-2.5-0.8c-2.3,0-3.4,1-3.4,3c0,0.6,0.1,1.1,0.4,1.6c0.3,0.4,0.6,0.8,1.1,1.1
		c0.9,0.5,1.9,0.8,2.9,1.1c1.3,0.3,2.6,0.8,3.8,1.4c0.7,0.4,1.3,0.9,1.8,1.5s0.8,1.3,1,2.1C286,63.8,286.1,64.7,286.1,65.7z"/>
	<path d="M297.1,51.9V73h-3.8V51.9h-5.9v-4.1h15.5v4.1H297.1z"/>
	<path d="M322.1,60.2c0,2.4-0.3,4.7-1.1,6.9c-0.6,1.8-1.7,3.4-3.2,4.6c-3.7,2.7-8.8,1.9-11.5-1.8l-0.1-0.1c-1.6-2.3-2.4-5.5-2.4-9.6
		s0.8-7.2,2.4-9.4c2.7-3.7,7.9-4.5,11.7-1.8c0.7,0.5,1.3,1.1,1.8,1.8C321.3,53.1,322.1,56.3,322.1,60.2z M318.3,60.2
		c0.1-2.2-0.4-4.4-1.4-6.4c-1.2-2.2-3.9-2.9-6.1-1.7c-0.7,0.4-1.3,1-1.7,1.7c-1,2-1.5,4.2-1.4,6.4c-0.1,2.3,0.4,4.5,1.4,6.5
		c1.1,2.2,3.8,3,5.9,1.9c0.8-0.4,1.4-1,1.9-1.8C317.9,64.8,318.4,62.5,318.3,60.2z"/>
	<path d="M337.4,72.9l-4.2-9.5h-4.5v9.5H325V47.8h9c1.9-0.1,3.7,0.6,5,1.9c1.3,1.6,1.9,3.6,1.8,5.6c0,1.6-0.3,3.2-1.1,4.5
		c-0.6,1.2-1.7,2.1-2.9,2.5l4.9,10.6H337.4z M337,55.5c0-2.4-1.1-3.6-3.4-3.6h-4.9v7.4h5c0.9,0.1,1.8-0.3,2.4-1
		C336.8,57.5,337.1,56.5,337,55.5z"/>
	<path d="M344,72.9V47.8h14.2v4.1h-10.4v6.3h9.7v4.1h-9.7v6.6h11V73L344,72.9L344,72.9z"/>
	<line class="st1" x1="49.7" y1="89" x2="356.4" y2="89"/>
	<rect x="138.5" y="575.5" width="6.6" height="84.8"/>
	<rect x="149.7" y="575.5" width="4.6" height="84.8"/>
	<rect x="156.8" y="575.5" width="2.5" height="75.8"/>
	<rect x="160.9" y="575.5" width="2.5" height="75.8"/>
	<rect x="181.2" y="575.5" width="2.5" height="75.8"/>
	<rect x="169" y="575.5" width="9.1" height="75.8"/>
	<rect x="186.3" y="575.5" width="4.6" height="75.8"/>
	<rect x="196.4" y="575.5" width="4.6" height="75.8"/>
	<rect x="211.1" y="575.5" width="7.6" height="75.8"/>
	<rect x="205.6" y="575.5" width="2.5" height="75.8"/>
	<rect x="221.8" y="575.5" width="2.5" height="75.8"/>
	<rect x="226.9" y="575.5" width="4.6" height="75.8"/>
	<rect x="247.2" y="575.5" width="2.5" height="75.8"/>
	<rect x="235" y="575.5" width="9.1" height="75.8"/>
	<rect x="252.3" y="575.5" width="4.6" height="84.8"/>
	<rect x="262.4" y="575.5" width="4.6" height="84.8"/>
	<line class="st1" x1="49.7" y1="152" x2="356.4" y2="152"/>
	<path d="M62.6,543.9v17.3h-3.1v-17.3h-4.8v-3.3h12.8v3.3H62.6z"/>
	<path d="M78.7,561.2v-8.9h-6.5v8.9h-3.1v-20.7h3.1v8.2h6.5v-8.2h3.1v20.7H78.7z"/>
	<path d="M95.3,561.2l-1.3-5.3h-5.7l-1.3,5.3h-3.2l5.4-20.7H93l5.4,20.7H95.3z M91.1,543.7L91,544c-0.1,0.3-0.2,0.8-0.3,1.2
		s-0.7,2.9-1.8,7.4h4.3l-1.5-5.9l-0.4-2L91.1,543.7z"/>
	<path d="M109.5,561.2l-6.5-15.9c0.1,1.5,0.2,2.8,0.2,3.7v12.2h-2.8v-20.7h3.6l6.6,16.1c-0.1-1.5-0.2-2.8-0.2-4v-12h2.8v20.7
		L109.5,561.2z"/>
	<path d="M126.4,561.2l-5.4-9.5l-1.8,2v7.5h-3.1v-20.7h3.1v9.4l6.7-9.4h3.6l-6.4,8.8l6.9,11.9H126.4z"/>
	<path d="M144.7,552.7v8.5h-3.1v-8.5l-5.3-12.2h3.3l3.6,8.8l3.6-8.8h3.3L144.7,552.7z"/>
	<path d="M166.3,550.8c0,1.9-0.3,3.9-0.9,5.7c-0.5,1.5-1.4,2.8-2.6,3.8c-1.2,0.9-2.6,1.3-4,1.3c-2.2,0.1-4.3-1-5.5-2.9
		c-1.5-2.4-2.2-5.1-2-7.9c0-3.3,0.7-5.9,2-7.8c2.2-3.1,6.5-3.7,9.6-1.5c0.6,0.4,1.1,0.9,1.5,1.5C165.8,545.3,166.5,548,166.3,550.8z
		 M163.1,550.8c0.1-1.8-0.3-3.6-1.1-5.3c-0.6-1.2-1.9-1.9-3.2-1.9s-2.6,0.7-3.2,1.9c-0.8,1.6-1.2,3.4-1.1,5.3
		c-0.1,1.9,0.3,3.7,1.2,5.4c0.9,1.8,3.1,2.5,4.9,1.5c0.6-0.3,1.2-0.9,1.5-1.5C162.8,554.5,163.2,552.7,163.1,550.8L163.1,550.8z"/>
	<path d="M174.9,561.5c-1.8,0.1-3.6-0.7-4.7-2.1c-1.2-1.8-1.8-3.9-1.6-6v-12.9h3.1v12.6c-0.1,1.3,0.2,2.6,0.8,3.7
		c0.5,0.8,1.5,1.3,2.5,1.3s2-0.5,2.6-1.3c0.7-1.2,1-2.5,0.9-3.8v-12.4h3.1v12.7c0.1,2.2-0.5,4.3-1.8,6.1
		C178.6,560.8,176.8,561.6,174.9,561.5z"/>
	<path d="M193.5,543.9v6.4h7.6v3.3h-7.6v7.6h-3.1v-20.7h11v3.3h-7.9V543.9z"/>
	<path d="M218.1,550.8c0,1.9-0.3,3.9-0.9,5.7c-0.5,1.5-1.4,2.8-2.6,3.8c-3,2.2-7.2,1.5-9.4-1.5l-0.1-0.1c-1.3-1.9-2-4.5-2-7.9
		s0.7-5.9,2-7.8c2.2-3.1,6.5-3.7,9.6-1.5c0.6,0.4,1.1,0.9,1.5,1.5C217.5,545.3,218.2,548,218.1,550.8z M214.9,550.8
		c0.1-1.8-0.3-3.6-1.1-5.3c-0.6-1.2-1.9-1.9-3.2-1.9s-2.6,0.7-3.2,1.9c-0.8,1.6-1.2,3.4-1.1,5.3c-0.1,1.9,0.3,3.7,1.2,5.4
		c0.9,1.8,3.1,2.5,4.9,1.6c0.6-0.3,1.2-0.9,1.5-1.5C214.6,554.5,215,552.7,214.9,550.8z"/>
	<path d="M230.7,561.2l-3.5-7.9h-3.7v7.9h-3.1v-20.7h7.4c1.5-0.1,3,0.5,4.1,1.6c1,1.3,1.6,2.9,1.4,4.6c0,1.3-0.3,2.6-0.9,3.8
		c-0.5,1-1.4,1.7-2.4,2.1l4,8.7L230.7,561.2z M230.3,546.9c0-2-0.9-3-2.8-3h-4v6.1h4.1c0.8,0.1,1.5-0.3,2-0.8
		C230.1,548.5,230.4,547.7,230.3,546.9z"/>
	<path d="M254.3,555.3c0.1,1.7-0.5,3.4-1.6,4.7c-1.3,1.2-3,1.7-4.8,1.6c-1.6,0.1-3.2-0.4-4.5-1.4c-1.2-1.1-1.9-2.6-2.1-4.3l3-0.7
		c0.1,0.9,0.5,1.8,1.2,2.4c0.7,0.5,1.6,0.8,2.5,0.7c2.2,0,3.3-0.9,3.3-2.8c0-0.5-0.1-1-0.4-1.5c-0.3-0.4-0.6-0.7-1.1-1
		c-0.8-0.4-1.7-0.7-2.6-0.9c-0.8-0.2-1.6-0.5-2.3-0.9c-0.4-0.2-0.8-0.5-1.2-0.8s-0.7-0.7-0.9-1.1c-0.3-0.5-0.5-1-0.6-1.5
		c-0.1-0.7-0.2-1.3-0.2-2c-0.1-1.6,0.4-3.1,1.5-4.3c1.2-1.1,2.8-1.6,4.4-1.5c2.8-0.4,5.5,1.5,5.9,4.3c0,0.3,0.1,0.6,0.1,0.9l-3,0.6
		c-0.1-0.8-0.5-1.5-1-2c-0.6-0.5-1.3-0.7-2-0.7c-1.9,0-2.8,0.8-2.8,2.5c-0.1,0.9,0.4,1.8,1.2,2.2s1.6,0.7,2.4,0.9
		c1,0.3,2.1,0.7,3,1.2c0.6,0.3,1.1,0.7,1.5,1.3c0.4,0.5,0.7,1.1,0.8,1.8C254.2,553.7,254.3,554.5,254.3,555.3z"/>
	<path d="M266.2,561.2v-8.9h-6.5v8.9h-3.1v-20.7h3.1v8.2h6.5v-8.2h3.1v20.7H266.2z"/>
	<path d="M286.7,550.8c0,1.9-0.3,3.9-0.9,5.7c-0.5,1.5-1.4,2.8-2.6,3.8c-1.1,0.9-2.6,1.3-4,1.3c-2.2,0.1-4.3-1-5.5-2.9
		c-1.5-2.4-2.2-5.1-2-7.9c0-3.3,0.7-5.9,2-7.8c2.2-3.1,6.5-3.7,9.6-1.5c0.6,0.4,1.1,0.9,1.5,1.5C286.2,545.3,286.9,548,286.7,550.8z
		 M283.5,550.8c0.1-1.8-0.3-3.6-1.1-5.3c-1-1.8-3.2-2.4-5-1.4c-0.6,0.3-1.1,0.8-1.4,1.4c-0.8,1.6-1.2,3.4-1.1,5.3
		c-0.1,1.9,0.3,3.7,1.2,5.4c0.9,1.8,3.1,2.5,4.9,1.6c0.6-0.3,1.2-0.9,1.5-1.5C283.3,554.5,283.6,552.7,283.5,550.8z"/>
	<path d="M301.4,547.1c0,1.2-0.2,2.4-0.6,3.6c-0.4,1-1,1.8-1.9,2.4c-0.9,0.6-1.9,0.9-2.9,0.9h-3.7v7.3h-3.1v-20.7h6.7
		c1.6-0.1,3.1,0.5,4.1,1.7C300.9,543.6,301.5,545.3,301.4,547.1z M298.2,547.2c0-2.2-0.9-3.3-2.8-3.3h-3.2v6.7h3.3
		c0.8,0,1.5-0.3,2-0.9C298,549,298.3,548.1,298.2,547.2z"/>
	<path d="M315.8,547.1c0,1.2-0.2,2.4-0.7,3.6c-0.4,1-1,1.8-1.9,2.4c-0.9,0.6-1.9,0.9-2.9,0.9h-3.7v7.3h-3.1v-20.7h6.7
		c1.6-0.1,3.1,0.5,4.1,1.7C315.4,543.6,315.9,545.3,315.8,547.1z M312.7,547.2c0-2.2-0.9-3.3-2.8-3.3h-3.2v6.7h3.3
		c0.8,0,1.5-0.3,2-0.9C312.5,549,312.7,548.1,312.7,547.2L312.7,547.2z"/>
	<path d="M318,561.2v-20.7h3.1v20.7H318z"/>
	<path d="M333.1,561.2l-6.5-15.9c0.1,1.5,0.2,2.8,0.2,3.7v12.2H324v-20.7h3.6l6.6,16.1c-0.1-1.5-0.2-2.8-0.2-4v-12h2.8v20.7
		L333.1,561.2z"/>
	<path d="M346.8,558.1c0.8,0,1.6-0.2,2.4-0.5c0.7-0.3,1.3-0.7,1.8-1.3v-2.9h-3.6v-3.2h6.5v7.6c-0.8,1.1-1.9,2-3.1,2.6s-2.6,1-4,1
		c-2.2,0.1-4.3-1-5.6-2.8c-1.3-1.9-2-4.5-2-7.9s0.7-6,2-7.8s3.4-2.8,5.7-2.7c3.5,0,5.7,1.8,6.7,5.4l-2.9,1.2
		c-0.2-0.9-0.7-1.8-1.5-2.4c-0.7-0.5-1.5-0.8-2.3-0.8c-1.4-0.1-2.7,0.7-3.4,1.8c-0.9,1.6-1.2,3.5-1.1,5.3c-0.1,1.9,0.3,3.8,1.2,5.4
		C344.1,557.5,345.4,558.2,346.8,558.1z"/>
	<path d="M359.9,555h-2.4l-0.3-14.4h3.1L359.9,555z M357.1,561.3v-4h3v4H357.1z"/>
	<path d="M72.1,114.3l5.6-2.5l1.6,4.7l-6,1.4l4.5,5l-4.4,2.9l-3.5-6l-3.6,6L62,123l4.5-5l-6-1.4l1.6-4.7l5.7,2.5l-0.4-6.5h5.1
		L72.1,114.3z"/>
	<path d="M91.1,114.3l5.6-2.5l1.6,4.7l-6,1.4l4.5,5l-4.4,2.9l-3.5-6l-3.6,6l-4.4-2.9l4.5-5l-6-1.4l1.6-4.7l5.7,2.5l-0.4-6.5h5.1
		L91.1,114.3z"/>
	<path d="M110.1,114.3l5.6-2.5l1.6,4.7l-6,1.4l4.4,5.1l-4.4,2.9l-3.5-6l-3.6,6l-4.4-2.9l4.5-5l-6-1.4l1.6-4.7l5.7,2.5l-0.4-6.5h5.1
		L110.1,114.3z"/>
	<path d="M129.1,114.3l5.6-2.5l1.6,4.7l-5.9,1.5l4.4,5.1l-4.4,2.9l-3.5-6l-3.6,6l-4.4-3l4.5-5l-6-1.4l1.6-4.7l5.7,2.5l-0.4-6.5h5.1
		L129.1,114.3z"/>
	<path d="M291.8,114.2l5.6-2.5l1.6,4.7l-6,1.4l4.4,5.1l-4.4,2.9l-3.5-6l-3.5,6l-4.4-2.9l4.5-5l-6-1.4l1.6-4.7l5.7,2.5l-0.4-6.5h5.1
		L291.8,114.2z"/>
	<path d="M310.8,114.2l5.6-2.5l1.6,4.7l-6,1.4l4.4,5.1l-4.4,2.9l-3.5-6l-3.5,6l-4.4-2.9l4.5-5l-6-1.4l1.6-4.7l5.7,2.5l-0.4-6.5h5.1
		L310.8,114.2z"/>
	<path d="M329.8,114.2l5.6-2.5l1.6,4.7l-6,1.4l4.4,5.1l-4.4,2.9l-3.5-6l-3.5,6l-4.4-2.9l4.5-5l-6-1.4l1.6-4.7l5.7,2.5l-0.4-6.5h5.1
		L329.8,114.2z"/>
	<path d="M348.8,114.2l5.6-2.5l1.6,4.7l-6,1.4l4.4,5.1l-4.4,2.9l-3.5-6l-3.5,6l-4.4-2.9l4.5-5l-6-1.4l1.6-4.7l5.7,2.5l-0.4-6.5h5.1
		L348.8,114.2z"/>
	<line class="st1" x1="49.7" y1="522.6" x2="356.4" y2="522.6"/>
	<path d="M56.9,195.4v-10.6h2.2v10.6H56.9z"/>
	<path d="M66,186.6v8.8h-2.3v-8.8h-3.4v-1.7h9v1.7H66z"/>
	<path d="M70.6,195.4v-10.6h8.3v1.7h-6.1v2.6h5.6v1.7h-5.6v2.8h6.4v1.7h-8.6V195.4z"/>
	<path d="M89.5,195.4V189c0-0.1,0-0.3,0-0.4s0-0.8,0.1-1.9c-0.4,1.3-0.6,2.3-0.8,2.8l-1.9,5.9h-1.6l-1.9-5.9l-0.8-2.8
		c0,1.2,0.1,1.9,0.1,2.3v6.4h-2v-10.5h3l1.9,5.9l0.2,0.6l0.4,1.4l0.5-1.7l1.9-6.2h2.9v10.6h-2V195.4z"/>
	<path d="M97.8,195.4v-1.6h2.6v-7.2l-2.5,1.6v-1.6l2.6-1.7h2v9h2.4v1.6L97.8,195.4z"/>
	<path d="M65.5,218.5c0,0.6-0.2,1.3-0.5,1.8s-0.8,1-1.3,1.2c-0.6,0.3-1.3,0.5-2,0.4H59v3.7h-2.2v-10.5h4.7c1-0.1,2.1,0.2,2.9,0.9
		C65.2,216.6,65.5,217.6,65.5,218.5z M63.2,218.5c0-1.1-0.7-1.7-2-1.7H59v3.4h2.3c0.5,0,1-0.1,1.4-0.4
		C63.1,219.5,63.3,219,63.2,218.5L63.2,218.5z"/>
	<path d="M74.3,225.7l-2.4-4h-2.6v4H67v-10.5h5.3c1-0.1,2.1,0.2,2.9,0.8c0.7,0.6,1.1,1.4,1,2.3c0,0.7-0.2,1.4-0.6,1.9
		s-1,0.9-1.7,1.1l2.8,4.4H74.3z M74,218.4c0-1-0.7-1.5-2-1.5h-2.8v3.1h2.9c0.5,0,1-0.1,1.4-0.4C73.9,219.3,74,218.8,74,218.4z"/>
	<path d="M78.1,225.7v-10.5h8.3v1.7h-6.1v2.6h5.6v1.7h-5.6v2.8h6.4v1.7H78.1z"/>
	<path d="M87.9,222.6v-1.8h3.9v1.8H87.9z"/>
	<path d="M102.1,218.5c0,0.6-0.1,1.3-0.5,1.8c-0.3,0.5-0.8,1-1.3,1.2c-0.6,0.3-1.3,0.4-2,0.4h-2.7v3.7h-2.2v-10.5h4.7
		c1-0.1,2.1,0.2,2.9,0.9C101.8,216.6,102.1,217.6,102.1,218.5z M99.9,218.5c0-1.1-0.7-1.7-2-1.7h-2.2v3.4H98c0.5,0,1-0.1,1.4-0.4
		C99.7,219.5,99.9,219,99.9,218.5L99.9,218.5z"/>
	<path d="M110,225.7l-1-2.7h-4l-0.9,2.7h-2.2l3.8-10.5h2.6l3.8,10.5H110z M107,216.8v0.2c0,0.2-0.1,0.4-0.2,0.6s-0.5,1.5-1.3,3.8h3
		l-1-3l-0.3-1L107,216.8z"/>
	<path d="M113.6,225.7v-10.5h2.2v10.5H113.6z"/>
	<path d="M127.2,220.3c0,1-0.2,2-0.6,2.9c-0.4,0.8-1,1.4-1.8,1.9c-0.8,0.4-1.8,0.7-2.7,0.6h-4.3v-10.5h3.8c1.5-0.1,3,0.4,4.1,1.3
		C126.8,217.5,127.3,218.9,127.2,220.3z M125,220.3c0.1-0.9-0.2-1.9-0.9-2.6c-0.7-0.6-1.6-1-2.5-0.9H120v7.1h1.9
		c0.9,0,1.7-0.3,2.3-1C124.7,222.2,125,221.3,125,220.3L125,220.3z"/>
	<path d="M138.2,224.1c0.6,0,1.1-0.1,1.7-0.3c0.5-0.1,0.9-0.3,1.3-0.6v-1.5h-2.6v-1.6h4.6v3.9c-0.6,0.6-1.4,1.1-2.2,1.4
		c-0.9,0.3-1.9,0.5-2.8,0.5c-1.5,0.1-2.9-0.4-4-1.4c-1-1.1-1.5-2.5-1.4-4c-0.3-2.7,1.6-5.1,4.3-5.4c0.4,0,0.8,0,1.1,0
		c2.5,0,4,0.9,4.7,2.8l-2,0.6c-0.2-0.5-0.5-0.9-1-1.2s-1.1-0.4-1.6-0.4c-0.9-0.1-1.8,0.3-2.4,0.9c-0.6,0.8-0.9,1.7-0.8,2.7
		c-0.1,1,0.2,2,0.8,2.8C136.5,223.8,137.3,224.2,138.2,224.1z"/>
	<path d="M145.1,225.7v-10.5h2.2v10.5H145.1z"/>
	<path d="M151.6,216.9v3.3h5.4v1.7h-5.4v3.9h-2.2v-10.5h7.8v1.7L151.6,216.9z"/>
	<path d="M163.5,216.9v8.8h-2.2v-8.8h-3.4v-1.7h9v1.7H163.5z"/>
	<path d="M177.3,224.1c1.3,0,2.4-0.8,2.8-2l1.9,0.7c-0.3,0.9-1,1.7-1.8,2.3c-0.9,0.5-1.9,0.8-2.9,0.7c-1.5,0.1-2.9-0.4-3.9-1.4
		c-1.8-2.3-1.8-5.6-0.1-8c1-1,2.4-1.5,3.9-1.4c1,0,2.1,0.2,3,0.7c0.8,0.5,1.4,1.3,1.6,2.2l-2,0.5c-0.2-0.5-0.5-1-1-1.3
		s-1.1-0.5-1.7-0.5c-0.9-0.1-1.7,0.3-2.3,0.9c-0.6,0.8-0.8,1.7-0.8,2.7c-0.1,1,0.2,2,0.8,2.8C175.5,223.9,176.4,224.2,177.3,224.1z"
		/>
	<path d="M190.9,225.7L190,223h-4l-0.9,2.7h-2.2l3.9-10.5h2.6l3.8,10.5H190.9z M187.9,216.8v0.2c-0.1,0.2-0.1,0.4-0.2,0.6
		s-0.5,1.5-1.3,3.8h3l-1-3l-0.3-1L187.9,216.8z"/>
	<path d="M201.7,225.7l-2.4-4h-2.6v4h-2.2v-10.5h5.3c1-0.1,2.1,0.2,2.9,0.8c0.7,0.6,1.1,1.4,1,2.3c0,0.7-0.2,1.4-0.6,1.9
		c-0.4,0.5-1,0.9-1.7,1.1l2.9,4.4H201.7z M201.5,218.4c0-1-0.6-1.5-2-1.5h-2.8v3.1h2.9c0.5,0,1-0.1,1.4-0.4
		C201.3,219.3,201.5,218.8,201.5,218.4z"/>
	<path d="M215,220.3c0,1-0.2,2-0.6,2.9c-0.4,0.8-1,1.4-1.8,1.9c-0.8,0.4-1.8,0.7-2.7,0.6h-4.3v-10.5h3.8c1.5-0.1,3,0.4,4.1,1.3
		C214.6,217.5,215.1,218.9,215,220.3z M212.8,220.3c0.1-0.9-0.3-1.9-0.9-2.6c-0.7-0.6-1.6-1-2.5-0.9h-1.6v7.1h1.9
		c0.9,0,1.7-0.3,2.3-1C212.5,222.2,212.8,221.3,212.8,220.3L212.8,220.3z"/>
	<path d="M216.6,225.7v-2.3h2.2v2.3H216.6z"/>
	<path d="M220.9,225.7v-2.3h2.2v2.3H220.9z"/>
	<path d="M225.1,225.7v-2.3h2.2v2.3H225.1z"/>
	<path d="M229.4,225.7v-2.3h2.2v2.3H229.4z"/>
	<path d="M233.7,225.7v-2.3h2.2v2.3H233.7z"/>
	<path d="M237.9,225.7v-2.3h2.2v2.3H237.9z"/>
	<path d="M242.2,225.7v-2.3h2.2v2.3H242.2z"/>
	<path d="M246.4,225.7v-2.3h2.2v2.3H246.4z"/>
	<path d="M250.7,225.7v-2.3h2.2v2.3H250.7z"/>
	<path d="M255,225.7v-2.3h2.2v2.3H255z"/>
	<path d="M259.2,225.7v-2.3h2.2v2.3H259.2z"/>
	<path d="M263.5,225.7v-2.3h2.2v2.3H263.5z"/>
	<path d="M267.7,225.7v-2.3h2.2v2.3H267.7z"/>
	<path d="M272,225.7v-2.3h2.2v2.3H272z"/>
	<path d="M276.3,225.7v-2.3h2.2v2.3H276.3z"/>
	<path d="M280.5,225.7v-2.3h2.2v2.3H280.5z"/>
	<path d="M284.8,225.7v-2.3h2.2v2.3H284.8z"/>
	<path d="M289,225.7v-2.3h2.2v2.3H289z"/>
	<path d="M293.3,225.7v-2.3h2.2v2.3H293.3z"/>
	<path d="M297.6,225.7v-2.3h2.2v2.3H297.6z"/>
	<path d="M301.8,225.7v-2.3h2.2v2.3H301.8z"/>
	<path d="M306.1,225.7v-2.3h2.2v2.3H306.1z"/>
	<path d="M310.3,225.7v-2.3h2.2v2.3H310.3z"/>
	<path d="M314.6,225.7v-2.3h2.2v2.3H314.6z"/>
	<path d="M334.6,222.6c0,0.8-0.3,1.6-0.9,2.1c-0.8,0.6-1.7,0.8-2.7,0.8v1.3h-0.8v-1.3c-0.9,0-1.8-0.2-2.5-0.8
		c-0.6-0.5-1.1-1.3-1.2-2.1l1.9-0.4c0,0.5,0.2,0.9,0.6,1.2c0.3,0.3,0.8,0.4,1.2,0.5V221h-0.1H330c-0.6-0.1-1.3-0.3-1.8-0.7
		c-0.4-0.2-0.8-0.6-1-1s-0.4-0.9-0.3-1.4c0-0.7,0.3-1.5,0.9-1.9c0.7-0.5,1.6-0.8,2.5-0.7v-1h0.8v1c0.6,0,1.1,0.1,1.6,0.3
		c0.4,0.2,0.8,0.4,1.1,0.8c0.3,0.5,0.5,1,0.6,1.5l-2,0.3c0-0.4-0.2-0.7-0.4-1c-0.2-0.2-0.6-0.4-0.9-0.4v2.6h0.1
		c0.5,0.1,0.9,0.2,1.3,0.4c0.6,0.2,1.2,0.5,1.6,1C334.4,221.3,334.7,222,334.6,222.6z M330.2,216.8c-0.9,0.1-1.4,0.5-1.4,1.2
		c0,0.2,0,0.4,0.1,0.6c0.1,0.1,0.2,0.3,0.3,0.4c0.3,0.2,0.6,0.3,0.9,0.4L330.2,216.8z M332.7,222.6c0-0.2,0-0.4-0.1-0.6
		c-0.1-0.2-0.2-0.3-0.4-0.4c-0.4-0.2-0.7-0.3-1.1-0.4v2.8C332.1,223.9,332.7,223.5,332.7,222.6z"/>
	<path d="M335.8,225.7v-1.6h2.6v-7.2l-2.5,1.6v-1.7l2.6-1.7h2v9h2.5v1.6L335.8,225.7z"/>
	<path d="M351.3,220.4c0.1,1.4-0.2,2.8-0.9,4.1c-0.6,0.9-1.7,1.4-2.8,1.4c-2.4,0-3.6-1.8-3.6-5.4c0-1,0.1-2.1,0.4-3.1
		c0.2-0.7,0.6-1.3,1.2-1.8c0.6-0.4,1.4-0.6,2.1-0.6c1.1-0.1,2.1,0.4,2.7,1.4C351.1,217.6,351.4,219,351.3,220.4z M349.2,220.4
		c0-0.8,0-1.5-0.1-2.3c0-0.4-0.2-0.8-0.5-1.2c-0.2-0.2-0.6-0.4-0.9-0.4c-0.4,0-0.7,0.1-1,0.4c-0.3,0.3-0.4,0.7-0.5,1.2
		c-0.1,0.8-0.2,1.5-0.1,2.3c0,0.8,0,1.5,0.1,2.3c0,0.4,0.2,0.8,0.5,1.2c0.2,0.2,0.6,0.4,0.9,0.4s0.7-0.1,0.9-0.4
		c0.3-0.3,0.4-0.8,0.5-1.2C349.1,221.9,349.2,221.2,349.2,220.4z"/>
	<path d="M359.8,220.4c0.1,1.4-0.2,2.8-0.9,4.1c-0.6,0.9-1.7,1.4-2.8,1.4c-2.4,0-3.6-1.8-3.6-5.4c0-1,0.1-2.1,0.4-3.1
		c0.2-0.7,0.6-1.3,1.2-1.8c0.6-0.4,1.4-0.6,2.1-0.6c1.1-0.1,2.1,0.4,2.7,1.4C359.6,217.6,359.9,219,359.8,220.4z M357.7,220.4
		c0-0.8,0-1.5-0.1-2.3c0-0.4-0.2-0.8-0.5-1.2c-0.2-0.2-0.6-0.4-0.9-0.4c-0.4,0-0.7,0.1-1,0.4c-0.3,0.3-0.4,0.7-0.5,1.2
		c-0.1,0.8-0.2,1.5-0.1,2.3c0,0.8,0,1.5,0.1,2.3c0.1,0.4,0.2,0.8,0.5,1.2c0.2,0.2,0.6,0.4,0.9,0.4s0.7-0.1,0.9-0.4
		c0.3-0.4,0.4-0.8,0.5-1.2C357.6,221.9,357.7,221.2,357.7,220.4z"/>
	<path d="M60.2,454.6v8.8H58v-8.8h-3.4v-1.7h9v1.7H60.2z"/>
	<path d="M74.8,458.1c0,1-0.2,2-0.7,2.9c-0.4,0.8-1.1,1.5-1.9,1.9c-0.9,0.5-1.8,0.7-2.8,0.7c-1.4,0.1-2.9-0.4-3.9-1.5
		s-1.5-2.5-1.4-4c-0.1-1.5,0.4-2.9,1.4-4c2.3-1.9,5.6-1.9,7.8,0C74.4,455.2,74.9,456.7,74.8,458.1z M72.5,458.1
		c0.1-1-0.2-1.9-0.8-2.7c-0.6-0.7-1.4-1-2.3-1s-1.7,0.3-2.3,1c-1.1,1.6-1.1,3.8,0,5.4c0.6,0.7,1.4,1,2.3,1s1.7-0.3,2.3-1
		C72.3,460.1,72.6,459.1,72.5,458.1z"/>
	<path d="M81.2,454.6v8.8H79v-8.8h-3.4v-1.7h9v1.7H81.2z"/>
	<path d="M92.1,463.5l-0.9-2.7h-4l-0.9,2.7H84l3.8-10.5h2.6l3.8,10.5H92.1z M89.1,454.5v0.2c-0.1,0.2-0.1,0.4-0.2,0.6
		s-0.5,1.5-1.3,3.8h3l-1-3l-0.3-1L89.1,454.5z"/>
	<path d="M95.7,463.5v-10.6h2.2v8.8h5.7v1.7L95.7,463.5z"/>
	<path d="M118.5,458.1c0,1-0.2,2-0.6,2.9c-0.4,0.8-1,1.4-1.8,1.9c-0.8,0.4-1.7,0.7-2.7,0.6h-4.3v-10.6h3.8c1.5-0.1,3,0.4,4.1,1.4
		C118,455.3,118.6,456.7,118.5,458.1z M116.3,458.1c0.1-1-0.3-1.9-0.9-2.6c-0.7-0.6-1.6-0.9-2.5-0.9h-1.6v7.1h1.9
		c0.9,0,1.7-0.3,2.3-1C116,460,116.3,459.1,116.3,458.1z"/>
	<path d="M124.5,463.6c-1.2,0.1-2.4-0.3-3.3-1.1c-0.8-0.8-1.2-1.9-1.2-3v-6.6h2.2v6.4c0,0.7,0.2,1.4,0.6,1.9
		c0.5,0.5,1.1,0.7,1.8,0.6c0.7,0,1.3-0.2,1.8-0.7s0.7-1.2,0.6-1.9v-6.4h2.2v6.5c0.1,1.2-0.4,2.3-1.3,3.1
		C127,463.3,125.8,463.7,124.5,463.6z"/>
	<path d="M131.2,463.5v-10.6h8.3v1.7h-6.1v2.6h5.6v1.7h-5.6v2.8h6.4v1.7L131.2,463.5z"/>
	<path d="M141.9,457.8v-2.1h2.2v2.1H141.9z M141.9,463.5v-2.1h2.2v2.1H141.9z"/>
	<path d="M332.7,460.4c0,0.8-0.3,1.6-0.9,2.1c-0.8,0.6-1.7,0.8-2.7,0.8v1.3h-0.8v-1.3c-0.9,0-1.8-0.2-2.5-0.8
		c-0.6-0.5-1.1-1.3-1.2-2.1l1.9-0.4c0,0.5,0.2,0.9,0.6,1.2c0.3,0.3,0.8,0.5,1.2,0.5v-2.9h-0.1h-0.1c-0.6-0.1-1.3-0.3-1.8-0.6
		c-0.4-0.2-0.8-0.6-1-1s-0.3-0.9-0.3-1.4c0-0.7,0.3-1.5,0.9-1.9c0.7-0.5,1.6-0.8,2.5-0.8v-1h0.8v1c0.6,0,1.1,0.1,1.6,0.3
		c0.4,0.2,0.8,0.5,1.1,0.8c0.3,0.5,0.5,1,0.6,1.5l-2,0.3c-0.1-0.4-0.2-0.7-0.4-1c-0.2-0.3-0.6-0.4-0.9-0.4v2.6h0.1
		c0.5,0.1,0.9,0.2,1.3,0.4c0.6,0.2,1.2,0.5,1.6,1.1C332.5,459.1,332.7,459.7,332.7,460.4z M328.3,454.5c-0.9,0.1-1.4,0.5-1.4,1.2
		c0,0.2,0,0.4,0.1,0.5s0.2,0.3,0.3,0.4c0.3,0.2,0.6,0.3,0.9,0.4L328.3,454.5z M330.8,460.4c0-0.2,0-0.4-0.1-0.6s-0.2-0.3-0.4-0.4
		c-0.4-0.2-0.7-0.3-1.1-0.4v2.8C330.2,461.7,330.8,461.2,330.8,460.4L330.8,460.4z"/>
	<path d="M333.9,463.5v-1.6h2.6v-7.2l-2.5,1.6v-1.6l2.6-1.7h2v9h2.4v1.6L333.9,463.5z"/>
	<path d="M349.4,458.2c0.1,1.4-0.2,2.8-0.9,4c-0.6,0.9-1.7,1.4-2.8,1.4c-2.4,0-3.6-1.8-3.6-5.4c0-1,0.1-2.1,0.4-3.1
		c0.2-0.7,0.6-1.3,1.2-1.8c0.6-0.4,1.4-0.6,2.1-0.6c1.1-0.1,2.1,0.4,2.7,1.4C349.2,455.3,349.5,456.8,349.4,458.2z M347.3,458.2
		c0-0.8,0-1.5-0.1-2.3c0-0.4-0.2-0.8-0.5-1.2c-0.2-0.2-0.6-0.4-0.9-0.4c-0.4,0-0.7,0.1-1,0.4s-0.4,0.7-0.5,1.2
		c-0.1,0.7-0.2,1.5-0.1,2.3c0,0.8,0,1.5,0.1,2.3c0,0.4,0.2,0.8,0.5,1.2c0.2,0.2,0.6,0.4,0.9,0.4s0.7-0.1,0.9-0.4
		c0.3-0.3,0.4-0.8,0.5-1.2C347.2,459.7,347.3,458.9,347.3,458.2z"/>
	<path d="M357.9,458.2c0.1,1.4-0.2,2.8-0.9,4c-0.6,0.9-1.7,1.4-2.8,1.4c-2.4,0-3.6-1.8-3.6-5.4c0-1,0.1-2.1,0.4-3.1
		c0.2-0.7,0.6-1.3,1.2-1.8c0.6-0.4,1.4-0.6,2.1-0.6c1.1-0.1,2.1,0.4,2.7,1.3C357.7,455.3,358,456.8,357.9,458.2z M355.8,458.2
		c0-0.8,0-1.5-0.1-2.3c0-0.4-0.2-0.8-0.5-1.2c-0.2-0.2-0.6-0.4-0.9-0.4c-0.4,0-0.7,0.1-1,0.4s-0.4,0.7-0.5,1.2c-0.2,1.5-0.2,3,0,4.5
		c0,0.4,0.2,0.8,0.5,1.2c0.2,0.2,0.6,0.4,0.9,0.4s0.7-0.1,0.9-0.4c0.3-0.3,0.4-0.8,0.5-1.2C355.7,459.7,355.8,458.9,355.8,458.2
		L355.8,458.2z"/>
	<path d="M64.1,474.6c0,0.6-0.2,1.3-0.5,1.8s-0.8,1-1.3,1.2c-0.6,0.3-1.3,0.5-2.1,0.4h-2.6v3.7h-2.2v-10.5h4.7
		c1-0.1,2.1,0.2,2.9,0.9C63.8,472.8,64.2,473.7,64.1,474.6z M61.9,474.6c0-1.1-0.7-1.7-2-1.7h-2.2v3.4H60c0.5,0,1-0.1,1.4-0.5
		C61.7,475.6,61.9,475.1,61.9,474.6L61.9,474.6z"/>
	<path d="M72,481.8l-1-2.7h-4l-0.9,2.7h-2.2l3.8-10.5h2.6l3.8,10.5H72z M69,472.9v0.2c0,0.2-0.1,0.4-0.2,0.6s-0.5,1.5-1.3,3.8h3
		l-1-3l-0.3-1L69,472.9z"/>
	<path d="M75.6,481.8v-10.5h2.2v10.5H75.6z"/>
	<path d="M89.2,476.5c0,1-0.2,2-0.6,2.9c-0.4,0.8-1,1.4-1.8,1.9c-0.8,0.4-1.7,0.7-2.7,0.6h-4.3v-10.5h3.8c1.5-0.1,3,0.4,4.1,1.3
		C88.8,473.7,89.3,475.1,89.2,476.5z M87,476.5c0.1-0.9-0.3-1.9-0.9-2.6c-0.7-0.6-1.6-1-2.5-0.9H82v7.1h1.9c0.9,0,1.7-0.3,2.3-1
		C86.8,478.4,87.1,477.4,87,476.5L87,476.5z"/>
	<path d="M91.4,476.2v-2.1h2.2v2.1H91.4z M91.4,481.8v-2.1h2.2v2.1H91.4z"/>
	<path d="M333.3,478.8c0,0.8-0.3,1.6-0.9,2.1c-0.8,0.6-1.7,0.8-2.7,0.8v1.3h-0.8v-1.3c-0.9,0-1.8-0.3-2.5-0.8
		c-0.6-0.5-1.1-1.3-1.2-2.1l1.9-0.4c0.1,0.5,0.3,0.9,0.6,1.2c0.3,0.3,0.8,0.5,1.2,0.5v-2.9h-0.1h-0.1c-0.6-0.1-1.3-0.3-1.8-0.7
		c-0.4-0.2-0.8-0.6-1-1s-0.4-0.9-0.3-1.4c0-0.7,0.3-1.5,0.9-1.9c0.7-0.5,1.6-0.8,2.5-0.7v-1h0.8v1c0.6,0,1.1,0.1,1.6,0.3
		c0.4,0.2,0.8,0.4,1,0.8c0.3,0.5,0.5,1,0.6,1.5l-2,0.3c-0.1-0.4-0.2-0.7-0.4-1c-0.2-0.3-0.6-0.4-0.9-0.4v2.6h0.1
		c0.5,0.1,0.9,0.2,1.3,0.4c0.6,0.2,1.2,0.6,1.6,1.1C333.1,477.5,333.3,478.1,333.3,478.8z M328.9,472.9c-0.9,0.1-1.4,0.5-1.4,1.2
		c0,0.2,0,0.4,0.1,0.5s0.2,0.3,0.3,0.4c0.3,0.2,0.6,0.3,0.9,0.4L328.9,472.9z M331.4,478.8c0-0.2,0-0.4-0.1-0.6s-0.2-0.3-0.4-0.4
		c-0.4-0.2-0.7-0.3-1.1-0.4v2.8C330.8,480.1,331.4,479.6,331.4,478.8z"/>
	<path d="M334.5,481.8v-1.6h2.6V473l-2.5,1.6V473l2.6-1.7h2v9h2.4v1.6L334.5,481.8z"/>
	<path d="M349.9,476.6c0.1,1.4-0.2,2.8-0.9,4c-0.6,0.9-1.7,1.4-2.8,1.4c-2.4,0-3.6-1.8-3.6-5.4c0-1,0.1-2.1,0.4-3.1
		c0.2-0.7,0.6-1.3,1.2-1.8c0.6-0.4,1.4-0.6,2.1-0.6c1.1-0.1,2.1,0.4,2.7,1.4C349.7,473.7,350,475.2,349.9,476.6z M347.8,476.6
		c0-0.8,0-1.5-0.1-2.3c0-0.4-0.2-0.8-0.5-1.2c-0.2-0.2-0.6-0.4-0.9-0.4c-0.4,0-0.7,0.1-1,0.4s-0.4,0.7-0.5,1.2
		c-0.1,0.8-0.1,1.5-0.1,2.3s0,1.5,0.1,2.3c0,0.4,0.2,0.8,0.5,1.2c0.2,0.2,0.6,0.4,0.9,0.4s0.7-0.1,0.9-0.4c0.3-0.4,0.4-0.8,0.5-1.2
		C347.8,478,347.8,477.3,347.8,476.6z"/>
	<path d="M358.5,476.6c0.1,1.4-0.2,2.8-0.9,4c-0.6,0.9-1.7,1.4-2.8,1.4c-2.4,0-3.6-1.8-3.6-5.4c0-1,0.1-2.1,0.4-3.1
		c0.2-0.7,0.6-1.3,1.2-1.8c0.6-0.4,1.4-0.6,2.1-0.6c1.1-0.1,2.1,0.4,2.7,1.4C358.3,473.7,358.6,475.2,358.5,476.6z M356.4,476.6
		c0-0.8,0-1.5-0.1-2.3c0-0.4-0.2-0.8-0.5-1.2c-0.2-0.2-0.6-0.4-0.9-0.4c-0.4,0-0.7,0.1-1,0.4s-0.4,0.7-0.5,1.2
		c-0.1,0.8-0.2,1.5-0.1,2.3c0,0.8,0,1.5,0.1,2.3c0,0.4,0.2,0.8,0.5,1.2c0.2,0.2,0.6,0.4,0.9,0.4s0.7-0.1,0.9-0.4
		c0.3-0.3,0.4-0.8,0.5-1.2C356.3,478.1,356.4,477.3,356.4,476.6z"/>
	<path d="M64.8,497.2c0,0.9-0.4,1.7-1.1,2.2c-0.9,0.6-1.9,0.8-3,0.8h-5.3v-10.6h4.8c1-0.1,2,0.2,2.9,0.7c0.7,0.4,1,1.2,1,2
		c0,0.5-0.2,1.1-0.5,1.5c-0.4,0.4-0.9,0.7-1.5,0.8c0.7,0,1.4,0.3,2,0.8C64.6,496,64.8,496.6,64.8,497.2z M61.9,492.6
		c0-0.4-0.1-0.8-0.5-1s-0.9-0.3-1.3-0.3h-2.5v2.7h2.5c0.5,0,1-0.1,1.4-0.3C61.8,493.4,62,493,61.9,492.6z M62.6,497.1
		c0-1-0.7-1.5-2.1-1.5h-2.8v3h2.9c0.5,0,1.1-0.1,1.6-0.4C62.4,497.9,62.6,497.5,62.6,497.1L62.6,497.1z"/>
	<path d="M74,500.2l-1-2.7h-4l-0.9,2.7h-2.2l3.8-10.5h2.6l3.8,10.5H74z M71,491.3v0.2c0,0.2-0.1,0.4-0.2,0.6s-0.5,1.5-1.3,3.8h3
		l-1-3l-0.3-1L71,491.3z"/>
	<path d="M77.6,500.2v-10.5h2.2v8.8h5.7v1.7H77.6z"/>
	<path d="M94.4,500.2l-0.9-2.7h-4l-0.9,2.7h-2.2l3.8-10.5h2.6l3.8,10.5H94.4z M91.4,491.3v0.2c0,0.2-0.1,0.4-0.2,0.6
		s-0.5,1.5-1.3,3.8h3l-1-3l-0.3-1L91.4,491.3z"/>
	<path d="M104.4,500.2l-4.6-8.1c0.1,0.6,0.1,1.3,0.2,1.9v6.2h-2v-10.5h2.5l4.7,8.2c-0.1-0.7-0.1-1.4-0.1-2v-6.1h2v10.5h-2.7V500.2z"
		/>
	<path d="M114,498.6c1.3,0,2.4-0.8,2.8-2l1.9,0.7c-0.3,0.9-1,1.7-1.8,2.3c-0.9,0.5-1.9,0.8-2.9,0.7c-1.5,0.1-2.9-0.4-3.9-1.4
		c-1.8-2.4-1.8-5.6,0-8c1-1,2.5-1.5,3.9-1.4c1,0,2.1,0.2,3,0.7c0.8,0.5,1.4,1.3,1.6,2.2l-1.9,0.5c-0.2-0.5-0.5-1-1-1.3
		s-1.1-0.5-1.7-0.5c-0.9-0.1-1.7,0.3-2.3,0.9c-0.6,0.8-0.8,1.8-0.8,2.7c-0.1,1,0.2,2,0.8,2.8C112.3,498.4,113.1,498.7,114,498.6z"/>
	<path d="M120.1,500.2v-10.5h8.3v1.7h-6.1v2.6h5.6v1.7h-5.6v2.8h6.4v1.7L120.1,500.2z"/>
	<path d="M130.8,494.6v-2.1h2.2v2.1H130.8z M130.8,500.2v-2.1h2.2v2.1H130.8z"/>
	<path d="M359.6,495c0.1,1.4-0.2,2.8-0.9,4c-0.6,0.9-1.7,1.4-2.8,1.4c-2.4,0-3.6-1.8-3.6-5.4c0-1,0.1-2.1,0.4-3.1
		c0.2-0.7,0.6-1.3,1.2-1.8c0.6-0.4,1.4-0.6,2.1-0.6c1.1-0.1,2.1,0.4,2.7,1.4C359.4,492.2,359.7,493.6,359.6,495z M357.5,495
		c0-0.8,0-1.5-0.1-2.3c0-0.4-0.2-0.8-0.5-1.2c-0.2-0.3-0.6-0.4-0.9-0.4c-0.4,0-0.7,0.1-1,0.4s-0.4,0.7-0.5,1.2
		c-0.1,0.7-0.2,1.5-0.1,2.3c0,0.8,0,1.5,0.1,2.3c0,0.4,0.2,0.8,0.5,1.2c0.5,0.5,1.3,0.5,1.9,0c0.3-0.3,0.4-0.8,0.5-1.2
		C357.4,496.5,357.5,495.7,357.5,495z"/>
	<path class="st2" d="M96.3,319.8c0.9-4.9,2.1-9.8,3.8-14.5c1.3-3.7,3.1-8.3,5.4-13.9c1-2.6,2.1-5.1,3.5-7.4
		c0.5-0.8,1.3-1.3,2.2-1.5c0.7-0.1,1.1,0,1.2,0.5c0,0.4,0,0.8-0.2,1.2c-0.2,0.5-0.9,1.9-2,4.3c-3,6.3-5.6,12.8-7.6,19.5
		c-1.2,4.3-2.2,8.6-3,13c-0.2,1.2-0.6,2.4-1.2,3.5c-0.6,1-1.5,1.8-2.7,2.1c-0.9,0.2-1.6-0.2-2.1-1.3c-0.3-0.8-0.6-1.7-0.7-2.5
		c-1-5-1.5-10-1.5-15.1c-0.1-4,0.1-8,0.5-12c-1.7,2.4-4.1,7.2-7,14.4c-2.1,5-3.7,10.2-4.6,15.5c-0.1,1.2-0.4,2.4-0.8,3.6
		c-0.3,0.9-1.1,1.5-2,1.7c-0.3,0.1-0.7,0-1-0.2c-0.2-0.1-0.4-0.3-0.5-0.6c-0.2-0.7,0.2-2.7,1-6c1.6-5.8,3.7-11.5,6.2-17
		c1.8-4.2,4.1-8.7,6.8-13.6c0.8-1.6,1.8-3.2,3-4.6c0.5-0.6,1.2-1,2-1.2c0.3-0.1,0.6,0,0.8,0.1c0.3,0.1,0.5,0.3,0.6,0.7
		c0.1,0.4,0.1,0.9-0.1,1.3c-1.8,9-2,18.3-0.6,27.4C95.7,317.5,95.9,318.5,96.3,319.8z"/>
	<path class="st2" d="M117.6,300.9c1.8-0.4,2.9,0.4,3.3,2.2c0.5,2.5-0.2,5.9-2.2,10.2c-2.1,4.7-4.6,7.4-7.3,7.9
		c-1.1,0.3-2.4,0-3.1-0.9c-0.4-0.5-0.7-1.1-0.8-1.7c-0.5-2.4,0-5.2,1.3-8.4c1.2-2.8,3-5.3,5.2-7.3C115,302,116.3,301.3,117.6,300.9z
		 M116.3,312.2c-0.6-0.3-1-0.5-1-0.7s0.2-0.6,0.8-1.5c1.6-2.3,2.3-4,2.1-5.2c0-0.2-0.1-0.3-0.3-0.4c-0.2-0.2-0.6-0.3-0.9-0.3
		c-0.7,0.1-1.6,0.9-2.8,2.4c-1.3,1.6-2.4,3.5-3.1,5.4c-0.7,1.5-0.9,3.2-0.7,4.8c0.1,0.3,0.2,0.6,0.5,0.8c0.3,0.3,0.8,0.4,1.2,0.3
		c1.1-0.2,2.1-1.1,3-2.7c0.4-0.6,0.7-1.3,0.9-2C116.2,312.9,116.3,312.5,116.3,312.2z"/>
	<path class="st2" d="M127.3,307.7l0.7-0.8c3.9-4.7,6.6-7.3,8.1-7.6c0.9-0.2,1.4,0.1,1.6,0.9c0,0.8-0.2,1.6-0.8,2.2
		c-3.4,5-4.7,9.1-4.1,12.3c0.2,1.1,0.8,2,1.6,2.7c0.3,0.2,0.5,0.6,0.7,0.9c0,0.3-0.1,0.5-0.3,0.7c-0.2,0.3-0.6,0.5-0.9,0.6
		c-1,0.2-2-0.2-2.6-1c-0.8-0.9-1.4-2-1.6-3.1c-0.5-2.5,0-5.5,1.7-9c-2.7,2.2-4.9,5.7-6.7,10.3c-0.5,1.1-1.1,1.8-1.8,1.9
		c-0.3,0.1-0.7,0-1-0.1c-0.4-0.2-0.6-0.5-0.7-0.9c-0.2-1,0.6-3.9,2.5-8.7c0.7-2,1.5-3.9,2.4-5.7c0.6-1.2,1.2-1.9,1.8-2
		c0.3-0.1,0.6,0,0.9,0.2c0.3,0.1,0.6,0.4,0.6,0.8c0,0.7-0.2,1.4-0.6,2C128.3,305.3,127.7,306.5,127.3,307.7z"/>
	<path class="st2" d="M144,302.3c0.7-0.1,1.5-0.3,2.4-0.5c1.9-0.3,3.1-0.6,3.6-0.7c0.9-0.2,1.8-0.3,2.6-0.2c0.5,0.2,0.8,0.6,0.9,1.1
		c0.1,0.5,0,1-0.3,1.4c-0.2,0.2-0.5,0.4-0.8,0.4c-0.2,0-0.6,0.1-1.1,0.2c-0.8,0.1-3,0.5-6.6,1.3c-1.6,0.3-3.2,0.7-4.8,1.3
		c-0.4,0.2-0.8,0.3-1.2,0.4c-0.8,0.2-1.7-0.3-1.9-1.2c0,0,0,0,0-0.1c-0.2-0.9,0.3-1.8,1.2-2.1l0,0
		C140.2,303.1,142.1,302.6,144,302.3z"/>
	<path class="st2" d="M163.5,297.4c-1.6,4.1-2.8,8.3-3.7,12.6c-0.1,1-0.4,2-0.8,3c-0.4,0.4-0.8,0.6-1.4,0.7
		c-0.4,0.1-0.9,0.1-1.3-0.2c-0.3-0.2-0.5-0.5-0.6-0.8c-0.2-0.9,0.3-3.4,1.6-7.6c1-3.6,2.3-7,3.7-10.5c-0.4-0.6-0.7-1.2-0.9-1.9
		c-0.1-0.6,0.1-1.3,0.6-1.7c0.2-0.2,0.5-0.4,0.9-0.5s0.8-0.1,1.3,0c0.2-0.5,1.1-2.6,2.6-6.1c0.8-2,1.4-4,2-6.1
		c-0.6,0.3-1,0.6-1.3,0.9c-0.3,0.2-0.5,0.3-0.9,0.4c-0.3,0.1-0.6,0-0.8-0.2s-0.3-0.4-0.4-0.6c-0.2-0.9,0.4-1.9,1.7-2.9
		c0.9-0.7,1.8-1.3,2.8-1.9c0-0.6,0.2-1.3,0.3-1.9c0.2-0.6,0.7-1,1.3-1.1c0.8-0.1,1.6,0.1,2.2,0.6c1-0.5,1.9-0.9,2.9-1.2
		c0.9-0.3,1.7-0.6,2.6-0.8c2.6-0.5,4.7-0.3,6.2,0.6c1.4,0.8,2.5,2.2,2.8,3.9c0.6,2.7-0.2,5.6-2.2,8.5c-2.2,3-5.2,5.5-8.5,7.2
		c-2.7,1.5-5.7,2.6-8.8,3.3c-0.5,0.1-1.3,0.2-2.4,0.4c0.6,1.1,1.3,2.1,2.1,3.1l6.1,7c0.7,0.8,1.9,1.9,3.5,3.3
		c0.4,0.3,0.6,0.7,0.8,1.1c0,0.4-0.2,0.9-0.5,1.1c-0.3,0.3-0.8,0.6-1.2,0.7c-0.6,0.1-1.3-0.3-2.1-1.1l-1.5-1.5
		C169.1,304.4,166.2,301,163.5,297.4z M166.3,290.5c0.9-0.1,1.5-0.3,1.9-0.3c4.6-1,8.8-3.3,12.1-6.7c1.4-1.4,2.6-3.1,3.4-5
		c0.5-1,0.6-2.2,0.4-3.3c-0.2-1-0.8-1.8-1.8-2.2c-1.3-0.4-2.6-0.4-3.9,0c-1.5,0.3-3,0.9-4.4,1.7c-0.6,0.3-1.4,0.8-2.4,1.5
		c-0.5,1.6-1.3,4.1-2.5,7.2S167,288.9,166.3,290.5L166.3,290.5z"/>
	<path class="st2" d="M185,300.1l0.1,0.5c0.1,0.4,0.3,0.7,0.6,1c0.9,0.6,1.9,0.8,2.9,0.5c2.8-0.6,5.6-3,8.5-7.3
		c0.3-0.6,0.8-1,1.4-1.3c0.3-0.1,0.5,0,0.7,0.2c0.1,0.1,0.2,0.2,0.3,0.4c0.2,0.7-0.7,2.2-2.4,4.3c-1.3,1.7-2.9,3.2-4.6,4.4
		c-1.5,1.1-3.2,2-5,2.4c-1.4,0.4-3,0.2-4.2-0.6c-0.8-0.6-1.4-1.5-1.5-2.5c-0.7-3.1,0.5-6.6,3.4-10.3c2.4-3,4.6-4.8,6.7-5.2
		c0.6-0.1,1.1-0.1,1.7,0.1c0.6,0.2,1.1,0.7,1.2,1.4c0.1,1.4-0.2,2.8-0.9,4C192.2,295.3,189.3,298.1,185,300.1z M185.3,297.8
		c1.2-0.6,2.3-1.4,3.4-2.3c1.3-1.2,2.3-2.6,3-4.2c0.2-0.4,0.3-0.9,0.3-1.3c-0.1-0.4-0.3-0.5-0.8-0.4c-0.9,0.3-1.7,0.9-2.2,1.6
		C187.2,293.1,185.9,295.3,185.3,297.8L185.3,297.8z"/>
	<path class="st2" d="M203.8,288.1c1.7-5.9,4-11.6,6.9-17c1.2-2.4,2.7-4.7,4.3-6.8c0.5-0.8,1.4-1.5,2.3-1.8c0.3-0.1,0.5,0,0.8,0.1
		s0.6,0.3,0.6,0.7c0.1,0.4-0.2,1.1-0.8,2c-4.1,6.1-7.4,12.6-9.8,19.6c2.2-1.4,4.6-2.5,7.1-3.2c0.9-0.2,1.8-0.2,2.7,0.1
		c0.7,0.2,1.2,0.7,1.4,1.3c0.1,0.3,0,0.6-0.2,0.9c-0.3,0.4-0.7,0.7-1.2,0.8c-0.8,0-1.6-0.1-2.4-0.3c-0.4-0.1-0.8,0-1.2,0.1
		c-2.2,0.5-4.7,1.9-7.5,4.2c1.2,0.1,2.3,0.6,3.3,1.5c1.1,1.2,1.8,2.6,2.1,4.2c0.9,4.5,0.3,9.7-1.9,15.4c-0.7,2-1.7,4-3,5.8
		c-0.9,1.3-2.3,2.3-3.9,2.7c-1.1,0.2-2.2,0-3-0.8s-1.3-1.8-1.5-2.9c-0.6-2.7-0.2-7.1,1.2-13.2c0.2-0.7,0.7-2.6,1.6-5.7
		c0.2-0.8,0.4-1.6,0.6-2.4c-0.2,0.1-0.3,0.1-0.5,0.2c-0.4,0.2-0.9,0-1-0.4c0-0.1,0-0.1-0.1-0.2C200.2,291.7,201.4,290.2,203.8,288.1
		z M205.7,291.5c-1.2,3.5-2.2,7-3,10.5c-1.2,4.9-1.5,8.6-1,11.1c0.1,0.5,0.3,0.9,0.7,1.2c0.3,0.3,0.8,0.4,1.2,0.3
		c1.4-0.3,2.8-2.6,4.2-6.9c1.6-4.8,2.1-9.1,1.3-12.6c-0.2-1.2-0.7-2.2-1.6-3C207,291.8,206.3,291.6,205.7,291.5z"/>
	<path class="st2" d="M225.6,292.9c-0.6,1.1-1.3,2.2-2,3.2c-0.8,1.3-2,2.2-3.5,2.6c-1,0.2-2,0-2.8-0.7c-0.6-0.5-0.9-1.2-1.1-1.9
		c-0.5-2.4,0.2-5.4,2-9c0.7-1.5,1.6-2.8,2.7-4c0.5-0.6,1.2-1.1,1.9-1.4c0.3-0.1,0.7,0,0.9,0.1s0.4,0.3,0.5,0.5c0.1,0.4-0.2,1-0.9,2
		c-1.3,1.9-2.3,3.8-3.1,5.9c-0.6,1.4-0.9,3-0.8,4.6c0,0.2,0.2,0.4,0.3,0.5c0.2,0.1,0.4,0.1,0.7,0.1c1.1-0.2,2.4-1.9,3.9-5
		c0.8-1.7,1.3-3.4,1.7-5.2c0.2-1,0.6-1.9,1.1-2.8c0.3-0.7,0.9-1.2,1.6-1.4c0.3-0.1,0.7,0,1,0.2s0.5,0.4,0.6,0.8
		c0.1,0.7-0.3,2.3-1.4,5c-0.6,1.4-0.9,2.9-0.7,4.4c0.2,1,0.8,2,1.7,2.6c0.6,0.3,1.3,0.5,2,0.7c0.5,0.1,0.9,0.5,1,1
		c0.1,0.4-0.1,0.7-0.3,1c-0.3,0.3-0.7,0.5-1.2,0.6c-1.1,0.2-2.3,0.1-3.3-0.5s-1.8-1.5-2.2-2.6C225.9,293.8,225.7,293.3,225.6,292.9z
		"/>
	<path class="st2" d="M237.9,284.8c0.2-0.3,0.5-0.6,0.7-0.8c3.8-4.7,6.6-7.3,8.1-7.6c0.9-0.2,1.4,0.1,1.6,0.9c0,0.8-0.2,1.6-0.8,2.2
		c-3.4,5-4.7,9.1-4.1,12.3c0.2,1.1,0.8,2,1.6,2.7c0.3,0.2,0.5,0.5,0.7,0.9c0,0.3-0.1,0.5-0.3,0.7c-0.2,0.3-0.6,0.5-0.9,0.6
		c-1,0.2-2-0.2-2.6-1c-0.8-0.9-1.4-2-1.6-3.1c-0.5-2.5,0-5.5,1.7-9c-2.7,2.2-4.9,5.7-6.6,10.3c-0.5,1.1-1.1,1.8-1.8,1.9
		c-0.3,0.1-0.7,0-1-0.1c-0.4-0.2-0.6-0.5-0.7-0.9c-0.2-1,0.6-3.9,2.5-8.7c0.7-2,1.5-3.9,2.4-5.7c0.6-1.2,1.3-1.9,1.9-2
		c0.3-0.1,0.6,0,0.9,0.2c0.3,0.2,0.6,0.4,0.6,0.8c0,0.7-0.2,1.4-0.6,2C238.9,282.4,238.3,283.6,237.9,284.8z"/>
	<path class="st2" d="M260.1,273.2c1.4-4.3,2.8-8.2,4.2-11.5c0.8-2.1,1.7-4.1,2.8-6.1c0.4-0.8,1.1-1.4,1.9-1.6c0.3-0.1,0.7,0,1,0.2
		c0.3,0.1,0.5,0.4,0.6,0.7c0,0.8-0.3,1.7-0.7,2.4c-2.3,5-4.4,10-6.1,15.1c-2,5.9-2.7,10.1-2.2,12.7c0.1,0.9,0.6,1.7,1.3,2.4
		c0.4,0.3,0.9,0.5,1.4,0.6c0.1,0.1,0.3,0.2,0.3,0.5c0.1,0.4,0,0.8-0.3,1.1c-0.2,0.3-0.6,0.6-1,0.7c-0.7,0.1-1.3-0.1-1.9-0.4
		c-1-0.5-1.7-1.3-2.1-2.2c-0.1-0.4-0.4-1.1-0.7-2.2c-1.6,4-3.5,6.2-5.6,6.6c-1.2,0.3-2.5-0.2-3.3-1.1c-0.7-0.7-1.1-1.5-1.3-2.4
		c-0.6-2.9,0.1-6.1,2-9.5c1.9-3.5,4.3-5.5,7.2-6C258.3,272.9,259.2,272.9,260.1,273.2z M259.4,275.7c-0.5-0.2-1.1-0.3-1.7-0.2
		c-1.9,0.4-3.4,1.7-4.7,4c-1.7,2.9-2.3,5.6-1.8,7.9c0.1,0.3,0.2,0.5,0.4,0.7c0.3,0.4,0.9,0.6,1.4,0.5c0.8-0.2,1.6-1,2.4-2.5
		c1.2-2.1,2.2-4.4,2.9-6.8c0.3-0.9,0.6-1.7,0.8-2.6l0.2-0.6L259.4,275.7z"/>
	<path class="st2" d="M275.4,282.2c-0.4,1.1-1,2.2-1.6,3.2c-0.8,1.5-2.1,2.5-3.7,3c-1.1,0.3-2.3-0.1-3.1-0.8c-0.6-0.6-0.9-1.3-1.1-2
		c-0.4-2.5-0.1-5,0.9-7.3c1-2.9,2.7-5.5,4.9-7.7c1.2-1.2,2.7-2,4.3-2.4c0.8-0.2,1.7-0.1,2.5,0.2c0.5,0.2,1,0.7,1.1,1.3
		c0.1,0.6,0,1.2-0.2,1.8c0.3,0.2,0.6,0.5,0.7,0.9c0,0.7-0.2,1.5-0.5,2.1c-0.5,1.3-0.9,2.6-1.2,4c-0.3,1.3-0.4,2.7-0.2,4
		c0.1,0.7,0.6,1.4,1.2,1.8c0.5,0.2,1,0.3,1.5,0.4s1,0.5,1.1,1c0.1,0.4,0,0.7-0.3,1s-0.7,0.5-1.1,0.6c-1.2,0.3-2.4,0-3.4-0.7
		c-0.9-0.6-1.4-1.5-1.6-2.5C275.6,283.7,275.5,283.1,275.4,282.2z M277.7,272.2c-0.3-0.3-0.7-0.6-1.1-0.7c-0.3-0.1-0.7-0.2-1.1-0.1
		c-1.7,0.4-3.3,2-4.7,4.9c-1.6,3.2-2.2,5.7-1.9,7.6c0.1,0.4,0.2,0.7,0.5,1c0.3,0.2,0.7,0.3,1,0.2c1.1-0.2,2.1-1.4,3.1-3.6
		c0.8-1.7,1.4-3.4,2-5.2c0.3-1,0.7-2,1.2-3C277.1,272.8,277.4,272.4,277.7,272.2L277.7,272.2z"/>
	<path class="st2" d="M289.5,268.8c1.2-1.5,2.8-2.5,4.7-3.1c0.9-0.2,1.8,0,2.5,0.5c0.6,0.4,1.1,1.1,1.3,1.8c0.3,1.9,0.1,3.8-0.6,5.6
		c-0.9,2.7-2.3,5.3-4.2,7.5c-1.2,1.8-3.1,3.1-5.1,3.6c-0.6,0.1-1.3,0.2-1.9,0.1s-1.1-0.3-1.6-0.6l-0.2,0.6c-0.1,0.5-0.3,1-0.5,1.4
		c-0.2,0.2-0.4,0.3-0.6,0.4c-0.4,0.1-0.9-0.1-1.3-0.4c-0.3-0.2-0.5-0.4-0.5-0.8c-0.1-0.5,0.6-3.4,2.2-8.7c2.3-7.6,5.1-15,8.3-22.3
		c1.3-3.1,2.2-4.9,2.5-5.4c0.4-0.7,0.7-1,1.1-1.1c0.5-0.1,1,0,1.4,0.4c0.3,0.2,0.5,0.5,0.6,0.8c0.1,0.6-0.1,1.1-0.3,1.6
		c-0.1,0.2-0.6,1.3-1.5,3.3C293.3,258.8,291.2,263.8,289.5,268.8z M286.4,282c0.4,0.1,0.8,0.1,1.1,0c1.9-0.4,3.7-2.2,5.3-5.5
		c0.7-1.4,1.2-2.8,1.6-4.3c0.2-0.9,0.3-1.7,0.3-2.6c0-0.3-0.2-0.6-0.5-0.8c-0.3-0.2-0.7-0.2-1-0.1c-1.4,0.5-2.5,1.3-3.3,2.5
		c-1.4,1.8-2.5,3.8-3.2,5.9c-0.5,1.2-0.8,2.3-1.1,3.3l-0.3,0.8C285.6,281.6,286,281.9,286.4,282z"/>
	<path class="st2" d="M304.3,271.4c-0.4,1.6-0.6,2.9-0.8,3.8c-0.1,0.7-0.2,1.3-0.1,2c0.1,0.5,0.4,0.6,0.9,0.5c0.8-0.2,1.7-1,2.7-2.5
		c0.7-1.2,1.4-2.5,2-3.9c0.3-0.7,0.8-1.1,1.3-1.3s0.9,0,1,0.5c0.2,0.8-0.6,2.6-2.3,5.5s-3.6,4.7-5.6,5.1c-0.8,0.2-1.6,0-2.3-0.5
		c-0.5-0.4-0.8-0.9-0.9-1.4c-0.2-1.5-0.1-3.1,0.2-4.5c0.5-2.5,1.2-5,2-7.4c2-6.6,4.8-13,8.3-19c2.5-4.1,4.7-6.4,6.8-6.9
		c0.6-0.2,1.2,0,1.8,0.3c0.5,0.3,0.9,0.8,1,1.3c0.5,2.6-1.3,7.5-5.6,14.7c-2.1,3.5-4.6,6.8-7.3,9.9
		C306.7,268.6,305.6,269.8,304.3,271.4z M305.8,266.4c4.1-4.5,7.4-9.6,9.8-15.1c1.3-3,1.9-4.9,1.8-5.8c0-0.3-0.3-0.5-0.6-0.5
		c-0.1,0-0.1,0-0.2,0c-1.2,0.3-3,2.7-5.4,7.5C308.9,257,307.1,261.7,305.8,266.4z"/>
	<path class="st2" d="M315.7,273.1l0.1,0.5c0.1,0.4,0.3,0.8,0.6,1c0.9,0.6,1.9,0.8,2.9,0.5c2.8-0.6,5.6-3,8.5-7.3
		c0.3-0.6,0.8-1,1.4-1.3c0.3,0,0.5,0,0.7,0.2c0.1,0.1,0.2,0.2,0.3,0.4c0.1,0.7-0.7,2.2-2.4,4.3c-1.3,1.7-2.9,3.2-4.6,4.4
		c-1.5,1.1-3.2,1.9-5,2.4c-1.4,0.4-3,0.2-4.2-0.6c-0.8-0.6-1.4-1.5-1.5-2.5c-0.7-3.1,0.5-6.6,3.4-10.3c2.4-3,4.6-4.8,6.7-5.2
		c0.5-0.1,1.1-0.1,1.6,0.1c0.6,0.2,1.1,0.7,1.2,1.4c0.1,1.4-0.2,2.8-0.9,4C322.9,268.3,319.9,271,315.7,273.1z M316,270.7
		c1.2-0.6,2.3-1.4,3.4-2.3c1.3-1.2,2.3-2.6,3-4.2c0.2-0.4,0.3-0.9,0.3-1.3c-0.1-0.4-0.3-0.5-0.7-0.4c-0.9,0.3-1.7,0.9-2.2,1.6
		C317.8,266,316.6,268.3,316,270.7L316,270.7z"/>
	<path class="st2" d="M155.9,354.9l-0.3,0.9c-1.5,4.5-2.4,7.7-2.9,9.5c-0.7,2.9-1,4.6-1.1,5.1c-0.2,1.3-0.7,2.1-1.4,2.3
		c-0.5,0.1-1.1,0-1.5-0.3c-0.4-0.2-0.6-0.6-0.7-1c-0.3-1.6,1.1-7.1,4.2-16.6c-1-0.4-1.6-0.8-1.7-1.4c-0.1-0.5,0.1-1,0.5-1.3
		c0.3-0.3,0.7-0.6,1.1-0.6c0.4-0.1,0.9-0.1,1.3-0.1c2.4-6.5,3.8-10.6,4.1-12.3c-0.5,0.4-1.1,0.9-1.9,1.6c-0.3,0.3-0.8,0.5-1.2,0.7
		c-0.4,0.1-0.8,0-1.1-0.3c-0.2-0.2-0.4-0.4-0.4-0.7c-0.2-0.9,0.5-2,2.1-3.4c1.3-1.1,2.5-2,3.6-2.8c0.1-0.3,0.1-0.7,0.2-1
		c0-0.5,0.2-1.1,0.4-1.6c0.3-0.3,0.6-0.5,1.1-0.6c1-0.2,1.7,0.1,1.9,1.1c1.5-0.7,2.8-1.3,3.9-1.7c1-0.4,1.9-0.7,2.9-0.9
		c2-0.5,4.1-0.1,5.9,0.9c1.5,0.8,2.6,2.3,3,3.9c0.6,2.8-0.2,5.9-2.4,9.3c-2,3-4.7,5.5-7.8,7.4c-2.7,1.7-5.7,2.9-8.8,3.6
		C157.8,354.7,156.8,354.8,155.9,354.9z M161.7,335.9c-0.5,2.7-1.2,5.3-2.1,7.8c-1.3,3.9-2.2,6.5-2.5,7.7c0.9,0,1.8-0.1,2.6-0.3
		c3.1-0.8,5.9-2.3,8.3-4.4c2.7-2.1,4.9-4.7,6.4-7.8c0.7-1.3,1-2.9,0.9-4.4c-0.2-1-0.8-1.8-1.8-2.1c-1.3-0.4-2.7-0.4-4,0
		c-1.3,0.3-2.6,0.7-3.9,1.3C164.2,334.3,162.9,335.1,161.7,335.9L161.7,335.9z"/>
	<path class="st2" d="M183.1,358.3c-0.4,1.1-1,2.2-1.6,3.2c-0.8,1.5-2.1,2.5-3.7,3c-1.1,0.3-2.3,0-3.1-0.8c-0.6-0.6-0.9-1.3-1.1-2
		c-0.4-2.5-0.1-5,0.9-7.3c1-2.9,2.7-5.5,4.9-7.7c1.2-1.2,2.7-2,4.3-2.4c0.8-0.2,1.7-0.1,2.5,0.3c0.6,0.2,1,0.7,1.1,1.3
		c0.1,0.6,0,1.2-0.2,1.8c0.3,0.2,0.6,0.5,0.7,0.9c0,0.7-0.2,1.5-0.5,2.1c-0.5,1.3-0.9,2.6-1.2,4c-0.3,1.3-0.4,2.7-0.2,4.1
		c0.1,0.7,0.6,1.4,1.2,1.8c0.5,0.2,1,0.3,1.5,0.4s1,0.5,1.1,1c0.1,0.4,0,0.7-0.3,1s-0.7,0.5-1.1,0.6c-1.2,0.2-2.4,0-3.4-0.7
		c-0.9-0.6-1.4-1.5-1.6-2.5C183.2,359.8,183.1,359.2,183.1,358.3z M185.3,348.3c-0.3-0.3-0.7-0.6-1.1-0.7c-0.3-0.1-0.7-0.2-1.1-0.1
		c-1.7,0.3-3.3,2-4.7,4.8c-1.6,3.2-2.2,5.7-1.8,7.6c0,0.4,0.2,0.7,0.5,1c0.3,0.2,0.7,0.3,1,0.2c1.1-0.2,2.1-1.4,3.1-3.6
		c0.8-1.7,1.4-3.4,2-5.2c0.3-1,0.7-2,1.2-3C184.7,348.9,185,348.6,185.3,348.3L185.3,348.3z"/>
	<path class="st2" d="M201,351.3c-1.6,2.4-2.8,4.1-3.8,5.3c-1.9,2.3-3.7,3.7-5.3,4c-0.7,0.2-1.4,0.1-1.9-0.3
		c-0.4-0.3-0.7-0.8-0.8-1.3c-0.4-2,0.4-5,2.6-8.9c2.2-4,3.9-6.1,5.2-6.4c0.3-0.1,0.7,0,1,0.2c0.3,0.1,0.5,0.4,0.5,0.6
		c0.1,0.4,0,0.8-0.2,1.1c-0.5,0.9-1.1,1.7-1.8,2.5c-1,1.4-2,2.8-2.8,4.3c-0.9,1.7-1.3,2.9-1.2,3.5c0.1,0.4,0.4,0.5,0.8,0.5
		c0.9-0.2,2.3-1.5,4.4-4.1c1.3-1.6,2.3-2.9,2.9-4c0.1-0.2,0.7-1.3,1.8-3.1c1-1.6,1.6-2.6,1.8-3c0.4-0.7,1-1.1,1.7-1.4
		c0.4-0.1,0.7,0,1.1,0.2c0.3,0.2,0.5,0.4,0.6,0.8c0,1-0.3,2.1-0.8,3c-0.7,1.8-1.4,3.4-2,4.9c-0.9,2-1.5,4.1-2.1,6.2
		c1.3-1,2.4-2.1,3.4-3.3c1.2-1.3,2.2-2.9,2.9-4.5c0.3-0.8,0.6-1.3,1.1-1.4c0.6-0.1,1,0.1,1.1,0.6c0.2,1-0.5,2.7-2.1,5
		c-2.1,3-4.7,5.7-7.6,7.8c-0.9,3.5-2,7-3.4,10.4c-2.2,5.2-4.9,8.1-8.2,8.8c-1.2,0.3-2.5,0.1-3.5-0.6c-0.8-0.5-1.3-1.4-1.5-2.3
		c-0.6-2.9,1.2-6.4,5.4-10.4c1.8-1.6,3.7-3.2,5.6-4.6c1-0.8,1.8-1.4,2.4-1.9c0.2-0.9,0.6-2.2,1.1-3.8S200.6,352.6,201,351.3z
		 M197.1,363.5c-2.3,1.7-4.5,3.6-6.3,5.8c-2.1,2.4-3,4.5-2.6,6.1c0.1,0.3,0.3,0.6,0.6,0.8c0.4,0.3,0.9,0.4,1.4,0.2
		c1.7-0.3,3.2-2.2,4.6-5.5c0.2-0.6,0.8-2.4,1.7-5.4L197.1,363.5z"/>
	<path class="st2" d="M216.2,346.5c1.3-1.7,2.6-3.3,4.1-4.9c1.9-1.8,3.2-2.8,3.9-3c0.3-0.1,0.7,0,1,0.1s0.4,0.3,0.5,0.6
		c0.1,0.4-0.2,1-0.8,2c-0.8,1.2-1.4,2.4-1.8,3.8c4.3-5.4,7.4-8.4,9.3-8.8c0.4-0.1,0.7-0.1,1.1,0.1c0.3,0.1,0.6,0.4,0.6,0.7
		c0.1,0.5-0.2,1.3-1,2.3c-3.5,4.5-4.9,7.9-4.4,10.2c0.1,0.7,0.4,1.4,1,1.9l1.1,0.7c0.2,0.1,0.4,0.3,0.4,0.6c0,0.3,0,0.7-0.3,0.9
		c-0.2,0.3-0.6,0.6-1,0.7c-0.8,0.1-1.7-0.2-2.3-0.8c-0.9-0.8-1.6-1.8-1.8-3c-0.3-1.9-0.1-3.8,0.7-5.5c0.4-1,0.9-1.9,1.5-2.9
		c-1.8,1.8-3.4,3.9-4.8,6.1c-1.1,1.7-1.9,3.6-2.6,5.5c-0.2,0.8-0.8,1.4-1.5,1.6c-0.5,0.2-1.1-0.1-1.3-0.6c0-0.1,0-0.2-0.1-0.2
		c-0.2-0.8,0.1-2.5,0.9-5.1c0.5-1.6,1.1-3.3,1.7-4.8c-3.3,3.2-5.5,7.3-6.5,11.7c-0.1,0.9-0.7,1.6-1.6,1.8c-0.3,0.1-0.7,0-0.9-0.1
		c-0.3-0.2-0.5-0.4-0.5-0.7c-0.2-1.1,0.1-3.2,1-6.4c0.8-3.2,2-6.3,3.5-9.2c1-2,1.8-3,2.6-3.2s1.1,0.1,1.2,0.7
		c-0.1,0.8-0.4,1.5-0.8,2.2C217.5,343.3,216.8,344.9,216.2,346.5z"/>
	<path class="st2" d="M236.9,346.4l0.1,0.5c0.1,0.4,0.3,0.7,0.6,1c0.9,0.6,1.9,0.8,2.9,0.5c2.8-0.6,5.6-3,8.5-7.3
		c0.3-0.6,0.8-1,1.4-1.3c0.3-0.1,0.5,0,0.7,0.2c0.1,0.1,0.2,0.2,0.3,0.4c0.1,0.7-0.7,2.2-2.4,4.3c-1.3,1.7-2.9,3.2-4.6,4.4
		c-1.5,1.1-3.2,2-5,2.4c-1.4,0.4-3,0.2-4.2-0.6c-0.8-0.6-1.4-1.5-1.5-2.5c-0.7-3.1,0.5-6.6,3.4-10.3c2.4-3,4.6-4.8,6.7-5.2
		c0.6-0.1,1.1-0.1,1.7,0.1c0.6,0.2,1.1,0.7,1.2,1.4c0.1,1.4-0.2,2.8-0.9,4C244.1,341.6,241.2,344.3,236.9,346.4z M237.2,344
		c1.2-0.6,2.3-1.4,3.4-2.3c1.3-1.2,2.3-2.6,3-4.2c0.2-0.4,0.3-0.9,0.3-1.3c-0.1-0.4-0.3-0.5-0.8-0.4c-0.9,0.3-1.7,0.9-2.2,1.6
		C239.1,339.3,237.8,341.6,237.2,344L237.2,344z"/>
	<path class="st2" d="M257.1,337.8c0.2-0.3,0.5-0.6,0.7-0.8c3.9-4.7,6.6-7.3,8.1-7.6c0.6-0.2,1.2,0,1.5,0.6c0,0.1,0.1,0.2,0.1,0.3
		c0,0.8-0.2,1.6-0.8,2.2c-3.4,5-4.7,9.1-4.1,12.3c0.2,1.1,0.8,2,1.6,2.7c0.3,0.2,0.5,0.5,0.7,0.9c0,0.3-0.1,0.5-0.3,0.7
		c-0.2,0.3-0.6,0.5-1,0.6c-1,0.2-2-0.2-2.6-1c-0.8-0.9-1.4-2-1.6-3.1c-0.5-2.5,0-5.5,1.7-9c-2.7,2.2-4.9,5.7-6.6,10.3
		c-0.5,1.1-1.1,1.8-1.8,1.9c-0.3,0.1-0.7,0-1-0.1c-0.4-0.2-0.6-0.5-0.7-0.9c-0.2-1,0.6-3.9,2.5-8.7c0.7-2,1.5-3.9,2.4-5.7
		c0.6-1.2,1.2-1.9,1.8-2c0.3-0.1,0.6,0,0.9,0.2c0.3,0.1,0.6,0.4,0.6,0.8c0,0.7-0.2,1.4-0.6,2C258.1,335.4,257.5,336.6,257.1,337.8z"
		/>
	<path class="st2" d="M277.7,324.8c-1.1,2.3-2,4.7-2.7,7.1c-1.1,3.7-1.4,6.3-1.1,8c0.1,0.4,0.3,0.8,0.6,1c0.3,0.2,0.7,0.3,1.1,0.1
		c1.1-0.2,2.3-1.4,3.5-3.5c0.7-1.2,1.4-2.5,2-3.8c0.3-0.7,0.7-1.1,1.2-1.2c0.3-0.1,0.5,0,0.8,0.1c0.2,0.1,0.3,0.2,0.4,0.4
		c0.1,0.7-0.6,2.4-2.3,5.3c-2,3.4-4,5.3-6.2,5.8c-1.1,0.2-2.2,0-3.1-0.7c-0.7-0.6-1.1-1.4-1.2-2.2c-0.4-2.8-0.2-5.6,0.7-8.3
		c0.2-0.8,0.9-2.8,2-6c-0.4,0.2-0.9,0.4-1.3,0.5s-0.9,0.1-1.3,0s-0.8-0.4-0.9-0.8c-0.1-0.5,0.1-0.9,0.7-1.3c0.8-0.3,1.6-0.6,2.4-0.9
		s1.5-0.6,2.2-1c0.8-1.9,1.8-3.8,2.8-5.5c0.5-0.9,1-1.8,1.6-2.6c0.3-0.5,0.7-0.8,1.3-1c0.3-0.1,0.7,0,1,0.2c0.3,0.1,0.5,0.4,0.5,0.6
		c0.1,0.5-0.3,1.6-1.3,3.3c-0.5,0.9-1,1.7-1.4,2.6c1.6-0.8,3.4-1.5,5.1-1.9c1.2-0.3,1.9,0,2.1,0.9c0.1,0.4-0.1,0.8-0.4,1.1
		c-0.5,0.3-1.1,0.5-1.7,0.6c-1.6,0.6-3.2,1.3-4.8,2.1C279.2,324,278.4,324.4,277.7,324.8z"/>
	<path class="st2" d="M130.6,412.3c-1.1,2.3-2,4.7-2.7,7.1c-1.1,3.7-1.4,6.3-1.1,8c0.1,0.4,0.3,0.8,0.6,1c0.3,0.2,0.7,0.3,1.1,0.1
		c1.1-0.2,2.3-1.4,3.5-3.5c0.7-1.2,1.4-2.5,2-3.8c0.2-0.6,0.6-1,1.2-1.2c0.3-0.1,0.5,0,0.8,0.1c0.2,0.1,0.3,0.3,0.4,0.5
		c0.1,0.7-0.6,2.4-2.3,5.3c-2,3.4-4,5.3-6.2,5.8c-1.9,0.5-3.8-0.7-4.2-2.5c0-0.1-0.1-0.3-0.1-0.4c-0.4-2.8-0.2-5.7,0.7-8.3
		c0.2-0.8,0.9-2.8,2-6c-0.4,0.2-0.9,0.4-1.3,0.5s-0.9,0.1-1.3,0s-0.8-0.4-0.9-0.8c-0.1-0.5,0.2-0.9,0.7-1.3c0.8-0.3,1.6-0.6,2.4-0.9
		s1.5-0.6,2.2-1c0.8-1.9,1.8-3.8,2.8-5.5c0.5-0.9,1-1.8,1.6-2.6c0.3-0.5,0.7-0.8,1.3-1c0.3-0.1,0.7,0,0.9,0.2
		c0.3,0.1,0.5,0.4,0.6,0.6c0.1,0.5-0.3,1.6-1.3,3.3c-0.5,0.9-1,1.7-1.4,2.6c1.6-0.8,3.4-1.5,5.1-1.9c1.2-0.3,1.9,0,2.1,0.9
		c0.1,0.4-0.1,0.8-0.4,1.1c-0.5,0.3-1.1,0.5-1.7,0.6c-1.6,0.6-3.3,1.3-4.8,2.1C132.1,411.5,131.3,411.9,130.6,412.3z"/>
	<path class="st2" d="M146.6,408.9c1.8-0.4,2.9,0.4,3.3,2.2c0.5,2.5-0.2,5.9-2.1,10.2c-2.1,4.7-4.6,7.4-7.3,7.9
		c-1.1,0.3-2.4,0-3.1-0.9c-0.4-0.5-0.7-1.1-0.8-1.7c-0.5-2.4-0.1-5.2,1.3-8.4c1.2-2.8,3-5.3,5.2-7.3
		C144,410,145.3,409.3,146.6,408.9z M145.4,420.1c-0.6-0.3-1-0.5-1-0.7s0.2-0.6,0.8-1.5c1.6-2.3,2.3-4,2.1-5.2
		c0-0.2-0.1-0.3-0.3-0.4c-0.2-0.2-0.6-0.3-0.9-0.3c-0.7,0.1-1.6,0.9-2.8,2.4c-1.3,1.6-2.4,3.5-3.1,5.4c-0.6,1.5-0.9,3.2-0.7,4.8
		c0.1,0.3,0.2,0.6,0.5,0.8c0.3,0.3,0.8,0.4,1.2,0.3c1.1-0.2,2.1-1.1,3-2.7c0.4-0.6,0.7-1.3,0.9-2
		C145.2,420.8,145.3,420.5,145.4,420.1z"/>
	<path class="st2" d="M184.8,399.2c1.8,0.1,3.6,0.6,5.2,1.4c2,1,3.4,2.8,3.9,5c0.5,2.7,0.1,5.4-1.3,7.8c-1.4,2.5-3.3,4.7-5.6,6.4
		c-2.4,1.7-5.1,3-8,3.6c-2.5,0.5-5,0.5-7.5,0.1c-0.1,0.4-0.1,0.7-0.2,1.1c-0.1,0.9-0.5,1.5-1.1,1.6c-0.7,0.1-1.4-0.1-1.9-0.6
		c-0.4-0.3-0.7-0.7-0.8-1.2c0-1.5,0.2-3,0.6-4.4c0.8-3.8,1.9-7.5,3.2-11.1c0.6-1.7,2-5,4-9.8c0.9-2.1,2.2-4.9,4-8.6
		c0.4-0.9,0.8-1.7,1.2-2.6c-1.3,0.7-2.6,1.5-3.9,2.3c-0.7,0.5-1.5,1-2.3,1.4c-0.3,0.1-0.7,0-0.9-0.2c-0.3-0.2-0.5-0.5-0.6-0.9
		c-0.1-0.5,0-1.1,0.4-1.4c1.3-1.1,2.7-2,4.1-2.8c3.3-2.1,6.8-3.6,10.5-4.6c2-0.5,4.1-0.4,6,0.3c1.5,0.5,2.6,1.7,3,3.3
		c0.6,3.1-0.9,6.1-4.7,9.3C190.1,396.3,187.5,397.9,184.8,399.2z M172.1,420.9c0.6,0.2,1.2,0.3,1.8,0.4c1.3,0.1,2.6,0,3.9-0.3
		c4.3-0.7,8.1-3.3,10.4-7.1c1.9-3.1,2.5-6,2-8.6c-0.4-1.8-1.8-3.2-3.6-3.6c-1.3-0.4-2.7-0.4-4-0.1c-0.8,0.2-1.6,0.5-2.4,0.8
		c-0.2,0.1-0.4,0.1-0.6,0.2c-0.6,0.1-1.2-0.2-1.5-0.7C175.2,408,173.2,414.3,172.1,420.9L172.1,420.9z M179.5,398.5
		c3.6-1.3,7-3.2,10-5.6c3.4-2.7,5-5.1,4.6-7c-0.2-1-1-1.7-2-1.8c-1-0.2-2-0.2-2.9,0.1c-0.8,0.2-1.7,0.4-2.5,0.7
		c-0.9,0.4-1.8,0.8-2.7,1.2c0.4,0.1,0.7,0.4,0.8,0.8c0,0.8-0.2,1.6-0.7,2.2c-0.2,0.3-0.5,1-1,1.9c-0.2,0.4-0.7,1.5-1.6,3.3
		C180.7,395.7,180,397.1,179.5,398.5z"/>
	<path class="st2" d="M202.4,398.7c0.3-0.1,0.7,0,1,0.2c0.2,0.1,0.3,0.3,0.4,0.6c0,0.7-0.2,1.3-0.6,1.9c-1.4,2.7-2.5,5.5-3.4,8.4
		c-0.6,2.2-1.1,4.4-1.5,6.7c-0.2,1-0.6,1.6-1.4,1.7c-0.4,0.1-0.8,0-1.2-0.2c-0.3-0.2-0.5-0.4-0.5-0.7c-0.1-0.5,0.2-2.6,1-6
		c0.8-3.3,2-6.4,3.7-9.4c0.4-0.8,0.9-1.6,1.4-2.4C201.6,399.1,202,398.8,202.4,398.7z M206.6,387c1-0.2,1.6,0.1,1.8,1
		c0.1,1-0.3,2.1-0.9,2.9c-0.5,0.9-1.4,1.6-2.4,1.9c-0.4,0.1-0.8,0-1.1-0.2s-0.5-0.5-0.6-0.8c-0.1-1.2,0.3-2.4,1.2-3.2
		C205,387.9,205.8,387.3,206.6,387z"/>
	<path class="st2" d="M213.4,395.1c-1.1,2.3-2,4.7-2.7,7.1c-1.1,3.7-1.4,6.3-1.1,8c0.1,0.4,0.3,0.8,0.6,1s0.7,0.3,1.1,0.1
		c1.1-0.2,2.3-1.4,3.5-3.5c0.7-1.2,1.4-2.5,2-3.8c0.3-0.7,0.7-1.1,1.2-1.2c0.3-0.1,0.5,0,0.8,0.1c0.2,0.1,0.3,0.2,0.4,0.4
		c0.1,0.7-0.6,2.4-2.3,5.3c-2,3.4-4,5.3-6.2,5.8c-1.1,0.2-2.2,0-3.1-0.7c-0.7-0.6-1.1-1.4-1.2-2.2c-0.4-2.8-0.2-5.7,0.7-8.3
		c0.2-0.8,0.9-2.8,2-6c-0.4,0.2-0.9,0.4-1.3,0.5c-0.4,0.1-0.9,0.1-1.3,0c-0.4-0.1-0.8-0.4-0.9-0.8c-0.1-0.5,0.1-0.9,0.7-1.3
		c0.8-0.3,1.6-0.6,2.4-0.9c0.8-0.3,1.5-0.6,2.2-1c0.8-1.9,1.8-3.8,2.8-5.5c0.5-0.9,1-1.8,1.6-2.6c0.3-0.5,0.7-0.8,1.3-1
		c0.3-0.1,0.7,0,0.9,0.2c0.3,0.1,0.5,0.4,0.6,0.6c0.1,0.5-0.3,1.6-1.3,3.3c-0.5,0.9-1,1.7-1.4,2.6c1.6-0.8,3.4-1.5,5.1-1.9
		c1.2-0.3,1.9,0,2.1,0.9c0.1,0.4-0.1,0.8-0.4,1.1c-0.5,0.3-1.1,0.5-1.7,0.6c-1.6,0.6-3.2,1.3-4.8,2.1
		C214.9,394.3,214.2,394.7,213.4,395.1z"/>
	<path class="st2" d="M247.6,375.9c-0.5,0.4-1,0.8-1.5,1.3c-0.5,0.6-1.2,1.1-1.9,1.5c-0.3,0.1-0.7,0-1-0.2c-0.3-0.1-0.6-0.4-0.6-0.8
		c-0.1-0.7,0.7-1.9,2.6-3.7c2.8-2.7,6.4-4.6,10.3-5.4c2.7-0.7,5.5-0.3,7.9,1c1.9,1.1,3.2,2.9,3.6,5c0.7,3.6,0,8.1-2.1,13.5
		c-2.5,6.4-6.5,12.2-11.5,17c-3.8,3.6-7.4,5.8-10.8,6.5c-1.1,0.3-2.3,0.2-3.2-0.4c-0.6-0.4-1-0.9-1.2-1.6c-0.2-1,0.1-3.2,0.9-6.9
		c1.3-5.9,3-11.6,5-17.3C244.2,384.6,245.4,381.4,247.6,375.9z M250.4,374c0.7,0.1,1.1,0.4,1.2,0.7c-0.1,0.9-0.4,1.7-0.8,2.5
		c-2.7,6.5-5,13.2-6.8,20.1c-1.5,5.7-2.2,9.1-1.9,10.3c0.2,0.7,0.7,1,1.5,0.9c2-0.6,3.8-1.7,5.3-3.1c3.2-2.9,6-6.3,8.2-10
		c2.5-3.8,4.3-7.9,5.5-12.3c0.8-2.6,1-5.4,0.6-8.2c-0.2-1.4-1-2.6-2.1-3.3c-1.4-0.6-3-0.7-4.4-0.3
		C254.5,371.8,252.3,372.7,250.4,374L250.4,374z"/>
	<path class="st2" d="M267.9,396.9l0.1,0.5c0.1,0.4,0.3,0.7,0.6,1c0.9,0.6,1.9,0.8,2.9,0.5c2.8-0.6,5.6-3,8.5-7.3
		c0.3-0.6,0.8-1,1.4-1.3c0.3,0,0.5,0,0.7,0.2c0.1,0.1,0.2,0.2,0.3,0.4c0.1,0.7-0.7,2.2-2.4,4.3c-1.3,1.7-2.9,3.2-4.6,4.4
		c-1.5,1.1-3.2,1.9-5,2.4c-1.4,0.4-3,0.1-4.2-0.6c-0.8-0.6-1.4-1.5-1.5-2.5c-0.7-3.1,0.5-6.6,3.4-10.3c2.4-3,4.6-4.8,6.7-5.2
		c0.6-0.1,1.1-0.1,1.7,0.1s1.1,0.7,1.2,1.4c0.1,1.4-0.2,2.8-0.9,4C275.1,392.1,272.2,394.9,267.9,396.9z M268.2,394.6
		c1.2-0.6,2.3-1.4,3.4-2.3c1.3-1.2,2.3-2.6,3-4.2c0.2-0.4,0.3-0.9,0.3-1.3c-0.1-0.4-0.3-0.5-0.8-0.4c-0.9,0.3-1.7,0.9-2.2,1.6
		C270,389.9,268.8,392.2,268.2,394.6z"/>
	<path class="st2" d="M290.4,382.4c0.8-0.7,1.4-1.1,1.8-1.4c0.8-0.5,1.6-0.9,2.5-1.1c0.8-0.2,1.6-0.1,2.4,0.3c0.6,0.5,1.1,1.2,1.2,2
		c0.2,1.7,0,3.4-0.7,5c-1,3-2.6,5.8-4.7,8.1c-1.4,1.6-3.2,2.7-5.3,3.3c-1,0.2-2.1,0.1-3.1-0.3c-2,5.7-3.6,11.5-4.9,17.4
		c-0.2,1.4-0.7,2.1-1.4,2.3c-0.4,0-0.8-0.1-1.1-0.4c-0.3-0.2-0.5-0.5-0.5-0.8c-0.2-1,0.6-4.6,2.4-10.7c2.3-8.1,5.1-16.1,8.5-23.9
		c0.6-1.4,1-2.3,1.2-2.8c0.5-1.4,1.2-2.1,1.9-2.3c0.5-0.2,1.1,0,1.3,0.6c0,0.1,0.1,0.2,0.1,0.4c0,0.7-0.1,1.3-0.4,1.9
		C291,380.9,290.7,381.8,290.4,382.4z M285.3,395.5c0.6,0.3,1.3,0.4,2,0.3c2.1-0.4,4-2.4,5.9-6c0.7-1.2,1.2-2.6,1.5-4
		c0.2-0.7,0.3-1.5,0.2-2.3c0-0.3-0.2-0.5-0.4-0.7c-0.3-0.1-0.6-0.2-0.9-0.1c-1.4,0.5-2.6,1.4-3.5,2.6c-1.4,1.7-2.4,3.7-3.1,5.8
		C286.1,393.4,285.6,394.8,285.3,395.5z"/>
	<path class="st2" d="M309.8,375.1c1.8-0.4,2.9,0.4,3.3,2.2c0.5,2.5-0.2,5.9-2.1,10.2c-2.1,4.7-4.6,7.4-7.4,8
		c-1.1,0.3-2.3,0-3.1-0.9c-0.4-0.5-0.7-1.1-0.9-1.7c-0.5-2.4,0-5.2,1.3-8.4c1.2-2.8,2.9-5.3,5.2-7.4
		C307.1,376.2,308.4,375.5,309.8,375.1z M308.5,386.3c-0.6-0.3-1-0.5-1-0.7s0.2-0.6,0.8-1.4c1.6-2.3,2.3-4,2-5.2
		c0-0.2-0.1-0.3-0.3-0.4c-0.2-0.2-0.6-0.3-0.9-0.2c-0.7,0.1-1.6,0.9-2.8,2.4c-1.3,1.6-2.4,3.5-3.1,5.4c-0.6,1.5-0.9,3.2-0.7,4.8
		c0.1,0.3,0.2,0.6,0.5,0.8c0.3,0.3,0.8,0.4,1.2,0.3c1.1-0.2,2.1-1.1,3-2.7c0.4-0.6,0.7-1.3,0.9-2C308.3,387,308.4,386.7,308.5,386.3
		z"/>
	<path class="st2" d="M323.7,372.2c-1.1,2.3-2,4.7-2.7,7.1c-1.1,3.7-1.4,6.3-1.1,8c0.1,0.4,0.3,0.8,0.6,1c0.3,0.2,0.7,0.3,1.1,0.1
		c1.1-0.2,2.3-1.4,3.5-3.5c0.7-1.2,1.4-2.5,2-3.8c0.3-0.7,0.7-1.1,1.2-1.2c0.3-0.1,0.5,0,0.8,0.1c0.2,0.1,0.3,0.3,0.4,0.5
		c0.1,0.7-0.6,2.4-2.3,5.3c-2,3.4-4,5.3-6.2,5.8c-1.1,0.3-2.2,0-3.1-0.7c-0.6-0.6-1.1-1.4-1.2-2.2c-0.4-2.8-0.2-5.7,0.7-8.3
		c0.2-0.8,0.9-2.8,2-6c-0.4,0.2-0.9,0.4-1.3,0.5s-0.9,0.1-1.3,0s-0.8-0.4-0.9-0.8c-0.1-0.5,0.1-0.9,0.7-1.3c0.8-0.3,1.6-0.6,2.4-0.9
		s1.5-0.6,2.2-1c0.8-1.9,1.8-3.8,2.8-5.5c0.5-0.9,1-1.8,1.6-2.6c0.3-0.5,0.7-0.8,1.3-1c0.3-0.1,0.7,0,1,0.2c0.3,0.1,0.5,0.4,0.5,0.6
		c0.1,0.5-0.3,1.6-1.3,3.3c-0.5,0.8-1,1.7-1.4,2.6c1.6-0.8,3.4-1.5,5.1-1.9c1.2-0.3,1.9,0,2.1,0.9c0.1,0.4-0.1,0.8-0.4,1.1
		c-0.5,0.3-1.1,0.5-1.7,0.6c-1.6,0.6-3.3,1.3-4.8,2.1C325.2,371.5,324.4,371.9,323.7,372.2z"/>
</g>
<g id="Layer_10">
	<path class="st3" d="M445.9,187.3H876c6.2,0,11.2,5,11.2,11.2v267.4c0,6.2-5,11.2-11.2,11.2H445.9c-6.2,0-11.2-5-11.2-11.2V198.5
		C434.8,192.3,439.8,187.3,445.9,187.3z"/>
	<line class="st4" x1="685" y1="246.3" x2="856.9" y2="246.3"/>
	<line class="st4" x1="685" y1="307.6" x2="856.9" y2="307.6"/>
	<line class="st4" x1="685" y1="225" x2="856.9" y2="225"/>
	<path class="st5" d="M599,359H478c-6.6,0-12-5.4-12-12V220c0-6.6,5.4-12,12-12h121c6.6,0,12,5.4,12,12v127
		C611,353.6,605.6,359,599,359z"/>
	<line class="st4" x1="685" y1="347.6" x2="856.9" y2="347.6"/>
	<line class="st4" x1="685" y1="327.6" x2="856.9" y2="327.6"/>
	<g>
		<g>
			<defs>
				<path id="SVGID_1_" d="M599,359H478c-6.6,0-12-5.4-12-12V220c0-6.6,5.4-12,12-12h121c6.6,0,12,5.4,12,12v127
					C611,353.6,605.6,359,599,359z"/>
			</defs>
			<clipPath id="SVGID_2_">
				<use xlink:href="#SVGID_1_"  style="overflow:visible;"/>
			</clipPath>
			<ellipse class="st6" cx="538.5" cy="262.5" rx="40" ry="46.8"/>
		</g>
		<g>
			<defs>
				<path id="SVGID_3_" d="M599,359H478c-6.6,0-12-5.4-12-12V220c0-6.6,5.4-12,12-12h121c6.6,0,12,5.4,12,12v127
					C611,353.6,605.6,359,599,359z"/>
			</defs>
			<clipPath id="SVGID_4_">
				<use xlink:href="#SVGID_3_"  style="overflow:visible;"/>
			</clipPath>
			<path class="st7" d="M574.1,398.9h-71.2c-15.5,0-28.1-12.7-28.1-28.1v-27.6c0-15.5,12.7-28.1,28.1-28.1h71.2
				c15.5,0,28.1,12.7,28.1,28.1v27.6C602.3,386.3,589.6,398.9,574.1,398.9z"/>
		</g>
	</g>
	<g class="st8">
		<path class="st9" d="M496.5,436.5c-2.1,0.8-6.3,2-10.8,2c-5.7,0-10-1.5-13.2-4.7c-3-3-4.7-7.6-4.7-13c0-11.1,7.6-18.3,18.7-18.3
			c4.1,0,7.4,0.9,8.9,1.7l-1.3,5.2c-1.8-0.8-4.1-1.5-7.6-1.5c-7.2,0-12.2,4.4-12.2,12.7c0,8,4.7,12.8,11.7,12.8
			c2.2,0,3.8-0.3,4.6-0.7v-8.8h-5.9v-5.1h11.9V436.5z"/>
		<path class="st9" d="M532.7,420.1c0,11.8-6.8,18.6-16.1,18.6c-9.5,0-15.5-7.6-15.5-17.9c0-10.8,6.5-18.5,16-18.5
			C526.9,402.3,532.7,410.1,532.7,420.1z M507.5,420.6c0,7.2,3.4,12.9,9.3,12.9c5.9,0,9.3-5.8,9.3-13.1c0-6.6-3.1-12.9-9.3-12.9
			C510.8,407.4,507.5,413.3,507.5,420.6z"/>
		<path class="st9" d="M545.5,438.1l-10.9-35.3h6.7l4.6,16c1.3,4.4,2.4,8.6,3.3,12.9h0.1c0.9-4.2,2.1-8.5,3.4-12.8l4.9-16.1h6.5
			l-11.6,35.3H545.5z"/>
		<path class="st9" d="M586.7,422.5H574v10.4h14.2v5.3h-20.3v-35.3h19.6v5.3H574v9.1h12.7V422.5z"/>
		<path class="st9" d="M593.5,403.3c2.3-0.4,5.7-0.7,9.3-0.7c4.8,0,8.1,0.8,10.4,2.8c1.8,1.6,2.9,4.1,2.9,7.1c0,4.6-2.9,7.6-6.1,8.8
			v0.2c2.4,0.9,3.8,3.4,4.7,6.8c1,4.4,1.9,8.5,2.6,9.8H611c-0.5-1-1.3-3.9-2.2-8.3c-0.9-4.6-2.5-6.1-6-6.2h-3.1v14.5h-6.1V403.3z
			 M599.6,418.9h3.6c4.1,0,6.7-2.3,6.7-5.8c0-3.9-2.6-5.7-6.6-5.7c-1.9,0-3.2,0.2-3.8,0.3V418.9z"/>
		<path class="st9" d="M622,438.1v-35.3h7l8.7,15.1c2.2,3.9,4.2,8,5.7,11.8h0.1c-0.4-4.7-0.5-9.3-0.5-14.7v-12.3h5.7v35.3h-6.3
			l-8.8-15.5c-2.1-3.9-4.4-8.2-6-12.2l-0.2,0.1c0.3,4.6,0.3,9.2,0.3,15v12.6H622z"/>
		<path class="st9" d="M684.1,423.7c-0.2-4.6-0.4-10-0.4-14.8h-0.2c-1.1,4.3-2.5,9.1-4,13.5l-4.9,15.3H670l-4.5-15.1
			c-1.3-4.5-2.5-9.3-3.4-13.7H662c-0.2,4.6-0.4,10.2-0.6,15l-0.7,14.2h-5.7l2.2-35.3h8.1l4.4,14.2c1.2,4.1,2.2,8.3,3.1,12.2h0.2
			c0.9-3.8,2-8.2,3.3-12.3l4.6-14.1h8l1.9,35.3h-6L684.1,423.7z"/>
		<path class="st9" d="M715.9,422.5h-12.7v10.4h14.2v5.3H697v-35.3h19.6v5.3h-13.4v9.1h12.7V422.5z"/>
		<path class="st9" d="M722.8,438.1v-35.3h7l8.7,15.1c2.2,3.9,4.2,8,5.7,11.8h0.1c-0.4-4.7-0.5-9.3-0.5-14.7v-12.3h5.7v35.3h-6.3
			l-8.8-15.5c-2.1-3.9-4.4-8.2-6-12.2l-0.2,0.1c0.3,4.6,0.3,9.2,0.3,15v12.6H722.8z"/>
		<path class="st9" d="M763,408.2h-9.6v-5.4h25.4v5.4h-9.7v29.9H763V408.2z"/>
		<path class="st9" d="M799.2,402.8v35.3h-6.1v-35.3H799.2z"/>
		<path class="st9" d="M805.3,434.5c0-2.4,1.6-4.1,3.8-4.1c2.2,0,3.8,1.7,3.8,4.1c0,2.4-1.5,4.1-3.8,4.1
			C806.8,438.7,805.3,436.9,805.3,434.5z"/>
		<path class="st9" d="M818,403.3c2.7-0.5,6.1-0.7,9.8-0.7c6.3,0,10.6,1.4,13.7,4.1c3.2,2.8,5.2,7,5.2,13c0,6.3-2,11-5.2,14
			c-3.3,3.2-8.7,4.8-15.2,4.8c-3.6,0-6.3-0.2-8.3-0.5V403.3z M824.2,433.2c0.8,0.2,2.1,0.2,3.4,0.2c8,0.1,12.7-4.6,12.7-13.5
			c0.1-7.8-4.2-12.2-11.9-12.2c-1.9,0-3.3,0.2-4.2,0.4V433.2z"/>
		<path class="st9" d="M849.3,434.5c0-2.4,1.6-4.1,3.8-4.1c2.2,0,3.8,1.7,3.8,4.1c0,2.4-1.5,4.1-3.8,4.1
			C850.9,438.7,849.3,436.9,849.3,434.5z"/>
	</g>
</g>
</svg>
