<?xml version="1.0" encoding="utf-8"?>
<!-- Generator: Adobe Illustrator 24.0.0, SVG Export Plug-In . SVG Version: 6.00 Build 0)  -->
<svg version="1.1" id="Layer_1" xmlns="http://www.w3.org/2000/svg" xmlns:xlink="http://www.w3.org/1999/xlink" x="0px" y="0px"
	 viewBox="0 0 911 701" style="enable-background:new 0 0 911 701;" xml:space="preserve">
<style type="text/css">
	.st0{fill:#D7E8F7;}
	.st1{fill:none;stroke:#000000;stroke-width:3;stroke-miterlimit:10;}
	.st2{fill:#0D4077;}
	.st3{fill:#EFE160;}
	.st4{fill:#FFFFFF;stroke:#000000;stroke-width:3;stroke-linecap:round;stroke-linejoin:round;stroke-miterlimit:10;}
	.st5{fill:#57D4FF;}
	.st6{fill:#FBB03B;}
	.st7{fill:#0D4077;stroke:#0D4077;stroke-miterlimit:10;}
</style>
<g id="Layer_10">
	<path class="st3" d="M689.5,682.2h-436c-4.7,0-8.5-3.8-8.5-8.5v-638c0-4.7,3.8-8.5,8.5-8.5h436c4.7,0,8.5,3.8,8.5,8.5v638
		C698,678.4,694.1,682.2,689.5,682.2z"/>
	<line class="st4" x1="366.2" y1="162.9" x2="538.1" y2="162.9"/>
	<line class="st4" x1="266.2" y1="116.3" x2="676.7" y2="116.3"/>
	<line class="st4" x1="386.2" y1="218.9" x2="538.1" y2="218.9"/>
	<g>
		<path d="M378.9,68.7v15.2c0,5.1,2,7.5,5.1,7.5c3.3,0,5.3-2.4,5.3-7.5V68.7h4.6v14.9c0,8-4,11.6-10,11.6c-5.8,0-9.5-3.4-9.5-11.6
			V68.7H378.9z"/>
		<path d="M403.8,72.7h-7.1v-4h18.9v4h-7.2v22.1h-4.6V72.7z"/>
		<path d="M423,68.7v26.1h-4.6V68.7H423z"/>
		<path d="M428.3,68.7h4.6v22.1h10.3v4h-14.8V68.7z"/>
		<path d="M451.1,68.7v26.1h-4.6V68.7H451.1z"/>
		<path d="M461.1,72.7H454v-4h18.9v4h-7.2v22.1h-4.6V72.7z"/>
		<path d="M482,94.8V83.9l-7.9-15.2h5.2l3,6.7c0.9,1.9,1.5,3.4,2.1,5.2h0.1c0.6-1.7,1.3-3.3,2.2-5.2l3-6.7h5.1l-8.3,15.1v11H482z"/>
		<path d="M505.3,69.1c1.4-0.3,4.1-0.5,6.6-0.5c3.4,0,5.4,0.4,7.2,1.7c1.6,1,2.6,2.7,2.6,4.9c0,2.4-1.4,4.6-4.1,5.6v0.1
			c2.6,0.7,5,2.9,5,6.5c0,2.3-1,4.1-2.4,5.4c-1.8,1.6-4.7,2.4-9.3,2.4c-2.5,0-4.4-0.2-5.6-0.3V69.1z M509.8,79.3h2.3
			c3.1,0,4.9-1.5,4.9-3.8c0-2.4-1.8-3.6-4.7-3.6c-1.3,0-2.1,0.1-2.6,0.2V79.3z M509.8,91.3c0.6,0.1,1.4,0.1,2.4,0.1
			c2.9,0,5.5-1.2,5.5-4.4c0-3-2.5-4.3-5.7-4.3h-2.3V91.3z"/>
		<path d="M531.2,68.7v26.1h-4.6V68.7H531.2z"/>
		<path d="M536.5,68.7h4.6v22.1h10.3v4h-14.8V68.7z"/>
		<path d="M554.7,68.7h4.6v22.1h10.3v4h-14.8V68.7z"/>
	</g>
	<g>
		<path d="M283,619.5l-1.2,4h-2.6l4.5-14h3.3l4.6,14h-2.8l-1.3-4H283z M287,617.5l-1.1-3.5c-0.3-0.9-0.5-1.8-0.7-2.6h0
			c-0.2,0.8-0.4,1.8-0.7,2.6l-1.1,3.5H287z"/>
		<path d="M305.2,617.7c-0.1-1.8-0.2-4-0.2-5.9H305c-0.5,1.7-1,3.6-1.7,5.4l-2,6.1h-2l-1.9-6c-0.5-1.8-1-3.7-1.4-5.5h0
			c-0.1,1.8-0.1,4.1-0.3,6l-0.3,5.6H293l0.9-14h3.4l1.8,5.6c0.5,1.6,0.9,3.3,1.3,4.9h0.1c0.4-1.5,0.9-3.3,1.4-4.9l1.9-5.6h3.3
			l0.8,14h-2.5L305.2,617.7z"/>
		<path d="M323.1,616.3c0,4.7-2.9,7.4-6.7,7.4c-4,0-6.5-3-6.5-7.1c0-4.3,2.7-7.4,6.7-7.4C320.7,609.2,323.1,612.3,323.1,616.3z
			 M312.6,616.5c0,2.9,1.4,5.1,3.9,5.1c2.5,0,3.9-2.3,3.9-5.2c0-2.6-1.3-5.1-3.9-5.1C314,611.2,312.6,613.6,312.6,616.5z"/>
		<path d="M327.8,609.4v8.2c0,2.8,1.1,4,2.9,4c1.9,0,3-1.3,3-4v-8.2h2.6v8c0,4.3-2.2,6.3-5.6,6.3c-3.3,0-5.4-1.8-5.4-6.2v-8H327.8z"
			/>
		<path d="M339.2,623.5v-14h2.9l3.6,6c0.9,1.6,1.8,3.2,2.4,4.7h0c-0.2-1.9-0.2-3.7-0.2-5.8v-4.9h2.4v14h-2.6l-3.7-6.2
			c-0.9-1.5-1.8-3.3-2.5-4.9l-0.1,0c0.1,1.8,0.1,3.7,0.1,6v5H339.2z"/>
		<path d="M356,611.6h-4v-2.1h10.6v2.1h-4v11.9H356V611.6z"/>
		<path d="M368.5,609.6c1.1-0.2,2.6-0.3,4.1-0.3c2.6,0,4.4,0.5,5.7,1.6c1.4,1.1,2.2,2.8,2.2,5.2c0,2.5-0.9,4.4-2.2,5.6
			c-1.4,1.3-3.6,1.9-6.4,1.9c-1.5,0-2.6-0.1-3.5-0.2V609.6z M371.1,621.5c0.4,0.1,0.9,0.1,1.4,0.1c3.3,0,5.3-1.8,5.3-5.4
			c0-3.1-1.8-4.9-5-4.9c-0.8,0-1.4,0.1-1.8,0.1V621.5z"/>
		<path d="M385.3,609.4v8.2c0,2.8,1.1,4,2.9,4c1.9,0,3-1.3,3-4v-8.2h2.6v8c0,4.3-2.2,6.3-5.6,6.3c-3.3,0-5.4-1.8-5.4-6.2v-8H385.3z"
			/>
		<path d="M404.5,617.2h-5.3v4.1h5.9v2.1h-8.5v-14h8.2v2.1h-5.6v3.6h5.3V617.2z"/>
		<path d="M411.3,622c0-1,0.7-1.6,1.6-1.6c0.9,0,1.6,0.7,1.6,1.6c0,0.9-0.6,1.6-1.6,1.6C411.9,623.7,411.3,623,411.3,622z"/>
		<path d="M416.2,622c0-1,0.7-1.6,1.6-1.6c0.9,0,1.6,0.7,1.6,1.6c0,0.9-0.6,1.6-1.6,1.6C416.8,623.7,416.2,623,416.2,622z"/>
		<path d="M421.1,622c0-1,0.7-1.6,1.6-1.6c0.9,0,1.6,0.7,1.6,1.6c0,0.9-0.6,1.6-1.6,1.6C421.8,623.7,421.1,623,421.1,622z"/>
		<path d="M426,622c0-1,0.7-1.6,1.6-1.6c0.9,0,1.6,0.7,1.6,1.6c0,0.9-0.6,1.6-1.6,1.6C426.7,623.7,426,623,426,622z"/>
		<path d="M431,622c0-1,0.7-1.6,1.6-1.6c0.9,0,1.6,0.7,1.6,1.6c0,0.9-0.6,1.6-1.6,1.6C431.6,623.7,431,623,431,622z"/>
		<path d="M435.9,622c0-1,0.7-1.6,1.6-1.6c0.9,0,1.6,0.7,1.6,1.6c0,0.9-0.6,1.6-1.6,1.6C436.5,623.7,435.9,623,435.9,622z"/>
		<path d="M440.8,622c0-1,0.7-1.6,1.6-1.6c0.9,0,1.6,0.7,1.6,1.6c0,0.9-0.6,1.6-1.6,1.6C441.4,623.7,440.8,623,440.8,622z"/>
		<path d="M445.7,622c0-1,0.7-1.6,1.6-1.6c0.9,0,1.6,0.7,1.6,1.6c0,0.9-0.6,1.6-1.6,1.6C446.4,623.7,445.7,623,445.7,622z"/>
		<path d="M450.6,622c0-1,0.7-1.6,1.6-1.6c0.9,0,1.6,0.7,1.6,1.6c0,0.9-0.6,1.6-1.6,1.6C451.3,623.7,450.6,623,450.6,622z"/>
		<path d="M455.5,622c0-1,0.7-1.6,1.6-1.6c0.9,0,1.6,0.7,1.6,1.6c0,0.9-0.6,1.6-1.6,1.6C456.2,623.7,455.5,623,455.5,622z"/>
		<path d="M460.5,622c0-1,0.7-1.6,1.6-1.6c0.9,0,1.6,0.7,1.6,1.6c0,0.9-0.6,1.6-1.6,1.6C461.1,623.7,460.5,623,460.5,622z"/>
		<path d="M465.4,622c0-1,0.7-1.6,1.6-1.6c0.9,0,1.6,0.7,1.6,1.6c0,0.9-0.6,1.6-1.6,1.6C466,623.7,465.4,623,465.4,622z"/>
		<path d="M470.3,622c0-1,0.7-1.6,1.6-1.6c0.9,0,1.6,0.7,1.6,1.6c0,0.9-0.6,1.6-1.6,1.6C471,623.7,470.3,623,470.3,622z"/>
		<path d="M475.2,622c0-1,0.7-1.6,1.6-1.6c0.9,0,1.6,0.7,1.6,1.6c0,0.9-0.6,1.6-1.6,1.6C475.9,623.7,475.2,623,475.2,622z"/>
		<path d="M480.1,622c0-1,0.7-1.6,1.6-1.6c0.9,0,1.6,0.7,1.6,1.6c0,0.9-0.6,1.6-1.6,1.6C480.8,623.7,480.1,623,480.1,622z"/>
		<path d="M485.1,622c0-1,0.7-1.6,1.6-1.6c0.9,0,1.6,0.7,1.6,1.6c0,0.9-0.6,1.6-1.6,1.6C485.7,623.7,485.1,623,485.1,622z"/>
		<path d="M490,622c0-1,0.7-1.6,1.6-1.6c0.9,0,1.6,0.7,1.6,1.6c0,0.9-0.6,1.6-1.6,1.6C490.6,623.7,490,623,490,622z"/>
		<path d="M494.9,622c0-1,0.7-1.6,1.6-1.6c0.9,0,1.6,0.7,1.6,1.6c0,0.9-0.6,1.6-1.6,1.6C495.5,623.7,494.9,623,494.9,622z"/>
		<path d="M499.8,622c0-1,0.7-1.6,1.6-1.6c0.9,0,1.6,0.7,1.6,1.6c0,0.9-0.6,1.6-1.6,1.6C500.5,623.7,499.8,623,499.8,622z"/>
		<path d="M504.7,622c0-1,0.7-1.6,1.6-1.6c0.9,0,1.6,0.7,1.6,1.6c0,0.9-0.6,1.6-1.6,1.6C505.4,623.7,504.7,623,504.7,622z"/>
		<path d="M509.7,622c0-1,0.7-1.6,1.6-1.6c0.9,0,1.6,0.7,1.6,1.6c0,0.9-0.6,1.6-1.6,1.6C510.3,623.7,509.7,623,509.7,622z"/>
		<path d="M514.6,622c0-1,0.7-1.6,1.6-1.6c0.9,0,1.6,0.7,1.6,1.6c0,0.9-0.6,1.6-1.6,1.6C515.2,623.7,514.6,623,514.6,622z"/>
		<path d="M519.5,622c0-1,0.7-1.6,1.6-1.6c0.9,0,1.6,0.7,1.6,1.6c0,0.9-0.6,1.6-1.6,1.6C520.1,623.7,519.5,623,519.5,622z"/>
		<path d="M524.4,622c0-1,0.7-1.6,1.6-1.6c0.9,0,1.6,0.7,1.6,1.6c0,0.9-0.6,1.6-1.6,1.6C525.1,623.7,524.4,623,524.4,622z"/>
		<path d="M529.3,622c0-1,0.7-1.6,1.6-1.6c0.9,0,1.6,0.7,1.6,1.6c0,0.9-0.6,1.6-1.6,1.6C530,623.7,529.3,623,529.3,622z"/>
		<path d="M534.3,622c0-1,0.7-1.6,1.6-1.6c0.9,0,1.6,0.7,1.6,1.6c0,0.9-0.6,1.6-1.6,1.6C534.9,623.7,534.3,623,534.3,622z"/>
		<path d="M539.2,622c0-1,0.7-1.6,1.6-1.6c0.9,0,1.6,0.7,1.6,1.6c0,0.9-0.6,1.6-1.6,1.6C539.8,623.7,539.2,623,539.2,622z"/>
		<path d="M544.1,622c0-1,0.7-1.6,1.6-1.6c0.9,0,1.6,0.7,1.6,1.6c0,0.9-0.6,1.6-1.6,1.6C544.7,623.7,544.1,623,544.1,622z"/>
		<path d="M549,622c0-1,0.7-1.6,1.6-1.6c0.9,0,1.6,0.7,1.6,1.6c0,0.9-0.6,1.6-1.6,1.6C549.7,623.7,549,623,549,622z"/>
		<path d="M553.9,622c0-1,0.7-1.6,1.6-1.6c0.9,0,1.6,0.7,1.6,1.6c0,0.9-0.6,1.6-1.6,1.6C554.6,623.7,553.9,623,553.9,622z"/>
		<path d="M558.8,622c0-1,0.7-1.6,1.6-1.6c0.9,0,1.6,0.7,1.6,1.6c0,0.9-0.6,1.6-1.6,1.6C559.5,623.7,558.8,623,558.8,622z"/>
		<path d="M563.8,622c0-1,0.7-1.6,1.6-1.6c0.9,0,1.6,0.7,1.6,1.6c0,0.9-0.6,1.6-1.6,1.6C564.4,623.7,563.8,623,563.8,622z"/>
		<path d="M568.7,622c0-1,0.7-1.6,1.6-1.6c0.9,0,1.6,0.7,1.6,1.6c0,0.9-0.6,1.6-1.6,1.6C569.3,623.7,568.7,623,568.7,622z"/>
		<path d="M573.6,622c0-1,0.7-1.6,1.6-1.6c0.9,0,1.6,0.7,1.6,1.6c0,0.9-0.6,1.6-1.6,1.6C574.2,623.7,573.6,623,573.6,622z"/>
		<path d="M578.5,622c0-1,0.7-1.6,1.6-1.6c0.9,0,1.6,0.7,1.6,1.6c0,0.9-0.6,1.6-1.6,1.6C579.2,623.7,578.5,623,578.5,622z"/>
		<path d="M583.4,622c0-1,0.7-1.6,1.6-1.6c0.9,0,1.6,0.7,1.6,1.6c0,0.9-0.6,1.6-1.6,1.6C584.1,623.7,583.4,623,583.4,622z"/>
		<path d="M588.4,622c0-1,0.7-1.6,1.6-1.6c0.9,0,1.6,0.7,1.6,1.6c0,0.9-0.6,1.6-1.6,1.6C589,623.7,588.4,623,588.4,622z"/>
		<path d="M593.3,622c0-1,0.7-1.6,1.6-1.6c0.9,0,1.6,0.7,1.6,1.6c0,0.9-0.6,1.6-1.6,1.6C593.9,623.7,593.3,623,593.3,622z"/>
		<path d="M598.2,622c0-1,0.7-1.6,1.6-1.6c0.9,0,1.6,0.7,1.6,1.6c0,0.9-0.6,1.6-1.6,1.6C598.8,623.7,598.2,623,598.2,622z"/>
		<path d="M603.1,622c0-1,0.7-1.6,1.6-1.6c0.9,0,1.6,0.7,1.6,1.6c0,0.9-0.6,1.6-1.6,1.6C603.8,623.7,603.1,623,603.1,622z"/>
		<path d="M608,622c0-1,0.7-1.6,1.6-1.6c0.9,0,1.6,0.7,1.6,1.6c0,0.9-0.6,1.6-1.6,1.6C608.7,623.7,608,623,608,622z"/>
		<path d="M613,622c0-1,0.7-1.6,1.6-1.6c0.9,0,1.6,0.7,1.6,1.6c0,0.9-0.6,1.6-1.6,1.6C613.6,623.7,613,623,613,622z"/>
		<path d="M617.9,622c0-1,0.7-1.6,1.6-1.6c0.9,0,1.6,0.7,1.6,1.6c0,0.9-0.6,1.6-1.6,1.6C618.5,623.7,617.9,623,617.9,622z"/>
		<path d="M630.7,625.2v-2c-1.3,0-2.6-0.4-3.4-0.9l0.6-2c0.8,0.5,2,0.9,3.3,0.9c1.3,0,2.2-0.6,2.2-1.6c0-0.9-0.7-1.5-2.3-2.1
			c-2.2-0.8-3.6-1.8-3.6-3.7c0-1.8,1.3-3.2,3.4-3.5v-2h1.7v1.9c1.3,0,2.2,0.4,2.9,0.7l-0.6,1.9c-0.5-0.2-1.4-0.7-2.8-0.7
			c-1.5,0-2,0.8-2,1.5c0,0.9,0.8,1.3,2.5,2c2.3,0.9,3.4,2,3.4,3.9c0,1.8-1.2,3.3-3.5,3.7v2.1H630.7z"/>
		<path d="M642.1,612.2L642.1,612.2l-2.5,1.3l-0.4-1.9l3.3-1.6h2.1v13.5h-2.5V612.2z"/>
		<path d="M658.9,616.6c0,4.4-1.7,7.1-4.9,7.1c-3.1,0-4.8-2.8-4.8-7c0-4.2,1.8-7,5-7C657.3,609.7,658.9,612.6,658.9,616.6z
			 M651.7,616.7c0,3.3,0.9,5,2.3,5c1.5,0,2.3-1.8,2.3-5.1c0-3.1-0.8-5-2.3-5C652.6,611.6,651.7,613.3,651.7,616.7z"/>
		<path d="M670,616.6c0,4.4-1.7,7.1-4.9,7.1c-3.1,0-4.8-2.8-4.8-7c0-4.2,1.8-7,5-7C668.5,609.7,670,612.6,670,616.6z M662.9,616.7
			c0,3.3,0.9,5,2.3,5c1.5,0,2.3-1.8,2.3-5.1c0-3.1-0.8-5-2.3-5C663.8,611.6,662.8,613.3,662.9,616.7z"/>
	</g>
	<line class="st4" x1="266.2" y1="316.3" x2="676.7" y2="316.3"/>
	<g>
		<path class="st5" d="M654.8,80.7c-1.2-2.3-3.6-6.1-6.1-10.2c-2.6,4.1-4.9,7.9-6.1,10.2c0,0.1-0.1,0.3-0.2,0.6
			c-0.2,0.6-0.3,1.2-0.3,1.8c0,3.6,2.9,6.6,6.6,6.6c3.6,0,6.6-2.9,6.6-6.6c0-0.6-0.1-1.2-0.3-1.8C654.9,81,654.9,80.8,654.8,80.7z"
			/>
		<path class="st2" d="M666.6,78c-0.3-1-0.6-2-1.1-2.9c-3.8-7-16.8-27-16.8-27s-13,20-16.8,27c-0.5,0.9-0.8,1.9-1.1,2.9
			c-0.5,1.6-0.7,3.3-0.7,5.1c0,10.2,8.3,18.6,18.6,18.6c10.2,0,18.6-8.3,18.6-18.6C667.3,81.3,667,79.6,666.6,78z M648.7,92.6
			c-5.3,0-9.6-4.3-9.6-9.6c0-0.9,0.1-1.8,0.4-2.6c0.2-0.7,0.3-0.9,0.3-1c1.7-3.1,5.4-9.1,8.9-14.5c3.5,5.5,7.2,11.4,8.9,14.5
			c0,0.1,0.1,0.4,0.3,1c0.2,0.9,0.4,1.7,0.4,2.6C658.3,88.4,654,92.6,648.7,92.6z"/>
		<g>
			<path class="st6" d="M305.7,59.3l-11.4,13.1c-0.2,0.2-0.2,0.4-0.1,0.7c0.1,0.2,0.3,0.4,0.5,0.5l4.9,0l-3,10
				c-0.1,0.3,0.1,0.7,0.3,0.8c0.3,0.2,0.7,0.1,0.9-0.2l11.4-13.1c0.1-0.1,0.1-0.2,0.1-0.3c0-0.1,0-0.3,0-0.4
				c-0.1-0.2-0.3-0.4-0.5-0.5l-4.9,0l3-10c0.1-0.3-0.1-0.7-0.3-0.8C306.3,59,305.9,59.1,305.7,59.3z"/>
			<g>
				<g>
					<g>
						<g>
							<path class="st2" d="M308.1,98.4h-12.8c-0.6,0-1-0.4-1-1c0-0.5,0.5-1,1-1h12.8c0.6,0,1,0.4,1,1
								C309.1,98,308.6,98.4,308.1,98.4L308.1,98.4z"/>
						</g>
					</g>
					<g>
						<g>
							<path class="st2" d="M308.1,101.4h-12.8c-0.6,0-1-0.4-1-1c0-0.5,0.5-1,1-1h12.8c0.6,0,1,0.4,1,1
								C309.1,101,308.6,101.4,308.1,101.4L308.1,101.4z"/>
						</g>
					</g>
					<g>
						<g>
							<path class="st2" d="M305.3,104.4H298c-0.6,0-1-0.4-1-1c0-0.5,0.5-1,1-1h7.3c0.6,0,1,0.4,1,1
								C306.4,103.9,305.9,104.4,305.3,104.4L305.3,104.4z"/>
						</g>
					</g>
				</g>
				<g>
					<g>
						<path class="st2" d="M313.9,58.5c-3.1-3.4-7.3-5.2-12.2-5.2c-4.9,0-9.1,1.8-12.2,5.2c-2.8,3.2-4.4,7.2-4.4,11.7
							c0,5.9,2.4,9.4,4.8,12.8c2.3,3.3,4.4,6.3,4.4,11.5c0,0.3,0.1,0.5,0.3,0.7c0.2,0.2,0.4,0.3,0.7,0.3l12.8,0c0.6,0,1-0.4,1-1
							c0-5.2,2.1-8.2,4.4-11.5c2.3-3.4,4.8-6.9,4.8-12.8C318.2,65.6,316.7,61.6,313.9,58.5z M311.8,81.9c-2.2,3.2-4.4,6.4-4.7,11.6
							l-10.8,0c-0.3-5.2-2.5-8.4-4.7-11.6c-2.3-3.3-4.4-6.4-4.4-11.7c0-7.6,5-15,14.5-15c9.5,0,14.5,7.4,14.5,15
							C316.2,75.4,314.1,78.6,311.8,81.9z"/>
					</g>
				</g>
			</g>
		</g>
	</g>
	<g>
		<path d="M280.5,165.9V149h3.5l4.4,7.2c1.1,1.9,2.1,3.8,2.9,5.7h0c-0.2-2.3-0.3-4.4-0.3-7V149h2.9v16.9h-3.2l-4.4-7.4
			c-1.1-1.9-2.2-3.9-3-5.8l-0.1,0c0.1,2.2,0.2,4.4,0.2,7.2v6H280.5z"/>
		<path d="M304.2,165.9l-0.2-1.4h-0.1c-0.8,1-2,1.6-3.6,1.6c-2.5,0-3.8-1.8-3.8-3.6c0-3.1,2.7-4.6,7.2-4.6v-0.2
			c0-0.8-0.3-2.1-2.5-2.1c-1.2,0-2.5,0.4-3.3,0.9l-0.6-2c0.9-0.6,2.5-1.1,4.4-1.1c3.9,0,5,2.5,5,5.1v4.4c0,1.1,0.1,2.2,0.2,2.9
			H304.2z M303.8,160c-2.2-0.1-4.3,0.4-4.3,2.3c0,1.2,0.8,1.8,1.8,1.8c1.2,0,2.1-0.8,2.4-1.7c0.1-0.2,0.1-0.5,0.1-0.7V160z"/>
		<path d="M310,157.4c0-1.4,0-2.6-0.1-3.6h2.7l0.1,1.8h0.1c0.6-1,1.7-2.1,3.8-2.1c1.6,0,2.9,0.9,3.4,2.3h0c0.4-0.7,0.9-1.2,1.5-1.5
			c0.7-0.5,1.5-0.7,2.5-0.7c2,0,4.1,1.4,4.1,5.3v7.2h-3v-6.7c0-2-0.7-3.2-2.2-3.2c-1.1,0-1.8,0.8-2.2,1.6c-0.1,0.3-0.2,0.7-0.2,1
			v7.3h-3v-7.1c0-1.7-0.7-2.9-2.1-2.9c-1.2,0-1.9,0.9-2.2,1.8c-0.1,0.3-0.2,0.7-0.2,1v7.2h-3V157.4z"/>
		<path d="M333.5,160.7c0.1,2.2,1.8,3.2,3.8,3.2c1.4,0,2.5-0.2,3.4-0.6l0.5,2.1c-1.1,0.4-2.5,0.8-4.3,0.8c-4,0-6.3-2.4-6.3-6.2
			c0-3.4,2.1-6.6,6-6.6c4,0,5.3,3.3,5.3,5.9c0,0.6,0,1-0.1,1.3H333.5z M338.8,158.5c0-1.1-0.5-3-2.5-3c-1.9,0-2.7,1.7-2.8,3H338.8z"
			/>
		<path d="M343.8,155.8c0-1.2,0.8-2,1.9-2c1.1,0,1.9,0.8,1.9,2c0,1.1-0.8,2-1.9,2C344.6,157.8,343.8,156.9,343.8,155.8z
			 M343.8,164.2c0-1.2,0.8-2,1.9-2c1.1,0,1.9,0.8,1.9,2c0,1.1-0.8,2-1.9,2C344.6,166.2,343.8,165.4,343.8,164.2z"/>
		<path d="M283.9,191.2l-1.5,4.8h-3.2l5.4-16.9h3.9l5.5,16.9h-3.3l-1.5-4.8H283.9z M288.7,188.9l-1.3-4.2c-0.3-1-0.6-2.2-0.9-3.2
			h-0.1c-0.3,1-0.5,2.2-0.8,3.2l-1.3,4.2H288.7z"/>
		<path d="M307.2,178.2v14.4c0,1.3,0,2.6,0.1,3.4h-2.8l-0.1-1.9h0c-0.7,1.4-2.2,2.2-4,2.2c-2.9,0-5.2-2.5-5.2-6.2
			c0-4.1,2.5-6.5,5.5-6.5c1.7,0,2.9,0.7,3.4,1.6h0v-6.9H307.2z M304.1,188.9c0-0.3,0-0.6-0.1-0.8c-0.3-1.2-1.3-2.2-2.7-2.2
			c-2,0-3.1,1.8-3.1,4c0,2.2,1.1,3.9,3.1,3.9c1.3,0,2.4-0.9,2.7-2.2c0.1-0.3,0.1-0.6,0.1-0.9V188.9z"/>
		<path d="M321.8,178.2v14.4c0,1.3,0,2.6,0.1,3.4h-2.8l-0.1-1.9h0c-0.7,1.4-2.2,2.2-4,2.2c-2.9,0-5.2-2.5-5.2-6.2
			c0-4.1,2.5-6.5,5.5-6.5c1.7,0,2.9,0.7,3.4,1.6h0v-6.9H321.8z M318.7,188.9c0-0.3,0-0.6-0.1-0.8c-0.3-1.2-1.3-2.2-2.7-2.2
			c-2,0-3.1,1.8-3.1,4c0,2.2,1.1,3.9,3.1,3.9c1.3,0,2.4-0.9,2.7-2.2c0.1-0.3,0.1-0.6,0.1-0.9V188.9z"/>
		<path d="M325.1,187.7c0-1.7,0-2.8-0.1-3.9h2.7l0.1,2.3h0.1c0.6-1.7,2-2.6,3.3-2.6c0.3,0,0.5,0,0.7,0.1v2.9c-0.3,0-0.5-0.1-0.9-0.1
			c-1.5,0-2.5,1-2.8,2.3c-0.1,0.3-0.1,0.6-0.1,1v6.3h-3.1V187.7z"/>
		<path d="M336,190.8c0.1,2.2,1.8,3.2,3.8,3.2c1.4,0,2.5-0.2,3.4-0.6l0.5,2.1c-1.1,0.4-2.5,0.8-4.3,0.8c-4,0-6.3-2.4-6.3-6.2
			c0-3.4,2.1-6.6,6-6.6c4,0,5.3,3.3,5.3,5.9c0,0.6,0,1-0.1,1.3H336z M341.3,188.6c0-1.1-0.5-3-2.5-3c-1.9,0-2.7,1.7-2.8,3H341.3z"/>
		<path d="M346.6,193.2c0.7,0.4,2,0.9,3.1,0.9c1.4,0,2-0.6,2-1.4c0-0.8-0.5-1.3-2-1.8c-2.4-0.8-3.4-2.1-3.4-3.6
			c0-2.2,1.8-3.8,4.6-3.8c1.4,0,2.5,0.4,3.2,0.7l-0.6,2.2c-0.5-0.3-1.5-0.7-2.6-0.7c-1.1,0-1.7,0.5-1.7,1.3c0,0.8,0.6,1.2,2.1,1.7
			c2.2,0.8,3.2,1.9,3.3,3.7c0,2.2-1.7,3.8-5,3.8c-1.5,0-2.8-0.4-3.7-0.9L346.6,193.2z"/>
		<path d="M357,193.2c0.7,0.4,2,0.9,3.1,0.9c1.4,0,2-0.6,2-1.4c0-0.8-0.5-1.3-2-1.8c-2.4-0.8-3.4-2.1-3.4-3.6c0-2.2,1.8-3.8,4.6-3.8
			c1.4,0,2.5,0.4,3.2,0.7l-0.6,2.2c-0.5-0.3-1.5-0.7-2.6-0.7c-1.1,0-1.7,0.5-1.7,1.3c0,0.8,0.6,1.2,2.1,1.7c2.2,0.8,3.2,1.9,3.3,3.7
			c0,2.2-1.7,3.8-5,3.8c-1.5,0-2.8-0.4-3.7-0.9L357,193.2z"/>
		<path d="M367.2,185.9c0-1.2,0.8-2,1.9-2c1.1,0,1.9,0.8,1.9,2c0,1.1-0.8,2-1.9,2C368,187.8,367.2,187,367.2,185.9z M367.2,194.3
			c0-1.2,0.8-2,1.9-2c1.1,0,1.9,0.8,1.9,2c0,1.1-0.8,2-1.9,2C368,196.3,367.2,195.4,367.2,194.3z"/>
	</g>
	<line class="st4" x1="386.2" y1="195.9" x2="538.1" y2="195.9"/>
	<g>
		<path class="st7" d="M401.8,415.6c2.3,0.2,4.2,0.8,5.5,1.6c2.3,1.3,3.6,3.2,4.1,5.4c0.5,2.7,0.1,5.5-1.4,8.4
			c-1.4,2.6-3.4,4.9-6,6.8c-2.6,1.9-5.4,3.1-8.5,3.7c-2.4,0.5-5,0.5-7.9,0c-0.1,0.6-0.2,1-0.2,1.2c-0.1,1-0.5,1.6-1.2,1.7
			c-0.7,0.1-1.3-0.1-2-0.6c-0.4-0.4-0.7-0.8-0.8-1.3c-0.1-0.7,0.1-2.3,0.7-4.7c1.2-5,2.4-9,3.5-11.9c0.7-1.8,2.1-5.3,4.3-10.5
			c1-2.2,2.4-5.3,4.3-9.2c0.5-0.9,0.9-1.8,1.3-2.8c-1.1,0.6-2.5,1.4-4.1,2.4c-1.4,0.9-2.2,1.4-2.5,1.4c-0.4,0.1-0.7,0-1-0.3
			c-0.3-0.2-0.5-0.6-0.6-1c-0.1-0.6,0-1.1,0.5-1.5c0.8-0.7,2.3-1.7,4.4-3c4.5-2.6,8.2-4.2,11.2-4.8c2.5-0.5,4.6-0.4,6.4,0.4
			c1.8,0.8,2.8,1.9,3.1,3.5c0.7,3.3-1,6.6-5.1,9.9C407.5,412.5,404.7,414.2,401.8,415.6z M388,438.7c0.9,0.2,1.5,0.4,1.9,0.4
			c1.1,0.1,2.5,0,4.1-0.3c5-1,8.7-3.5,11.1-7.4c2-3.4,2.7-6.4,2.2-9.2c-0.4-1.9-1.6-3.2-3.8-3.9c-1.3-0.4-2.7-0.5-4.3-0.2
			c-0.6,0.1-1.4,0.4-2.6,0.8c-0.2,0.1-0.4,0.1-0.6,0.2c-0.6,0.1-1.1-0.1-1.6-0.8c-1.4,2.8-2.9,6.6-4.3,11.5
			C389.4,432.4,388.7,435.3,388,438.7z M396.1,414.8c3.9-1.4,7.4-3.4,10.6-5.9c3.7-2.9,5.3-5.4,4.9-7.5c-0.2-1-0.9-1.6-2.1-1.9
			c-0.8-0.2-1.8-0.2-3.1,0c-0.8,0.2-1.7,0.4-2.6,0.7c-0.9,0.3-1.9,0.8-2.9,1.3c0.5,0.2,0.7,0.5,0.8,0.8c0.1,0.5-0.1,1.3-0.8,2.3
			c-0.2,0.4-0.6,1-1.1,2.1c-0.2,0.4-0.8,1.6-1.8,3.5C397.2,412.2,396.5,413.7,396.1,414.8z"/>
		<path class="st7" d="M421.8,415c0.4-0.1,0.8,0,1.1,0.2c0.2,0.2,0.4,0.4,0.4,0.6c0.1,0.4-0.2,1-0.7,2c-1.8,3.7-3,6.7-3.7,9
			c-0.7,2.4-1.2,4.8-1.6,7.2c-0.2,1.1-0.7,1.7-1.5,1.8c-0.5,0.1-0.9,0-1.2-0.3c-0.3-0.2-0.5-0.5-0.6-0.8c-0.1-0.6,0.2-2.8,1.1-6.5
			c0.6-2.9,2-6.3,4-10c0.6-1.2,1.1-2.1,1.5-2.5C420.9,415.4,421.3,415.1,421.8,415z M426.3,402.5c1.1-0.2,1.7,0.1,1.9,1.1
			c0.2,0.8-0.2,1.9-1,3.1c-0.8,1.2-1.7,1.9-2.6,2c-0.4,0.1-0.8,0-1.2-0.2c-0.3-0.2-0.5-0.5-0.6-0.9c-0.2-1,0.2-2.1,1.3-3.4
			C424.8,403.3,425.5,402.7,426.3,402.5z"/>
		<path class="st7" d="M434.7,411c-1.1,2.3-2.1,4.9-2.9,7.6c-1.2,3.9-1.6,6.8-1.2,8.5c0.1,0.5,0.3,0.9,0.6,1.1
			c0.3,0.2,0.7,0.3,1.2,0.2c1.2-0.2,2.4-1.5,3.7-3.7c0.8-1.4,1.5-2.7,2.1-4c0.3-0.7,0.7-1.2,1.3-1.3c0.3-0.1,0.6,0,0.8,0.1
			c0.2,0.1,0.4,0.3,0.4,0.5c0.1,0.7-0.7,2.6-2.5,5.6c-2.1,3.6-4.3,5.7-6.6,6.1c-1.2,0.2-2.3,0-3.3-0.8c-0.6-0.5-1-1.3-1.2-2.4
			c-0.5-2.4-0.2-5.4,0.8-9c0.2-0.9,1-3,2.2-6.4c-0.6,0.3-1.1,0.4-1.4,0.5c-0.5,0.1-1,0.1-1.4,0c-0.6-0.2-0.9-0.5-1-0.9
			c-0.1-0.5,0.2-1,0.8-1.4c0.2-0.1,1-0.4,2.5-0.9c0.5-0.2,1.3-0.5,2.4-1.1c0.6-1.4,1.6-3.4,3-5.9c0.8-1.4,1.4-2.3,1.7-2.8
			c0.5-0.6,0.9-1,1.3-1c0.3-0.1,0.6,0,1,0.2c0.3,0.2,0.5,0.4,0.6,0.7c0.1,0.5-0.4,1.7-1.4,3.5c-0.7,1.2-1.2,2.1-1.5,2.8
			c2.5-1.1,4.3-1.8,5.4-2c1.3-0.3,2,0.1,2.2,1c0.1,0.5-0.1,0.8-0.5,1.2c-0.2,0.2-0.8,0.4-1.8,0.7c-0.4,0.1-2.1,0.8-5.1,2.2
			C436.3,410.2,435.5,410.6,434.7,411z"/>
		<path class="st7" d="M473.7,390.4c-0.6,0.4-1.1,0.9-1.6,1.4c-0.9,0.9-1.6,1.4-2,1.5c-0.4,0.1-0.7,0-1.1-0.2
			c-0.4-0.2-0.6-0.5-0.7-0.8c-0.1-0.7,0.8-2.1,2.8-4c3.1-2.9,6.7-4.8,10.9-5.6c3.3-0.6,6.1-0.2,8.4,1.2c2.1,1.3,3.3,3.1,3.8,5.4
			c0.8,3.8,0,8.7-2.4,14.5c-2.7,6.8-6.8,12.9-12.3,18.1c-4.1,3.9-7.9,6.2-11.5,6.9c-1.4,0.3-2.6,0.1-3.4-0.4
			c-0.7-0.5-1.1-1.1-1.3-1.7c-0.2-1,0.1-3.5,1-7.4c1.3-5.8,3.1-12,5.5-18.5C470,399.7,471.4,396.2,473.7,390.4z M476.7,388.3
			c0.8,0.2,1.2,0.4,1.3,0.8c0.1,0.3-0.2,1.2-0.9,2.7c-3.1,7.6-5.5,14.7-7.4,21.5c-1.7,6.1-2.4,9.7-2.1,11c0.2,0.8,0.7,1.1,1.6,0.9
			c1.5-0.3,3.4-1.4,5.7-3.3c2.8-2.3,5.8-5.9,8.8-10.6c2.8-4.3,4.7-8.7,5.9-13.1c0.9-3.4,1.2-6.4,0.7-8.8c-0.3-1.7-1.1-2.9-2.2-3.6
			c-1.2-0.7-2.7-0.8-4.7-0.4C481.4,385.9,479.2,386.8,476.7,388.3z"/>
		<path class="st7" d="M496.4,413l0.1,0.5c0.1,0.4,0.3,0.8,0.6,1.1c0.7,0.6,1.8,0.8,3.1,0.5c2.9-0.6,6-3.2,9.1-7.8
			c0.6-0.8,1.1-1.2,1.5-1.3c0.3-0.1,0.5,0,0.8,0.2c0.2,0.1,0.3,0.3,0.3,0.4c0.2,0.8-0.7,2.3-2.6,4.6c-1.5,1.8-3.1,3.4-5,4.7
			c-1.8,1.3-3.6,2.1-5.3,2.5c-1.8,0.3-3.3,0.1-4.5-0.7c-0.8-0.6-1.4-1.5-1.6-2.7c-0.7-3.4,0.6-7.1,3.7-11c2.5-3.2,4.9-5.1,7.2-5.5
			c0.6-0.1,1.2-0.1,1.8,0.2c0.7,0.3,1.1,0.8,1.2,1.5c0.2,1.1-0.1,2.5-1,4.2C504.1,407.9,500.9,410.8,496.4,413z M496.7,410.5
			c1.6-0.8,2.7-1.6,3.6-2.4c1.4-1.4,2.5-2.9,3.2-4.4c0.3-0.5,0.4-1,0.3-1.4c-0.1-0.4-0.3-0.6-0.8-0.5c-0.6,0.1-1.4,0.7-2.4,1.7
			C498.8,405.3,497.5,407.6,496.7,410.5z"/>
		<path class="st7" d="M521.7,397.4c0.9-0.7,1.5-1.2,1.9-1.5c0.9-0.6,1.8-1,2.7-1.2c1-0.2,1.9-0.1,2.5,0.3c0.6,0.4,1,1.1,1.2,2.1
			c0.3,1.4,0,3.2-0.7,5.4c-1.2,3.5-2.9,6.3-5.1,8.6c-1.8,1.9-3.7,3.1-5.6,3.4c-1,0.2-2.1,0.1-3.3-0.4c-2.1,6.2-3.9,12.4-5.3,18.7
			c-0.3,1.5-0.8,2.3-1.5,2.4c-0.4,0.1-0.7-0.1-1.2-0.4c-0.3-0.2-0.5-0.5-0.6-0.9c-0.2-1.1,0.7-4.9,2.6-11.5
			c3-10.1,6.1-18.6,9.2-25.5c0.6-1.5,1.1-2.5,1.3-3c0.6-1.5,1.2-2.3,2-2.4c0.8-0.2,1.3,0.2,1.4,1c0.1,0.5-0.1,1.1-0.5,2
			C522.3,395.8,521.9,396.8,521.7,397.4z M516.2,411.5c0.6,0.4,1.3,0.5,2.1,0.3c2.2-0.4,4.3-2.6,6.3-6.4c0.7-1.4,1.3-2.8,1.6-4.2
			c0.3-1.1,0.4-1.9,0.3-2.5c-0.1-0.4-0.2-0.6-0.5-0.8c-0.2-0.1-0.6-0.2-1-0.1c-1.1,0.2-2.3,1.1-3.7,2.8c-1.3,1.6-2.4,3.6-3.4,6.2
			C517,409.2,516.5,410.7,516.2,411.5z"/>
		<path class="st7" d="M543.5,389.6c1.9-0.4,3.1,0.4,3.5,2.4c0.5,2.7-0.3,6.3-2.4,11c-2.3,5-4.9,7.9-7.8,8.4c-1.4,0.3-2.5-0.1-3.3-1
			c-0.4-0.5-0.7-1.1-0.9-1.9c-0.5-2.6,0-5.5,1.5-9c1.4-3.2,3.2-5.8,5.5-7.8C541,390.5,542.3,389.8,543.5,389.6z M542.1,401.6
			c-0.7-0.3-1-0.5-1.1-0.8c0-0.2,0.3-0.7,0.9-1.5c1.7-2.4,2.5-4.3,2.2-5.5c0-0.2-0.1-0.3-0.3-0.4c-0.2-0.3-0.6-0.4-1-0.3
			c-0.8,0.1-1.7,1-3,2.5c-1.6,2-2.7,3.9-3.3,5.8c-0.8,2.2-1,3.9-0.8,5.2c0.1,0.3,0.2,0.6,0.5,0.8c0.4,0.3,0.8,0.4,1.3,0.3
			c1.1-0.2,2.2-1.2,3.2-2.9c0.4-0.7,0.8-1.4,1-2.1C542,402,542.1,401.7,542.1,401.6z"/>
		<path class="st7" d="M559.6,386.4c-1.1,2.3-2.1,4.9-2.9,7.6c-1.2,3.9-1.6,6.8-1.2,8.5c0.1,0.5,0.3,0.9,0.6,1.1
			c0.3,0.2,0.7,0.3,1.2,0.2c1.2-0.2,2.4-1.5,3.7-3.7c0.8-1.4,1.5-2.7,2.1-4c0.3-0.7,0.7-1.2,1.3-1.3c0.3-0.1,0.6,0,0.8,0.1
			c0.2,0.1,0.4,0.3,0.4,0.5c0.1,0.7-0.7,2.6-2.5,5.6c-2.1,3.6-4.3,5.7-6.6,6.1c-1.2,0.2-2.3,0-3.3-0.8c-0.6-0.5-1-1.3-1.2-2.4
			c-0.5-2.4-0.2-5.4,0.8-9c0.2-0.9,1-3,2.2-6.4c-0.6,0.3-1.1,0.4-1.4,0.5c-0.5,0.1-1,0.1-1.4,0c-0.6-0.2-0.9-0.5-1-0.9
			c-0.1-0.5,0.2-1,0.8-1.4c0.2-0.1,1-0.4,2.5-0.9c0.6-0.2,1.3-0.5,2.4-1.1c0.6-1.4,1.6-3.4,3-5.9c0.8-1.4,1.4-2.3,1.7-2.8
			c0.5-0.6,0.9-1,1.3-1c0.3-0.1,0.6,0,1,0.2c0.3,0.2,0.5,0.4,0.6,0.7c0.1,0.5-0.4,1.7-1.4,3.5c-0.7,1.2-1.2,2.1-1.5,2.8
			c2.5-1.1,4.3-1.8,5.4-2c1.3-0.3,2,0.1,2.2,1c0.1,0.5-0.1,0.8-0.5,1.2c-0.2,0.2-0.8,0.4-1.8,0.7c-0.4,0.1-2.1,0.8-5.1,2.2
			C561.3,385.6,560.4,386,559.6,386.4z"/>
		<path class="st7" d="M384.1,489.9c1.4,0.2,2.4,0.7,3.2,1.5c0.8,0.8,1.4,1.9,1.6,3.4c0.9,4.5-0.2,9.6-3.3,15.4
			c-3.4,6.3-7.1,9.9-11.2,10.7c-2,0.4-3.7-0.2-5.1-1.8c-0.9-1-1.5-2.4-1.8-4c-0.8-4,0.1-8.5,2.7-13.6c1.3-2.6,3.3-5.4,5.8-8.4
			c2.7-3.1,4.7-4.8,6.1-5.1C383.1,487.9,383.8,488.5,384.1,489.9z M379.9,493c-2.4,2.5-4.4,5.3-5.9,8.5c-2.3,4.6-3,8.7-2.3,12.4
			c0.2,1.1,0.6,1.9,1,2.5c0.8,0.8,1.7,1.2,2.7,1c1.6-0.3,3.4-1.8,5.2-4.3c2.1-2.9,3.5-6.1,4.2-9.8c0.6-2.8,0.7-5.1,0.4-6.9
			c-0.2-1.2-0.9-2.2-2-2.9c-0.7-0.5-1.6-0.7-2.6-0.5C380.4,492.9,380.2,492.9,379.9,493z"/>
		<path class="st7" d="M406.5,488.4c-1.4,1.4-2.9,2.6-4.4,3.7c-2,1.5-3.4,2.3-4.1,2.4c-0.8,0.1-1.2-0.3-1.4-1.3
			c-0.1-0.4,0-0.7,0.1-1c0.1-0.3,0.5-0.6,1.2-1c2-1.2,4.8-3.2,8.4-6.2c1.6-1.3,2.8-2.1,3.6-2.2c0.5-0.1,1,0,1.5,0.4
			c0.3,0.2,0.5,0.5,0.6,0.8c0.1,0.5-0.2,1.4-0.9,2.8c-5,10.7-8.2,19-9.8,24.9c-0.4,1.4-0.7,2.3-0.9,2.7c-0.3,0.6-0.7,1-1.2,1.1
			c-0.4,0.1-0.9-0.1-1.4-0.4c-0.3-0.2-0.5-0.5-0.5-0.8c-0.2-1.1,0.9-5,3.3-11.8C402.8,496.1,404.8,491.5,406.5,488.4z"/>
		<path class="st7" d="M447,462.1c0.3-0.1,0.6,0,0.9,0.2c0.2,0.2,0.4,0.4,0.4,0.6c0.1,0.5-0.2,1.1-0.8,2c-0.3,0.4-0.5,0.8-0.7,1.1
			c-0.2,0.3-0.7,1-1.5,2.1c-2.5,3.5-7.1,10.7-13.8,21.7c-4.4,7.2-8,13.2-10.7,18c-2.6,4.7-5.1,9.4-7.6,13.9l-2.9,5.4
			c-1,2-1.6,3.1-1.7,3.4c-0.3,0.8-0.8,1.2-1.4,1.3c-0.8,0.1-1.2-0.1-1.3-0.6c-0.1-0.7,0.5-2.3,1.8-5c4.2-8.3,10.5-19.3,18.8-33.2
			c9.1-15.1,14.9-24.4,17.4-27.8c1-1.3,1.6-2.1,1.8-2.4C446.2,462.5,446.6,462.2,447,462.1z"/>
		<path class="st7" d="M457.9,475.4c1.4,0.2,2.4,0.7,3.2,1.5c0.8,0.8,1.4,1.9,1.6,3.4c0.9,4.5-0.2,9.6-3.3,15.4
			c-3.4,6.3-7.1,9.9-11.2,10.7c-2,0.4-3.7-0.2-5.1-1.8c-0.9-1-1.5-2.4-1.8-4c-0.8-4,0.1-8.5,2.7-13.6c1.3-2.6,3.3-5.4,5.8-8.4
			c2.7-3.1,4.7-4.8,6.1-5.1C457,473.3,457.6,474,457.9,475.4z M453.7,478.4c-2.4,2.5-4.4,5.3-5.9,8.5c-2.3,4.6-3,8.7-2.3,12.4
			c0.2,1.1,0.6,1.9,1,2.5c0.8,0.8,1.7,1.2,2.7,1c1.6-0.3,3.4-1.8,5.2-4.3c2.1-2.9,3.5-6.1,4.2-9.8c0.6-2.8,0.7-5.1,0.4-6.9
			c-0.2-1.2-0.9-2.2-2-2.9c-0.7-0.5-1.6-0.7-2.6-0.5C454.2,478.3,454,478.4,453.7,478.4z"/>
		<path class="st7" d="M480.3,473.9c-1.4,1.4-2.9,2.6-4.4,3.7c-2,1.5-3.4,2.3-4.1,2.4c-0.8,0.1-1.2-0.3-1.4-1.3
			c-0.1-0.4,0-0.7,0.1-1c0.1-0.3,0.5-0.6,1.2-1c2-1.2,4.8-3.2,8.4-6.2c1.6-1.3,2.8-2.1,3.6-2.2c0.5-0.1,1,0,1.5,0.4
			c0.3,0.2,0.5,0.5,0.6,0.8c0.1,0.5-0.2,1.4-0.9,2.8c-5,10.7-8.2,19-9.8,24.9c-0.4,1.4-0.7,2.3-0.9,2.7c-0.3,0.6-0.7,1-1.2,1.1
			s-0.9-0.1-1.4-0.4c-0.3-0.2-0.5-0.5-0.5-0.8c-0.2-1.1,0.9-5,3.3-11.8C476.6,481.6,478.6,476.9,480.3,473.9z"/>
		<path class="st7" d="M520.8,447.5c0.3-0.1,0.6,0,0.9,0.2c0.2,0.2,0.4,0.4,0.4,0.6c0.1,0.5-0.2,1.1-0.8,2c-0.3,0.4-0.5,0.8-0.7,1.1
			c-0.2,0.3-0.7,1-1.5,2.1c-2.5,3.5-7.1,10.7-13.8,21.7c-4.4,7.2-8,13.2-10.7,18c-2.6,4.7-5.1,9.4-7.6,13.9l-2.9,5.4
			c-1,2-1.6,3.1-1.7,3.4c-0.3,0.8-0.8,1.2-1.4,1.3c-0.8,0.1-1.2-0.1-1.3-0.6c-0.1-0.7,0.5-2.3,1.8-5c4.2-8.3,10.5-19.3,18.8-33.2
			c9.1-15.1,14.9-24.4,17.4-27.8c1-1.3,1.6-2.1,1.8-2.4C520,447.9,520.4,447.6,520.8,447.5z"/>
		<path class="st7" d="M516.8,489.1c3.8-1.8,7.3-3.1,10.6-3.7c1.3-0.3,2.4-0.2,3.3,0.1c0.8,0.3,1.2,0.7,1.4,1.3
			c0.1,0.4,0,0.8-0.3,1.1c-0.3,0.4-0.6,0.6-1,0.7c-0.1,0-0.4,0-0.7,0c-1.3,0-2.4,0-3.4,0.2c-0.9,0.2-1.9,0.5-3.2,0.8
			c-0.4,0.1-2,0.8-4.7,2c-2.4,1.1-3.9,1.7-4.4,1.8c-0.7,0.1-1.3,0-1.9-0.5c-0.5-0.4-0.9-0.9-1-1.4c-0.1-0.6,0.3-1.5,1.4-2.8
			c1.9-2.4,3.8-4.5,5.7-6.5c1.7-1.8,3.9-4,6.5-6.5c3-2.8,5-4.8,6.1-6.1c1.6-1.8,2.3-3.5,2-4.9c-0.2-0.8-0.6-1.4-1.3-1.7
			c-0.6-0.3-1.3-0.4-2.2-0.2c-2.1,0.4-4.4,1.9-6.9,4.5c-1.1,1.2-1.9,1.8-2.2,1.9c-0.2,0-0.5,0-0.9-0.2c-0.4-0.2-0.6-0.4-0.7-0.8
			c-0.1-0.7,0.7-1.9,2.5-3.7c2.9-2.8,5.8-4.5,8.8-5c1.7-0.3,3.3-0.2,4.6,0.6c1.3,0.7,2.1,1.7,2.3,2.9c0.4,2.2-0.5,4.7-2.7,7.5
			c-1,1.2-2.8,3-5.5,5.6C522.6,482.2,518.5,486.5,516.8,489.1z"/>
		<path class="st7" d="M556.5,455.9c1.4,0.2,2.4,0.7,3.2,1.5c0.8,0.8,1.4,1.9,1.6,3.4c0.9,4.5-0.2,9.6-3.3,15.4
			c-3.4,6.3-7.1,9.9-11.2,10.7c-2,0.4-3.7-0.2-5.1-1.8c-0.9-1-1.5-2.4-1.8-4c-0.8-4,0.1-8.5,2.7-13.6c1.3-2.6,3.3-5.4,5.8-8.4
			c2.7-3.1,4.7-4.8,6.1-5.1C555.6,453.9,556.2,454.5,556.5,455.9z M552.3,459c-2.4,2.5-4.4,5.3-5.9,8.5c-2.3,4.6-3,8.7-2.3,12.4
			c0.2,1.1,0.6,1.9,1,2.5c0.8,0.8,1.7,1.2,2.7,1c1.6-0.3,3.4-1.8,5.2-4.3c2.1-2.9,3.5-6.1,4.2-9.8c0.6-2.8,0.7-5.1,0.4-6.9
			c-0.2-1.2-0.9-2.2-2-2.9c-0.7-0.5-1.6-0.7-2.6-0.5C552.8,458.9,552.6,459,552.3,459z"/>
		<path class="st7" d="M566.3,479.4c3.8-1.8,7.3-3.1,10.6-3.7c1.3-0.3,2.4-0.2,3.3,0.1c0.8,0.3,1.2,0.7,1.4,1.3
			c0.1,0.4,0,0.8-0.3,1.1c-0.3,0.4-0.6,0.6-1,0.7c-0.1,0-0.4,0-0.7,0c-1.3,0-2.4,0-3.4,0.2c-0.9,0.2-1.9,0.5-3.2,0.8
			c-0.4,0.1-2,0.8-4.7,2c-2.4,1.1-3.9,1.7-4.4,1.8c-0.7,0.1-1.3,0-1.9-0.5c-0.5-0.4-0.9-0.9-1-1.4c-0.1-0.6,0.3-1.5,1.4-2.8
			c1.9-2.4,3.8-4.5,5.7-6.5c1.7-1.8,3.9-4,6.5-6.5c3-2.8,5-4.8,6.1-6.1c1.6-1.8,2.3-3.5,2-4.9c-0.2-0.8-0.6-1.4-1.3-1.7
			c-0.6-0.3-1.3-0.4-2.2-0.2c-2.1,0.4-4.4,1.9-6.9,4.5c-1.1,1.2-1.9,1.8-2.2,1.9c-0.2,0-0.5,0-0.9-0.2c-0.4-0.2-0.6-0.4-0.7-0.8
			c-0.1-0.7,0.7-1.9,2.5-3.7c2.9-2.8,5.8-4.5,8.8-5c1.7-0.3,3.3-0.2,4.6,0.6c1.3,0.7,2.1,1.7,2.3,2.9c0.4,2.2-0.5,4.7-2.7,7.5
			c-1,1.2-2.8,3-5.5,5.6C572.1,472.4,568,476.8,566.3,479.4z"/>
		<path class="st7" d="M606,446.2c1.4,0.2,2.4,0.7,3.2,1.5c0.8,0.8,1.4,1.9,1.6,3.4c0.9,4.5-0.2,9.6-3.3,15.4
			c-3.4,6.3-7.1,9.9-11.2,10.7c-2,0.4-3.7-0.2-5.1-1.8c-0.9-1-1.5-2.4-1.8-4c-0.8-4,0.1-8.5,2.7-13.6c1.3-2.6,3.3-5.4,5.8-8.4
			c2.7-3.1,4.7-4.8,6.1-5.1C605.1,444.2,605.7,444.8,606,446.2z M601.8,449.3c-2.4,2.5-4.4,5.3-5.9,8.5c-2.3,4.6-3,8.7-2.3,12.4
			c0.2,1.1,0.6,1.9,1,2.5c0.8,0.8,1.7,1.2,2.7,1c1.6-0.3,3.4-1.8,5.2-4.3c2.1-2.9,3.5-6.1,4.2-9.8c0.6-2.8,0.7-5.1,0.4-6.9
			c-0.2-1.2-0.9-2.2-2-2.9c-0.7-0.5-1.6-0.7-2.6-0.5C602.3,449.2,602.1,449.2,601.8,449.3z"/>
	</g>
</g>
</svg>
