<svg id="Layer_9" data-name="Layer 9" xmlns="http://www.w3.org/2000/svg" viewBox="0 0 420 700"><defs><style>.cls-1{fill:#d7e8f7;}.cls-2{fill:none;stroke:#000;stroke-miterlimit:10;stroke-width:3px;}.cls-3{fill:#0d4077;}</style></defs><title>receipt1-01</title><rect class="cls-1" x="24" y="24" width="366.62" height="655.03" rx="4.61"/><path d="M167.7,130.73l-4.21-9.55H159v9.55h-3.79V105.59h9.05a6.41,6.41,0,0,1,5,1.94,7.94,7.94,0,0,1,1.76,5.55,9.16,9.16,0,0,1-1.08,4.56,5.21,5.21,0,0,1-2.91,2.53L172,130.73Zm-.45-17.43c0-2.42-1.12-3.62-3.35-3.62H159v7.42h5a2.93,2.93,0,0,0,2.41-1A4.29,4.29,0,0,0,167.25,113.3Z"/><path d="M174.27,130.73V105.59h14.24v4.07H178.06V116h9.67V120h-9.67v6.62h11v4.07Z"/><path d="M200.29,126.94q3.42,0,4.77-4.78l3.3,1.73a11.1,11.1,0,0,1-3.13,5.42,7.34,7.34,0,0,1-4.94,1.77,7.74,7.74,0,0,1-6.76-3.43q-2.39-3.44-2.38-9.61c0-4.12.76-7.29,2.3-9.5A8.41,8.41,0,0,1,205.31,107a9.74,9.74,0,0,1,2.82,5.22l-3.34,1.27a5.58,5.58,0,0,0-1.67-3,4.5,4.5,0,0,0-6.83,1.1A12.78,12.78,0,0,0,195,118a13,13,0,0,0,1.37,6.62A4.37,4.37,0,0,0,200.29,126.94Z"/><path d="M210.84,130.73V105.59h14.24v4.07H214.63V116h9.67V120h-9.67v6.62h11v4.07Z"/><path d="M228.4,130.73V105.59h3.79v25.14Z"/><path d="M250.62,113.55a11.14,11.14,0,0,1-.8,4.33,6.52,6.52,0,0,1-2.28,3,6,6,0,0,1-3.53,1h-4.5v8.85h-3.79V105.59h8.13a6.21,6.21,0,0,1,5,2.08A8.88,8.88,0,0,1,250.62,113.55Zm-3.82.09q0-4-3.37-4h-3.92v8.15h4a2.9,2.9,0,0,0,2.42-1.08A4.92,4.92,0,0,0,246.8,113.64Z"/><path d="M261.45,109.66v21.07h-3.79V109.66h-5.85v-4.07h15.51v4.07Z"/><path d="M59.86,62.62V72.93H56.08V62.62L49.63,47.79h4L58,58.43l4.4-10.64h4Z"/><path d="M86.12,60.24A19.75,19.75,0,0,1,85,67.15a10,10,0,0,1-3.2,4.55,7.78,7.78,0,0,1-4.86,1.58,7.7,7.7,0,0,1-6.69-3.48c-1.62-2.33-2.43-5.51-2.43-9.56s.81-7.17,2.42-9.43a8.34,8.34,0,0,1,13.45,0Q86.12,54.28,86.12,60.24Zm-3.87,0a12.41,12.41,0,0,0-1.39-6.37,4.48,4.48,0,0,0-7.83,0,12.32,12.32,0,0,0-1.39,6.39,12.67,12.67,0,0,0,1.42,6.52,4.41,4.41,0,0,0,7.8.07A12.87,12.87,0,0,0,82.25,60.24Z"/><path d="M96.52,73.28a6.83,6.83,0,0,1-5.73-2.53q-2-2.53-2-7.24V47.79h3.79V63.1a8.24,8.24,0,0,0,1,4.52,3.36,3.36,0,0,0,3,1.54,3.54,3.54,0,0,0,3.12-1.61,8.23,8.23,0,0,0,1.1-4.63V47.79h3.79V63.24q0,4.79-2.13,7.41A7.24,7.24,0,0,1,96.52,73.28Z"/><path d="M120.44,72.93l-4.2-9.55h-4.45v9.55H108V47.79h9a6.43,6.43,0,0,1,5,1.94,8,8,0,0,1,1.76,5.56,9.12,9.12,0,0,1-1.08,4.55,5.2,5.2,0,0,1-2.92,2.53l4.9,10.56ZM120,55.5q0-3.61-3.34-3.62h-4.86V59.3h5a3,3,0,0,0,2.42-1A4.29,4.29,0,0,0,120,55.5Z"/><path d="M138.12,51.86v7.78h9.27V63.7h-9.27v9.23h-3.79V47.79h13.35v4.07Z"/><path d="M161.76,72.93l-1.61-6.43h-6.9l-1.61,6.43h-3.79l6.61-25.14h4.47l6.58,25.14Zm-5.07-21.26-.07.39c-.09.43-.19.91-.31,1.46s-.86,3.56-2.21,9h5.2l-1.78-7.23L157,52.9Z"/><path d="M175,72.93h-3.85l-6.7-25.14h4l3.73,16.15c.23,1,.55,2.62.95,4.74l.27-1.53.66-3.21,3.71-16.15h3.93Z"/><path d="M201.19,60.24a19.52,19.52,0,0,1-1.12,6.91,9.92,9.92,0,0,1-3.2,4.55A7.78,7.78,0,0,1,192,73.28a7.7,7.7,0,0,1-6.69-3.48c-1.62-2.33-2.42-5.51-2.42-9.56s.8-7.17,2.41-9.43a8.35,8.35,0,0,1,13.46,0Q201.19,54.28,201.19,60.24Zm-3.87,0a12.31,12.31,0,0,0-1.39-6.37,4.48,4.48,0,0,0-7.83,0,12.42,12.42,0,0,0-1.39,6.39,12.77,12.77,0,0,0,1.42,6.52,4.42,4.42,0,0,0,7.81.07A13,13,0,0,0,197.32,60.24Z"/><path d="M216.5,72.93l-4.2-9.55h-4.45v9.55h-3.79V47.79h9.05a6.43,6.43,0,0,1,5,1.94,8,8,0,0,1,1.76,5.56,9.12,9.12,0,0,1-1.08,4.55,5.2,5.2,0,0,1-2.92,2.53l4.9,10.56Zm-.45-17.43q0-3.61-3.34-3.62h-4.86V59.3h5a3,3,0,0,0,2.42-1A4.29,4.29,0,0,0,216.05,55.5Z"/><path d="M223.07,72.93V47.79h3.79V72.93Z"/><path d="M238.56,51.86V72.93h-3.79V51.86h-5.85V47.79h15.5v4.07Z"/><path d="M246.47,72.93V47.79h14.24v4.07H250.26v6.32h9.67v4.06h-9.67v6.62h11v4.07Z"/><path d="M286.11,65.68a7.57,7.57,0,0,1-2,5.65,7.89,7.89,0,0,1-5.79,2,8.08,8.08,0,0,1-5.46-1.71,8.37,8.37,0,0,1-2.55-5.19l3.66-.84a4.79,4.79,0,0,0,1.46,2.9,4.54,4.54,0,0,0,3,.9q4,0,4-3.35a3.21,3.21,0,0,0-.46-1.77,3.65,3.65,0,0,0-1.29-1.16,16.69,16.69,0,0,0-3.18-1.12,22.73,22.73,0,0,1-2.83-1.06,7.19,7.19,0,0,1-1.44-1,5,5,0,0,1-1.09-1.31,6.69,6.69,0,0,1-.7-1.8,10,10,0,0,1-.25-2.37A7,7,0,0,1,273,49.23a7.35,7.35,0,0,1,5.37-1.81,7.58,7.58,0,0,1,5.06,1.46,7.65,7.65,0,0,1,2.18,4.84l-3.68.69A4.27,4.27,0,0,0,280.81,52a3.48,3.48,0,0,0-2.49-.82q-3.44,0-3.44,3a3.1,3.1,0,0,0,.37,1.61,3,3,0,0,0,1.08,1.06,14.74,14.74,0,0,0,2.92,1.1A18,18,0,0,1,283,59.33a5.83,5.83,0,0,1,1.78,1.51,6.25,6.25,0,0,1,1,2.07A10.1,10.1,0,0,1,286.11,65.68Z"/><path d="M297.08,51.86V72.93h-3.79V51.86h-5.85V47.79h15.5v4.07Z"/><path d="M322.13,60.24A19.75,19.75,0,0,1,321,67.15a9.93,9.93,0,0,1-3.21,4.55,8.21,8.21,0,0,1-11.55-1.9c-1.61-2.33-2.42-5.51-2.42-9.56s.81-7.17,2.42-9.43a8.34,8.34,0,0,1,13.45,0Q322.13,54.28,322.13,60.24Zm-3.88,0a12.42,12.42,0,0,0-1.38-6.37,4.48,4.48,0,0,0-7.83,0,12.32,12.32,0,0,0-1.39,6.39,12.67,12.67,0,0,0,1.42,6.52,4.41,4.41,0,0,0,7.8.07A13,13,0,0,0,318.25,60.24Z"/><path d="M337.44,72.93l-4.21-9.55h-4.45v9.55H325V47.79H334a6.41,6.41,0,0,1,5,1.94,8,8,0,0,1,1.76,5.56,9.12,9.12,0,0,1-1.08,4.55,5.21,5.21,0,0,1-2.91,2.53l4.89,10.56ZM337,55.5q0-3.61-3.35-3.62h-4.86V59.3h5a2.93,2.93,0,0,0,2.41-1A4.29,4.29,0,0,0,337,55.5Z"/><path d="M344,72.93V47.79h14.24v4.07H347.8v6.32h9.67v4.06H347.8v6.62h11v4.07Z"/><line class="cls-2" x1="49.68" y1="89" x2="356.37" y2="89"/><rect x="138.54" y="575.45" width="6.6" height="84.8"/><rect x="149.71" y="575.45" width="4.57" height="84.8"/><rect x="156.82" y="575.45" width="2.54" height="75.77"/><rect x="160.88" y="575.45" width="2.54" height="75.77"/><rect x="181.19" y="575.45" width="2.54" height="75.77"/><rect x="169" y="575.45" width="9.14" height="75.77"/><rect x="186.27" y="575.45" width="4.57" height="75.77"/><rect x="196.42" y="575.45" width="4.57" height="75.77"/><rect x="211.15" y="575.45" width="7.62" height="75.77"/><rect x="205.56" y="575.45" width="2.54" height="75.77"/><rect x="221.81" y="575.45" width="2.54" height="75.77"/><rect x="226.89" y="575.45" width="4.57" height="75.77"/><rect x="247.2" y="575.45" width="2.54" height="75.77"/><rect x="235.02" y="575.45" width="9.14" height="75.77"/><rect x="252.28" y="575.45" width="4.57" height="84.8"/><rect x="262.44" y="575.45" width="4.57" height="84.8"/><line class="cls-2" x1="49.68" y1="151.96" x2="356.37" y2="151.96"/><path d="M62.59,543.88v17.34H59.47V543.88H54.65v-3.35H67.42v3.35Z"/><path d="M78.72,561.22v-8.87h-6.5v8.87H69.1V540.53h3.12v8.24h6.5v-8.24h3.12v20.69Z"/><path d="M95.29,561.22,94,555.93H88.29L87,561.22H83.84l5.44-20.69H93l5.42,20.69Zm-4.16-17.5-.07.32c-.07.35-.15.75-.25,1.2s-.71,2.93-1.82,7.43h4.28l-1.47-5.94-.45-2Z"/><path d="M109.49,561.22,103,545.29c.13,1.54.19,2.79.19,3.73v12.2h-2.77V540.53H104l6.6,16.06c-.13-1.47-.19-2.82-.19-4v-12h2.77v20.69Z"/><path d="M126.38,561.22l-5.36-9.5-1.84,1.95v7.55h-3.12V540.53h3.12v9.38l6.72-9.38h3.64l-6.37,8.75,6.89,11.94Z"/><path d="M144.69,552.73v8.49h-3.11v-8.49l-5.31-12.2h3.27l3.57,8.75,3.62-8.75H150Z"/><path d="M166.3,550.78a16,16,0,0,1-.92,5.68,8.07,8.07,0,0,1-2.63,3.75,6.44,6.44,0,0,1-4,1.3,6.33,6.33,0,0,1-5.51-2.87,13.56,13.56,0,0,1-2-7.86q0-5,2-7.77a6.87,6.87,0,0,1,11.08,0A13.2,13.2,0,0,1,166.3,550.78Zm-3.18,0a10.12,10.12,0,0,0-1.15-5.25,3.55,3.55,0,0,0-3.2-1.9,3.59,3.59,0,0,0-3.24,1.89,10.16,10.16,0,0,0-1.15,5.26,10.49,10.49,0,0,0,1.17,5.37,3.64,3.64,0,0,0,6.43.05A10.64,10.64,0,0,0,163.12,550.78Z"/><path d="M174.86,561.51a5.63,5.63,0,0,1-4.71-2.08,9.48,9.48,0,0,1-1.64-6V540.53h3.13v12.6a6.76,6.76,0,0,0,.84,3.72,2.76,2.76,0,0,0,2.47,1.27,2.92,2.92,0,0,0,2.57-1.33,6.75,6.75,0,0,0,.9-3.81V540.53h3.12v12.72a9.47,9.47,0,0,1-1.75,6.1A6,6,0,0,1,174.86,561.51Z"/><path d="M193.46,543.88v6.4h7.63v3.35h-7.63v7.59h-3.12V540.53h11v3.35Z"/><path d="M218.08,550.78a16.19,16.19,0,0,1-.92,5.68,8.09,8.09,0,0,1-2.64,3.75,6.75,6.75,0,0,1-9.51-1.57q-2-2.86-2-7.86t2-7.77a6.86,6.86,0,0,1,11.07,0A13.2,13.2,0,0,1,218.08,550.78Zm-3.19,0a10.23,10.23,0,0,0-1.14-5.25,3.56,3.56,0,0,0-3.21-1.9,3.61,3.61,0,0,0-3.24,1.89,10.17,10.17,0,0,0-1.14,5.26,10.49,10.49,0,0,0,1.17,5.37,3.63,3.63,0,0,0,6.42.05A10.64,10.64,0,0,0,214.89,550.78Z"/><path d="M230.68,561.22l-3.46-7.86h-3.66v7.86h-3.12V540.53h7.45a5.3,5.3,0,0,1,4.12,1.59,6.62,6.62,0,0,1,1.45,4.58,7.54,7.54,0,0,1-.89,3.75,4.3,4.3,0,0,1-2.41,2.08l4,8.69Zm-.37-14.35c0-2-.91-3-2.75-3h-4V550h4.09a2.44,2.44,0,0,0,2-.82A3.55,3.55,0,0,0,230.31,546.87Z"/><path d="M254.27,555.26a6.28,6.28,0,0,1-1.62,4.65,6.5,6.5,0,0,1-4.77,1.6,6.67,6.67,0,0,1-4.5-1.41,6.88,6.88,0,0,1-2.09-4.27l3-.69a4,4,0,0,0,1.2,2.39,3.77,3.77,0,0,0,2.47.74q3.27,0,3.27-2.76a2.64,2.64,0,0,0-.38-1.46,3,3,0,0,0-1.06-.95,14.31,14.31,0,0,0-2.62-.93,18.21,18.21,0,0,1-2.32-.87,5.83,5.83,0,0,1-1.19-.78,4.14,4.14,0,0,1-.9-1.08,5.38,5.38,0,0,1-.58-1.48,8.79,8.79,0,0,1-.2-2,5.74,5.74,0,0,1,1.52-4.3,6,6,0,0,1,4.41-1.49,5.19,5.19,0,0,1,6,5.19l-3,.57a3.52,3.52,0,0,0-1-2,2.88,2.88,0,0,0-2-.68c-1.89,0-2.84.82-2.84,2.47a2.33,2.33,0,0,0,1.2,2.19,12.85,12.85,0,0,0,2.4.91A15.67,15.67,0,0,1,251.7,550a5,5,0,0,1,1.46,1.25A5.14,5.14,0,0,1,254,553,8.27,8.27,0,0,1,254.27,555.26Z"/><path d="M266.19,561.22v-8.87h-6.5v8.87h-3.12V540.53h3.12v8.24h6.5v-8.24h3.12v20.69Z"/><path d="M286.72,550.78a16,16,0,0,1-.92,5.68,8.07,8.07,0,0,1-2.63,3.75,6.42,6.42,0,0,1-4,1.3,6.34,6.34,0,0,1-5.51-2.87,13.56,13.56,0,0,1-2-7.86c0-3.32.67-5.91,2-7.77a6.87,6.87,0,0,1,11.08,0A13.2,13.2,0,0,1,286.72,550.78Zm-3.18,0a10.23,10.23,0,0,0-1.14-5.25,3.69,3.69,0,0,0-6.45,0,10.17,10.17,0,0,0-1.14,5.26,10.49,10.49,0,0,0,1.17,5.37,3.63,3.63,0,0,0,6.42.05A10.64,10.64,0,0,0,283.54,550.78Z"/><path d="M301.35,547.08a9.35,9.35,0,0,1-.65,3.57,5.47,5.47,0,0,1-1.88,2.43,5,5,0,0,1-2.91.86h-3.7v7.28h-3.13V540.53h6.7a5.12,5.12,0,0,1,4.13,1.71A7.32,7.32,0,0,1,301.35,547.08Zm-3.14.07c0-2.17-.93-3.26-2.77-3.26h-3.23v6.71h3.31a2.39,2.39,0,0,0,2-.88A4.08,4.08,0,0,0,298.21,547.15Z"/><path d="M315.81,547.08a9.16,9.16,0,0,1-.66,3.57,5.4,5.4,0,0,1-1.88,2.43,4.92,4.92,0,0,1-2.9.86h-3.71v7.28h-3.12V540.53h6.7a5.08,5.08,0,0,1,4.12,1.71A7.27,7.27,0,0,1,315.81,547.08Zm-3.14.07q0-3.25-2.78-3.26h-3.23v6.71H310a2.39,2.39,0,0,0,2-.88A4.14,4.14,0,0,0,312.67,547.15Z"/><path d="M318,561.22V540.53h3.12v20.69Z"/><path d="M333.1,561.22l-6.5-15.93c.13,1.54.19,2.79.19,3.73v12.2H324V540.53h3.57l6.59,16.06c-.12-1.47-.19-2.82-.19-4v-12h2.78v20.69Z"/><path d="M346.76,558.12a5.91,5.91,0,0,0,2.36-.49,4.6,4.6,0,0,0,1.76-1.25v-2.87h-3.64v-3.2h6.5v7.61a8.31,8.31,0,0,1-3.08,2.64,8.74,8.74,0,0,1-4,1,6.43,6.43,0,0,1-5.6-2.79c-1.3-1.87-2-4.51-2-7.94s.66-6,2-7.83a6.57,6.57,0,0,1,5.67-2.73q5.25,0,6.67,5.39l-2.88,1.21a4.62,4.62,0,0,0-1.46-2.38,3.57,3.57,0,0,0-2.33-.81,3.7,3.7,0,0,0-3.35,1.85,10.16,10.16,0,0,0-1.14,5.3,10.37,10.37,0,0,0,1.18,5.43A3.7,3.7,0,0,0,346.76,558.12Z"/><path d="M359.9,555h-2.43l-.34-14.43h3.11Zm-2.77,6.26v-4h3.05v4Z"/><path d="M72.1,114.29l5.59-2.48,1.62,4.7-6,1.45L77.79,123l-4.38,2.89-3.48-6-3.55,6L62,123l4.52-5-5.95-1.45,1.62-4.7,5.69,2.48-.43-6.52h5.12Z"/><path d="M91.08,114.29l5.6-2.48,1.62,4.7-6,1.45L96.77,123l-4.38,2.89-3.48-6-3.55,6L80.93,123l4.53-5-6-1.45,1.62-4.7,5.7,2.48-.43-6.52h5.12Z"/><path d="M110.06,114.29l5.6-2.48,1.62,4.7-6,1.45,4.43,5.07-4.38,2.89-3.47-6-3.55,6L99.92,123l4.52-5-6-1.45,1.62-4.7,5.69,2.48-.43-6.52h5.12Z"/><path d="M129.05,114.29l5.59-2.48,1.62,4.7L130.31,118l4.43,5.07-4.38,2.89-3.48-6-3.55,6L118.9,123l4.52-5-6-1.45,1.62-4.7,5.69,2.48-.43-6.52h5.12Z"/><path d="M291.83,114.18l5.59-2.47L299,116.4l-6,1.45,4.43,5.07-4.38,2.89-3.48-6-3.55,6-4.43-2.93,4.53-5-6-1.45,1.62-4.69,5.69,2.47-.43-6.52h5.12Z"/><path d="M310.81,114.18l5.6-2.47L318,116.4l-6,1.45,4.43,5.07-4.38,2.89-3.48-6-3.55,6-4.43-2.93,4.53-5-6-1.45,1.62-4.69,5.7,2.47-.43-6.52h5.12Z"/><path d="M329.79,114.18l5.6-2.47L337,116.4l-5.95,1.45,4.43,5.07-4.39,2.89-3.47-6-3.55,6-4.43-2.93,4.52-5-5.95-1.45,1.62-4.69,5.69,2.47-.43-6.52h5.12Z"/><path d="M348.78,114.18l5.59-2.47L356,116.4,350,117.85l4.43,5.07-4.38,2.89-3.48-6-3.55,6-4.43-2.93,4.53-5-6-1.45,1.62-4.69,5.69,2.47-.43-6.52h5.13Z"/><line class="cls-2" x1="49.68" y1="522.64" x2="356.37" y2="522.64"/><path d="M56.94,195.41V184.86h2.2v10.55Z"/><path d="M66,186.57v8.84H63.75v-8.84H60.34v-1.71h9v1.71Z"/><path d="M70.56,195.41V184.86h8.29v1.71H72.77v2.65H78.4v1.71H72.77v2.78h6.39v1.7Z"/><path d="M89.54,195.41V189c0-.15,0-.29,0-.44s0-.76.07-1.86c-.36,1.34-.62,2.28-.79,2.81l-1.9,5.88H85.36l-1.9-5.88-.8-2.81c0,1.16.09,1.93.09,2.3v6.39h-2V184.86h3l1.89,5.9.16.57.36,1.42.47-1.69,1.94-6.2H91.5v10.55Z"/><path d="M97.75,195.41v-1.56h2.62v-7.2l-2.53,1.58v-1.65l2.64-1.72h2v9h2.42v1.56Z"/><path d="M65.47,218.49A3.54,3.54,0,0,1,65,220.3a3.07,3.07,0,0,1-1.33,1.24,4.49,4.49,0,0,1-2.05.44H59v3.71H56.79V215.15h4.74a4.41,4.41,0,0,1,2.92.87A3.06,3.06,0,0,1,65.47,218.49Zm-2.23,0c0-1.1-.65-1.66-2-1.66H59v3.42h2.34a2,2,0,0,0,1.41-.45A1.68,1.68,0,0,0,63.24,218.52Z"/><path d="M74.26,225.69l-2.44-4H69.23v4H67V215.15h5.27a4.6,4.6,0,0,1,2.91.81,2.8,2.8,0,0,1,1,2.33,3,3,0,0,1-.62,1.91,3,3,0,0,1-1.7,1.06l2.85,4.43ZM74,218.38c0-1-.65-1.52-2-1.52H69.23V220h2.88a2.08,2.08,0,0,0,1.41-.42A1.49,1.49,0,0,0,74,218.38Z"/><path d="M78.09,225.69V215.15h8.29v1.7H80.3v2.65h5.63v1.71H80.3V224h6.39v1.7Z"/><path d="M87.89,222.63v-1.82h3.89v1.82Z"/><path d="M102.09,218.49a3.53,3.53,0,0,1-.46,1.81,3.07,3.07,0,0,1-1.33,1.24,4.52,4.52,0,0,1-2,.44H95.63v3.71H93.42V215.15h4.74a4.36,4.36,0,0,1,2.91.87A3.06,3.06,0,0,1,102.09,218.49Zm-2.22,0c0-1.1-.65-1.66-2-1.66H95.63v3.42H98a2,2,0,0,0,1.41-.45A1.68,1.68,0,0,0,99.87,218.52Z"/><path d="M110,225.69,109,223h-4l-.93,2.69h-2.21l3.85-10.54h2.6l3.84,10.54ZM107,216.77l0,.17c0,.18-.11.38-.18.61s-.5,1.49-1.29,3.79h3l-1-3-.32-1Z"/><path d="M113.58,225.69V215.15h2.2v10.54Z"/><path d="M127.24,220.34a6.11,6.11,0,0,1-.64,2.85,4.45,4.45,0,0,1-1.81,1.86,5.51,5.51,0,0,1-2.69.64h-4.27V215.15h3.82a5.91,5.91,0,0,1,4.13,1.34A5,5,0,0,1,127.24,220.34Zm-2.23,0a3.52,3.52,0,0,0-.88-2.59,3.38,3.38,0,0,0-2.52-.9H120V224h1.87a2.85,2.85,0,0,0,2.27-1A4,4,0,0,0,125,220.34Z"/><path d="M138.17,224.11a5.49,5.49,0,0,0,1.67-.25,3.25,3.25,0,0,0,1.25-.64v-1.46h-2.57v-1.63h4.59V224a5.78,5.78,0,0,1-2.18,1.35,8.31,8.31,0,0,1-2.82.48,5.29,5.29,0,0,1-4-1.42,5.58,5.58,0,0,1-1.38-4,4.86,4.86,0,0,1,5.4-5.38q3.71,0,4.72,2.75l-2,.61a2.41,2.41,0,0,0-1-1.21,3.16,3.16,0,0,0-1.65-.41,3,3,0,0,0-2.37.94,4,4,0,0,0-.81,2.7,4.13,4.13,0,0,0,.84,2.77A2.89,2.89,0,0,0,138.17,224.11Z"/><path d="M145.09,225.69V215.15h2.21v10.54Z"/><path d="M151.56,216.85v3.27H157v1.7h-5.39v3.87h-2.21V215.15h7.78v1.7Z"/><path d="M163.47,216.85v8.84h-2.21v-8.84h-3.4v-1.7h9v1.7Z"/><path d="M177.26,224.11a2.8,2.8,0,0,0,2.78-2l1.92.73a4.59,4.59,0,0,1-1.82,2.27,5.32,5.32,0,0,1-2.88.74,5.19,5.19,0,0,1-3.93-1.44,6.57,6.57,0,0,1-.05-8,5.13,5.13,0,0,1,3.88-1.39,5.62,5.62,0,0,1,3,.74,4,4,0,0,1,1.64,2.19l-2,.54a2.3,2.3,0,0,0-1-1.27,3.07,3.07,0,0,0-1.7-.46,2.8,2.8,0,0,0-2.27.92,4.14,4.14,0,0,0-.78,2.72,4.26,4.26,0,0,0,.8,2.78A2.82,2.82,0,0,0,177.26,224.11Z"/><path d="M190.86,225.69l-.93-2.69h-4l-.94,2.69h-2.21l3.85-10.54h2.6l3.84,10.54Zm-3-8.92,0,.17c-.05.18-.11.38-.18.61s-.5,1.49-1.29,3.79h3l-1-3-.32-1Z"/><path d="M201.72,225.69l-2.44-4h-2.59v4h-2.21V215.15h5.27a4.6,4.6,0,0,1,2.91.81,2.8,2.8,0,0,1,1,2.33,3,3,0,0,1-.62,1.91,3,3,0,0,1-1.7,1.06l2.85,4.43Zm-.26-7.31c0-1-.65-1.52-2-1.52h-2.82V220h2.88a2.08,2.08,0,0,0,1.41-.42A1.49,1.49,0,0,0,201.46,218.38Z"/><path d="M215,220.34a6,6,0,0,1-.64,2.85,4.45,4.45,0,0,1-1.81,1.86,5.49,5.49,0,0,1-2.69.64h-4.26V215.15h3.82a5.89,5.89,0,0,1,4.12,1.34A5,5,0,0,1,215,220.34Zm-2.22,0a3.52,3.52,0,0,0-.89-2.59,3.38,3.38,0,0,0-2.52-.9h-1.56V224h1.87a2.83,2.83,0,0,0,2.26-1A4,4,0,0,0,212.73,220.34Z"/><path d="M216.63,225.69v-2.28h2.17v2.28Z"/><path d="M220.89,225.69v-2.28h2.17v2.28Z"/><path d="M225.15,225.69v-2.28h2.16v2.28Z"/><path d="M229.41,225.69v-2.28h2.16v2.28Z"/><path d="M233.67,225.69v-2.28h2.16v2.28Z"/><path d="M237.93,225.69v-2.28h2.16v2.28Z"/><path d="M242.19,225.69v-2.28h2.16v2.28Z"/><path d="M246.45,225.69v-2.28h2.16v2.28Z"/><path d="M250.71,225.69v-2.28h2.16v2.28Z"/><path d="M255,225.69v-2.28h2.16v2.28Z"/><path d="M259.23,225.69v-2.28h2.16v2.28Z"/><path d="M263.48,225.69v-2.28h2.17v2.28Z"/><path d="M267.74,225.69v-2.28h2.17v2.28Z"/><path d="M272,225.69v-2.28h2.17v2.28Z"/><path d="M276.26,225.69v-2.28h2.16v2.28Z"/><path d="M280.52,225.69v-2.28h2.16v2.28Z"/><path d="M284.78,225.69v-2.28h2.16v2.28Z"/><path d="M289,225.69v-2.28h2.16v2.28Z"/><path d="M293.3,225.69v-2.28h2.16v2.28Z"/><path d="M297.56,225.69v-2.28h2.16v2.28Z"/><path d="M301.82,225.69v-2.28H304v2.28Z"/><path d="M306.08,225.69v-2.28h2.16v2.28Z"/><path d="M310.33,225.69v-2.28h2.17v2.28Z"/><path d="M314.59,225.69v-2.28h2.17v2.28Z"/><path d="M334.64,222.61a2.56,2.56,0,0,1-.91,2.1,4.39,4.39,0,0,1-2.69.81v1.31h-.82v-1.29a4.2,4.2,0,0,1-2.5-.76,3.42,3.42,0,0,1-1.19-2.14l1.92-.35a2.14,2.14,0,0,0,.56,1.24,2,2,0,0,0,1.21.46v-2.92l-.11,0H330a6.48,6.48,0,0,1-1.83-.66,2.65,2.65,0,0,1-1-1,2.72,2.72,0,0,1-.34-1.42,2.32,2.32,0,0,1,.86-1.92,4.21,4.21,0,0,1,2.49-.74v-1H331v1a4.63,4.63,0,0,1,1.63.31,2.51,2.51,0,0,1,1.06.8,4.27,4.27,0,0,1,.65,1.51l-2,.29a1.92,1.92,0,0,0-.44-1,1.45,1.45,0,0,0-.92-.43v2.63l.08,0a7,7,0,0,1,1.32.36,3.33,3.33,0,0,1,1.65,1A2.76,2.76,0,0,1,334.64,222.61Zm-4.42-5.85c-.93.07-1.39.47-1.39,1.19a1.12,1.12,0,0,0,.12.55.88.88,0,0,0,.33.36,5.49,5.49,0,0,0,.94.38Zm2.47,5.88a1.23,1.23,0,0,0-.13-.61,1,1,0,0,0-.39-.39,6.07,6.07,0,0,0-1.13-.39V224Q332.69,223.89,332.69,222.64Z"/><path d="M335.82,225.69v-1.56h2.61v-7.19l-2.53,1.58v-1.66l2.65-1.71h2v9H343v1.56Z"/><path d="M351.28,220.42a7.35,7.35,0,0,1-.92,4.05,3.1,3.1,0,0,1-2.75,1.37q-3.62,0-3.62-5.42a9.78,9.78,0,0,1,.4-3.09,3.38,3.38,0,0,1,1.19-1.77,3.47,3.47,0,0,1,2.09-.57,3,3,0,0,1,2.74,1.35A7.69,7.69,0,0,1,351.28,220.42Zm-2.11,0a14.47,14.47,0,0,0-.14-2.27,2.39,2.39,0,0,0-.46-1.16,1.13,1.13,0,0,0-.91-.35,1.24,1.24,0,0,0-1,.35,2.28,2.28,0,0,0-.47,1.16,14.47,14.47,0,0,0-.14,2.27,13,13,0,0,0,.15,2.25,2.47,2.47,0,0,0,.46,1.17,1.21,1.21,0,0,0,.93.35,1.15,1.15,0,0,0,.92-.37,2.36,2.36,0,0,0,.47-1.19A12.77,12.77,0,0,0,349.17,220.42Z"/><path d="M359.81,220.42a7.35,7.35,0,0,1-.92,4.05,3.1,3.1,0,0,1-2.75,1.37q-3.63,0-3.63-5.42a10.08,10.08,0,0,1,.4-3.09,3.44,3.44,0,0,1,1.19-1.77,3.53,3.53,0,0,1,2.1-.57,3,3,0,0,1,2.74,1.35A7.69,7.69,0,0,1,359.81,220.42Zm-2.12,0a13.34,13.34,0,0,0-.14-2.27,2.39,2.39,0,0,0-.45-1.16,1.16,1.16,0,0,0-.92-.35,1.27,1.27,0,0,0-1,.35,2.28,2.28,0,0,0-.46,1.16,13.34,13.34,0,0,0-.14,2.27,14.36,14.36,0,0,0,.14,2.25,2.47,2.47,0,0,0,.47,1.17,1.19,1.19,0,0,0,.92.35,1.17,1.17,0,0,0,.93-.37,2.56,2.56,0,0,0,.47-1.19A12.94,12.94,0,0,0,357.69,220.42Z"/><path d="M60.18,454.61v8.84H58v-8.84H54.57V452.9h9v1.71Z"/><path d="M74.77,458.13a6.22,6.22,0,0,1-.65,2.89,4.5,4.5,0,0,1-1.87,1.92,5.83,5.83,0,0,1-2.83.66,5.16,5.16,0,0,1-3.89-1.46,5.52,5.52,0,0,1-1.42-4,5.39,5.39,0,0,1,1.41-4,6.1,6.1,0,0,1,7.84,0A5.41,5.41,0,0,1,74.77,458.13Zm-2.26,0a4.06,4.06,0,0,0-.81-2.68,2.76,2.76,0,0,0-2.26-1,2.83,2.83,0,0,0-2.29,1,4.89,4.89,0,0,0,0,5.42,2.75,2.75,0,0,0,2.25,1,2.8,2.8,0,0,0,2.29-1A4.26,4.26,0,0,0,72.51,458.13Z"/><path d="M81.2,454.61v8.84H79v-8.84H75.58V452.9h9v1.71Z"/><path d="M92.12,463.45l-.94-2.7h-4l-.93,2.7H84l3.85-10.55h2.6l3.83,10.55Zm-3-8.92,0,.16c-.05.18-.11.39-.18.62s-.5,1.49-1.28,3.78h3l-1-3-.32-1Z"/><path d="M95.73,463.45V452.9h2.21v8.84h5.66v1.71Z"/><path d="M118.48,458.1a6,6,0,0,1-.64,2.85,4.45,4.45,0,0,1-1.81,1.86,5.59,5.59,0,0,1-2.68.64h-4.27V452.9h3.82a5.84,5.84,0,0,1,4.12,1.35A5,5,0,0,1,118.48,458.1Zm-2.22,0a3.55,3.55,0,0,0-.89-2.6,3.4,3.4,0,0,0-2.52-.89h-1.56v7.13h1.87a2.8,2.8,0,0,0,2.26-1A4,4,0,0,0,116.26,458.1Z"/><path d="M124.54,463.6a4.75,4.75,0,0,1-3.34-1.06,3.94,3.94,0,0,1-1.16-3v-6.6h2.21v6.43a2.68,2.68,0,0,0,.6,1.89,2.26,2.26,0,0,0,1.75.65,2.37,2.37,0,0,0,1.81-.68,2.7,2.7,0,0,0,.64-1.94V452.9h2.21v6.48A4,4,0,0,1,128,462.5,5.1,5.1,0,0,1,124.54,463.6Z"/><path d="M131.22,463.45V452.9h8.29v1.71h-6.08v2.65h5.63V459h-5.63v2.77h6.39v1.71Z"/><path d="M141.89,457.82v-2.11h2.16v2.11Zm0,5.63v-2.1h2.16v2.1Z"/><path d="M332.72,460.37a2.56,2.56,0,0,1-.91,2.09,4.48,4.48,0,0,1-2.69.82v1.31h-.82V463.3a4.25,4.25,0,0,1-2.51-.76,3.44,3.44,0,0,1-1.18-2.14l1.92-.36a2.08,2.08,0,0,0,.56,1.24,2,2,0,0,0,1.21.47v-2.93l-.11,0-.12,0a6.21,6.21,0,0,1-1.83-.65,2.93,2.93,0,0,1-1-1,2.84,2.84,0,0,1-.33-1.42,2.3,2.3,0,0,1,.85-1.92,4.2,4.2,0,0,1,2.5-.75v-1h.82v1a4.87,4.87,0,0,1,1.63.31,2.53,2.53,0,0,1,1.06.81,4.4,4.4,0,0,1,.65,1.5l-2,.3a2,2,0,0,0-.44-1,1.48,1.48,0,0,0-.92-.44v2.64h.08a7.44,7.44,0,0,1,1.32.36,3.27,3.27,0,0,1,1.65,1.06A2.74,2.74,0,0,1,332.72,460.37Zm-4.42-5.86c-.93.07-1.39.47-1.39,1.2a1.28,1.28,0,0,0,.11.55,1.06,1.06,0,0,0,.34.36,5.49,5.49,0,0,0,.94.38Zm2.47,5.89a1.2,1.2,0,0,0-.13-.61,1,1,0,0,0-.4-.39,6.13,6.13,0,0,0-1.12-.4v2.75Q330.77,461.63,330.77,460.4Z"/><path d="M333.9,463.45v-1.57h2.61v-7.19L334,456.27v-1.65l2.65-1.72h2v9H341v1.57Z"/><path d="M349.36,458.17a7.35,7.35,0,0,1-.92,4.05,3.08,3.08,0,0,1-2.75,1.38c-2.42,0-3.62-1.81-3.62-5.43a10.2,10.2,0,0,1,.39-3.09,3.44,3.44,0,0,1,1.19-1.77,3.53,3.53,0,0,1,2.1-.56,3,3,0,0,1,2.74,1.35A7.62,7.62,0,0,1,349.36,458.17Zm-2.11,0a13.23,13.23,0,0,0-.15-2.27,2.38,2.38,0,0,0-.45-1.16,1.19,1.19,0,0,0-.92-.35,1.24,1.24,0,0,0-1,.36,2.21,2.21,0,0,0-.46,1.16,14.33,14.33,0,0,0-.14,2.26,13.18,13.18,0,0,0,.15,2.26,2.29,2.29,0,0,0,.46,1.16,1.16,1.16,0,0,0,.92.35,1.17,1.17,0,0,0,.93-.37,2.41,2.41,0,0,0,.47-1.18A12.9,12.9,0,0,0,347.25,458.17Z"/><path d="M357.88,458.17a7.36,7.36,0,0,1-.91,4.05,3.08,3.08,0,0,1-2.75,1.38q-3.63,0-3.63-5.43a9.86,9.86,0,0,1,.4-3.09,3.38,3.38,0,0,1,1.19-1.77,3.53,3.53,0,0,1,2.1-.56A3,3,0,0,1,357,454.1,7.62,7.62,0,0,1,357.88,458.17Zm-2.11,0a14.56,14.56,0,0,0-.14-2.27,2.38,2.38,0,0,0-.46-1.16,1.17,1.17,0,0,0-.91-.35,1.24,1.24,0,0,0-1,.36,2.29,2.29,0,0,0-.47,1.16,19,19,0,0,0,0,4.52,2.29,2.29,0,0,0,.47,1.16,1.16,1.16,0,0,0,.92.35,1.17,1.17,0,0,0,.93-.37,2.51,2.51,0,0,0,.47-1.18A14.2,14.2,0,0,0,355.77,458.17Z"/><path d="M64.1,474.64a3.67,3.67,0,0,1-.46,1.82,3.17,3.17,0,0,1-1.33,1.23,4.41,4.41,0,0,1-2.06.44H57.63v3.71H55.42V471.3h4.74a4.39,4.39,0,0,1,2.92.87A3.06,3.06,0,0,1,64.1,474.64Zm-2.22,0c0-1.1-.66-1.66-2-1.66H57.63v3.42H60a2,2,0,0,0,1.4-.45A1.69,1.69,0,0,0,61.88,474.67Z"/><path d="M72,481.84,71,479.15H67l-.93,2.69H63.87l3.84-10.54h2.61l3.83,10.54Zm-3-8.92,0,.17c0,.18-.11.38-.18.61s-.5,1.49-1.28,3.79h3l-1-3-.33-1Z"/><path d="M75.58,481.84V471.3h2.21v10.54Z"/><path d="M89.24,476.49a6,6,0,0,1-.64,2.85,4.39,4.39,0,0,1-1.81,1.86,5.45,5.45,0,0,1-2.68.64H79.84V471.3h3.82a5.87,5.87,0,0,1,4.12,1.34A5,5,0,0,1,89.24,476.49Zm-2.22,0a3.58,3.58,0,0,0-.88-2.59,3.38,3.38,0,0,0-2.53-.9H82.05v7.14h1.87a2.83,2.83,0,0,0,2.26-1A4,4,0,0,0,87,476.49Z"/><path d="M91.36,476.22V474.1h2.16v2.12Zm0,5.62v-2.1h2.16v2.1Z"/><path d="M333.29,478.76a2.56,2.56,0,0,1-.91,2.1,4.37,4.37,0,0,1-2.69.81V483h-.81V481.7a4.3,4.3,0,0,1-2.51-.76,3.46,3.46,0,0,1-1.18-2.15l1.91-.35a2.18,2.18,0,0,0,.57,1.24,2,2,0,0,0,1.21.47v-2.93l-.11,0-.12,0a6.48,6.48,0,0,1-1.83-.66,2.68,2.68,0,0,1-1-1,2.81,2.81,0,0,1-.34-1.42,2.33,2.33,0,0,1,.86-1.92,4.24,4.24,0,0,1,2.5-.74v-1h.81v1a4.93,4.93,0,0,1,1.64.31,2.42,2.42,0,0,1,1.05.8,4.1,4.1,0,0,1,.65,1.51l-2,.29a2,2,0,0,0-.44-1,1.46,1.46,0,0,0-.93-.44v2.63l.09,0a7.44,7.44,0,0,1,1.32.36,3.36,3.36,0,0,1,1.65,1.06A2.77,2.77,0,0,1,333.29,478.76Zm-4.41-5.85c-.93.07-1.39.47-1.39,1.19a1.12,1.12,0,0,0,.11.55.9.9,0,0,0,.34.36,4.49,4.49,0,0,0,.94.38Zm2.47,5.88a1.22,1.22,0,0,0-.14-.61,1.12,1.12,0,0,0-.39-.39,6.59,6.59,0,0,0-1.13-.39v2.75C330.8,480.07,331.35,479.62,331.35,478.79Z"/><path d="M334.48,481.84v-1.56h2.61v-7.19l-2.53,1.58V473l2.64-1.71h2v9h2.42v1.56Z"/><path d="M349.93,476.57a7.36,7.36,0,0,1-.91,4.05,3.07,3.07,0,0,1-2.75,1.37c-2.42,0-3.63-1.8-3.63-5.42a9.78,9.78,0,0,1,.4-3.09,3.38,3.38,0,0,1,1.19-1.77,3.53,3.53,0,0,1,2.1-.57,3,3,0,0,1,2.73,1.36A7.62,7.62,0,0,1,349.93,476.57Zm-2.11,0a14.47,14.47,0,0,0-.14-2.27,2.39,2.39,0,0,0-.46-1.16,1.17,1.17,0,0,0-.91-.35,1.27,1.27,0,0,0-1,.35,2.37,2.37,0,0,0-.47,1.16,14.7,14.7,0,0,0-.13,2.27,13.23,13.23,0,0,0,.14,2.25,2.33,2.33,0,0,0,.47,1.17,1.19,1.19,0,0,0,.92.35,1.17,1.17,0,0,0,.93-.37,2.56,2.56,0,0,0,.47-1.19A14.06,14.06,0,0,0,347.82,476.57Z"/><path d="M358.46,476.57a7.35,7.35,0,0,1-.92,4.05,3.07,3.07,0,0,1-2.75,1.37c-2.41,0-3.62-1.8-3.62-5.42a9.78,9.78,0,0,1,.4-3.09,3.38,3.38,0,0,1,1.19-1.77,3.47,3.47,0,0,1,2.09-.57,3,3,0,0,1,2.74,1.36A7.62,7.62,0,0,1,358.46,476.57Zm-2.11,0a14.47,14.47,0,0,0-.14-2.27,2.39,2.39,0,0,0-.46-1.16,1.17,1.17,0,0,0-.91-.35,1.24,1.24,0,0,0-1,.35,2.28,2.28,0,0,0-.47,1.16,14.47,14.47,0,0,0-.14,2.27,13,13,0,0,0,.15,2.25,2.43,2.43,0,0,0,.46,1.17,1.2,1.2,0,0,0,.93.35,1.15,1.15,0,0,0,.92-.37,2.36,2.36,0,0,0,.47-1.19A12.77,12.77,0,0,0,356.35,476.57Z"/><path d="M64.77,497.23a2.62,2.62,0,0,1-1.07,2.23,5,5,0,0,1-3,.78H55.42V489.69h4.83a5.27,5.27,0,0,1,2.92.67,2.23,2.23,0,0,1,1,2,2.36,2.36,0,0,1-.5,1.52,2.53,2.53,0,0,1-1.52.83,3.19,3.19,0,0,1,1.95.81A2.3,2.3,0,0,1,64.77,497.23Zm-2.83-4.59a1.13,1.13,0,0,0-.45-1,2.44,2.44,0,0,0-1.34-.3H57.63V494h2.53a2.21,2.21,0,0,0,1.36-.33A1.16,1.16,0,0,0,61.94,492.64Zm.62,4.42c0-1-.71-1.48-2.13-1.48h-2.8v3h2.88a2.59,2.59,0,0,0,1.56-.38A1.42,1.42,0,0,0,62.56,497.06Z"/><path d="M74,500.24,73,497.55H69l-.93,2.69H65.85l3.85-10.55h2.6l3.84,10.55Zm-3-8.92,0,.16c0,.18-.11.39-.18.62s-.5,1.49-1.29,3.78h3l-1-3-.32-1Z"/><path d="M77.57,500.24V489.69h2.2v8.84h5.66v1.71Z"/><path d="M94.39,500.24l-.94-2.69h-4l-.94,2.69h-2.2l3.84-10.55h2.61l3.83,10.55Zm-3-8.92,0,.16c0,.18-.11.39-.18.62s-.5,1.49-1.29,3.78h3l-1-3-.33-1Z"/><path d="M104.42,500.24l-4.59-8.12A17.36,17.36,0,0,1,100,494v6.22H98V489.69h2.52l4.67,8.19a17.5,17.5,0,0,1-.14-2.05v-6.14h2v10.55Z"/><path d="M114,498.65a2.78,2.78,0,0,0,2.77-2l1.93.72a4.67,4.67,0,0,1-1.82,2.28,5.46,5.46,0,0,1-2.88.74,5.23,5.23,0,0,1-3.94-1.44,6.57,6.57,0,0,1,0-8,5.15,5.15,0,0,1,3.89-1.39,5.56,5.56,0,0,1,3,.74,4,4,0,0,1,1.64,2.19l-1.94.53a2.29,2.29,0,0,0-1-1.26,3.09,3.09,0,0,0-1.71-.47,2.8,2.8,0,0,0-2.27.93,4.2,4.2,0,0,0-.77,2.72,4.26,4.26,0,0,0,.79,2.78A2.87,2.87,0,0,0,114,498.65Z"/><path d="M120.14,500.24V489.69h8.3v1.71h-6.09v2.65H128v1.71h-5.63v2.77h6.39v1.71Z"/><path d="M130.82,494.61V492.5H133v2.11Zm0,5.63v-2.1H133v2.1Z"/><path d="M359.56,495a7.31,7.31,0,0,1-.92,4.05,3.07,3.07,0,0,1-2.75,1.38q-3.61,0-3.62-5.43a9.86,9.86,0,0,1,.4-3.09,3.35,3.35,0,0,1,1.19-1.76,3.47,3.47,0,0,1,2.09-.57,3,3,0,0,1,2.74,1.35A7.62,7.62,0,0,1,359.56,495Zm-2.11,0a14.41,14.41,0,0,0-.14-2.26,2.39,2.39,0,0,0-.46-1.16,1.14,1.14,0,0,0-.91-.36,1.21,1.21,0,0,0-1,.36,2.24,2.24,0,0,0-.47,1.16,14.41,14.41,0,0,0-.14,2.26,13.1,13.1,0,0,0,.15,2.26,2.39,2.39,0,0,0,.46,1.16,1.35,1.35,0,0,0,1.85,0,2.4,2.4,0,0,0,.47-1.19A12.82,12.82,0,0,0,357.45,495Z"/><path class="cls-3" d="M96.26,319.8a92.14,92.14,0,0,1,3.81-14.47q2-5.49,5.42-13.88A49.81,49.81,0,0,1,109,284a3.6,3.6,0,0,1,2.17-1.55c.71-.15,1.12,0,1.23.55a2.13,2.13,0,0,1-.24,1.19q-.3.74-2,4.33A145.5,145.5,0,0,0,102.53,308a123.67,123.67,0,0,0-3,13,9.51,9.51,0,0,1-1.19,3.47,4.32,4.32,0,0,1-2.65,2.12q-1.37.29-2.07-1.29a12.18,12.18,0,0,1-.7-2.53,80.37,80.37,0,0,1-1.5-15.11,99.34,99.34,0,0,1,.46-12q-2.59,3.61-7,14.35a73.61,73.61,0,0,0-4.64,15.49,18,18,0,0,1-.81,3.62,2.68,2.68,0,0,1-2,1.69,1.34,1.34,0,0,1-1-.19,1,1,0,0,1-.47-.6c-.15-.7.19-2.72,1-6.05a112.1,112.1,0,0,1,6.16-17q2.73-6.28,6.78-13.57a25,25,0,0,1,3-4.6,3.83,3.83,0,0,1,2-1.22,1.39,1.39,0,0,1,.81.06.91.91,0,0,1,.62.66,3,3,0,0,1-.07,1.32,79.28,79.28,0,0,0-.58,27.37C95.69,317.55,95.92,318.51,96.26,319.8Z"/><path class="cls-3" d="M117.63,300.93c1.82-.38,2.93.36,3.31,2.22q.77,3.71-2.15,10.24-3.18,7.08-7.35,7.94a3.11,3.11,0,0,1-3.14-.92,3.45,3.45,0,0,1-.84-1.71q-.73-3.57,1.32-8.35A21,21,0,0,1,114,303,8.12,8.12,0,0,1,117.63,300.93Zm-1.28,11.25c-.63-.26-1-.49-1-.69s.24-.63.81-1.45q2.41-3.44,2.06-5.16a.74.74,0,0,0-.26-.41.94.94,0,0,0-.92-.25c-.71.15-1.63.94-2.77,2.38a18.24,18.24,0,0,0-3.11,5.44,9.37,9.37,0,0,0-.7,4.82,1.28,1.28,0,0,0,.47.77,1.41,1.41,0,0,0,1.2.28c1.07-.23,2.07-1.13,3-2.72a9,9,0,0,0,.94-2A4.32,4.32,0,0,0,116.35,312.18Z"/><path class="cls-3" d="M127.27,307.71l.7-.84q5.78-7.12,8.14-7.62c.87-.18,1.38.13,1.55.93a3.2,3.2,0,0,1-.76,2.22q-5.07,7.53-4.09,12.27a5,5,0,0,0,1.61,2.71,2.11,2.11,0,0,1,.67.91.83.83,0,0,1-.27.72,1.5,1.5,0,0,1-.95.61,2.76,2.76,0,0,1-2.6-1,6,6,0,0,1-1.58-3.13q-.78-3.75,1.67-9-4,3.36-6.65,10.33c-.46,1.12-1.07,1.76-1.82,1.92a1.36,1.36,0,0,1-1-.15,1.26,1.26,0,0,1-.68-.9q-.31-1.5,2.46-8.73a59.8,59.8,0,0,1,2.43-5.74c.63-1.19,1.24-1.85,1.84-2a1.33,1.33,0,0,1,.91.17,1.17,1.17,0,0,1,.65.79,3.42,3.42,0,0,1-.61,2A31.5,31.5,0,0,0,127.27,307.71Z"/><path class="cls-3" d="M144,302.26c.69-.14,1.5-.29,2.44-.45,1.92-.34,3.14-.56,3.65-.67a6.24,6.24,0,0,1,2.64-.17,1.31,1.31,0,0,1,.85,1.11,1.63,1.63,0,0,1-.29,1.42,1.33,1.33,0,0,1-.75.42c-.22,0-.58.1-1.08.16-.83.1-3,.51-6.55,1.25a28.4,28.4,0,0,0-4.76,1.3A6.46,6.46,0,0,1,139,307a1.58,1.58,0,0,1-1.92-1.23,1.71,1.71,0,0,1,1.24-2.08A38,38,0,0,1,144,302.26Z"/><path class="cls-3" d="M163.48,297.39A82.6,82.6,0,0,0,159.76,310a10.2,10.2,0,0,1-.8,3,2.24,2.24,0,0,1-1.35.68,1.66,1.66,0,0,1-1.32-.19,1.23,1.23,0,0,1-.58-.78q-.27-1.31,1.55-7.58A97.06,97.06,0,0,1,161,294.68a6.29,6.29,0,0,1-.87-1.86,1.74,1.74,0,0,1,.55-1.68,1.7,1.7,0,0,1,.87-.47,3.39,3.39,0,0,1,1.26,0q.35-.82,2.6-6.09a63.15,63.15,0,0,0,2-6.11c-.56.34-1,.64-1.31.88a2.48,2.48,0,0,1-.85.43.92.92,0,0,1-.81-.23,1.14,1.14,0,0,1-.38-.65c-.19-.93.38-1.9,1.72-2.92a28.08,28.08,0,0,1,2.81-1.88,8.85,8.85,0,0,1,.34-1.88,1.65,1.65,0,0,1,1.34-1.06,2.48,2.48,0,0,1,2.18.65c1-.47,1.94-.87,2.86-1.2a22.26,22.26,0,0,1,2.64-.75q3.87-.79,6.24.62a5.69,5.69,0,0,1,2.78,3.87q.86,4.1-2.22,8.54a24.33,24.33,0,0,1-8.51,7.2,31.93,31.93,0,0,1-8.77,3.27c-.51.1-1.29.24-2.35.4a20.74,20.74,0,0,0,2.14,3.1l6.1,7q1.11,1.2,3.54,3.34a2.17,2.17,0,0,1,.75,1.12,1.31,1.31,0,0,1-.52,1.15,2.74,2.74,0,0,1-1.21.72q-.84.17-2.07-1.11l-1.52-1.49A86.69,86.69,0,0,1,163.48,297.39Zm2.81-6.86c.86-.14,1.49-.25,1.91-.34a23.09,23.09,0,0,0,12.05-6.71,16.6,16.6,0,0,0,3.41-5,5.32,5.32,0,0,0,.4-3.28A2.84,2.84,0,0,0,182.3,273a7.05,7.05,0,0,0-3.92,0,15.32,15.32,0,0,0-4.41,1.67c-.56.31-1.35.79-2.37,1.45-.47,1.64-1.29,4.06-2.46,7.23S167,288.89,166.29,290.53Z"/><path class="cls-3" d="M185,300.13l.11.5a1.62,1.62,0,0,0,.58,1,3.37,3.37,0,0,0,2.95.47q4.16-.87,8.51-7.34a2.73,2.73,0,0,1,1.44-1.26.9.9,0,0,1,.73.17.65.65,0,0,1,.29.37q.23,1.1-2.44,4.34a24.52,24.52,0,0,1-4.64,4.42,12.93,12.93,0,0,1-5,2.37,5.35,5.35,0,0,1-4.23-.63A3.88,3.88,0,0,1,181.8,302q-1-4.71,3.38-10.32c2.36-3,4.6-4.79,6.73-5.23a2.92,2.92,0,0,1,1.66.12,1.82,1.82,0,0,1,1.18,1.36,6.61,6.61,0,0,1-.88,4C192.24,295.31,189.3,298.06,185,300.13Zm.29-2.33a14.87,14.87,0,0,0,3.35-2.26,13.85,13.85,0,0,0,3-4.16,2.16,2.16,0,0,0,.25-1.3c-.08-.38-.33-.52-.75-.43a5.21,5.21,0,0,0-2.24,1.6A15,15,0,0,0,185.31,297.8Z"/><path class="cls-3" d="M203.79,288.11a95.67,95.67,0,0,1,6.86-17,47.61,47.61,0,0,1,4.28-6.82,4.38,4.38,0,0,1,2.3-1.78,1.19,1.19,0,0,1,.75.07.88.88,0,0,1,.62.66c.09.41-.18,1.07-.8,2A82.85,82.85,0,0,0,208,284.8a29.93,29.93,0,0,1,7.07-3.24,4.69,4.69,0,0,1,2.66.12,1.9,1.9,0,0,1,1.35,1.32,1.11,1.11,0,0,1-.2.88,1.73,1.73,0,0,1-1.19.8,7.1,7.1,0,0,1-2.39-.32,3.37,3.37,0,0,0-1.24.06c-2.22.46-4.71,1.85-7.46,4.19a5.76,5.76,0,0,1,3.25,1.47,8.43,8.43,0,0,1,2.06,4.22q1.41,6.82-1.88,15.41a23.32,23.32,0,0,1-3,5.75,6.77,6.77,0,0,1-3.92,2.7,3.33,3.33,0,0,1-3-.78,5.09,5.09,0,0,1-1.46-2.86q-.85-4.12,1.16-13.17c.17-.74.71-2.64,1.6-5.71.23-.76.45-1.57.64-2.43a2,2,0,0,1-.49.16.78.78,0,0,1-1.07-.65C200.24,291.74,201.35,290.2,203.79,288.11Zm1.89,3.41a95.12,95.12,0,0,0-3,10.55q-1.77,7.37-1,11.07a2,2,0,0,0,.7,1.19,1.44,1.44,0,0,0,1.21.34q2.07-.44,4.23-6.92,2.46-7.26,1.34-12.63a4.67,4.67,0,0,0-1.62-2.95A5.66,5.66,0,0,0,205.68,291.52Z"/><path class="cls-3" d="M225.61,292.85a30.81,30.81,0,0,1-2,3.2,5.87,5.87,0,0,1-3.46,2.58,3.05,3.05,0,0,1-2.79-.7,3.53,3.53,0,0,1-1.06-1.93q-.74-3.6,2-9a16,16,0,0,1,2.67-4,4.14,4.14,0,0,1,1.94-1.36,1.37,1.37,0,0,1,.94.15.88.88,0,0,1,.46.55c.07.35-.22,1-.88,2a29.39,29.39,0,0,0-3.14,5.94,9.24,9.24,0,0,0-.79,4.58.84.84,0,0,0,.34.55.85.85,0,0,0,.66.08q1.69-.34,3.89-5a25,25,0,0,0,1.72-5.24,9.17,9.17,0,0,1,1.06-2.8,2.64,2.64,0,0,1,1.62-1.36,1.32,1.32,0,0,1,1,.18,1.2,1.2,0,0,1,.61.77c.14.67-.32,2.33-1.36,5a8.19,8.19,0,0,0-.73,4.36A4.4,4.4,0,0,0,230,294a7.57,7.57,0,0,0,2,.68,1.26,1.26,0,0,1,1,1,1.11,1.11,0,0,1-.34,1,2.21,2.21,0,0,1-1.17.62,4.83,4.83,0,0,1-3.27-.49,4.7,4.7,0,0,1-2.16-2.57A12,12,0,0,1,225.61,292.85Z"/><path class="cls-3" d="M237.87,284.79c.24-.28.48-.56.7-.84q5.77-7.12,8.14-7.61c.87-.18,1.38.13,1.55.93a3.23,3.23,0,0,1-.76,2.22q-5.07,7.53-4.09,12.26a5,5,0,0,0,1.61,2.72,1.93,1.93,0,0,1,.67.91.83.83,0,0,1-.27.72,1.49,1.49,0,0,1-.95.6,2.73,2.73,0,0,1-2.59-1,6,6,0,0,1-1.59-3.13q-.78-3.77,1.67-9-4,3.36-6.65,10.32c-.46,1.13-1.07,1.77-1.82,1.92a1.35,1.35,0,0,1-1-.14,1.28,1.28,0,0,1-.68-.91c-.21-1,.62-3.91,2.46-8.73a60.51,60.51,0,0,1,2.43-5.73c.63-1.19,1.25-1.86,1.85-2a1.31,1.31,0,0,1,.9.16,1.19,1.19,0,0,1,.65.8,3.42,3.42,0,0,1-.6,2A31.57,31.57,0,0,0,237.87,284.79Z"/><path class="cls-3" d="M260.06,273.2q2.12-6.52,4.19-11.45a54.52,54.52,0,0,1,2.81-6.07,3.16,3.16,0,0,1,1.88-1.64,1.53,1.53,0,0,1,1,.16,1.08,1.08,0,0,1,.56.7,4.71,4.71,0,0,1-.69,2.38q-3.48,7.52-6.11,15.07-3,8.79-2.23,12.69a4,4,0,0,0,1.25,2.35,5.81,5.81,0,0,0,1.38.65c.15.06.26.23.32.51a1.42,1.42,0,0,1-.31,1.13,1.77,1.77,0,0,1-1,.7,2.88,2.88,0,0,1-1.86-.43,4.47,4.47,0,0,1-2.13-2.24c-.15-.39-.39-1.14-.71-2.23q-2.4,6-5.57,6.64a3.38,3.38,0,0,1-3.28-1.12,4.75,4.75,0,0,1-1.27-2.44q-.9-4.33,2-9.53t7.19-6A5.16,5.16,0,0,1,260.06,273.2Zm-.66,2.51a3.41,3.41,0,0,0-1.67-.17c-1.86.38-3.43,1.71-4.7,4q-2.52,4.42-1.8,7.9a1.66,1.66,0,0,0,.36.74,1.33,1.33,0,0,0,1.35.45c.77-.16,1.58-1,2.43-2.48a33.59,33.59,0,0,0,2.9-6.79c.28-.87.56-1.74.82-2.61l.19-.59Z"/><path class="cls-3" d="M275.43,282.18a21.35,21.35,0,0,1-1.6,3.18,6.06,6.06,0,0,1-3.71,3,3.33,3.33,0,0,1-3.09-.84,3.81,3.81,0,0,1-1.08-2.05,13.37,13.37,0,0,1,.92-7.3,19.52,19.52,0,0,1,4.93-7.68,9.15,9.15,0,0,1,4.33-2.41,3.81,3.81,0,0,1,2.48.24,1.9,1.9,0,0,1,1.1,1.29,4.13,4.13,0,0,1-.21,1.81,1.73,1.73,0,0,1,.71.93,4.43,4.43,0,0,1-.53,2.12,19.79,19.79,0,0,0-1.18,4,10.56,10.56,0,0,0-.24,4.05,2.51,2.51,0,0,0,1.23,1.75,6.53,6.53,0,0,0,1.5.36,1.2,1.2,0,0,1,1.07,1,1,1,0,0,1-.28,1,2,2,0,0,1-1.09.6,4.27,4.27,0,0,1-3.38-.69,3.85,3.85,0,0,1-1.63-2.51C275.6,283.68,275.52,283.06,275.43,282.18Zm2.27-10a2.93,2.93,0,0,0-1.06-.73,1.92,1.92,0,0,0-1.06-.09c-1.68.35-3.26,2-4.72,4.85Q268.45,281,269,283.8a1.63,1.63,0,0,0,.54,1,1.19,1.19,0,0,0,1,.17c1.07-.22,2.11-1.43,3.14-3.62a43.23,43.23,0,0,0,2-5.21,24.8,24.8,0,0,1,1.16-3A4.56,4.56,0,0,1,277.7,272.16Z"/><path class="cls-3" d="M289.54,268.8a9.29,9.29,0,0,1,4.68-3.06,3,3,0,0,1,2.5.5,2.88,2.88,0,0,1,1.25,1.83,11.66,11.66,0,0,1-.61,5.62,22.81,22.81,0,0,1-4.17,7.52,9.28,9.28,0,0,1-5.15,3.62,5.24,5.24,0,0,1-1.88.07,4.25,4.25,0,0,1-1.64-.62l-.23.57a7.73,7.73,0,0,1-.52,1.42.94.94,0,0,1-.64.36,1.55,1.55,0,0,1-1.25-.35,1.21,1.21,0,0,1-.54-.76q-.16-.78,2.19-8.68a186.76,186.76,0,0,1,8.34-22.29q2-4.61,2.52-5.43c.35-.66.72-1,1.12-1.11a1.78,1.78,0,0,1,1.43.35,1.35,1.35,0,0,1,.56.84,2.85,2.85,0,0,1-.33,1.61q-.09.23-1.5,3.3A105.62,105.62,0,0,0,289.54,268.8ZM286.43,282a2.32,2.32,0,0,0,1.14.05q2.9-.6,5.26-5.48a19.65,19.65,0,0,0,1.58-4.25,7,7,0,0,0,.25-2.63,1,1,0,0,0-.47-.76,1.39,1.39,0,0,0-1-.08,6.56,6.56,0,0,0-3.34,2.53,20.78,20.78,0,0,0-3.22,5.87c-.46,1.17-.83,2.27-1.13,3.28l-.28.84A4.18,4.18,0,0,0,286.43,282Z"/><path class="cls-3" d="M304.31,271.35c-.36,1.59-.62,2.86-.77,3.82a6.3,6.3,0,0,0-.11,2c.09.46.41.64.94.53.8-.17,1.7-1,2.71-2.54a34.37,34.37,0,0,0,2-3.86c.34-.73.76-1.15,1.27-1.25s.91.05,1,.51c.17.8-.6,2.64-2.29,5.53s-3.62,4.73-5.57,5.14a2.71,2.71,0,0,1-2.25-.47,2.37,2.37,0,0,1-.89-1.44,12.84,12.84,0,0,1,.24-4.55,62.73,62.73,0,0,1,2-7.41,94.25,94.25,0,0,1,8.25-19q3.68-6.22,6.81-6.87a2.22,2.22,0,0,1,1.76.3,2,2,0,0,1,1,1.34q.81,3.9-5.64,14.71a74.73,74.73,0,0,1-7.25,9.92C306.69,268.63,305.64,269.83,304.31,271.35Zm1.45-4.92a55.59,55.59,0,0,0,9.79-15.1q2-4.52,1.75-5.8a.56.56,0,0,0-.76-.48q-1.83.38-5.4,7.48A86.23,86.23,0,0,0,305.76,266.43Z"/><path class="cls-3" d="M315.68,273.06l.1.5a1.63,1.63,0,0,0,.59,1,3.36,3.36,0,0,0,2.94.47c2.78-.57,5.61-3,8.52-7.34a2.67,2.67,0,0,1,1.44-1.26,1,1,0,0,1,.73.17.64.64,0,0,1,.28.38c.15.72-.66,2.17-2.43,4.33a24.5,24.5,0,0,1-4.64,4.42,13,13,0,0,1-5,2.37,5.37,5.37,0,0,1-4.23-.63,3.85,3.85,0,0,1-1.53-2.53q-1-4.71,3.39-10.32c2.35-3,4.59-4.79,6.73-5.23a2.89,2.89,0,0,1,1.65.12,1.85,1.85,0,0,1,1.19,1.36,6.68,6.68,0,0,1-.88,4Q322.08,270,315.68,273.06Zm.28-2.32a15,15,0,0,0,3.35-2.27,13.67,13.67,0,0,0,3-4.16,2.09,2.09,0,0,0,.25-1.3c-.07-.37-.32-.52-.74-.43a5.1,5.1,0,0,0-2.24,1.6A14.91,14.91,0,0,0,316,270.74Z"/><path class="cls-3" d="M155.85,354.85l-.29.93q-2.22,6.74-2.86,9.54-1,4.38-1.06,5.1c-.2,1.34-.69,2.09-1.44,2.25a1.83,1.83,0,0,1-1.49-.33,1.7,1.7,0,0,1-.74-1q-.5-2.4,4.23-16.65c-1-.38-1.57-.84-1.68-1.4A1.38,1.38,0,0,1,151,352a2.26,2.26,0,0,1,1.15-.65,6,6,0,0,1,1.28-.06q3.63-9.75,4.08-12.32c-.51.38-1.14.9-1.9,1.56a3,3,0,0,1-1.22.66,1.25,1.25,0,0,1-1.14-.32,1.28,1.28,0,0,1-.43-.69c-.18-.88.53-2,2.12-3.38q1.92-1.64,3.61-2.84a7.41,7.41,0,0,0,.18-1,3.76,3.76,0,0,1,.4-1.57,1.59,1.59,0,0,1,1.06-.59c1-.22,1.66.15,1.86,1.12,1.46-.69,2.75-1.25,3.89-1.68a20.19,20.19,0,0,1,2.94-.9,8,8,0,0,1,5.89.93,6,6,0,0,1,3,3.94q.87,4.21-2.45,9.28a25.27,25.27,0,0,1-7.77,7.42,26.94,26.94,0,0,1-8.84,3.61A19.44,19.44,0,0,1,155.85,354.85Zm5.8-18.92a58.47,58.47,0,0,1-2.13,7.82q-2,5.87-2.54,7.67a21.38,21.38,0,0,0,2.62-.25,20.69,20.69,0,0,0,8.33-4.4,22.31,22.31,0,0,0,6.37-7.8,7.07,7.07,0,0,0,.86-4.36,2.68,2.68,0,0,0-1.77-2.12,7.7,7.7,0,0,0-4,0,18.88,18.88,0,0,0-3.88,1.26A21.56,21.56,0,0,0,161.65,335.93Z"/><path class="cls-3" d="M183.06,358.3a22.39,22.39,0,0,1-1.59,3.18,6.1,6.1,0,0,1-3.72,3,3.28,3.28,0,0,1-3.09-.84,3.81,3.81,0,0,1-1.08-2.05,13.37,13.37,0,0,1,.92-7.3,19.52,19.52,0,0,1,4.93-7.68,9.15,9.15,0,0,1,4.33-2.41,3.74,3.74,0,0,1,2.48.25,1.86,1.86,0,0,1,1.1,1.28,4.19,4.19,0,0,1-.21,1.82,1.71,1.71,0,0,1,.71.92,4.43,4.43,0,0,1-.53,2.12,19.79,19.79,0,0,0-1.18,4,10.6,10.6,0,0,0-.24,4.06,2.53,2.53,0,0,0,1.23,1.75,7.42,7.42,0,0,0,1.5.35,1.2,1.2,0,0,1,1.07,1,1,1,0,0,1-.28,1,2.08,2.08,0,0,1-1.09.61,4.31,4.31,0,0,1-3.38-.7,3.83,3.83,0,0,1-1.63-2.51C183.23,359.8,183.15,359.18,183.06,358.3Zm2.27-10a2.85,2.85,0,0,0-1.06-.73,1.83,1.83,0,0,0-1.06-.08c-1.68.34-3.26,2-4.72,4.84q-2.42,4.77-1.83,7.61a1.58,1.58,0,0,0,.54,1,1.19,1.19,0,0,0,1,.17c1.07-.22,2.11-1.43,3.14-3.61a44.19,44.19,0,0,0,2-5.22,24.44,24.44,0,0,1,1.16-3A4.56,4.56,0,0,1,185.33,348.28Z"/><path class="cls-3" d="M201,351.25c-1.57,2.36-2.84,4.13-3.82,5.33q-2.92,3.51-5.25,4a2.39,2.39,0,0,1-1.95-.33,2,2,0,0,1-.78-1.28q-.63-3,2.6-8.88c2.19-4,3.92-6.1,5.21-6.37a1.31,1.31,0,0,1,1,.2.93.93,0,0,1,.52.65,1.69,1.69,0,0,1-.16,1.15,28.59,28.59,0,0,1-1.76,2.5,31.23,31.23,0,0,0-2.75,4.29c-.93,1.7-1.32,2.88-1.18,3.55.08.39.35.54.79.45q1.33-.27,4.36-4.07,1.91-2.4,2.93-4c.14-.22.73-1.26,1.78-3.13,1-1.65,1.55-2.63,1.79-2.95A2.85,2.85,0,0,1,206,341a1.43,1.43,0,0,1,1.05.19,1.12,1.12,0,0,1,.57.75,6.25,6.25,0,0,1-.77,3q-1.12,2.64-2,4.92a41.08,41.08,0,0,0-2.07,6.24,18.7,18.7,0,0,0,3.37-3.34,17.35,17.35,0,0,0,2.89-4.49c.26-.83.62-1.29,1.06-1.38.62-.13,1,.06,1.1.58.2,1-.49,2.66-2.09,5a32.24,32.24,0,0,1-7.62,7.8,86.13,86.13,0,0,1-3.36,10.43q-3.25,7.79-8.21,8.82a4.33,4.33,0,0,1-3.53-.64,3.53,3.53,0,0,1-1.49-2.33q-.9-4.35,5.45-10.4a69.27,69.27,0,0,1,5.63-4.65c1-.77,1.82-1.39,2.39-1.86.23-.94.6-2.2,1.13-3.78S200.55,352.62,201,351.25Zm-3.85,12.22a35.61,35.61,0,0,0-6.34,5.78q-3.14,3.64-2.62,6.13a1.19,1.19,0,0,0,.55.81,1.77,1.77,0,0,0,1.4.23q2.5-.51,4.62-5.51c.24-.56.81-2.35,1.73-5.39Z"/><path class="cls-3" d="M216.23,346.55a46.48,46.48,0,0,1,4.13-4.86q2.8-2.76,3.9-3a1.44,1.44,0,0,1,1,.14.88.88,0,0,1,.5.6c.08.35-.19,1-.8,2a15.86,15.86,0,0,0-1.83,3.75q6.44-8.16,9.3-8.75a1.81,1.81,0,0,1,1.09.09,1,1,0,0,1,.64.74c.11.52-.23,1.29-1,2.3q-5.18,6.74-4.45,10.22a2.94,2.94,0,0,0,1,1.91l1.06.74a.87.87,0,0,1,.4.59,1.17,1.17,0,0,1-.26.92,1.69,1.69,0,0,1-1,.68,2.7,2.7,0,0,1-2.28-.75,5.18,5.18,0,0,1-1.81-3,9.39,9.39,0,0,1,.67-5.49,21.33,21.33,0,0,1,1.49-2.86,30.85,30.85,0,0,0-4.75,6.1,29.13,29.13,0,0,0-2.61,5.48,2.2,2.2,0,0,1-1.54,1.62,1,1,0,0,1-1.35-.82q-.24-1.14.89-5.1a42.26,42.26,0,0,1,1.74-4.83,23.37,23.37,0,0,0-6.49,11.74,2.13,2.13,0,0,1-1.58,1.78,1.15,1.15,0,0,1-.93-.15,1.06,1.06,0,0,1-.53-.73q-.35-1.65,1-6.39a48.14,48.14,0,0,1,3.51-9.24c1-2,1.84-3,2.57-3.18s1.06.09,1.18.69a5.58,5.58,0,0,1-.83,2.2A33.61,33.61,0,0,0,216.23,346.55Z"/><path class="cls-3" d="M236.89,346.37l.11.5a1.62,1.62,0,0,0,.58,1,3.41,3.41,0,0,0,2.95.47q4.16-.87,8.51-7.34a2.73,2.73,0,0,1,1.44-1.26.9.9,0,0,1,.73.17.65.65,0,0,1,.29.37c.15.73-.66,2.17-2.44,4.34a24.52,24.52,0,0,1-4.64,4.42,12.93,12.93,0,0,1-5,2.37,5.35,5.35,0,0,1-4.23-.63,3.88,3.88,0,0,1-1.53-2.53q-1-4.71,3.38-10.32c2.36-3,4.6-4.79,6.73-5.23a2.92,2.92,0,0,1,1.66.12,1.8,1.8,0,0,1,1.18,1.36,6.61,6.61,0,0,1-.88,4Q243.3,343.27,236.89,346.37Zm.29-2.33a14.87,14.87,0,0,0,3.35-2.26,13.85,13.85,0,0,0,3-4.16,2.16,2.16,0,0,0,.25-1.3c-.08-.38-.33-.52-.75-.43a5.16,5.16,0,0,0-2.24,1.6A15,15,0,0,0,237.18,344Z"/><path class="cls-3" d="M257.07,337.8q.36-.42.69-.84,5.79-7.12,8.15-7.61a1.13,1.13,0,0,1,1.55.93,3.2,3.2,0,0,1-.76,2.21q-5.07,7.53-4.09,12.27a5,5,0,0,0,1.6,2.72,2,2,0,0,1,.68.9.9.9,0,0,1-.27.73,1.49,1.49,0,0,1-.95.6,2.77,2.77,0,0,1-2.6-1,6,6,0,0,1-1.58-3.13q-.78-3.76,1.67-9-4,3.36-6.65,10.32-.69,1.68-1.83,1.92a1.36,1.36,0,0,1-1-.14,1.28,1.28,0,0,1-.67-.91q-.31-1.5,2.46-8.73a58.27,58.27,0,0,1,2.43-5.73c.63-1.2,1.24-1.86,1.84-2a1.29,1.29,0,0,1,.9.16,1.13,1.13,0,0,1,.65.8,3.3,3.3,0,0,1-.6,1.95A29,29,0,0,0,257.07,337.8Z"/><path class="cls-3" d="M277.68,324.79a43.87,43.87,0,0,0-2.69,7.12q-1.61,5.5-1.1,8a1.51,1.51,0,0,0,.57,1,1.46,1.46,0,0,0,1.12.15c1.11-.23,2.28-1.38,3.49-3.46a32.91,32.91,0,0,0,2-3.78c.3-.7.69-1.1,1.18-1.2a1.09,1.09,0,0,1,.78.1.67.67,0,0,1,.37.44c.15.69-.61,2.44-2.27,5.27-2,3.39-4,5.31-6.17,5.75a3.65,3.65,0,0,1-3.1-.72,3.61,3.61,0,0,1-1.19-2.23,17.76,17.76,0,0,1,.7-8.33c.22-.83.89-2.83,2-6a7.45,7.45,0,0,1-1.33.48,2.79,2.79,0,0,1-1.29,0,1.16,1.16,0,0,1-.93-.83c-.1-.46.14-.9.73-1.31a19.08,19.08,0,0,1,2.39-.87,21.82,21.82,0,0,0,2.22-1,51.65,51.65,0,0,1,2.81-5.55,28.4,28.4,0,0,1,1.58-2.59,2.46,2.46,0,0,1,1.25-1,1.34,1.34,0,0,1,.95.21,1,1,0,0,1,.55.65c.1.48-.32,1.56-1.27,3.25a26.31,26.31,0,0,0-1.36,2.64,28.62,28.62,0,0,1,5.12-1.94c1.22-.25,1.92.05,2.09.91a1,1,0,0,1-.43,1.08,7,7,0,0,1-1.68.63,39.77,39.77,0,0,0-4.8,2.1C279.2,324,278.43,324.4,277.68,324.79Z"/><path class="cls-3" d="M130.56,412.25a43.08,43.08,0,0,0-2.69,7.13c-1.07,3.66-1.44,6.32-1.1,7.95a1.51,1.51,0,0,0,.57,1,1.42,1.42,0,0,0,1.12.14q1.66-.34,3.49-3.45a36.49,36.49,0,0,0,2-3.78,1.79,1.79,0,0,1,1.18-1.21,1.14,1.14,0,0,1,.78.1.71.71,0,0,1,.37.45q.22,1-2.27,5.26c-2,3.4-4,5.31-6.17,5.76a3.48,3.48,0,0,1-4.3-2.95,18,18,0,0,1,.71-8.34q.33-1.23,2-6a7,7,0,0,1-1.32.47,2.66,2.66,0,0,1-1.29,0,1.18,1.18,0,0,1-.94-.82c-.09-.47.15-.9.74-1.32a19.08,19.08,0,0,1,2.39-.87,19.33,19.33,0,0,0,2.22-1,49.82,49.82,0,0,1,2.81-5.55,27,27,0,0,1,1.58-2.59,2.32,2.32,0,0,1,1.25-1,1.34,1.34,0,0,1,.95.21,1,1,0,0,1,.55.64c.1.49-.32,1.57-1.27,3.26a27.5,27.5,0,0,0-1.36,2.63,28.37,28.37,0,0,1,5.12-1.93c1.22-.25,1.92.05,2.09.9a1,1,0,0,1-.43,1.08,6.43,6.43,0,0,1-1.68.64,40.28,40.28,0,0,0-4.81,2.1C132.08,411.48,131.31,411.86,130.56,412.25Z"/><path class="cls-3" d="M146.64,408.89c1.82-.38,2.92.37,3.3,2.22q.78,3.7-2.15,10.24-3.18,7.08-7.34,7.94a3.13,3.13,0,0,1-3.15-.92,3.49,3.49,0,0,1-.84-1.71q-.74-3.57,1.33-8.35A20.73,20.73,0,0,1,143,411,8.07,8.07,0,0,1,146.64,408.89Zm-1.28,11.25c-.64-.26-1-.49-1-.69s.24-.63.82-1.45c1.6-2.29,2.29-4,2.05-5.16a.74.74,0,0,0-.26-.41,1,1,0,0,0-.92-.25c-.71.15-1.63.94-2.77,2.38a18.58,18.58,0,0,0-3.11,5.44,9.47,9.47,0,0,0-.7,4.82,1.3,1.3,0,0,0,.47.77,1.42,1.42,0,0,0,1.21.28c1.06-.22,2.07-1.13,3-2.72a8.59,8.59,0,0,0,.94-2A5.8,5.8,0,0,0,145.36,420.14Z"/><path class="cls-3" d="M184.82,399.24a12.8,12.8,0,0,1,5.22,1.39,7.38,7.38,0,0,1,3.89,5,11.66,11.66,0,0,1-1.27,7.82,18.64,18.64,0,0,1-5.59,6.36,20.63,20.63,0,0,1-8,3.57,21.42,21.42,0,0,1-7.48.07,10.6,10.6,0,0,0-.16,1.07c-.11.94-.47,1.47-1.1,1.6a2.09,2.09,0,0,1-1.85-.58,2.16,2.16,0,0,1-.77-1.2,13.34,13.34,0,0,1,.62-4.4,104,104,0,0,1,3.17-11.15q.93-2.55,4-9.78,1.36-3.13,4-8.59c.42-.86.82-1.73,1.2-2.6a40.3,40.3,0,0,0-3.87,2.31,13.15,13.15,0,0,1-2.32,1.35,1.16,1.16,0,0,1-.95-.23,1.5,1.5,0,0,1-.57-.9,1.36,1.36,0,0,1,.44-1.4,27.79,27.79,0,0,1,4.14-2.81,37.28,37.28,0,0,1,10.54-4.59,10.27,10.27,0,0,1,6,.29,4.45,4.45,0,0,1,3,3.25q.95,4.59-4.71,9.26A40.54,40.54,0,0,1,184.82,399.24Zm-12.77,21.64a12,12,0,0,0,1.81.38,12.54,12.54,0,0,0,3.9-.31,14.89,14.89,0,0,0,10.38-7.06c1.86-3.15,2.53-6,2-8.58a4.74,4.74,0,0,0-3.62-3.58,8,8,0,0,0-4-.1,15.13,15.13,0,0,0-2.4.82,3.32,3.32,0,0,1-.59.18,1.59,1.59,0,0,1-1.54-.7,76.83,76.83,0,0,0-5.93,18.95Zm7.42-22.34a36.14,36.14,0,0,0,10-5.57q5.17-4.12,4.58-7a2.35,2.35,0,0,0-2-1.78,6.55,6.55,0,0,0-2.9.08,15.66,15.66,0,0,0-2.46.73,26.59,26.59,0,0,0-2.69,1.21,1.09,1.09,0,0,1,.75.77,3.56,3.56,0,0,1-.7,2.18q-.28.5-1,1.92c-.17.4-.72,1.5-1.65,3.28A38.16,38.16,0,0,0,179.47,398.54Z"/><path class="cls-3" d="M202.45,398.66a1.34,1.34,0,0,1,1,.17,1,1,0,0,1,.39.56,3.48,3.48,0,0,1-.62,1.87,49.77,49.77,0,0,0-3.39,8.41,56.42,56.42,0,0,0-1.5,6.7c-.16,1-.62,1.58-1.37,1.73a1.37,1.37,0,0,1-1.16-.22,1.11,1.11,0,0,1-.53-.71c-.12-.55.21-2.56,1-6a37.93,37.93,0,0,1,3.68-9.36,17.08,17.08,0,0,1,1.39-2.35A1.91,1.91,0,0,1,202.45,398.66ZM206.64,387c1-.21,1.58.12,1.76,1a4,4,0,0,1-.93,2.89,4.07,4.07,0,0,1-2.41,1.93,1.45,1.45,0,0,1-1.11-.18,1.17,1.17,0,0,1-.59-.81,4.13,4.13,0,0,1,1.18-3.2A3.82,3.82,0,0,1,206.64,387Z"/><path class="cls-3" d="M213.42,395.09a43.52,43.52,0,0,0-2.69,7.12q-1.6,5.51-1.1,8a1.51,1.51,0,0,0,.57,1,1.42,1.42,0,0,0,1.12.14c1.11-.22,2.28-1.38,3.49-3.45a32.91,32.91,0,0,0,2-3.78c.3-.7.69-1.1,1.18-1.2a1.09,1.09,0,0,1,.78.1.67.67,0,0,1,.37.44c.15.69-.61,2.44-2.27,5.27-2,3.39-4,5.31-6.17,5.75a3.69,3.69,0,0,1-3.1-.72,3.61,3.61,0,0,1-1.19-2.23,17.81,17.81,0,0,1,.7-8.34c.22-.82.89-2.82,2-6a8.36,8.36,0,0,1-1.33.48,2.66,2.66,0,0,1-1.29,0,1.14,1.14,0,0,1-.93-.82c-.1-.46.14-.9.73-1.31a20.06,20.06,0,0,1,2.39-.88,19.33,19.33,0,0,0,2.22-1,51.65,51.65,0,0,1,2.81-5.55,28.4,28.4,0,0,1,1.58-2.59,2.41,2.41,0,0,1,1.25-1,1.34,1.34,0,0,1,.95.21,1,1,0,0,1,.55.64c.1.49-.32,1.57-1.27,3.26a26.31,26.31,0,0,0-1.36,2.64,28.11,28.11,0,0,1,5.12-1.94c1.22-.25,1.92,0,2.09.91a1,1,0,0,1-.43,1.07,6.43,6.43,0,0,1-1.68.64,39.77,39.77,0,0,0-4.8,2.1C214.94,394.32,214.17,394.7,213.42,395.09Z"/><path class="cls-3" d="M247.58,375.89a14.58,14.58,0,0,0-1.5,1.3,4.62,4.62,0,0,1-1.93,1.45,1.48,1.48,0,0,1-1-.17,1.12,1.12,0,0,1-.64-.76c-.14-.69.72-1.93,2.59-3.74a20.63,20.63,0,0,1,10.28-5.38,10.61,10.61,0,0,1,7.88,1,7.43,7.43,0,0,1,3.61,5q1.11,5.34-2.13,13.54a47.42,47.42,0,0,1-11.48,17q-5.72,5.47-10.8,6.53a4.27,4.27,0,0,1-3.24-.37,2.58,2.58,0,0,1-1.2-1.61q-.3-1.43.87-6.87a142.66,142.66,0,0,1,5-17.28Q244.36,384.14,247.58,375.89Zm2.86-1.93c.73.14,1.12.38,1.19.72a8.4,8.4,0,0,1-.79,2.54A174.69,174.69,0,0,0,244,397.29q-2.29,8.49-1.94,10.25c.16.74.66,1,1.5.85a13.6,13.6,0,0,0,5.33-3.11,42,42,0,0,0,8.24-10A43.68,43.68,0,0,0,262.67,383a18,18,0,0,0,.6-8.17,4.54,4.54,0,0,0-2.14-3.29,6.46,6.46,0,0,0-4.44-.31A19.6,19.6,0,0,0,250.44,374Z"/><path class="cls-3" d="M267.88,396.93l.1.51a1.69,1.69,0,0,0,.59,1,3.36,3.36,0,0,0,2.94.46q4.17-.86,8.52-7.34a2.71,2.71,0,0,1,1.44-1.26,1,1,0,0,1,.73.17.71.71,0,0,1,.29.38c.15.72-.67,2.17-2.44,4.34a24.84,24.84,0,0,1-4.64,4.42,13.27,13.27,0,0,1-5,2.37,5.38,5.38,0,0,1-4.22-.64,3.83,3.83,0,0,1-1.54-2.53q-1-4.71,3.39-10.31c2.35-3.05,4.6-4.79,6.73-5.23a2.92,2.92,0,0,1,1.66.12,1.82,1.82,0,0,1,1.18,1.35,6.66,6.66,0,0,1-.88,4Q274.29,393.84,267.88,396.93Zm.28-2.32a15,15,0,0,0,3.35-2.26,13.87,13.87,0,0,0,3-4.17,2.15,2.15,0,0,0,.25-1.3q-.12-.56-.75-.42a5.11,5.11,0,0,0-2.24,1.59A15,15,0,0,0,268.16,394.61Z"/><path class="cls-3" d="M290.4,382.42c.81-.67,1.42-1.15,1.82-1.42a7.29,7.29,0,0,1,2.55-1.11,3.1,3.1,0,0,1,2.35.25,2.92,2.92,0,0,1,1.17,2,9.79,9.79,0,0,1-.66,5,21.31,21.31,0,0,1-4.72,8.07,10.3,10.3,0,0,1-5.26,3.26,5.26,5.26,0,0,1-3.09-.34,159.44,159.44,0,0,0-4.9,17.43c-.24,1.38-.71,2.15-1.4,2.29a1.42,1.42,0,0,1-1.11-.35,1.27,1.27,0,0,1-.55-.79q-.32-1.5,2.37-10.69a191.76,191.76,0,0,1,8.49-23.86c.6-1.37,1-2.3,1.19-2.81.53-1.36,1.16-2.13,1.89-2.28a1,1,0,0,1,1.37.91,3.37,3.37,0,0,1-.44,1.89C291,380.94,290.66,381.78,290.4,382.42Zm-5.1,13.11a2.7,2.7,0,0,0,2,.26c2.06-.42,4-2.43,5.9-6a16.32,16.32,0,0,0,1.51-3.95,5.83,5.83,0,0,0,.23-2.28,1,1,0,0,0-.44-.69,1.36,1.36,0,0,0-.94-.07,6.8,6.8,0,0,0-3.45,2.6,20.36,20.36,0,0,0-3.14,5.79C286.12,393.39,285.58,394.84,285.3,395.53Z"/><path class="cls-3" d="M309.76,375.1q2.73-.57,3.31,2.22.76,3.71-2.15,10.23-3.19,7.08-7.35,7.95a3.13,3.13,0,0,1-3.14-.92,3.45,3.45,0,0,1-.85-1.72c-.49-2.37-.05-5.16,1.33-8.35a20.82,20.82,0,0,1,5.18-7.35A8.14,8.14,0,0,1,309.76,375.1Zm-1.28,11.24c-.63-.25-1-.48-1-.69s.24-.63.81-1.44q2.42-3.43,2.05-5.17a.75.75,0,0,0-.26-.41.92.92,0,0,0-.91-.24c-.72.15-1.64.94-2.78,2.37a18.94,18.94,0,0,0-3.11,5.44,9.61,9.61,0,0,0-.7,4.82,1.32,1.32,0,0,0,.47.78,1.45,1.45,0,0,0,1.21.27c1.06-.22,2.07-1.12,3-2.71a8.79,8.79,0,0,0,.94-2A5.49,5.49,0,0,0,308.48,386.34Z"/><path class="cls-3" d="M323.69,372.24a43.3,43.3,0,0,0-2.69,7.12q-1.61,5.5-1.1,8a1.56,1.56,0,0,0,.57,1,1.42,1.42,0,0,0,1.12.14q1.67-.34,3.49-3.45a35.62,35.62,0,0,0,2-3.79c.3-.7.69-1.1,1.18-1.2a1.09,1.09,0,0,1,.78.1.71.71,0,0,1,.37.45c.14.68-.61,2.44-2.27,5.26-2,3.39-4,5.31-6.17,5.75a3.65,3.65,0,0,1-3.11-.72,3.71,3.71,0,0,1-1.19-2.22,18,18,0,0,1,.71-8.34q.33-1.23,2-6a7,7,0,0,1-1.32.47,2.66,2.66,0,0,1-1.29,0,1.18,1.18,0,0,1-.94-.82c-.09-.47.15-.91.74-1.32a19.08,19.08,0,0,1,2.39-.87,20.15,20.15,0,0,0,2.22-1,49.82,49.82,0,0,1,2.81-5.55,29.05,29.05,0,0,1,1.58-2.6,2.34,2.34,0,0,1,1.25-1,1.34,1.34,0,0,1,.95.21,1,1,0,0,1,.55.64c.1.48-.32,1.57-1.27,3.26a23.47,23.47,0,0,0-1.36,2.63,27.6,27.6,0,0,1,5.12-1.93c1.22-.25,1.92.05,2.09.9a1,1,0,0,1-.43,1.08,6.43,6.43,0,0,1-1.68.64,40.28,40.28,0,0,0-4.81,2.1C325.21,371.47,324.44,371.85,323.69,372.24Z"/></svg>